<svg width="1420" height="2135" viewBox="0 0 1420 2135" fill="none" xmlns="http://www.w3.org/2000/svg">
<path d="M348.504 41.9534C350.27 41.8346 352.643 41.3853 353.518 40.5102C354.393 39.635 354.842 37.2624 354.961 35.4965C355.094 33.5193 354.974 30.5655 353.644 27.7232C353.427 27.2581 352.943 26.977 352.431 27.018C349.643 27.2414 346.995 28.3286 344.857 30.109L341.365 26.6189C343.439 24.8052 345.902 23.472 348.554 22.7363C349.209 22.5547 349.592 21.8766 349.411 21.2217C349.229 20.5668 348.551 20.1831 347.896 20.3648C344.835 21.2137 341.998 22.7639 339.621 24.8755L336.135 21.3902C338.152 19.5533 340.426 18.0609 342.909 16.9464C343.529 16.6681 343.806 15.9399 343.527 15.3198C343.249 14.6998 342.521 14.4228 341.901 14.7011C339.144 15.9386 336.624 17.6004 334.392 19.6486L330.909 16.1663C332.399 14.7818 334.011 13.5358 335.715 12.4541C336.289 12.09 336.459 11.3297 336.094 10.7557C335.73 10.1819 334.97 10.0121 334.396 10.3763C332.54 11.5547 330.786 12.914 329.167 14.4254L326.351 11.6101C327.463 10.129 328.065 8.33647 328.065 6.45121C328.065 4.15043 327.169 1.98731 325.542 0.360463C325.221 0.0395388 324.75 -0.0786748 324.316 0.0528285C323.881 0.184414 323.555 0.544223 323.466 0.989267C322.506 5.78631 318.787 9.50573 313.99 10.4652C313.545 10.5542 313.185 10.8809 313.053 11.3153C313.018 11.4327 313 11.5527 313 11.6718C313 11.9934 313.126 12.3078 313.361 12.542C314.988 14.1689 317.151 15.0648 319.451 15.0648C321.337 15.0648 323.129 14.4627 324.611 13.3503L327.427 16.1658C325.918 17.7826 324.56 19.5346 323.384 21.3885C323.254 21.593 323.192 21.8212 323.192 22.0467C323.192 22.454 323.394 22.8524 323.763 23.0868C324.337 23.451 325.097 23.2812 325.461 22.7073C326.542 21.0053 327.786 19.3952 329.169 17.9066L332.652 21.3889C330.606 23.6188 328.945 26.138 327.708 28.8932C327.635 29.0569 327.6 29.228 327.6 29.3964C327.6 29.8663 327.871 30.3149 328.327 30.5198C328.947 30.7981 329.675 30.5211 329.954 29.901C331.068 27.4193 332.559 25.147 334.394 23.1306L337.881 26.6158C335.77 28.9919 334.221 31.8286 333.372 34.8884C333.342 34.9984 333.327 35.109 333.327 35.218C333.327 35.7571 333.684 36.252 334.229 36.403C334.884 36.5847 335.562 36.2011 335.744 35.5462C336.479 32.8947 337.812 30.4329 339.625 28.3592L343.116 31.8492C341.336 33.9877 340.249 36.635 340.025 39.4237C340.023 39.4567 340.022 39.4896 340.022 39.5223C340.022 39.9967 340.296 40.433 340.731 40.6365C343.573 41.9659 346.527 42.0864 348.504 41.9534ZM347.427 36.1596C346.947 35.6791 346.947 34.9 347.427 34.4194C347.908 33.9389 348.687 33.9389 349.168 34.4194C349.648 34.9 349.648 35.6791 349.168 36.1596C348.687 36.6402 347.908 36.6402 347.427 36.1596Z" fill="#F3F3F3"/>
<path d="M471.504 2134.95C473.27 2134.83 475.643 2134.39 476.518 2133.51C477.393 2132.64 477.842 2130.26 477.961 2128.5C478.094 2126.52 477.974 2123.57 476.644 2120.72C476.427 2120.26 475.943 2119.98 475.431 2120.02C472.643 2120.24 469.995 2121.33 467.857 2123.11L464.365 2119.62C466.439 2117.81 468.902 2116.47 471.554 2115.74C472.209 2115.55 472.592 2114.88 472.411 2114.22C472.229 2113.57 471.551 2113.18 470.896 2113.36C467.835 2114.21 464.998 2115.76 462.621 2117.88L459.135 2114.39C461.152 2112.55 463.426 2111.06 465.909 2109.95C466.529 2109.67 466.806 2108.94 466.527 2108.32C466.249 2107.7 465.521 2107.42 464.901 2107.7C462.144 2108.94 459.624 2110.6 457.392 2112.65L453.909 2109.17C455.399 2107.78 457.011 2106.54 458.715 2105.45C459.289 2105.09 459.459 2104.33 459.094 2103.76C458.73 2103.18 457.97 2103.01 457.396 2103.38C455.54 2104.55 453.786 2105.91 452.167 2107.43L449.351 2104.61C450.463 2103.13 451.065 2101.34 451.065 2099.45C451.065 2097.15 450.169 2094.99 448.542 2093.36C448.221 2093.04 447.75 2092.92 447.316 2093.05C446.881 2093.18 446.555 2093.54 446.466 2093.99C445.506 2098.79 441.787 2102.51 436.99 2103.47C436.545 2103.55 436.185 2103.88 436.053 2104.32C436.018 2104.43 436 2104.55 436 2104.67C436 2104.99 436.126 2105.31 436.361 2105.54C437.988 2107.17 440.151 2108.06 442.451 2108.06C444.337 2108.06 446.129 2107.46 447.611 2106.35L450.427 2109.17C448.918 2110.78 447.56 2112.53 446.384 2114.39C446.254 2114.59 446.192 2114.82 446.192 2115.05C446.192 2115.45 446.394 2115.85 446.763 2116.09C447.337 2116.45 448.097 2116.28 448.461 2115.71C449.542 2114.01 450.786 2112.4 452.169 2110.91L455.652 2114.39C453.606 2116.62 451.945 2119.14 450.708 2121.89C450.635 2122.06 450.6 2122.23 450.6 2122.4C450.6 2122.87 450.871 2123.31 451.327 2123.52C451.947 2123.8 452.675 2123.52 452.954 2122.9C454.068 2120.42 455.559 2118.15 457.394 2116.13L460.881 2119.62C458.77 2121.99 457.221 2124.83 456.372 2127.89C456.342 2128 456.327 2128.11 456.327 2128.22C456.327 2128.76 456.684 2129.25 457.229 2129.4C457.884 2129.58 458.562 2129.2 458.744 2128.55C459.479 2125.89 460.812 2123.43 462.625 2121.36L466.116 2124.85C464.336 2126.99 463.249 2129.63 463.025 2132.42C463.023 2132.46 463.022 2132.49 463.022 2132.52C463.022 2133 463.296 2133.43 463.731 2133.64C466.573 2134.97 469.527 2135.09 471.504 2134.95ZM470.427 2129.16C469.947 2128.68 469.947 2127.9 470.427 2127.42C470.908 2126.94 471.687 2126.94 472.168 2127.42C472.648 2127.9 472.648 2128.68 472.168 2129.16C471.687 2129.64 470.908 2129.64 470.427 2129.16Z" fill="#F3F3F3"/>
<path d="M615.959 272.035C615.848 270.395 615.431 268.192 614.618 267.379C613.806 266.566 611.602 266.149 609.963 266.039C608.127 265.915 605.384 266.027 602.744 267.262C602.312 267.464 602.051 267.913 602.089 268.388C602.297 270.978 603.306 273.436 604.96 275.422L601.719 278.664C600.035 276.738 598.796 274.452 598.113 271.989C597.945 271.381 597.315 271.024 596.707 271.193C596.099 271.362 595.742 271.991 595.911 272.6C596.699 275.442 598.139 278.077 600.1 280.284L596.863 283.521C595.157 281.648 593.772 279.537 592.737 277.231C592.478 276.655 591.802 276.398 591.226 276.656C590.65 276.915 590.393 277.591 590.652 278.167C591.801 280.727 593.344 283.067 595.246 285.139L592.012 288.374C590.727 286.991 589.57 285.494 588.565 283.911C588.227 283.378 587.521 283.221 586.988 283.559C586.455 283.897 586.297 284.603 586.636 285.136C587.73 286.86 588.992 288.488 590.396 289.991L587.781 292.607C586.406 291.574 584.741 291.015 582.991 291.015C580.854 291.015 578.845 291.847 577.335 293.358C577.037 293.656 576.927 294.093 577.049 294.497C577.171 294.9 577.505 295.203 577.919 295.286C582.373 296.177 585.827 299.631 586.718 304.086C586.801 304.499 587.104 304.833 587.508 304.955C587.617 304.988 587.728 305.004 587.839 305.004C588.137 305.004 588.429 304.887 588.647 304.67C590.157 303.159 590.989 301.15 590.989 299.014C590.989 297.263 590.43 295.598 589.397 294.223L592.012 291.607C593.513 293.009 595.14 294.269 596.862 295.362C597.052 295.483 597.263 295.54 597.473 295.54C597.851 295.54 598.221 295.353 598.439 295.01C598.777 294.477 598.619 293.771 598.086 293.433C596.506 292.429 595.011 291.274 593.628 289.99L596.862 286.755C598.933 288.656 601.272 290.198 603.831 291.346C603.983 291.414 604.142 291.447 604.298 291.447C604.734 291.447 605.151 291.195 605.341 290.771C605.6 290.196 605.342 289.519 604.767 289.261C602.462 288.227 600.352 286.842 598.479 285.137L601.716 281.9C603.922 283.86 606.557 285.299 609.398 286.087C609.5 286.115 609.603 286.128 609.704 286.128C610.205 286.128 610.664 285.797 610.804 285.291C610.973 284.683 610.617 284.053 610.009 283.884C607.547 283.201 605.26 281.964 603.335 280.28L606.576 277.038C608.561 278.691 611.02 279.701 613.609 279.908C613.64 279.911 613.671 279.912 613.701 279.912C614.142 279.912 614.547 279.657 614.736 279.253C615.97 276.614 616.082 273.871 615.959 272.035ZM610.578 273.035C610.132 273.481 609.409 273.481 608.962 273.035C608.516 272.589 608.516 271.865 608.962 271.419C609.409 270.973 610.132 270.973 610.578 271.419C611.025 271.865 611.025 272.589 610.578 273.035Z" fill="#F3F3F3"/>
<path d="M572.959 936.035C572.848 934.395 572.431 932.192 571.618 931.379C570.806 930.566 568.602 930.149 566.963 930.039C565.127 929.915 562.384 930.027 559.744 931.262C559.312 931.464 559.051 931.913 559.089 932.388C559.297 934.978 560.306 937.436 561.96 939.422L558.719 942.664C557.035 940.738 555.796 938.452 555.113 935.989C554.945 935.381 554.315 935.024 553.707 935.193C553.099 935.362 552.742 935.991 552.911 936.6C553.699 939.442 555.139 942.077 557.1 944.284L553.863 947.521C552.157 945.648 550.772 943.537 549.737 941.231C549.478 940.655 548.802 940.398 548.226 940.656C547.65 940.915 547.393 941.591 547.652 942.167C548.801 944.727 550.344 947.067 552.246 949.139L549.012 952.374C547.727 950.991 546.57 949.494 545.565 947.911C545.227 947.378 544.521 947.221 543.988 947.559C543.455 947.897 543.297 948.603 543.636 949.136C544.73 950.86 545.992 952.488 547.396 953.991L544.781 956.607C543.406 955.574 541.741 955.015 539.991 955.015C537.854 955.015 535.845 955.847 534.335 957.358C534.037 957.656 533.927 958.093 534.049 958.497C534.171 958.9 534.505 959.203 534.919 959.286C539.373 960.177 542.827 963.631 543.718 968.086C543.801 968.499 544.104 968.833 544.508 968.955C544.617 968.988 544.728 969.004 544.839 969.004C545.137 969.004 545.429 968.887 545.647 968.67C547.157 967.159 547.989 965.15 547.989 963.014C547.989 961.263 547.43 959.598 546.397 958.223L549.012 955.607C550.513 957.009 552.14 958.269 553.862 959.362C554.052 959.483 554.263 959.54 554.473 959.54C554.851 959.54 555.221 959.353 555.439 959.01C555.777 958.477 555.619 957.771 555.086 957.433C553.506 956.429 552.011 955.274 550.628 953.99L553.862 950.755C555.933 952.656 558.272 954.198 560.831 955.346C560.983 955.414 561.142 955.447 561.298 955.447C561.734 955.447 562.151 955.195 562.341 954.771C562.6 954.196 562.342 953.519 561.767 953.261C559.462 952.227 557.352 950.842 555.479 949.137L558.716 945.9C560.922 947.86 563.557 949.299 566.398 950.087C566.5 950.115 566.603 950.128 566.704 950.128C567.205 950.128 567.664 949.797 567.804 949.291C567.973 948.683 567.617 948.053 567.009 947.884C564.547 947.201 562.26 945.964 560.335 944.28L563.576 941.038C565.561 942.691 568.02 943.701 570.609 943.908C570.64 943.911 570.671 943.912 570.701 943.912C571.142 943.912 571.547 943.657 571.736 943.253C572.97 940.614 573.082 937.871 572.959 936.035ZM567.578 937.035C567.132 937.481 566.409 937.481 565.962 937.035C565.516 936.589 565.516 935.865 565.962 935.419C566.409 934.973 567.132 934.973 567.578 935.419C568.025 935.865 568.025 936.589 567.578 937.035Z" fill="#F3F3F3"/>
<g opacity="0.09">
<path d="M762.959 685.035C762.848 683.395 762.431 681.192 761.618 680.379C760.806 679.566 758.602 679.149 756.963 679.039C755.127 678.915 752.384 679.027 749.744 680.262C749.312 680.464 749.051 680.913 749.089 681.388C749.297 683.978 750.306 686.436 751.96 688.422L748.719 691.664C747.035 689.738 745.796 687.452 745.113 684.989C744.945 684.381 744.315 684.024 743.707 684.193C743.099 684.362 742.742 684.991 742.911 685.6C743.699 688.442 745.139 691.077 747.1 693.284L743.863 696.521C742.157 694.648 740.772 692.537 739.737 690.231C739.478 689.655 738.802 689.398 738.226 689.656C737.65 689.915 737.393 690.591 737.652 691.167C738.801 693.727 740.344 696.067 742.246 698.139L739.012 701.374C737.727 699.991 736.57 698.494 735.565 696.911C735.227 696.378 734.521 696.221 733.988 696.559C733.455 696.897 733.297 697.603 733.636 698.136C734.73 699.86 735.992 701.488 737.396 702.991L734.781 705.607C733.406 704.574 731.741 704.015 729.991 704.015C727.854 704.015 725.845 704.847 724.335 706.358C724.037 706.656 723.927 707.093 724.049 707.497C724.171 707.9 724.505 708.203 724.919 708.286C729.373 709.177 732.827 712.631 733.718 717.086C733.801 717.499 734.104 717.833 734.508 717.955C734.617 717.988 734.728 718.004 734.839 718.004C735.137 718.004 735.429 717.887 735.647 717.67C737.157 716.159 737.989 714.15 737.989 712.014C737.989 710.263 737.43 708.598 736.397 707.223L739.012 704.607C740.513 706.009 742.14 707.269 743.862 708.362C744.052 708.483 744.263 708.54 744.473 708.54C744.851 708.54 745.221 708.353 745.439 708.01C745.777 707.477 745.619 706.771 745.086 706.433C743.506 705.429 742.011 704.274 740.628 702.99L743.862 699.755C745.933 701.656 748.272 703.198 750.831 704.346C750.983 704.414 751.142 704.447 751.298 704.447C751.734 704.447 752.151 704.195 752.341 703.771C752.6 703.196 752.342 702.519 751.767 702.261C749.462 701.227 747.352 699.842 745.479 698.137L748.716 694.9C750.922 696.86 753.557 698.299 756.398 699.087C756.5 699.115 756.603 699.128 756.704 699.128C757.205 699.128 757.664 698.797 757.804 698.291C757.973 697.683 757.617 697.053 757.009 696.884C754.547 696.201 752.26 694.964 750.335 693.28L753.576 690.038C755.561 691.691 758.02 692.701 760.609 692.908C760.64 692.911 760.671 692.912 760.701 692.912C761.142 692.912 761.547 692.657 761.736 692.253C762.97 689.614 763.082 686.871 762.959 685.035ZM757.578 686.035C757.132 686.481 756.409 686.481 755.962 686.035C755.516 685.589 755.516 684.865 755.962 684.419C756.409 683.973 757.132 683.973 757.578 684.419C758.025 684.865 758.025 685.589 757.578 686.035Z" fill="#78C0DE"/>
</g>
<g opacity="0.09">
<path d="M248.959 1262.03C248.848 1260.39 248.431 1258.19 247.618 1257.38C246.806 1256.57 244.602 1256.15 242.963 1256.04C241.127 1255.92 238.384 1256.03 235.744 1257.26C235.312 1257.46 235.051 1257.91 235.089 1258.39C235.297 1260.98 236.306 1263.44 237.96 1265.42L234.719 1268.66C233.035 1266.74 231.796 1264.45 231.113 1261.99C230.945 1261.38 230.315 1261.02 229.707 1261.19C229.099 1261.36 228.742 1261.99 228.911 1262.6C229.699 1265.44 231.139 1268.08 233.1 1270.28L229.863 1273.52C228.157 1271.65 226.772 1269.54 225.737 1267.23C225.478 1266.66 224.802 1266.4 224.226 1266.66C223.65 1266.91 223.393 1267.59 223.652 1268.17C224.801 1270.73 226.344 1273.07 228.246 1275.14L225.012 1278.37C223.727 1276.99 222.57 1275.49 221.565 1273.91C221.227 1273.38 220.521 1273.22 219.988 1273.56C219.455 1273.9 219.297 1274.6 219.636 1275.14C220.73 1276.86 221.992 1278.49 223.396 1279.99L220.781 1282.61C219.406 1281.57 217.741 1281.01 215.991 1281.01C213.854 1281.01 211.845 1281.85 210.335 1283.36C210.037 1283.66 209.927 1284.09 210.049 1284.5C210.171 1284.9 210.505 1285.2 210.919 1285.29C215.373 1286.18 218.827 1289.63 219.718 1294.09C219.801 1294.5 220.104 1294.83 220.508 1294.96C220.617 1294.99 220.728 1295 220.839 1295C221.137 1295 221.429 1294.89 221.647 1294.67C223.157 1293.16 223.989 1291.15 223.989 1289.01C223.989 1287.26 223.43 1285.6 222.397 1284.22L225.012 1281.61C226.513 1283.01 228.14 1284.27 229.862 1285.36C230.052 1285.48 230.263 1285.54 230.473 1285.54C230.851 1285.54 231.221 1285.35 231.439 1285.01C231.777 1284.48 231.619 1283.77 231.086 1283.43C229.506 1282.43 228.011 1281.27 226.628 1279.99L229.862 1276.76C231.933 1278.66 234.272 1280.2 236.831 1281.35C236.983 1281.41 237.142 1281.45 237.298 1281.45C237.734 1281.45 238.151 1281.2 238.341 1280.77C238.6 1280.2 238.342 1279.52 237.767 1279.26C235.462 1278.23 233.352 1276.84 231.479 1275.14L234.716 1271.9C236.922 1273.86 239.557 1275.3 242.398 1276.09C242.5 1276.11 242.603 1276.13 242.704 1276.13C243.205 1276.13 243.664 1275.8 243.804 1275.29C243.973 1274.68 243.617 1274.05 243.009 1273.88C240.547 1273.2 238.26 1271.96 236.335 1270.28L239.576 1267.04C241.561 1268.69 244.02 1269.7 246.609 1269.91C246.64 1269.91 246.671 1269.91 246.701 1269.91C247.142 1269.91 247.547 1269.66 247.736 1269.25C248.97 1266.61 249.082 1263.87 248.959 1262.03ZM243.578 1263.03C243.132 1263.48 242.409 1263.48 241.962 1263.03C241.516 1262.59 241.516 1261.87 241.962 1261.42C242.409 1260.97 243.132 1260.97 243.578 1261.42C244.025 1261.87 244.025 1262.59 243.578 1263.03Z" fill="#78C0DE"/>
</g>
<g opacity="0.09">
<path d="M1069.96 1461.03C1069.85 1459.39 1069.43 1457.19 1068.62 1456.38C1067.81 1455.57 1065.6 1455.15 1063.96 1455.04C1062.13 1454.92 1059.38 1455.03 1056.74 1456.26C1056.31 1456.46 1056.05 1456.91 1056.09 1457.39C1056.3 1459.98 1057.31 1462.44 1058.96 1464.42L1055.72 1467.66C1054.03 1465.74 1052.8 1463.45 1052.11 1460.99C1051.94 1460.38 1051.31 1460.02 1050.71 1460.19C1050.1 1460.36 1049.74 1460.99 1049.91 1461.6C1050.7 1464.44 1052.14 1467.08 1054.1 1469.28L1050.86 1472.52C1049.16 1470.65 1047.77 1468.54 1046.74 1466.23C1046.48 1465.66 1045.8 1465.4 1045.23 1465.66C1044.65 1465.91 1044.39 1466.59 1044.65 1467.17C1045.8 1469.73 1047.34 1472.07 1049.25 1474.14L1046.01 1477.37C1044.73 1475.99 1043.57 1474.49 1042.57 1472.91C1042.23 1472.38 1041.52 1472.22 1040.99 1472.56C1040.46 1472.9 1040.3 1473.6 1040.64 1474.14C1041.73 1475.86 1042.99 1477.49 1044.4 1478.99L1041.78 1481.61C1040.41 1480.57 1038.74 1480.01 1036.99 1480.01C1034.85 1480.01 1032.85 1480.85 1031.33 1482.36C1031.04 1482.66 1030.93 1483.09 1031.05 1483.5C1031.17 1483.9 1031.51 1484.2 1031.92 1484.29C1036.37 1485.18 1039.83 1488.63 1040.72 1493.09C1040.8 1493.5 1041.1 1493.83 1041.51 1493.96C1041.62 1493.99 1041.73 1494 1041.84 1494C1042.14 1494 1042.43 1493.89 1042.65 1493.67C1044.16 1492.16 1044.99 1490.15 1044.99 1488.01C1044.99 1486.26 1044.43 1484.6 1043.4 1483.22L1046.01 1480.61C1047.51 1482.01 1049.14 1483.27 1050.86 1484.36C1051.05 1484.48 1051.26 1484.54 1051.47 1484.54C1051.85 1484.54 1052.22 1484.35 1052.44 1484.01C1052.78 1483.48 1052.62 1482.77 1052.09 1482.43C1050.51 1481.43 1049.01 1480.27 1047.63 1478.99L1050.86 1475.76C1052.93 1477.66 1055.27 1479.2 1057.83 1480.35C1057.98 1480.41 1058.14 1480.45 1058.3 1480.45C1058.73 1480.45 1059.15 1480.2 1059.34 1479.77C1059.6 1479.2 1059.34 1478.52 1058.77 1478.26C1056.46 1477.23 1054.35 1475.84 1052.48 1474.14L1055.72 1470.9C1057.92 1472.86 1060.56 1474.3 1063.4 1475.09C1063.5 1475.11 1063.6 1475.13 1063.7 1475.13C1064.2 1475.13 1064.66 1474.8 1064.8 1474.29C1064.97 1473.68 1064.62 1473.05 1064.01 1472.88C1061.55 1472.2 1059.26 1470.96 1057.33 1469.28L1060.58 1466.04C1062.56 1467.69 1065.02 1468.7 1067.61 1468.91C1067.64 1468.91 1067.67 1468.91 1067.7 1468.91C1068.14 1468.91 1068.55 1468.66 1068.74 1468.25C1069.97 1465.61 1070.08 1462.87 1069.96 1461.03ZM1064.58 1462.03C1064.13 1462.48 1063.41 1462.48 1062.96 1462.03C1062.52 1461.59 1062.52 1460.87 1062.96 1460.42C1063.41 1459.97 1064.13 1459.97 1064.58 1460.42C1065.02 1460.87 1065.02 1461.59 1064.58 1462.03Z" fill="#78C0DE"/>
</g>
<path d="M69.9522 603.428C69.8164 601.409 69.3029 598.698 68.3026 597.697C67.3023 596.697 64.5904 596.183 62.5721 596.048C60.3122 595.896 56.936 596.034 53.6873 597.553C53.1557 597.802 52.8343 598.354 52.8812 598.939C53.1365 602.127 54.3792 605.153 56.4142 607.597L52.425 611.588C50.3521 609.217 48.8282 606.403 47.9873 603.371C47.7797 602.623 47.0046 602.184 46.2561 602.392C45.5076 602.599 45.069 603.375 45.2767 604.123C46.247 607.622 48.0189 610.865 50.4324 613.581L46.4488 617.566C44.3492 615.26 42.6434 612.662 41.3695 609.824C41.0514 609.115 40.2191 608.798 39.5104 609.116C38.8017 609.434 38.4851 610.267 38.8032 610.975C40.2176 614.126 42.117 617.007 44.4581 619.557L40.4779 623.539C38.8954 621.836 37.4713 619.994 36.2349 618.046C35.8187 617.39 34.9497 617.196 34.2936 617.612C33.6378 618.029 33.4437 618.898 33.86 619.553C35.2068 621.675 36.7605 623.68 38.4881 625.53L35.2702 628.749C33.5774 627.478 31.5285 626.79 29.3737 626.79C26.7439 626.79 24.2715 627.814 22.412 629.673C22.0452 630.04 21.9101 630.579 22.0604 631.075C22.2108 631.572 22.622 631.945 23.1307 632.047C28.6137 633.143 32.8649 637.395 33.9616 642.878C34.0633 643.386 34.4367 643.798 34.9332 643.948C35.0674 643.989 35.2046 644.009 35.3407 644.009C35.7083 644.009 36.0677 643.864 36.3353 643.597C38.1949 641.737 39.2189 639.265 39.2189 636.635C39.2189 634.48 38.5307 632.431 37.2592 630.738L40.4773 627.519C42.3253 629.244 44.3278 630.795 46.4468 632.14C46.6805 632.289 46.9413 632.36 47.1991 632.36C47.6646 632.36 48.12 632.129 48.388 631.707C48.8042 631.051 48.6101 630.182 47.9542 629.766C46.0087 628.531 44.1685 627.109 42.467 625.528L46.4473 621.547C48.996 623.886 51.8754 625.784 55.0246 627.197C55.2117 627.281 55.4073 627.321 55.5998 627.321C56.1369 627.321 56.6496 627.012 56.8837 626.49C57.2019 625.781 56.8852 624.949 56.1765 624.631C53.3399 623.358 50.7427 621.653 48.4379 619.555L52.4215 615.57C55.1374 617.983 58.3797 619.754 61.877 620.724C62.0028 620.759 62.1292 620.775 62.2538 620.775C62.8699 620.775 63.4356 620.367 63.6082 619.744C63.8158 618.996 63.3774 618.221 62.6288 618.013C59.5982 617.172 56.7844 615.649 54.4142 613.577L58.4033 609.586C60.8475 611.621 63.8733 612.864 67.0608 613.119C67.0985 613.122 67.1361 613.124 67.1735 613.124C67.7157 613.124 68.2145 612.81 68.447 612.313C69.9665 609.064 70.1042 605.688 69.9522 603.428ZM63.33 604.659C62.7807 605.208 61.8902 605.208 61.341 604.659C60.7917 604.11 60.7917 603.219 61.341 602.67C61.8902 602.121 62.7807 602.121 63.33 602.67C63.8793 603.219 63.8793 604.11 63.33 604.659Z" fill="#F3F3F3"/>
<path d="M1193.95 516.892C1193.8 514.747 1193.26 511.866 1192.2 510.803C1191.13 509.74 1188.25 509.195 1186.11 509.051C1183.71 508.889 1180.12 509.036 1176.67 510.65C1176.1 510.914 1175.76 511.501 1175.81 512.123C1176.08 515.51 1177.4 518.725 1179.57 521.322L1175.33 525.562C1173.12 523.043 1171.5 520.053 1170.61 516.832C1170.39 516.037 1169.57 515.571 1168.77 515.791C1167.98 516.012 1167.51 516.835 1167.73 517.631C1168.76 521.348 1170.65 524.794 1173.21 527.68L1168.98 531.914C1166.75 529.464 1164.93 526.703 1163.58 523.688C1163.24 522.935 1162.36 522.598 1161.6 522.936C1160.85 523.274 1160.52 524.158 1160.85 524.911C1162.36 528.259 1164.37 531.32 1166.86 534.03L1162.63 538.26C1160.95 536.451 1159.44 534.493 1158.12 532.424C1157.68 531.727 1156.76 531.521 1156.06 531.963C1155.37 532.405 1155.16 533.329 1155.6 534.026C1157.03 536.28 1158.68 538.41 1160.52 540.375L1157.1 543.796C1155.3 542.445 1153.12 541.714 1150.83 541.714C1148.04 541.714 1145.41 542.802 1143.44 544.778C1143.05 545.167 1142.9 545.74 1143.06 546.267C1143.22 546.795 1143.66 547.192 1144.2 547.3C1150.03 548.465 1154.54 552.982 1155.71 558.808C1155.82 559.348 1156.21 559.785 1156.74 559.945C1156.88 559.988 1157.03 560.009 1157.17 560.009C1157.57 560.009 1157.95 559.856 1158.23 559.571C1160.21 557.595 1161.3 554.969 1161.3 552.175C1161.3 549.885 1160.56 547.708 1159.21 545.909L1162.63 542.489C1164.6 544.322 1166.72 545.97 1168.97 547.399C1169.22 547.557 1169.5 547.632 1169.77 547.632C1170.27 547.632 1170.75 547.387 1171.04 546.939C1171.48 546.242 1171.27 545.318 1170.58 544.876C1168.51 543.564 1166.55 542.053 1164.75 540.374L1168.98 536.143C1171.68 538.628 1174.74 540.645 1178.09 542.147C1178.29 542.236 1178.5 542.278 1178.7 542.278C1179.27 542.278 1179.82 541.95 1180.06 541.396C1180.4 540.643 1180.07 539.758 1179.31 539.42C1176.3 538.067 1173.54 536.256 1171.09 534.027L1175.32 529.793C1178.21 532.357 1181.65 534.238 1185.37 535.269C1185.5 535.306 1185.64 535.324 1185.77 535.324C1186.42 535.324 1187.03 534.89 1187.21 534.228C1187.43 533.433 1186.96 532.609 1186.17 532.389C1182.95 531.496 1179.96 529.877 1177.44 527.675L1181.68 523.436C1184.28 525.598 1187.49 526.918 1190.88 527.189C1190.92 527.192 1190.96 527.194 1191 527.194C1191.57 527.194 1192.1 526.861 1192.35 526.333C1193.96 522.88 1194.11 519.293 1193.95 516.892ZM1186.91 518.2C1186.33 518.784 1185.38 518.784 1184.8 518.2C1184.22 517.616 1184.22 516.67 1184.8 516.087C1185.38 515.503 1186.33 515.503 1186.91 516.087C1187.5 516.67 1187.5 517.617 1186.91 518.2Z" fill="#F3F3F3"/>
<path d="M1086.95 1031.89C1086.8 1029.75 1086.26 1026.87 1085.2 1025.8C1084.13 1024.74 1081.25 1024.19 1079.11 1024.05C1076.71 1023.89 1073.12 1024.04 1069.67 1025.65C1069.1 1025.91 1068.76 1026.5 1068.81 1027.12C1069.08 1030.51 1070.4 1033.72 1072.57 1036.32L1068.33 1040.56C1066.12 1038.04 1064.5 1035.05 1063.61 1031.83C1063.39 1031.04 1062.57 1030.57 1061.77 1030.79C1060.98 1031.01 1060.51 1031.84 1060.73 1032.63C1061.76 1036.35 1063.65 1039.79 1066.21 1042.68L1061.98 1046.91C1059.75 1044.46 1057.93 1041.7 1056.58 1038.69C1056.24 1037.93 1055.36 1037.6 1054.6 1037.94C1053.85 1038.27 1053.52 1039.16 1053.85 1039.91C1055.36 1043.26 1057.37 1046.32 1059.86 1049.03L1055.63 1053.26C1053.95 1051.45 1052.44 1049.49 1051.12 1047.42C1050.68 1046.73 1049.76 1046.52 1049.06 1046.96C1048.37 1047.41 1048.16 1048.33 1048.6 1049.03C1050.03 1051.28 1051.68 1053.41 1053.52 1055.38L1050.1 1058.8C1048.3 1057.44 1046.12 1056.71 1043.83 1056.71C1041.04 1056.71 1038.41 1057.8 1036.44 1059.78C1036.05 1060.17 1035.9 1060.74 1036.06 1061.27C1036.22 1061.79 1036.66 1062.19 1037.2 1062.3C1043.03 1063.46 1047.54 1067.98 1048.71 1073.81C1048.82 1074.35 1049.21 1074.79 1049.74 1074.94C1049.88 1074.99 1050.03 1075.01 1050.17 1075.01C1050.57 1075.01 1050.95 1074.86 1051.23 1074.57C1053.21 1072.6 1054.3 1069.97 1054.3 1067.17C1054.3 1064.88 1053.56 1062.71 1052.21 1060.91L1055.63 1057.49C1057.6 1059.32 1059.72 1060.97 1061.97 1062.4C1062.22 1062.56 1062.5 1062.63 1062.77 1062.63C1063.27 1062.63 1063.75 1062.39 1064.04 1061.94C1064.48 1061.24 1064.27 1060.32 1063.58 1059.88C1061.51 1058.56 1059.55 1057.05 1057.75 1055.37L1061.98 1051.14C1064.68 1053.63 1067.74 1055.65 1071.09 1057.15C1071.29 1057.24 1071.5 1057.28 1071.7 1057.28C1072.27 1057.28 1072.82 1056.95 1073.06 1056.4C1073.4 1055.64 1073.07 1054.76 1072.31 1054.42C1069.3 1053.07 1066.54 1051.26 1064.09 1049.03L1068.32 1044.79C1071.21 1047.36 1074.65 1049.24 1078.37 1050.27C1078.5 1050.31 1078.64 1050.32 1078.77 1050.32C1079.42 1050.32 1080.03 1049.89 1080.21 1049.23C1080.43 1048.43 1079.96 1047.61 1079.17 1047.39C1075.95 1046.5 1072.96 1044.88 1070.44 1042.68L1074.68 1038.44C1077.28 1040.6 1080.49 1041.92 1083.88 1042.19C1083.92 1042.19 1083.96 1042.19 1084 1042.19C1084.57 1042.19 1085.1 1041.86 1085.35 1041.33C1086.96 1037.88 1087.11 1034.29 1086.95 1031.89ZM1079.91 1033.2C1079.33 1033.78 1078.38 1033.78 1077.8 1033.2C1077.22 1032.62 1077.22 1031.67 1077.8 1031.09C1078.38 1030.5 1079.33 1030.5 1079.91 1031.09C1080.5 1031.67 1080.5 1032.62 1079.91 1033.2Z" fill="#F3F3F3"/>
<g opacity="0.09">
<path d="M1242.11 29.2477C1240.52 30.3144 1238.54 32.0191 1238.2 33.3127C1237.85 34.6062 1238.71 37.0726 1239.56 38.7916C1240.5 40.7163 1242.21 43.4191 1245 45.3632C1245.45 45.6814 1246.06 45.6833 1246.51 45.3679C1249.01 43.6498 1250.9 41.1987 1251.94 38.3734L1257.1 39.755C1256.14 42.5765 1254.55 45.1582 1252.46 47.2824C1251.95 47.8069 1251.96 48.65 1252.48 49.1653C1253 49.6808 1253.85 49.6734 1254.36 49.1488C1256.77 46.6974 1258.59 43.7096 1259.68 40.445L1264.83 41.8248C1263.93 44.6376 1262.61 47.2661 1260.89 49.6539C1260.46 50.2501 1260.59 51.0824 1261.19 51.5128C1261.78 51.9433 1262.61 51.8089 1263.04 51.2126C1264.96 48.5616 1266.42 45.6406 1267.4 42.5142L1272.55 43.8927C1271.91 45.9962 1271.07 48.0358 1270.06 49.9716C1269.72 50.6231 1269.97 51.4275 1270.62 51.7684C1271.27 52.109 1272.08 51.8567 1272.42 51.205C1273.52 49.0965 1274.43 46.8738 1275.13 44.5818L1279.29 45.6963C1279.05 47.6859 1279.45 49.6914 1280.47 51.458C1281.72 53.614 1283.73 55.1563 1286.13 55.8006C1286.61 55.9277 1287.11 55.7834 1287.45 55.4252C1287.78 55.0669 1287.9 54.553 1287.74 54.0878C1286.04 49.0735 1287.52 43.5758 1291.49 40.0813C1291.86 39.7572 1292.02 39.2563 1291.91 38.7781C1291.88 38.6489 1291.83 38.5271 1291.77 38.4154C1291.59 38.1141 1291.3 37.8877 1290.96 37.7951C1288.55 37.1508 1286.04 37.4814 1283.88 38.7262C1282.12 39.7462 1280.76 41.2802 1279.98 43.1241L1275.82 42.0095C1276.35 39.6778 1276.68 37.3017 1276.78 34.9277C1276.79 34.6659 1276.72 34.4185 1276.6 34.2072C1276.38 33.8255 1275.98 33.5615 1275.5 33.5416C1274.77 33.5107 1274.15 34.0813 1274.12 34.816C1274.03 36.9956 1273.73 39.1774 1273.24 41.3204L1268.09 39.9419C1268.8 36.7451 1269 33.4861 1268.67 30.2351C1268.65 30.0419 1268.59 29.8628 1268.5 29.705C1268.24 29.2646 1267.74 28.9907 1267.21 29.0457C1266.47 29.1203 1265.94 29.7739 1266.02 30.5054C1266.32 33.4337 1266.15 36.3698 1265.52 39.2524L1260.37 37.8728C1261.06 34.5043 1260.98 31.0077 1260.11 27.6813C1260.08 27.5617 1260.04 27.4502 1259.98 27.3481C1259.69 26.8429 1259.08 26.5724 1258.49 26.7256C1257.78 26.9097 1257.35 27.6361 1257.54 28.348C1258.28 31.2305 1258.37 34.2585 1257.79 37.1826L1252.63 35.801C1253.14 32.8339 1252.73 29.7651 1251.43 27.031C1251.41 26.9987 1251.39 26.9671 1251.38 26.9365C1251.12 26.4919 1250.63 26.2313 1250.11 26.2761C1246.73 26.5682 1243.89 28.0533 1242.11 29.2477ZM1246.26 34.0942C1246.97 34.2846 1247.39 35.0146 1247.2 35.725C1247.01 36.4353 1246.28 36.8568 1245.57 36.6665C1244.86 36.4761 1244.44 35.7461 1244.63 35.0357C1244.82 34.3254 1245.55 33.9038 1246.26 34.0942Z" fill="#FFBD54"/>
</g>
<path opacity="0.09" d="M634.852 27.1109L628.963 21.2985C628.56 20.9005 627.906 20.9005 627.503 21.2985C627.1 21.6964 627.1 22.3417 627.503 22.7396L633.391 28.552C635.451 30.5849 635.451 33.8927 633.391 35.9257C632.404 36.9008 631.074 37.4254 629.653 37.4062C628.231 37.3857 626.892 36.8267 625.885 35.8322L618.157 28.2041C615.292 25.3764 610.637 25.37 607.781 28.1897C604.916 31.0173 604.916 35.6181 607.781 38.4457L610.552 41.1807C608.388 40.4394 606.09 40.0523 603.732 40.0523C598.192 40.0523 592.983 42.1819 589.065 46.049C580.978 54.0318 580.978 67.0206 589.065 75.0034C592.983 78.8703 598.192 81 603.732 81C609.272 81 614.481 78.8703 618.399 75.0034C622.316 71.1364 624.474 65.995 624.474 60.5261C624.474 55.0573 622.316 49.9159 618.399 46.0489C618.307 45.958 618.213 45.8689 618.12 45.78L609.241 37.0043C607.181 34.9714 607.181 31.6637 609.241 29.6307C611.292 27.6058 614.637 27.6122 616.696 29.6451L624.424 37.2732C625.814 38.6449 627.66 39.4158 629.623 39.444C631.606 39.471 633.465 38.7349 634.851 37.3668C637.716 34.5394 637.716 29.9385 634.852 27.1109ZM613.921 45.07C611.425 45.2791 608.995 45.8026 606.679 46.6241C606.63 46.5996 606.58 46.5777 606.526 46.5606C602.02 45.1289 597.3 44.8253 592.697 45.6489C595.879 43.3389 599.708 42.0905 603.732 42.0905C607.406 42.0907 610.916 43.1316 613.921 45.07ZM592.832 57.133C590.282 57.0546 587.738 57.3133 585.252 57.9056C585.409 56.8187 585.665 55.7435 586.018 54.6931C586.036 54.6879 586.055 54.6831 586.073 54.6768C589.699 53.4251 592.894 52.9469 596.203 53.1763C596.177 53.2018 596.15 53.2265 596.124 53.2522C594.9 54.4605 593.801 55.7597 592.832 57.133ZM598.259 51.3435C598.256 51.3432 598.254 51.3424 598.251 51.3421C594.478 50.8076 590.963 51.077 587.058 52.2207C587.74 50.8832 588.598 49.6113 589.631 48.4387C594.034 47.175 599.09 46.9407 603.635 47.9073C601.732 48.8428 599.929 49.9919 598.259 51.3435ZM585.07 60.0559C587.186 59.4946 589.351 59.1949 591.528 59.1608C589.543 62.5597 588.301 66.3342 587.885 70.2866C585.918 67.1747 584.979 63.6047 585.07 60.0559ZM589.799 72.8021C589.917 65.9601 592.67 59.5448 597.584 54.6935C602.536 49.8055 609.428 47.0839 616.428 47.0068C616.601 47.1648 616.771 47.3252 616.939 47.4903C617.65 48.1925 618.296 48.9419 618.875 49.7304C604.977 50.7974 593.857 61.6279 592.589 75.3253C591.866 74.7921 591.176 74.2039 590.526 73.5622C590.274 73.3142 590.033 73.0604 589.799 72.8021ZM621.464 54.7072C615.215 55.5125 609.696 58.0345 605.448 62.0393C601.021 66.2126 598.319 71.6997 597.601 77.9488C596.551 77.5898 595.537 77.1391 594.567 76.5987C595.257 63.0151 606.362 52.1991 620.138 51.7001C620.671 52.6622 621.115 53.6677 621.464 54.7072ZM620.937 67.7228C619.365 64.3183 617.115 61.2455 614.342 58.7092C615.721 58.1244 617.174 57.6465 618.691 57.2845C620.121 59.0818 621.304 61.0603 622.218 63.1737C621.99 64.749 621.558 66.2753 620.937 67.7228ZM622.339 58.9289C621.904 58.2128 621.438 57.5161 620.94 56.8411C621.292 56.7859 621.648 56.7374 622.006 56.6943C622.162 57.4276 622.274 58.1735 622.339 58.9289ZM611.649 67.7721C613.446 69.7256 614.939 71.9445 616.073 74.363C613.083 76.9683 609.383 78.5377 605.423 78.8864C606.002 74.2672 608.276 70.1995 611.649 67.7721ZM603.338 78.957C602.072 78.9314 600.826 78.7826 599.616 78.5152C600.224 72.6055 602.807 67.4664 606.803 63.64C608.009 64.4402 609.14 65.3319 610.187 66.3049C606.414 69.1381 603.907 73.7632 603.338 78.957ZM617.627 72.8458C615.5 68.6035 612.333 64.965 608.394 62.2457C609.606 61.2741 610.922 60.4099 612.33 59.665C615.604 62.4768 618.151 66.0741 619.704 70.094C619.105 71.0648 618.411 71.986 617.627 72.8458Z" fill="#78C0DE"/>
<path opacity="0.09" d="M192.647 1481.87L188.94 1478.19C188.686 1477.94 188.274 1477.94 188.02 1478.19C187.766 1478.44 187.766 1478.85 188.02 1479.1L191.728 1482.78C193.025 1484.07 193.025 1486.17 191.728 1487.45C191.106 1488.07 190.269 1488.4 189.374 1488.39C188.479 1488.38 187.636 1488.02 187.001 1487.39L182.136 1482.56C180.332 1480.77 177.401 1480.77 175.603 1482.55C173.799 1484.34 173.799 1487.26 175.603 1489.05L177.347 1490.78C175.985 1490.31 174.538 1490.07 173.054 1490.07C169.565 1490.07 166.286 1491.42 163.819 1493.86C158.727 1498.92 158.727 1507.15 163.819 1512.2C166.286 1514.65 169.565 1516 173.054 1516C176.542 1516 179.822 1514.65 182.288 1512.2C184.755 1509.75 186.113 1506.5 186.113 1503.03C186.113 1499.57 184.755 1496.31 182.288 1493.86C182.23 1493.81 182.171 1493.75 182.112 1493.69L176.522 1488.14C175.225 1486.85 175.225 1484.75 176.522 1483.47C177.814 1482.18 179.919 1482.19 181.216 1483.48L186.082 1488.31C186.957 1489.18 188.119 1489.66 189.355 1489.68C190.604 1489.7 191.775 1489.23 192.647 1488.37C194.451 1486.57 194.451 1483.66 192.647 1481.87ZM179.469 1493.24C177.897 1493.38 176.367 1493.71 174.909 1494.23C174.878 1494.21 174.846 1494.2 174.813 1494.19C171.975 1493.28 169.004 1493.09 166.105 1493.61C168.109 1492.15 170.52 1491.36 173.054 1491.36C175.367 1491.36 177.577 1492.02 179.469 1493.24ZM166.191 1500.88C164.585 1500.83 162.983 1501 161.418 1501.37C161.517 1500.69 161.678 1500 161.9 1499.34C161.912 1499.34 161.923 1499.33 161.935 1499.33C164.218 1498.54 166.229 1498.23 168.313 1498.38C168.296 1498.39 168.28 1498.41 168.263 1498.43C167.493 1499.19 166.801 1500.01 166.191 1500.88ZM169.607 1497.22C169.606 1497.22 169.604 1497.22 169.603 1497.22C167.227 1496.88 165.014 1497.05 162.555 1497.77C162.985 1496.93 163.525 1496.12 164.175 1495.38C166.947 1494.58 170.131 1494.43 172.992 1495.04C171.794 1495.63 170.659 1496.36 169.607 1497.22ZM161.304 1502.74C162.636 1502.38 163.999 1502.19 165.37 1502.17C164.12 1504.32 163.337 1506.71 163.076 1509.21C161.837 1507.24 161.246 1504.98 161.304 1502.74ZM164.281 1510.81C164.355 1506.47 166.088 1502.41 169.183 1499.34C172.301 1496.24 176.64 1494.52 181.047 1494.47C181.156 1494.57 181.263 1494.67 181.369 1494.78C181.817 1495.22 182.223 1495.7 182.588 1496.2C173.837 1496.87 166.836 1503.73 166.038 1512.41C165.582 1512.07 165.148 1511.7 164.738 1511.29C164.58 1511.13 164.428 1510.97 164.281 1510.81ZM184.218 1499.35C180.284 1499.86 176.809 1501.46 174.134 1503.99C171.346 1506.63 169.645 1510.11 169.193 1514.07C168.532 1513.84 167.893 1513.55 167.283 1513.21C167.717 1504.61 174.71 1497.76 183.383 1497.44C183.719 1498.05 183.998 1498.69 184.218 1499.35ZM183.886 1507.59C182.897 1505.43 181.48 1503.49 179.734 1501.88C180.602 1501.51 181.517 1501.21 182.472 1500.98C183.372 1502.12 184.118 1503.37 184.693 1504.71C184.549 1505.71 184.278 1506.67 183.886 1507.59ZM184.769 1502.02C184.495 1501.57 184.201 1501.13 183.888 1500.7C184.11 1500.66 184.334 1500.63 184.559 1500.61C184.658 1501.07 184.728 1501.54 184.769 1502.02ZM178.038 1507.62C179.17 1508.86 180.11 1510.26 180.824 1511.8C178.941 1513.45 176.611 1514.44 174.118 1514.66C174.483 1511.74 175.914 1509.16 178.038 1507.62ZM172.805 1514.71C172.008 1514.69 171.224 1514.6 170.462 1514.43C170.845 1510.68 172.471 1507.43 174.987 1505.01C175.746 1505.51 176.458 1506.08 177.118 1506.69C174.742 1508.49 173.164 1511.42 172.805 1514.71ZM181.802 1510.84C180.463 1508.15 178.469 1505.84 175.989 1504.12C176.752 1503.51 177.58 1502.96 178.467 1502.49C180.528 1504.27 182.132 1506.55 183.11 1509.09C182.733 1509.71 182.296 1510.29 181.802 1510.84Z" fill="#78C0DE"/>
<path d="M1417.97 156.907L1412.41 151.289C1412.03 150.904 1411.41 150.904 1411.03 151.289C1410.65 151.673 1410.65 152.297 1411.03 152.682L1416.59 158.3C1418.54 160.265 1418.54 163.463 1416.59 165.428C1415.66 166.371 1414.4 166.878 1413.06 166.859C1411.72 166.84 1410.45 166.299 1409.5 165.338L1402.2 157.964C1399.5 155.23 1395.1 155.224 1392.4 157.95C1389.7 160.683 1389.7 165.131 1392.4 167.864L1395.02 170.508C1392.98 169.791 1390.81 169.417 1388.58 169.417C1383.35 169.417 1378.43 171.476 1374.73 175.214C1367.09 182.931 1367.09 195.487 1374.73 203.203C1378.43 206.941 1383.35 209 1388.58 209C1393.81 209 1398.73 206.941 1402.43 203.203C1406.13 199.465 1408.17 194.495 1408.17 189.209C1408.17 183.922 1406.13 178.952 1402.43 175.214C1402.35 175.126 1402.26 175.04 1402.17 174.954L1393.78 166.471C1391.84 164.506 1391.84 161.308 1393.78 159.343C1395.72 157.386 1398.88 157.392 1400.82 159.357L1408.12 166.731C1409.44 168.057 1411.18 168.802 1413.03 168.829C1414.91 168.855 1416.66 168.144 1417.97 166.821C1420.68 164.088 1420.68 159.641 1417.97 156.907ZM1398.2 174.268C1395.85 174.47 1393.55 174.976 1391.36 175.77C1391.32 175.746 1391.27 175.725 1391.22 175.709C1386.96 174.325 1382.51 174.031 1378.16 174.827C1381.16 172.594 1384.78 171.388 1388.58 171.388C1392.05 171.388 1395.37 172.394 1398.2 174.268ZM1378.29 185.929C1375.88 185.853 1373.48 186.103 1371.13 186.675C1371.28 185.625 1371.52 184.585 1371.85 183.57C1371.87 183.565 1371.88 183.56 1371.9 183.554C1375.33 182.344 1378.34 181.882 1381.47 182.104C1381.44 182.128 1381.42 182.152 1381.39 182.177C1380.24 183.345 1379.2 184.601 1378.29 185.929ZM1383.41 180.332C1383.41 180.332 1383.41 180.331 1383.4 180.331C1379.84 179.814 1376.52 180.074 1372.83 181.18C1373.48 179.887 1374.29 178.658 1375.26 177.524C1379.42 176.302 1384.2 176.076 1388.49 177.01C1386.69 177.915 1384.99 179.026 1383.41 180.332ZM1370.96 188.754C1372.95 188.211 1375 187.922 1377.05 187.889C1375.18 191.174 1374.01 194.823 1373.61 198.644C1371.76 195.636 1370.87 192.185 1370.96 188.754ZM1375.42 201.075C1375.53 194.461 1378.13 188.26 1382.77 183.57C1387.45 178.845 1393.96 176.214 1400.57 176.14C1400.73 176.293 1400.9 176.448 1401.05 176.607C1401.72 177.286 1402.33 178.011 1402.88 178.773C1389.76 179.804 1379.25 190.274 1378.06 203.514C1377.37 202.999 1376.72 202.43 1376.11 201.81C1375.87 201.57 1375.64 201.325 1375.42 201.075ZM1405.33 183.584C1399.43 184.362 1394.21 186.8 1390.2 190.671C1386.02 194.706 1383.47 200.01 1382.79 206.051C1381.8 205.703 1380.84 205.268 1379.92 204.745C1380.58 191.615 1391.06 181.159 1404.07 180.677C1404.58 181.607 1405 182.579 1405.33 183.584ZM1404.83 196.165C1403.34 192.874 1401.22 189.904 1398.6 187.452C1399.9 186.887 1401.28 186.425 1402.71 186.075C1404.06 187.812 1405.18 189.725 1406.04 191.768C1405.82 193.291 1405.42 194.766 1404.83 196.165ZM1406.15 187.665C1405.74 186.972 1405.3 186.299 1404.83 185.646C1405.16 185.593 1405.5 185.546 1405.84 185.504C1405.99 186.213 1406.09 186.934 1406.15 187.665ZM1396.06 196.213C1397.75 198.101 1399.16 200.246 1400.24 202.584C1397.41 205.103 1393.92 206.62 1390.18 206.957C1390.72 202.492 1392.87 198.559 1396.06 196.213ZM1388.21 207.025C1387.01 207 1385.84 206.856 1384.69 206.598C1385.27 200.885 1387.71 195.917 1391.48 192.219C1392.62 192.992 1393.69 193.854 1394.68 194.795C1391.11 197.534 1388.75 202.004 1388.21 207.025ZM1401.7 201.118C1399.69 197.017 1396.7 193.5 1392.98 190.871C1394.13 189.932 1395.37 189.096 1396.7 188.376C1399.79 191.094 1402.2 194.572 1403.66 198.457C1403.1 199.396 1402.44 200.286 1401.7 201.118Z" fill="#F3F3F3"/>
<path d="M161.971 2041.91L156.41 2036.29C156.029 2035.9 155.411 2035.9 155.03 2036.29C154.65 2036.67 154.65 2037.3 155.03 2037.68L160.592 2043.3C162.537 2045.27 162.537 2048.46 160.592 2050.43C159.659 2051.37 158.403 2051.88 157.061 2051.86C155.718 2051.84 154.454 2051.3 153.502 2050.34L146.203 2042.96C143.498 2040.23 139.102 2040.22 136.404 2042.95C133.699 2045.68 133.699 2050.13 136.404 2052.86L139.021 2055.51C136.977 2054.79 134.807 2054.42 132.58 2054.42C127.348 2054.42 122.428 2056.48 118.728 2060.21C111.091 2067.93 111.091 2080.49 118.728 2088.2C122.428 2091.94 127.348 2094 132.58 2094C137.813 2094 142.732 2091.94 146.432 2088.2C150.132 2084.47 152.17 2079.5 152.17 2074.21C152.17 2068.92 150.132 2063.95 146.432 2060.21C146.345 2060.13 146.257 2060.04 146.169 2059.95L137.783 2051.47C135.838 2049.51 135.838 2046.31 137.783 2044.34C139.721 2042.39 142.879 2042.39 144.824 2044.36L152.123 2051.73C153.435 2053.06 155.179 2053.8 157.033 2053.83C158.905 2053.86 160.662 2053.14 161.971 2051.82C164.676 2049.09 164.676 2044.64 161.971 2041.91ZM142.203 2059.27C139.846 2059.47 137.551 2059.98 135.363 2060.77C135.317 2060.75 135.27 2060.73 135.219 2060.71C130.963 2059.32 126.506 2059.03 122.158 2059.83C125.163 2057.59 128.78 2056.39 132.58 2056.39C136.05 2056.39 139.366 2057.39 142.203 2059.27ZM122.286 2070.93C119.878 2070.85 117.475 2071.1 115.127 2071.68C115.275 2070.62 115.517 2069.59 115.85 2068.57C115.868 2068.56 115.885 2068.56 115.902 2068.55C119.327 2067.34 122.344 2066.88 125.469 2067.1C125.445 2067.13 125.419 2067.15 125.395 2067.18C124.239 2068.35 123.201 2069.6 122.286 2070.93ZM127.411 2065.33C127.408 2065.33 127.406 2065.33 127.404 2065.33C123.84 2064.81 120.521 2065.07 116.832 2066.18C117.477 2064.89 118.287 2063.66 119.263 2062.52C123.421 2061.3 128.196 2061.08 132.489 2062.01C130.691 2062.91 128.988 2064.03 127.411 2065.33ZM114.955 2073.75C116.954 2073.21 118.999 2072.92 121.054 2072.89C119.179 2076.17 118.006 2079.82 117.614 2083.64C115.755 2080.64 114.87 2077.18 114.955 2073.75ZM119.421 2086.08C119.532 2079.46 122.132 2073.26 126.774 2068.57C131.451 2063.85 137.96 2061.21 144.571 2061.14C144.734 2061.29 144.895 2061.45 145.053 2061.61C145.725 2062.29 146.335 2063.01 146.882 2063.77C133.756 2064.8 123.253 2075.27 122.056 2088.51C121.373 2088 120.721 2087.43 120.108 2086.81C119.87 2086.57 119.642 2086.33 119.421 2086.08ZM149.327 2068.58C143.426 2069.36 138.213 2071.8 134.201 2075.67C130.019 2079.71 127.468 2085.01 126.79 2091.05C125.799 2090.7 124.84 2090.27 123.925 2089.75C124.576 2076.61 135.064 2066.16 148.075 2065.68C148.578 2066.61 148.997 2067.58 149.327 2068.58ZM148.829 2081.17C147.345 2077.87 145.22 2074.9 142.601 2072.45C143.903 2071.89 145.275 2071.42 146.708 2071.08C148.058 2072.81 149.176 2074.72 150.039 2076.77C149.824 2078.29 149.416 2079.77 148.829 2081.17ZM150.153 2072.66C149.743 2071.97 149.302 2071.3 148.832 2070.65C149.165 2070.59 149.501 2070.55 149.839 2070.5C149.987 2071.21 150.092 2071.93 150.153 2072.66ZM140.058 2081.21C141.755 2083.1 143.165 2085.25 144.236 2087.58C141.412 2090.1 137.917 2091.62 134.178 2091.96C134.724 2087.49 136.872 2083.56 140.058 2081.21ZM132.208 2092.03C131.012 2092 129.836 2091.86 128.693 2091.6C129.267 2085.89 131.706 2080.92 135.48 2077.22C136.619 2077.99 137.687 2078.85 138.677 2079.79C135.113 2082.53 132.746 2087 132.208 2092.03ZM145.703 2086.12C143.695 2082.02 140.703 2078.5 136.983 2075.87C138.128 2074.93 139.371 2074.1 140.701 2073.38C143.793 2076.09 146.198 2079.57 147.665 2083.46C147.099 2084.4 146.444 2085.29 145.703 2086.12Z" fill="#F3F3F3"/>
<path d="M930.971 520.907L925.41 515.289C925.029 514.904 924.411 514.904 924.03 515.289C923.65 515.673 923.65 516.297 924.03 516.682L929.592 522.3C931.537 524.265 931.537 527.463 929.592 529.428C928.659 530.371 927.403 530.878 926.061 530.859C924.718 530.84 923.454 530.299 922.502 529.338L915.203 521.964C912.498 519.23 908.102 519.224 905.404 521.95C902.699 524.683 902.699 529.131 905.404 531.864L908.021 534.508C905.977 533.791 903.807 533.417 901.58 533.417C896.348 533.417 891.428 535.476 887.728 539.214C880.091 546.931 880.091 559.487 887.728 567.203C891.428 570.941 896.348 573 901.58 573C906.813 573 911.732 570.941 915.432 567.203C919.132 563.465 921.17 558.495 921.17 553.209C921.17 547.922 919.132 542.952 915.432 539.214C915.345 539.126 915.257 539.04 915.169 538.954L906.783 530.471C904.838 528.506 904.838 525.308 906.783 523.343C908.721 521.386 911.879 521.392 913.824 523.357L921.123 530.731C922.435 532.057 924.179 532.802 926.033 532.829C927.905 532.855 929.662 532.144 930.971 530.821C933.676 528.088 933.676 523.641 930.971 520.907ZM911.203 538.268C908.846 538.47 906.551 538.976 904.363 539.77C904.317 539.746 904.27 539.725 904.219 539.709C899.963 538.325 895.506 538.031 891.158 538.827C894.163 536.594 897.78 535.388 901.58 535.388C905.05 535.388 908.366 536.394 911.203 538.268ZM891.286 549.929C888.878 549.853 886.475 550.103 884.127 550.675C884.275 549.625 884.517 548.585 884.85 547.57C884.868 547.565 884.885 547.56 884.902 547.554C888.327 546.344 891.344 545.882 894.469 546.104C894.445 546.128 894.419 546.152 894.395 546.177C893.239 547.345 892.201 548.601 891.286 549.929ZM896.411 544.332C896.408 544.332 896.406 544.331 896.404 544.331C892.84 543.814 889.521 544.074 885.832 545.18C886.477 543.887 887.287 542.658 888.263 541.524C892.421 540.302 897.196 540.076 901.489 541.01C899.691 541.915 897.988 543.026 896.411 544.332ZM883.955 552.754C885.954 552.211 887.999 551.922 890.054 551.889C888.179 555.174 887.006 558.823 886.614 562.644C884.755 559.636 883.87 556.185 883.955 552.754ZM888.421 565.075C888.532 558.461 891.132 552.26 895.774 547.57C900.451 542.845 906.96 540.214 913.571 540.14C913.734 540.293 913.895 540.448 914.053 540.607C914.725 541.286 915.335 542.011 915.882 542.773C902.756 543.804 892.253 554.274 891.056 567.514C890.373 566.999 889.721 566.43 889.108 565.81C888.87 565.57 888.642 565.325 888.421 565.075ZM918.327 547.584C912.426 548.362 907.213 550.8 903.201 554.671C899.019 558.706 896.468 564.01 895.79 570.051C894.799 569.703 893.84 569.268 892.925 568.745C893.576 555.615 904.064 545.159 917.075 544.677C917.578 545.607 917.997 546.579 918.327 547.584ZM917.829 560.165C916.345 556.874 914.22 553.904 911.601 551.452C912.903 550.887 914.275 550.425 915.708 550.075C917.058 551.812 918.176 553.725 919.039 555.768C918.824 557.291 918.416 558.766 917.829 560.165ZM919.153 551.665C918.743 550.972 918.302 550.299 917.832 549.646C918.165 549.593 918.501 549.546 918.839 549.504C918.987 550.213 919.092 550.934 919.153 551.665ZM909.058 560.213C910.755 562.101 912.165 564.246 913.236 566.584C910.412 569.103 906.917 570.62 903.178 570.957C903.724 566.492 905.872 562.559 909.058 560.213ZM901.208 571.025C900.012 571 898.836 570.856 897.693 570.598C898.267 564.885 900.706 559.917 904.48 556.219C905.619 556.992 906.687 557.854 907.677 558.795C904.113 561.534 901.746 566.004 901.208 571.025ZM914.703 565.118C912.695 561.017 909.703 557.5 905.983 554.871C907.128 553.932 908.371 553.096 909.701 552.376C912.793 555.094 915.198 558.572 916.665 562.457C916.099 563.396 915.444 564.286 914.703 565.118Z" fill="#78C0DE" fill-opacity="0.09"/>
<path d="M1347.97 901.907L1342.41 896.289C1342.03 895.904 1341.41 895.904 1341.03 896.289C1340.65 896.673 1340.65 897.297 1341.03 897.682L1346.59 903.3C1348.54 905.265 1348.54 908.463 1346.59 910.428C1345.66 911.371 1344.4 911.878 1343.06 911.859C1341.72 911.84 1340.45 911.299 1339.5 910.338L1332.2 902.964C1329.5 900.23 1325.1 900.224 1322.4 902.95C1319.7 905.683 1319.7 910.131 1322.4 912.864L1325.02 915.508C1322.98 914.791 1320.81 914.417 1318.58 914.417C1313.35 914.417 1308.43 916.476 1304.73 920.214C1297.09 927.931 1297.09 940.487 1304.73 948.203C1308.43 951.941 1313.35 954 1318.58 954C1323.81 954 1328.73 951.941 1332.43 948.203C1336.13 944.465 1338.17 939.495 1338.17 934.209C1338.17 928.922 1336.13 923.952 1332.43 920.214C1332.35 920.126 1332.26 920.04 1332.17 919.954L1323.78 911.471C1321.84 909.506 1321.84 906.308 1323.78 904.343C1325.72 902.386 1328.88 902.392 1330.82 904.357L1338.12 911.731C1339.44 913.057 1341.18 913.802 1343.03 913.829C1344.91 913.855 1346.66 913.144 1347.97 911.821C1350.68 909.088 1350.68 904.641 1347.97 901.907ZM1328.2 919.268C1325.85 919.47 1323.55 919.976 1321.36 920.77C1321.32 920.746 1321.27 920.725 1321.22 920.709C1316.96 919.325 1312.51 919.031 1308.16 919.827C1311.16 917.594 1314.78 916.388 1318.58 916.388C1322.05 916.388 1325.37 917.394 1328.2 919.268ZM1308.29 930.929C1305.88 930.853 1303.48 931.103 1301.13 931.675C1301.28 930.625 1301.52 929.585 1301.85 928.57C1301.87 928.565 1301.88 928.56 1301.9 928.554C1305.33 927.344 1308.34 926.882 1311.47 927.104C1311.44 927.128 1311.42 927.152 1311.39 927.177C1310.24 928.345 1309.2 929.601 1308.29 930.929ZM1313.41 925.332C1313.41 925.332 1313.41 925.331 1313.4 925.331C1309.84 924.814 1306.52 925.074 1302.83 926.18C1303.48 924.887 1304.29 923.658 1305.26 922.524C1309.42 921.302 1314.2 921.076 1318.49 922.01C1316.69 922.915 1314.99 924.026 1313.41 925.332ZM1300.96 933.754C1302.95 933.211 1305 932.922 1307.05 932.889C1305.18 936.174 1304.01 939.823 1303.61 943.644C1301.76 940.636 1300.87 937.185 1300.96 933.754ZM1305.42 946.075C1305.53 939.461 1308.13 933.26 1312.77 928.57C1317.45 923.845 1323.96 921.214 1330.57 921.14C1330.73 921.293 1330.9 921.448 1331.05 921.607C1331.72 922.286 1332.33 923.011 1332.88 923.773C1319.76 924.804 1309.25 935.274 1308.06 948.514C1307.37 947.999 1306.72 947.43 1306.11 946.81C1305.87 946.57 1305.64 946.325 1305.42 946.075ZM1335.33 928.584C1329.43 929.362 1324.21 931.8 1320.2 935.671C1316.02 939.706 1313.47 945.01 1312.79 951.051C1311.8 950.703 1310.84 950.268 1309.92 949.745C1310.58 936.615 1321.06 926.159 1334.07 925.677C1334.58 926.607 1335 927.579 1335.33 928.584ZM1334.83 941.165C1333.34 937.874 1331.22 934.904 1328.6 932.452C1329.9 931.887 1331.28 931.425 1332.71 931.075C1334.06 932.812 1335.18 934.725 1336.04 936.768C1335.82 938.291 1335.42 939.766 1334.83 941.165ZM1336.15 932.665C1335.74 931.972 1335.3 931.299 1334.83 930.646C1335.16 930.593 1335.5 930.546 1335.84 930.504C1335.99 931.213 1336.09 931.934 1336.15 932.665ZM1326.06 941.213C1327.75 943.101 1329.16 945.246 1330.24 947.584C1327.41 950.103 1323.92 951.62 1320.18 951.957C1320.72 947.492 1322.87 943.559 1326.06 941.213ZM1318.21 952.025C1317.01 952 1315.84 951.856 1314.69 951.598C1315.27 945.885 1317.71 940.917 1321.48 937.219C1322.62 937.992 1323.69 938.854 1324.68 939.795C1321.11 942.534 1318.75 947.004 1318.21 952.025ZM1331.7 946.118C1329.69 942.017 1326.7 938.5 1322.98 935.871C1324.13 934.932 1325.37 934.096 1326.7 933.376C1329.79 936.094 1332.2 939.572 1333.66 943.457C1333.1 944.396 1332.44 945.286 1331.7 946.118Z" fill="#F3F3F3"/>
<path d="M116.971 903.907L111.41 898.289C111.029 897.904 110.411 897.904 110.03 898.289C109.65 898.673 109.65 899.297 110.03 899.682L115.592 905.3C117.537 907.265 117.537 910.463 115.592 912.428C114.659 913.371 113.403 913.878 112.061 913.859C110.718 913.84 109.454 913.299 108.502 912.338L101.203 904.964C98.498 902.23 94.1019 902.224 91.4041 904.95C88.6986 907.683 88.6986 912.131 91.4041 914.864L94.021 917.508C91.9773 916.791 89.8074 916.417 87.5803 916.417C82.3478 916.417 77.4284 918.476 73.7285 922.214C66.0905 929.931 66.0905 942.487 73.7285 950.203C77.4284 953.941 82.3477 956 87.5803 956C92.8128 956 97.7323 953.941 101.432 950.203C105.132 946.465 107.17 941.495 107.17 936.209C107.17 930.922 105.132 925.952 101.432 922.214C101.345 922.126 101.257 922.04 101.169 921.954L92.783 913.471C90.838 911.506 90.838 908.308 92.783 906.343C94.7206 904.386 97.8792 904.392 99.8244 906.357L107.123 913.731C108.435 915.057 110.179 915.802 112.033 915.829C113.905 915.855 115.662 915.144 116.971 913.821C119.676 911.088 119.676 906.641 116.971 903.907ZM97.2034 921.268C94.846 921.47 92.5506 921.976 90.3632 922.77C90.3173 922.746 90.2697 922.725 90.2191 922.709C85.9631 921.325 81.5056 921.031 77.1581 921.827C80.1635 919.594 83.78 918.388 87.5803 918.388C91.0498 918.388 94.3656 919.394 97.2034 921.268ZM77.2862 932.929C74.8778 932.853 72.4751 933.103 70.1273 933.675C70.2754 932.625 70.517 931.585 70.8504 930.57C70.8676 930.565 70.8849 930.56 70.902 930.554C74.3268 929.344 77.344 928.882 80.4693 929.104C80.4446 929.128 80.4194 929.152 80.395 929.177C79.2388 930.345 78.2014 931.601 77.2862 932.929ZM82.4108 927.332C82.4084 927.332 82.4061 927.331 82.4038 927.331C78.8403 926.814 75.5205 927.074 71.8323 928.18C72.4769 926.887 73.2868 925.658 74.2626 924.524C78.4209 923.302 83.1962 923.076 87.4887 924.01C85.6909 924.915 83.9883 926.026 82.4108 927.332ZM69.9554 935.754C71.9537 935.211 73.9985 934.922 76.0544 934.889C74.1793 938.174 73.0062 941.823 72.6138 945.644C70.7555 942.636 69.8695 939.185 69.9554 935.754ZM74.4211 948.075C74.5323 941.461 77.1323 935.26 81.774 930.57C86.451 925.845 92.9596 923.214 99.5712 923.14C99.734 923.293 99.8952 923.448 100.053 923.607C100.725 924.286 101.335 925.011 101.882 925.773C88.7558 926.804 78.2535 937.274 77.0565 950.514C76.373 949.999 75.7215 949.43 75.1075 948.81C74.8703 948.57 74.6421 948.325 74.4211 948.075ZM104.327 930.584C98.4257 931.362 93.2129 933.8 89.2006 937.671C85.0194 941.706 82.4678 947.01 81.7897 953.051C80.7985 952.703 79.8402 952.268 78.9248 951.745C79.5762 938.615 90.0644 928.159 103.075 927.677C103.578 928.607 103.997 929.579 104.327 930.584ZM103.829 943.165C102.345 939.874 100.22 936.904 97.6007 934.452C98.9032 933.887 100.275 933.425 101.708 933.075C103.058 934.812 104.176 936.725 105.039 938.768C104.824 940.291 104.416 941.766 103.829 943.165ZM105.153 934.665C104.743 933.972 104.302 933.299 103.832 932.646C104.165 932.593 104.501 932.546 104.839 932.504C104.987 933.213 105.092 933.934 105.153 934.665ZM95.0576 943.213C96.7548 945.101 98.1649 947.246 99.2359 949.584C96.4122 952.103 92.9171 953.62 89.1777 953.957C89.7243 949.492 91.8717 945.559 95.0576 943.213ZM87.2082 954.025C86.0122 954 84.8359 953.856 83.6928 953.598C84.267 947.885 86.7063 942.917 90.4802 939.219C91.6193 939.992 92.6874 940.854 93.677 941.795C90.1129 944.534 87.7456 949.004 87.2082 954.025ZM100.703 948.118C98.6948 944.017 95.7032 940.5 91.9828 937.871C93.1276 936.932 94.3706 936.096 95.7009 935.376C98.7927 938.094 101.198 941.572 102.665 945.457C102.099 946.396 101.444 947.286 100.703 948.118Z" fill="#F3F3F3"/>
<path opacity="0.07" d="M1092.97 1258.91L1087.41 1253.29C1087.03 1252.9 1086.41 1252.9 1086.03 1253.29C1085.65 1253.67 1085.65 1254.3 1086.03 1254.68L1091.59 1260.3C1093.54 1262.27 1093.54 1265.46 1091.59 1267.43C1090.66 1268.37 1089.4 1268.88 1088.06 1268.86C1086.72 1268.84 1085.45 1268.3 1084.5 1267.34L1077.2 1259.96C1074.5 1257.23 1070.1 1257.22 1067.4 1259.95C1064.7 1262.68 1064.7 1267.13 1067.4 1269.86L1070.02 1272.51C1067.98 1271.79 1065.81 1271.42 1063.58 1271.42C1058.35 1271.42 1053.43 1273.48 1049.73 1277.21C1042.09 1284.93 1042.09 1297.49 1049.73 1305.2C1053.43 1308.94 1058.35 1311 1063.58 1311C1068.81 1311 1073.73 1308.94 1077.43 1305.2C1081.13 1301.47 1083.17 1296.5 1083.17 1291.21C1083.17 1285.92 1081.13 1280.95 1077.43 1277.21C1077.35 1277.13 1077.26 1277.04 1077.17 1276.95L1068.78 1268.47C1066.84 1266.51 1066.84 1263.31 1068.78 1261.34C1070.72 1259.39 1073.88 1259.39 1075.82 1261.36L1083.12 1268.73C1084.44 1270.06 1086.18 1270.8 1088.03 1270.83C1089.91 1270.86 1091.66 1270.14 1092.97 1268.82C1095.68 1266.09 1095.68 1261.64 1092.97 1258.91ZM1073.2 1276.27C1070.85 1276.47 1068.55 1276.98 1066.36 1277.77C1066.32 1277.75 1066.27 1277.73 1066.22 1277.71C1061.96 1276.32 1057.51 1276.03 1053.16 1276.83C1056.16 1274.59 1059.78 1273.39 1063.58 1273.39C1067.05 1273.39 1070.37 1274.39 1073.2 1276.27ZM1053.29 1287.93C1050.88 1287.85 1048.48 1288.1 1046.13 1288.68C1046.28 1287.62 1046.52 1286.59 1046.85 1285.57C1046.87 1285.56 1046.88 1285.56 1046.9 1285.55C1050.33 1284.34 1053.34 1283.88 1056.47 1284.1C1056.44 1284.13 1056.42 1284.15 1056.39 1284.18C1055.24 1285.35 1054.2 1286.6 1053.29 1287.93ZM1058.41 1282.33C1058.41 1282.33 1058.41 1282.33 1058.4 1282.33C1054.84 1281.81 1051.52 1282.07 1047.83 1283.18C1048.48 1281.89 1049.29 1280.66 1050.26 1279.52C1054.42 1278.3 1059.2 1278.08 1063.49 1279.01C1061.69 1279.91 1059.99 1281.03 1058.41 1282.33ZM1045.96 1290.75C1047.95 1290.21 1050 1289.92 1052.05 1289.89C1050.18 1293.17 1049.01 1296.82 1048.61 1300.64C1046.76 1297.64 1045.87 1294.18 1045.96 1290.75ZM1050.42 1303.08C1050.53 1296.46 1053.13 1290.26 1057.77 1285.57C1062.45 1280.85 1068.96 1278.21 1075.57 1278.14C1075.73 1278.29 1075.9 1278.45 1076.05 1278.61C1076.72 1279.29 1077.33 1280.01 1077.88 1280.77C1064.76 1281.8 1054.25 1292.27 1053.06 1305.51C1052.37 1305 1051.72 1304.43 1051.11 1303.81C1050.87 1303.57 1050.64 1303.33 1050.42 1303.08ZM1080.33 1285.58C1074.43 1286.36 1069.21 1288.8 1065.2 1292.67C1061.02 1296.71 1058.47 1302.01 1057.79 1308.05C1056.8 1307.7 1055.84 1307.27 1054.92 1306.75C1055.58 1293.61 1066.06 1283.16 1079.07 1282.68C1079.58 1283.61 1080 1284.58 1080.33 1285.58ZM1079.83 1298.17C1078.34 1294.87 1076.22 1291.9 1073.6 1289.45C1074.9 1288.89 1076.28 1288.42 1077.71 1288.08C1079.06 1289.81 1080.18 1291.72 1081.04 1293.77C1080.82 1295.29 1080.42 1296.77 1079.83 1298.17ZM1081.15 1289.66C1080.74 1288.97 1080.3 1288.3 1079.83 1287.65C1080.16 1287.59 1080.5 1287.55 1080.84 1287.5C1080.99 1288.21 1081.09 1288.93 1081.15 1289.66ZM1071.06 1298.21C1072.75 1300.1 1074.16 1302.25 1075.24 1304.58C1072.41 1307.1 1068.92 1308.62 1065.18 1308.96C1065.72 1304.49 1067.87 1300.56 1071.06 1298.21ZM1063.21 1309.03C1062.01 1309 1060.84 1308.86 1059.69 1308.6C1060.27 1302.89 1062.71 1297.92 1066.48 1294.22C1067.62 1294.99 1068.69 1295.85 1069.68 1296.79C1066.11 1299.53 1063.75 1304 1063.21 1309.03ZM1076.7 1303.12C1074.69 1299.02 1071.7 1295.5 1067.98 1292.87C1069.13 1291.93 1070.37 1291.1 1071.7 1290.38C1074.79 1293.09 1077.2 1296.57 1078.66 1300.46C1078.1 1301.4 1077.44 1302.29 1076.7 1303.12Z" fill="#FFBD54"/>
<path d="M92.6526 118.722L86.2189 112.328C85.7784 111.891 85.0641 111.891 84.6235 112.328C84.1829 112.766 84.183 113.476 84.6235 113.914L91.0573 120.307C93.3075 122.543 93.3075 126.182 91.0573 128.418C89.9779 129.491 88.5248 130.068 86.9728 130.047C85.4186 130.024 83.9562 129.409 82.8553 128.315L74.4118 119.924C71.282 116.814 66.1964 116.807 63.0753 119.909C59.9455 123.019 59.9455 128.08 63.0753 131.19L66.1027 134.199C63.7385 133.383 61.2282 132.957 58.6518 132.957C52.5985 132.957 46.9074 135.3 42.627 139.554C33.791 148.335 33.791 162.623 42.627 171.404C46.9074 175.657 52.5983 178 58.6518 178C64.705 178 70.3961 175.657 74.6765 171.404C78.9568 167.15 81.3141 161.494 81.3141 155.479C81.3141 149.463 78.9568 143.807 74.6765 139.554C74.5759 139.454 74.4737 139.356 74.3715 139.258L64.6705 129.605C62.4205 127.369 62.4205 123.73 64.6705 121.494C66.9121 119.266 70.5662 119.273 72.8165 121.51L81.26 129.901C82.7782 131.409 84.7954 132.257 86.9399 132.288C89.1062 132.318 91.1382 131.508 92.6525 130.003C95.7825 126.893 95.7825 121.832 92.6526 118.722ZM69.7843 138.477C67.0572 138.707 64.4017 139.283 61.8712 140.186C61.8181 140.16 61.763 140.135 61.7045 140.117C56.7809 138.542 51.6241 138.208 46.5947 139.114C50.0714 136.573 54.2553 135.2 58.6518 135.2C62.6655 135.2 66.5013 136.345 69.7843 138.477ZM46.7428 151.746C43.9567 151.66 41.1771 151.945 38.461 152.596C38.6323 151.401 38.9118 150.218 39.2975 149.062C39.3174 149.057 39.3374 149.051 39.3572 149.045C43.3193 147.668 46.8097 147.142 50.4253 147.394C50.3967 147.422 50.3675 147.449 50.3393 147.477C49.0018 148.807 47.8016 150.236 46.7428 151.746ZM52.6713 145.378C52.6686 145.377 52.6659 145.377 52.6632 145.376C48.5407 144.788 44.7002 145.085 40.4334 146.343C41.1791 144.872 42.1161 143.472 43.245 142.183C48.0555 140.792 53.5799 140.535 58.5457 141.598C56.4659 142.627 54.4963 143.891 52.6713 145.378ZM38.2622 154.961C40.5739 154.344 42.9395 154.014 45.3178 153.977C43.1486 157.716 41.7915 161.868 41.3376 166.215C39.1877 162.792 38.1628 158.865 38.2622 154.961ZM43.4284 168.982C43.557 161.456 46.5648 154.399 51.9346 149.063C57.3453 143.686 64.8748 140.692 72.5236 140.607C72.7119 140.781 72.8984 140.958 73.0811 141.139C73.8583 141.912 74.5637 142.736 75.1969 143.603C60.0116 144.777 47.8619 156.691 46.4771 171.758C45.6864 171.171 44.9327 170.524 44.2224 169.818C43.948 169.546 43.684 169.266 43.4284 168.982ZM78.0254 149.078C71.1984 149.964 65.1678 152.738 60.5262 157.143C55.6892 161.734 52.7373 167.77 51.9528 174.644C50.8062 174.249 49.6975 173.753 48.6385 173.159C49.3921 158.217 61.5254 146.319 76.5767 145.77C77.1589 146.828 77.6441 147.934 78.0254 149.078ZM77.4494 163.395C75.7322 159.65 73.2739 156.27 70.2439 153.48C71.7508 152.837 73.3383 152.311 74.9961 151.913C76.5576 153.89 77.8512 156.066 78.8493 158.391C78.6002 160.124 78.1287 161.803 77.4494 163.395ZM78.9814 153.722C78.5062 152.934 77.9966 152.168 77.453 151.425C77.8379 151.364 78.2263 151.311 78.6176 151.264C78.7884 152.07 78.9101 152.891 78.9814 153.722ZM67.3019 163.449C69.2654 165.598 70.8966 168.039 72.1356 170.699C68.869 173.565 64.8257 175.292 60.4997 175.675C61.1321 170.594 63.6162 166.119 67.3019 163.449ZM58.2212 175.753C56.8377 175.725 55.4768 175.561 54.1544 175.267C54.8187 168.766 57.6406 163.113 62.0065 158.904C63.3243 159.784 64.56 160.765 65.7048 161.835C61.5816 164.952 58.843 170.04 58.2212 175.753ZM73.8327 169.03C71.5096 164.364 68.0488 160.362 63.7448 157.37C65.0692 156.301 66.5072 155.351 68.0462 154.532C71.623 157.624 74.4059 161.582 76.1025 166.003C75.4477 167.071 74.6896 168.085 73.8327 169.03Z" fill="#F3F3F3"/>
<path d="M984.929 52.0234C981.291 50.1424 977.001 50.2415 973.454 52.2892C969.908 54.3369 967.677 58.0023 967.487 62.0935L967.029 71.9523C966.953 73.5879 967.396 75.1711 968.31 76.5298C969.224 77.8889 970.523 78.8957 972.068 79.4425C973.612 79.988 975.256 80.0213 976.821 79.539C978.387 79.0567 979.726 78.1032 980.696 76.7824L980.76 76.6936C983.216 73.3987 986.958 71.2555 991.045 70.807C992.1 70.6911 993.099 70.3637 993.998 69.8447C994.486 69.5625 994.946 69.2231 995.369 68.8308C996.57 67.7166 997.363 66.2764 997.663 64.6657C997.962 63.0557 997.74 61.4266 997.02 59.955C996.3 58.4834 995.151 57.3082 993.696 56.5557L984.929 52.0234Z" fill="#F3F3F3"/>
<path d="M964.112 64.0299C965.18 62.7105 965.584 61.0029 965.249 59.2214C964.931 57.526 963.972 55.9585 962.548 54.8074C961.124 53.6574 959.39 53.0486 957.666 53.0926C955.854 53.1392 954.269 53.8917 953.204 55.2107C951.06 57.8616 951.762 61.9977 954.77 64.4323C957.167 66.368 960.314 66.647 962.578 65.3401C963.156 65.0063 963.676 64.5691 964.112 64.0299Z" fill="#F3F3F3"/>
<path d="M969.806 53.225C973.252 51.2358 974.211 46.4238 971.945 42.4983C969.678 38.5718 965.03 36.9959 961.585 38.9852C958.14 40.9742 957.181 45.7867 959.448 49.7132C961.714 53.6387 966.361 55.2141 969.806 53.225Z" fill="#F3F3F3"/>
<path d="M981.608 48.7436L981.609 48.7434C982.24 48.6134 982.829 48.3852 983.368 48.0744C985.88 46.6237 987.273 43.381 986.585 40.0309C986.189 38.1023 985.166 36.412 983.704 35.2717C982.175 34.0777 980.354 33.6213 978.577 33.9866C976.799 34.352 975.306 35.4898 974.371 37.1902C973.478 38.8145 973.205 40.7712 973.601 42.6994C974.437 46.7674 978.029 49.4788 981.608 48.7436Z" fill="#F3F3F3"/>
<path d="M994.287 40.3154L994.286 40.315C990.896 39.9316 987.782 42.744 987.343 46.5855C986.907 50.4273 989.308 53.8673 992.695 54.2541C993.93 54.3955 995.129 54.1116 996.176 53.5075C998 52.4546 999.359 50.4283 999.64 47.9844C1000.08 44.1428 997.674 40.7026 994.287 40.3154Z" fill="#F3F3F3"/>
<path d="M1170.93 2060.02C1167.29 2058.14 1163 2058.24 1159.45 2060.29C1155.91 2062.34 1153.68 2066 1153.49 2070.09L1153.03 2079.95C1152.95 2081.59 1153.4 2083.17 1154.31 2084.53C1155.22 2085.89 1156.52 2086.9 1158.07 2087.44C1159.61 2087.99 1161.26 2088.02 1162.82 2087.54C1164.39 2087.06 1165.73 2086.1 1166.7 2084.78L1166.76 2084.69C1169.22 2081.4 1172.96 2079.26 1177.05 2078.81C1178.1 2078.69 1179.1 2078.36 1180 2077.84C1180.49 2077.56 1180.95 2077.22 1181.37 2076.83C1182.57 2075.72 1183.36 2074.28 1183.66 2072.67C1183.96 2071.06 1183.74 2069.43 1183.02 2067.95C1182.3 2066.48 1181.15 2065.31 1179.7 2064.56L1170.93 2060.02Z" fill="#F3F3F3"/>
<path d="M1150.11 2072.03C1151.18 2070.71 1151.58 2069 1151.25 2067.22C1150.93 2065.53 1149.97 2063.96 1148.55 2062.81C1147.12 2061.66 1145.39 2061.05 1143.67 2061.09C1141.85 2061.14 1140.27 2061.89 1139.2 2063.21C1137.06 2065.86 1137.76 2070 1140.77 2072.43C1143.17 2074.37 1146.31 2074.65 1148.58 2073.34C1149.16 2073.01 1149.68 2072.57 1150.11 2072.03Z" fill="#F3F3F3"/>
<path d="M1155.81 2061.22C1159.25 2059.24 1160.21 2054.42 1157.94 2050.5C1155.68 2046.57 1151.03 2045 1147.58 2046.99C1144.14 2048.97 1143.18 2053.79 1145.45 2057.71C1147.71 2061.64 1152.36 2063.21 1155.81 2061.22Z" fill="#F3F3F3"/>
<path d="M1167.61 2056.74L1167.61 2056.74C1168.24 2056.61 1168.83 2056.39 1169.37 2056.07C1171.88 2054.62 1173.27 2051.38 1172.58 2048.03C1172.19 2046.1 1171.17 2044.41 1169.7 2043.27C1168.17 2042.08 1166.35 2041.62 1164.58 2041.99C1162.8 2042.35 1161.31 2043.49 1160.37 2045.19C1159.48 2046.81 1159.2 2048.77 1159.6 2050.7C1160.44 2054.77 1164.03 2057.48 1167.61 2056.74Z" fill="#F3F3F3"/>
<path d="M1180.29 2048.32L1180.29 2048.31C1176.9 2047.93 1173.78 2050.74 1173.34 2054.59C1172.91 2058.43 1175.31 2061.87 1178.69 2062.25C1179.93 2062.4 1181.13 2062.11 1182.18 2061.51C1184 2060.45 1185.36 2058.43 1185.64 2055.98C1186.08 2052.14 1183.67 2048.7 1180.29 2048.32Z" fill="#F3F3F3"/>
<g opacity="0.5">
<path d="M577.684 216.149C574.159 214.327 570.003 214.423 566.567 216.407C563.131 218.391 560.97 221.942 560.786 225.905L560.342 235.457C560.268 237.041 560.698 238.575 561.583 239.892C562.468 241.208 563.727 242.184 565.223 242.713C566.719 243.242 568.312 243.274 569.829 242.807C571.345 242.34 572.643 241.416 573.582 240.136L573.645 240.05C576.024 236.858 579.649 234.782 583.609 234.347C584.631 234.235 585.598 233.918 586.469 233.415C586.943 233.141 587.388 232.813 587.798 232.433C588.961 231.353 589.729 229.958 590.02 228.397C590.31 226.838 590.095 225.259 589.397 223.834C588.7 222.408 587.587 221.269 586.177 220.54L577.684 216.149Z" fill="#FFBD54" fill-opacity="0.09"/>
<path d="M557.515 227.781C558.55 226.503 558.941 224.849 558.617 223.123C558.309 221.48 557.38 219.962 556 218.847C554.621 217.732 552.941 217.143 551.27 217.185C549.515 217.23 547.98 217.959 546.948 219.237C544.87 221.806 545.55 225.813 548.464 228.171C550.787 230.047 553.836 230.317 556.029 229.051C556.589 228.727 557.093 228.304 557.515 227.781Z" fill="#FFBD54" fill-opacity="0.09"/>
<path d="M563.033 217.314C566.371 215.386 567.3 210.724 565.105 206.921C562.908 203.117 558.406 201.591 555.068 203.518C551.73 205.445 550.801 210.107 552.998 213.911C555.193 217.714 559.695 219.241 563.033 217.314Z" fill="#FFBD54" fill-opacity="0.09"/>
<path d="M574.466 212.972L574.467 212.972C575.078 212.846 575.649 212.625 576.171 212.324C578.605 210.918 579.955 207.777 579.288 204.531C578.904 202.662 577.913 201.025 576.497 199.92C575.015 198.763 573.251 198.321 571.529 198.675C569.807 199.029 568.36 200.131 567.455 201.779C566.589 203.352 566.325 205.248 566.709 207.116C567.519 211.057 570.999 213.684 574.466 212.972Z" fill="#FFBD54" fill-opacity="0.09"/>
<path d="M586.75 204.807L586.748 204.806C583.464 204.435 580.447 207.159 580.022 210.881C579.6 214.603 581.926 217.936 585.207 218.311C586.404 218.448 587.566 218.173 588.579 217.587C590.346 216.567 591.664 214.604 591.935 212.236C592.357 208.515 590.031 205.182 586.75 204.807Z" fill="#FFBD54" fill-opacity="0.09"/>
</g>
<g opacity="0.5">
<path d="M1012.68 950.149C1009.16 948.327 1005 948.423 1001.57 950.407C998.131 952.391 995.97 955.942 995.786 959.905L995.342 969.457C995.268 971.041 995.698 972.575 996.583 973.892C997.468 975.208 998.727 976.184 1000.22 976.713C1001.72 977.242 1003.31 977.274 1004.83 976.807C1006.35 976.34 1007.64 975.416 1008.58 974.136L1008.64 974.05C1011.02 970.858 1014.65 968.782 1018.61 968.347C1019.63 968.235 1020.6 967.918 1021.47 967.415C1021.94 967.141 1022.39 966.813 1022.8 966.433C1023.96 965.353 1024.73 963.958 1025.02 962.397C1025.31 960.838 1025.09 959.259 1024.4 957.834C1023.7 956.408 1022.59 955.269 1021.18 954.54L1012.68 950.149Z" fill="#FFBD54" fill-opacity="0.09"/>
<path d="M992.515 961.781C993.55 960.503 993.941 958.849 993.617 957.123C993.309 955.48 992.38 953.962 991 952.847C989.621 951.732 987.941 951.143 986.27 951.185C984.515 951.23 982.98 951.959 981.948 953.237C979.87 955.806 980.55 959.813 983.464 962.171C985.787 964.047 988.836 964.317 991.029 963.051C991.589 962.727 992.093 962.304 992.515 961.781Z" fill="#FFBD54" fill-opacity="0.09"/>
<path d="M998.033 951.314C1001.37 949.386 1002.3 944.724 1000.1 940.921C997.908 937.117 993.406 935.591 990.068 937.518C986.73 939.445 985.801 944.107 987.998 947.911C990.193 951.714 994.695 953.241 998.033 951.314Z" fill="#FFBD54" fill-opacity="0.09"/>
<path d="M1009.47 946.972L1009.47 946.972C1010.08 946.846 1010.65 946.625 1011.17 946.324C1013.61 944.918 1014.95 941.777 1014.29 938.531C1013.9 936.662 1012.91 935.025 1011.5 933.92C1010.02 932.763 1008.25 932.321 1006.53 932.675C1004.81 933.029 1003.36 934.131 1002.45 935.779C1001.59 937.352 1001.32 939.248 1001.71 941.116C1002.52 945.057 1006 947.684 1009.47 946.972Z" fill="#FFBD54" fill-opacity="0.09"/>
<path d="M1021.75 938.807L1021.75 938.806C1018.46 938.435 1015.45 941.159 1015.02 944.881C1014.6 948.603 1016.93 951.936 1020.21 952.311C1021.4 952.448 1022.57 952.173 1023.58 951.587C1025.35 950.567 1026.66 948.604 1026.94 946.236C1027.36 942.515 1025.03 939.182 1021.75 938.807Z" fill="#FFBD54" fill-opacity="0.09"/>
</g>
<g opacity="0.5">
<path d="M1380.61 385.412C1376.27 383.17 1371.15 383.288 1366.93 385.729C1362.7 388.171 1360.04 392.541 1359.81 397.419L1359.26 409.174C1359.17 411.124 1359.7 413.011 1360.79 414.631C1361.88 416.252 1363.43 417.452 1365.27 418.104C1367.11 418.755 1369.07 418.794 1370.94 418.219C1372.81 417.644 1374.4 416.507 1375.56 414.932L1375.64 414.827C1378.56 410.898 1383.03 408.343 1387.9 407.808C1389.16 407.67 1390.35 407.279 1391.42 406.661C1392 406.324 1392.55 405.919 1393.05 405.452C1394.49 404.123 1395.43 402.406 1395.79 400.486C1396.15 398.566 1395.88 396.624 1395.02 394.869C1394.16 393.115 1392.79 391.713 1391.06 390.816L1380.61 385.412Z" fill="#F3F3F3"/>
<path d="M1355.79 399.728C1357.06 398.155 1357.54 396.119 1357.14 393.994C1356.76 391.973 1355.62 390.104 1353.92 388.732C1352.22 387.361 1350.16 386.635 1348.1 386.687C1345.94 386.743 1344.05 387.64 1342.78 389.213C1340.23 392.373 1341.06 397.305 1344.65 400.207C1347.51 402.515 1351.26 402.848 1353.96 401.29C1354.65 400.892 1355.27 400.371 1355.79 399.728Z" fill="#F3F3F3"/>
<path d="M1362.58 386.845C1366.69 384.473 1367.83 378.736 1365.13 374.056C1362.42 369.374 1356.88 367.495 1352.77 369.867C1348.67 372.238 1347.52 377.976 1350.23 382.658C1352.93 387.338 1358.47 389.217 1362.58 386.845Z" fill="#F3F3F3"/>
<path d="M1376.65 381.502L1376.65 381.502C1377.4 381.347 1378.1 381.075 1378.75 380.704C1381.74 378.974 1383.4 375.108 1382.58 371.114C1382.11 368.814 1380.89 366.799 1379.15 365.439C1377.32 364.016 1375.15 363.472 1373.03 363.907C1370.91 364.343 1369.13 365.699 1368.02 367.727C1366.95 369.663 1366.63 371.996 1367.1 374.295C1368.1 379.146 1372.38 382.378 1376.65 381.502Z" fill="#F3F3F3"/>
<path d="M1391.77 371.453L1391.76 371.452C1387.72 370.995 1384.01 374.348 1383.49 378.929C1382.97 383.509 1385.83 387.611 1389.87 388.072C1391.34 388.241 1392.77 387.902 1394.02 387.182C1396.19 385.926 1397.81 383.511 1398.15 380.597C1398.67 376.016 1395.8 371.914 1391.77 371.453Z" fill="#F3F3F3"/>
</g>
<g opacity="0.5">
<path d="M665.326 540.198C661.844 538.397 657.738 538.492 654.343 540.452C650.949 542.412 648.814 545.92 648.632 549.836L648.193 559.272C648.121 560.838 648.545 562.353 649.42 563.653C650.294 564.954 651.538 565.918 653.016 566.441C654.494 566.963 656.067 566.995 657.566 566.534C659.064 566.072 660.346 565.159 661.274 563.895L661.336 563.81C663.686 560.657 667.268 558.605 671.18 558.176C672.189 558.065 673.145 557.752 674.006 557.255C674.474 556.985 674.914 556.66 675.319 556.284C676.468 555.218 677.227 553.84 677.514 552.298C677.8 550.757 677.588 549.198 676.899 547.789C676.21 546.381 675.11 545.256 673.717 544.536L665.326 540.198Z" fill="#F3F3F3"/>
<path d="M645.401 551.689C646.423 550.427 646.81 548.792 646.49 547.087C646.185 545.464 645.267 543.964 643.904 542.862C642.542 541.762 640.882 541.179 639.232 541.221C637.498 541.266 635.981 541.986 634.961 543.248C632.909 545.786 633.58 549.744 636.459 552.074C638.754 553.927 641.766 554.194 643.933 552.943C644.486 552.624 644.984 552.205 645.401 551.689Z" fill="#F3F3F3"/>
<path d="M650.851 541.348C654.149 539.444 655.067 534.838 652.898 531.081C650.728 527.323 646.28 525.814 642.982 527.718C639.685 529.622 638.767 534.228 640.937 537.986C643.106 541.744 647.554 543.251 650.851 541.348Z" fill="#F3F3F3"/>
<path d="M662.147 537.058L662.147 537.058C662.751 536.934 663.315 536.715 663.831 536.418C666.236 535.029 667.569 531.926 666.91 528.719C666.531 526.873 665.552 525.255 664.153 524.164C662.689 523.021 660.946 522.584 659.245 522.934C657.544 523.284 656.114 524.373 655.22 526C654.365 527.555 654.103 529.428 654.483 531.273C655.283 535.167 658.721 537.762 662.147 537.058Z" fill="#F3F3F3"/>
<path d="M674.283 528.991L674.281 528.991C671.037 528.624 668.056 531.316 667.637 534.993C667.219 538.67 669.517 541.962 672.759 542.333C673.941 542.468 675.089 542.196 676.091 541.618C677.836 540.61 679.138 538.671 679.406 536.332C679.823 532.655 677.525 529.362 674.283 528.991Z" fill="#F3F3F3"/>
</g>
<g opacity="0.5">
<path d="M789.218 1149.82C785.735 1148.02 781.63 1148.12 778.235 1150.08C774.84 1152.04 772.705 1155.54 772.524 1159.46L772.085 1168.9C772.012 1170.46 772.436 1171.98 773.311 1173.28C774.186 1174.58 775.429 1175.54 776.908 1176.07C778.386 1176.59 779.959 1176.62 781.457 1176.16C782.956 1175.7 784.238 1174.78 785.166 1173.52L785.228 1173.43C787.578 1170.28 791.16 1168.23 795.072 1167.8C796.081 1167.69 797.037 1167.38 797.897 1166.88C798.365 1166.61 798.805 1166.28 799.21 1165.91C800.359 1164.84 801.118 1163.46 801.405 1161.92C801.692 1160.38 801.479 1158.82 800.79 1157.41C800.101 1156.01 799.001 1154.88 797.609 1154.16L789.218 1149.82Z" fill="#F3F3F3"/>
<path d="M769.293 1161.31C770.315 1160.05 770.701 1158.42 770.381 1156.71C770.077 1155.09 769.159 1153.59 767.796 1152.49C766.433 1151.39 764.774 1150.8 763.123 1150.85C761.389 1150.89 759.872 1151.61 758.853 1152.87C756.8 1155.41 757.472 1159.37 760.351 1161.7C762.646 1163.55 765.658 1163.82 767.824 1162.57C768.378 1162.25 768.876 1161.83 769.293 1161.31Z" fill="#F3F3F3"/>
<path d="M774.743 1150.97C778.041 1149.07 778.959 1144.46 776.79 1140.71C774.62 1136.95 770.172 1135.44 766.874 1137.34C763.576 1139.25 762.659 1143.85 764.828 1147.61C766.998 1151.37 771.445 1152.88 774.743 1150.97Z" fill="#F3F3F3"/>
<path d="M786.038 1146.68L786.039 1146.68C786.643 1146.56 787.207 1146.34 787.722 1146.04C790.127 1144.65 791.461 1141.55 790.802 1138.34C790.423 1136.5 789.443 1134.88 788.045 1133.79C786.58 1132.65 784.838 1132.21 783.137 1132.56C781.435 1132.91 780.006 1134 779.111 1135.62C778.256 1137.18 777.995 1139.05 778.374 1140.9C779.175 1144.79 782.613 1147.39 786.038 1146.68Z" fill="#F3F3F3"/>
<path d="M798.175 1138.62L798.173 1138.62C794.929 1138.25 791.948 1140.94 791.528 1144.62C791.111 1148.29 793.409 1151.59 796.651 1151.96C797.833 1152.09 798.981 1151.82 799.982 1151.24C801.728 1150.23 803.029 1148.3 803.298 1145.96C803.715 1142.28 801.417 1138.99 798.175 1138.62Z" fill="#F3F3F3"/>
</g>
<g opacity="0.09">
<path d="M179.218 1086.82C175.735 1085.02 171.63 1085.12 168.235 1087.08C164.84 1089.04 162.705 1092.54 162.524 1096.46L162.085 1105.9C162.012 1107.46 162.436 1108.98 163.311 1110.28C164.186 1111.58 165.429 1112.54 166.908 1113.07C168.386 1113.59 169.959 1113.62 171.457 1113.16C172.956 1112.7 174.238 1111.78 175.166 1110.52L175.228 1110.43C177.578 1107.28 181.16 1105.23 185.072 1104.8C186.081 1104.69 187.037 1104.38 187.897 1103.88C188.365 1103.61 188.805 1103.28 189.21 1102.91C190.359 1101.84 191.118 1100.46 191.405 1098.92C191.692 1097.38 191.479 1095.82 190.79 1094.41C190.101 1093.01 189.001 1091.88 187.609 1091.16L179.218 1086.82Z" fill="#C3C3C3"/>
<path d="M159.293 1098.31C160.315 1097.05 160.701 1095.42 160.381 1093.71C160.077 1092.09 159.159 1090.59 157.796 1089.49C156.433 1088.39 154.774 1087.8 153.123 1087.85C151.389 1087.89 149.872 1088.61 148.853 1089.87C146.8 1092.41 147.472 1096.37 150.351 1098.7C152.646 1100.55 155.658 1100.82 157.824 1099.57C158.378 1099.25 158.876 1098.83 159.293 1098.31Z" fill="#C3C3C3"/>
<path d="M164.743 1087.97C168.041 1086.07 168.959 1081.46 166.79 1077.71C164.62 1073.95 160.172 1072.44 156.874 1074.34C153.576 1076.25 152.659 1080.85 154.828 1084.61C156.998 1088.37 161.445 1089.88 164.743 1087.97Z" fill="#C3C3C3"/>
<path d="M176.038 1083.68L176.039 1083.68C176.643 1083.56 177.207 1083.34 177.722 1083.04C180.127 1081.65 181.461 1078.55 180.802 1075.34C180.423 1073.5 179.443 1071.88 178.045 1070.79C176.58 1069.65 174.838 1069.21 173.137 1069.56C171.435 1069.91 170.006 1071 169.111 1072.62C168.256 1074.18 167.995 1076.05 168.374 1077.9C169.175 1081.79 172.613 1084.39 176.038 1083.68Z" fill="#C3C3C3"/>
<path d="M188.175 1075.62L188.173 1075.62C184.929 1075.25 181.948 1077.94 181.528 1081.62C181.111 1085.29 183.409 1088.59 186.651 1088.96C187.833 1089.09 188.981 1088.82 189.982 1088.24C191.728 1087.23 193.029 1085.3 193.298 1082.96C193.715 1079.28 191.417 1075.99 188.175 1075.62Z" fill="#C3C3C3"/>
</g>
<g opacity="0.09">
<path d="M1371.22 1625.82C1367.74 1624.02 1363.63 1624.12 1360.23 1626.08C1356.84 1628.04 1354.71 1631.54 1354.52 1635.46L1354.09 1644.9C1354.01 1646.46 1354.44 1647.98 1355.31 1649.28C1356.19 1650.58 1357.43 1651.54 1358.91 1652.07C1360.39 1652.59 1361.96 1652.62 1363.46 1652.16C1364.96 1651.7 1366.24 1650.78 1367.17 1649.52L1367.23 1649.43C1369.58 1646.28 1373.16 1644.23 1377.07 1643.8C1378.08 1643.69 1379.04 1643.38 1379.9 1642.88C1380.37 1642.61 1380.81 1642.28 1381.21 1641.91C1382.36 1640.84 1383.12 1639.46 1383.41 1637.92C1383.69 1636.38 1383.48 1634.82 1382.79 1633.41C1382.1 1632.01 1381 1630.88 1379.61 1630.16L1371.22 1625.82Z" fill="#DBDBDB"/>
<path d="M1351.29 1637.31C1352.31 1636.05 1352.7 1634.42 1352.38 1632.71C1352.08 1631.09 1351.16 1629.59 1349.8 1628.49C1348.43 1627.39 1346.77 1626.8 1345.12 1626.85C1343.39 1626.89 1341.87 1627.61 1340.85 1628.87C1338.8 1631.41 1339.47 1635.37 1342.35 1637.7C1344.65 1639.55 1347.66 1639.82 1349.82 1638.57C1350.38 1638.25 1350.88 1637.83 1351.29 1637.31Z" fill="#DBDBDB"/>
<path d="M1356.74 1626.97C1360.04 1625.07 1360.96 1620.46 1358.79 1616.71C1356.62 1612.95 1352.17 1611.44 1348.87 1613.34C1345.58 1615.25 1344.66 1619.85 1346.83 1623.61C1349 1627.37 1353.45 1628.88 1356.74 1626.97Z" fill="#DBDBDB"/>
<path d="M1368.04 1622.68L1368.04 1622.68C1368.64 1622.56 1369.21 1622.34 1369.72 1622.04C1372.13 1620.65 1373.46 1617.55 1372.8 1614.34C1372.42 1612.5 1371.44 1610.88 1370.04 1609.79C1368.58 1608.65 1366.84 1608.21 1365.14 1608.56C1363.44 1608.91 1362.01 1610 1361.11 1611.62C1360.26 1613.18 1359.99 1615.05 1360.37 1616.9C1361.17 1620.79 1364.61 1623.39 1368.04 1622.68Z" fill="#DBDBDB"/>
<path d="M1380.17 1614.62L1380.17 1614.62C1376.93 1614.25 1373.95 1616.94 1373.53 1620.62C1373.11 1624.29 1375.41 1627.59 1378.65 1627.96C1379.83 1628.09 1380.98 1627.82 1381.98 1627.24C1383.73 1626.23 1385.03 1624.3 1385.3 1621.96C1385.71 1618.28 1383.42 1614.99 1380.17 1614.62Z" fill="#DBDBDB"/>
</g>
<g opacity="0.5">
<path d="M1075.22 722.822C1071.74 721.022 1067.63 721.117 1064.23 723.077C1060.84 725.036 1058.71 728.545 1058.52 732.461L1058.09 741.897C1058.01 743.462 1058.44 744.978 1059.31 746.278C1060.19 747.579 1061.43 748.543 1062.91 749.066C1064.39 749.588 1065.96 749.62 1067.46 749.158C1068.96 748.697 1070.24 747.784 1071.17 746.52L1071.23 746.435C1073.58 743.281 1077.16 741.23 1081.07 740.801C1082.08 740.69 1083.04 740.376 1083.9 739.879C1084.37 739.609 1084.81 739.285 1085.21 738.909C1086.36 737.843 1087.12 736.464 1087.41 734.923C1087.69 733.382 1087.48 731.822 1086.79 730.414C1086.1 729.005 1085 727.88 1083.61 727.16L1075.22 722.822Z" fill="#F3F3F3"/>
<path d="M1055.29 734.314C1056.31 733.051 1056.7 731.417 1056.38 729.712C1056.08 728.089 1055.16 726.589 1053.8 725.487C1052.43 724.386 1050.77 723.803 1049.12 723.846C1047.39 723.89 1045.87 724.61 1044.85 725.873C1042.8 728.41 1043.47 732.369 1046.35 734.699C1048.65 736.552 1051.66 736.819 1053.82 735.568C1054.38 735.249 1054.88 734.83 1055.29 734.314Z" fill="#F3F3F3"/>
<path d="M1060.74 723.972C1064.04 722.068 1064.96 717.463 1062.79 713.705C1060.62 709.947 1056.17 708.439 1052.87 710.343C1049.58 712.247 1048.66 716.853 1050.83 720.611C1053 724.368 1057.45 725.876 1060.74 723.972Z" fill="#F3F3F3"/>
<path d="M1072.04 719.683L1072.04 719.683C1072.64 719.558 1073.21 719.34 1073.72 719.042C1076.13 717.654 1077.46 714.55 1076.8 711.344C1076.42 709.498 1075.44 707.88 1074.04 706.788C1072.58 705.646 1070.84 705.209 1069.14 705.558C1067.44 705.908 1066.01 706.997 1065.11 708.625C1064.26 710.179 1063.99 712.052 1064.37 713.898C1065.17 717.791 1068.61 720.387 1072.04 719.683Z" fill="#F3F3F3"/>
<path d="M1084.17 711.616L1084.17 711.616C1080.93 711.249 1077.95 713.941 1077.53 717.617C1077.11 721.294 1079.41 724.587 1082.65 724.957C1083.83 725.093 1084.98 724.821 1085.98 724.243C1087.73 723.235 1089.03 721.295 1089.3 718.956C1089.71 715.279 1087.42 711.987 1084.17 711.616Z" fill="#F3F3F3"/>
</g>
<g opacity="0.5">
<path d="M510.218 1318.82C506.735 1317.02 502.63 1317.12 499.235 1319.08C495.84 1321.04 493.705 1324.54 493.524 1328.46L493.085 1337.9C493.012 1339.46 493.436 1340.98 494.311 1342.28C495.186 1343.58 496.429 1344.54 497.908 1345.07C499.386 1345.59 500.959 1345.62 502.457 1345.16C503.956 1344.7 505.238 1343.78 506.166 1342.52L506.228 1342.43C508.578 1339.28 512.16 1337.23 516.072 1336.8C517.081 1336.69 518.037 1336.38 518.897 1335.88C519.365 1335.61 519.805 1335.28 520.21 1334.91C521.359 1333.84 522.118 1332.46 522.405 1330.92C522.692 1329.38 522.479 1327.82 521.79 1326.41C521.101 1325.01 520.001 1323.88 518.609 1323.16L510.218 1318.82Z" fill="#F3F3F3"/>
<path d="M490.293 1330.31C491.315 1329.05 491.701 1327.42 491.381 1325.71C491.077 1324.09 490.159 1322.59 488.796 1321.49C487.433 1320.39 485.774 1319.8 484.123 1319.85C482.389 1319.89 480.872 1320.61 479.853 1321.87C477.8 1324.41 478.472 1328.37 481.351 1330.7C483.646 1332.55 486.658 1332.82 488.824 1331.57C489.378 1331.25 489.876 1330.83 490.293 1330.31Z" fill="#F3F3F3"/>
<path d="M495.743 1319.97C499.041 1318.07 499.959 1313.46 497.79 1309.71C495.62 1305.95 491.172 1304.44 487.874 1306.34C484.576 1308.25 483.659 1312.85 485.828 1316.61C487.998 1320.37 492.445 1321.88 495.743 1319.97Z" fill="#F3F3F3"/>
<path d="M507.038 1315.68L507.039 1315.68C507.643 1315.56 508.207 1315.34 508.722 1315.04C511.127 1313.65 512.461 1310.55 511.802 1307.34C511.423 1305.5 510.443 1303.88 509.045 1302.79C507.58 1301.65 505.838 1301.21 504.137 1301.56C502.435 1301.91 501.006 1303 500.111 1304.62C499.256 1306.18 498.995 1308.05 499.374 1309.9C500.175 1313.79 503.613 1316.39 507.038 1315.68Z" fill="#F3F3F3"/>
<path d="M519.175 1307.62L519.173 1307.62C515.929 1307.25 512.948 1309.94 512.528 1313.62C512.111 1317.29 514.409 1320.59 517.651 1320.96C518.833 1321.09 519.981 1320.82 520.982 1320.24C522.728 1319.23 524.029 1317.3 524.298 1314.96C524.715 1311.28 522.417 1307.99 519.175 1307.62Z" fill="#F3F3F3"/>
</g>
<g opacity="0.5">
<path d="M773.667 47.0342H773.663C772.12 45.4837 769.688 45.259 767.887 46.5002L755.996 34.6127C757.407 32.5415 756.872 29.7182 754.801 28.3069C752.729 26.8955 749.906 27.4305 748.495 29.5017C747.965 30.2799 747.69 31.2039 747.708 32.1453C746.472 32.1094 745.277 32.5851 744.403 33.4598C742.591 35.1912 742.525 38.0639 744.257 39.8761C745.819 41.511 748.346 41.7467 750.183 40.429L762.071 52.3165C760.659 54.3877 761.194 57.211 763.266 58.6223C765.337 60.0336 768.16 59.4987 769.571 57.4274C770.102 56.6491 770.377 55.7252 770.358 54.7838C772.864 54.8408 774.942 52.8559 774.999 50.35C775.027 49.1092 774.546 47.9109 773.667 47.0342Z" fill="#F3F3F3"/>
</g>
<g opacity="0.5">
<path d="M1058.67 456.516H1058.66C1057.12 454.965 1054.69 454.74 1052.89 455.982L1041 444.094C1042.41 442.023 1041.87 439.2 1039.8 437.788C1037.73 436.377 1034.91 436.912 1033.49 438.983C1032.96 439.761 1032.69 440.685 1032.71 441.627C1031.47 441.591 1030.28 442.067 1029.4 442.941C1027.59 444.673 1027.53 447.545 1029.26 449.358C1030.82 450.992 1033.35 451.228 1035.18 449.91L1047.07 461.798C1045.66 463.869 1046.19 466.692 1048.27 468.104C1050.34 469.515 1053.16 468.98 1054.57 466.909C1055.1 466.131 1055.38 465.207 1055.36 464.265C1057.86 464.322 1059.94 462.337 1060 459.831C1060.03 458.591 1059.55 457.392 1058.67 456.516Z" fill="#F3F3F3"/>
</g>
<g opacity="0.5">
<path d="M1392.67 41.5156H1392.66C1391.12 39.9651 1388.69 39.7405 1386.89 40.9817L1375 29.0941C1376.41 27.0229 1375.87 24.1997 1373.8 22.7884C1371.73 21.3769 1368.91 21.912 1367.49 23.9832C1366.96 24.7614 1366.69 25.6853 1366.71 26.6267C1365.47 26.5908 1364.28 27.0665 1363.4 27.9413C1361.59 29.6726 1361.53 32.5453 1363.26 34.3576C1364.82 35.9925 1367.35 36.2282 1369.18 34.9104L1381.07 46.798C1379.66 48.8692 1380.19 51.6924 1382.27 53.1037C1384.34 54.515 1387.16 53.9801 1388.57 51.9088C1389.1 51.1306 1389.38 50.2067 1389.36 49.2653C1391.86 49.3223 1393.94 47.3373 1394 44.8315C1394.03 43.5907 1393.55 42.3923 1392.67 41.5156Z" fill="#F3F3F3"/>
</g>
<g opacity="0.5">
<path d="M338.667 222.516H338.663C337.12 220.965 334.688 220.74 332.887 221.982L320.996 210.094C322.407 208.023 321.872 205.2 319.801 203.788C317.729 202.377 314.906 202.912 313.495 204.983C312.965 205.761 312.69 206.685 312.708 207.627C311.472 207.591 310.277 208.067 309.403 208.941C307.591 210.673 307.525 213.545 309.257 215.358C310.819 216.992 313.346 217.228 315.183 215.91L327.071 227.798C325.659 229.869 326.194 232.692 328.266 234.104C330.337 235.515 333.16 234.98 334.571 232.909C335.102 232.131 335.377 231.207 335.358 230.265C337.864 230.322 339.942 228.337 339.999 225.831C340.027 224.591 339.546 223.392 338.667 222.516Z" fill="#F3F3F3"/>
</g>
<g opacity="0.09">
<path d="M36.6671 508.516H36.663C35.1198 506.965 32.6885 506.74 30.8871 507.982L18.9955 496.094C20.4068 494.023 19.8719 491.2 17.8006 489.788C15.7294 488.377 12.9062 488.912 11.4948 490.983C10.9646 491.761 10.6895 492.685 10.7078 493.627C9.47225 493.591 8.27662 494.067 7.40325 494.941C5.591 496.673 5.52547 499.545 7.25683 501.358C8.81872 502.992 11.3459 503.228 13.1832 501.91L25.0708 513.798C23.6594 515.869 24.1944 518.692 26.2657 520.104C28.3369 521.515 31.1601 520.98 32.5715 518.909C33.1017 518.131 33.3768 517.207 33.3585 516.265C35.8642 516.322 37.9418 514.337 37.9988 511.831C38.0271 510.591 37.5458 509.392 36.6671 508.516Z" fill="#78C0DE"/>
</g>
<g opacity="0.5">
<path d="M426.959 722.883H426.953C424.59 720.509 420.867 720.165 418.108 722.066L399.899 703.863C402.06 700.691 401.241 696.368 398.07 694.207C394.898 692.046 390.575 692.865 388.414 696.037C387.602 697.228 387.181 698.643 387.209 700.085C385.317 700.03 383.486 700.758 382.149 702.098C379.374 704.749 379.273 709.148 381.925 711.923C384.316 714.426 388.186 714.787 390.999 712.769L409.202 730.972C407.041 734.143 407.86 738.467 411.032 740.628C414.203 742.789 418.526 741.97 420.688 738.798C421.5 737.606 421.921 736.191 421.893 734.75C425.73 734.837 428.911 731.798 428.998 727.961C429.042 726.061 428.305 724.226 426.959 722.883Z" fill="#F3F3F3"/>
</g>
<g opacity="0.5">
<path d="M1286.96 1208.88H1286.95C1284.59 1206.51 1280.87 1206.17 1278.11 1208.07L1259.9 1189.86C1262.06 1186.69 1261.24 1182.37 1258.07 1180.21C1254.9 1178.05 1250.58 1178.87 1248.41 1182.04C1247.6 1183.23 1247.18 1184.64 1247.21 1186.08C1245.32 1186.03 1243.49 1186.76 1242.15 1188.1C1239.37 1190.75 1239.27 1195.15 1241.92 1197.92C1244.32 1200.43 1248.19 1200.79 1251 1198.77L1269.2 1216.97C1267.04 1220.14 1267.86 1224.47 1271.03 1226.63C1274.2 1228.79 1278.53 1227.97 1280.69 1224.8C1281.5 1223.61 1281.92 1222.19 1281.89 1220.75C1285.73 1220.84 1288.91 1217.8 1289 1213.96C1289.04 1212.06 1288.3 1210.23 1286.96 1208.88Z" fill="#F3F3F3"/>
</g>
<g opacity="0.07">
<path d="M432.376 1131.78H432.371C430.49 1129.9 427.527 1129.62 425.331 1131.13L410.838 1116.65C412.558 1114.12 411.906 1110.68 409.382 1108.96C406.858 1107.24 403.417 1107.89 401.697 1110.42C401.051 1111.37 400.715 1112.49 400.738 1113.64C399.232 1113.6 397.775 1114.17 396.71 1115.24C394.502 1117.35 394.422 1120.85 396.532 1123.06C398.435 1125.05 401.515 1125.34 403.755 1123.73L418.242 1138.22C416.522 1140.75 417.174 1144.19 419.699 1145.91C422.223 1147.63 425.664 1146.98 427.384 1144.45C428.03 1143.5 428.365 1142.38 428.343 1141.23C431.397 1141.3 433.929 1138.88 433.999 1135.83C434.033 1134.31 433.446 1132.85 432.376 1131.78Z" fill="#FFBD54"/>
</g>
<g opacity="0.07">
<path d="M38.3339 1727.39H38.3288C36.3997 1725.46 33.3606 1725.18 31.1089 1726.73L16.2444 1711.87C18.0086 1709.28 17.3399 1705.75 14.7508 1703.99C12.1617 1702.22 8.63281 1702.89 6.86854 1705.48C6.2057 1706.45 5.8619 1707.61 5.88478 1708.78C4.34031 1708.74 2.84577 1709.33 1.75407 1710.43C-0.511251 1712.59 -0.593157 1716.18 1.57104 1718.45C3.5234 1720.49 6.68235 1720.79 8.97902 1719.14L23.8384 1734C22.0743 1736.59 22.743 1740.12 25.3321 1741.88C27.9211 1743.64 31.4502 1742.98 33.2143 1740.39C33.8772 1739.41 34.221 1738.26 34.1981 1737.08C37.3302 1737.15 39.9272 1734.67 39.9985 1731.54C40.0339 1729.99 39.4323 1728.49 38.3339 1727.39Z" fill="#FFBD54"/>
</g>
<g opacity="0.07">
<path d="M724.334 1992.39H724.329C722.4 1990.46 719.361 1990.18 717.109 1991.73L702.244 1976.87C704.009 1974.28 703.34 1970.75 700.751 1968.99C698.162 1967.22 694.633 1967.89 692.869 1970.48C692.206 1971.45 691.862 1972.61 691.885 1973.78C690.34 1973.74 688.846 1974.33 687.754 1975.43C685.489 1977.59 685.407 1981.18 687.571 1983.45C689.523 1985.49 692.682 1985.79 694.979 1984.14L709.838 1999C708.074 2001.59 708.743 2005.12 711.332 2006.88C713.921 2008.64 717.45 2007.98 719.214 2005.39C719.877 2004.41 720.221 2003.26 720.198 2002.08C723.33 2002.15 725.927 1999.67 725.999 1996.54C726.034 1994.99 725.432 1993.49 724.334 1992.39Z" fill="#FFBD54"/>
</g>
</svg>
