<svg width="178" height="87" viewBox="0 0 178 87" fill="none" xmlns="http://www.w3.org/2000/svg">
<path d="M10.95 37.8814L0 32.8363L11.8544 27.3617C12.1905 10.9838 28.0139 7.43341 34.5763 8.06898C41.1387 8.70528 60.2298 20.4143 52.5373 44.3313C49.9161 52.4819 50.5349 73.5703 81.1231 71.6227C78.8256 75.9526 68.0414 93.9121 32.9413 82.4872C23.2099 79.3196 9.34357 63.6387 10.95 37.8814Z" fill="#FFBD54"/>
<path d="M110.817 32.7034C111.778 21.1025 105.764 10.5871 102.242 8.16466C98.9541 5.90511 98.9424 15.66 96.0152 21.0104C91.6692 19.1994 86.8543 18.1825 81.7799 18.1825C76.7151 18.1825 71.9082 19.195 67.5696 21.0002C64.6474 15.6468 64.6328 5.90511 61.3483 8.1632C57.8286 10.5754 51.8272 21.0842 52.7711 32.6625C49.1483 37.7441 47.0342 43.8294 47.0342 50.3758C47.0342 68.1563 62.591 81.3432 81.7792 81.3432C100.969 81.3432 116.524 68.1563 116.524 50.3758C116.524 43.847 114.421 37.7769 110.817 32.7034Z" fill="#78C0DE"/>
<path d="M109.119 52.411C110.017 36.4941 116.096 34.2937 116.894 24.5601C118 11.0817 127.285 1.28155 131.873 0.0747093C136.46 -1.12921 130.608 12.5493 134.719 17.1919C143.319 14.2106 148.78 16.7492 153.093 21.4151C157.409 26.0825 151.776 30.5395 160.223 29.3444C163.698 28.8513 167.31 28.9674 170.333 29.7374C170.619 29.5482 170.928 29.3867 171.264 29.2706C173.642 28.4473 176.316 29.9325 177.239 32.5923C177.587 33.5997 177.632 34.6305 177.427 35.5685C177.533 36.0821 177.576 36.6271 177.544 37.2064C177.077 45.3884 166.995 56.6577 160.73 57.4788C154.467 58.3014 147.815 57.2194 147.646 69.7525C147.42 86.4453 110.469 93.0515 101.418 76.1045C108.042 71.3129 108.434 64.5672 109.119 52.411Z" fill="black"/>
<path d="M136.873 22.1398C141.197 22.5219 144.634 20.2244 147.978 17.6485C146.633 17.4827 145.147 17.4724 143.48 17.6624C140.974 13.1316 148.234 3.0458 144.274 3.19191C140.706 3.31902 131.572 8.20997 127.36 17.075C130.417 19.1286 132.849 22.3575 136.873 22.1398Z" fill="black"/>
<path d="M38.1412 34.4355C37.6247 34.2806 37.0922 34.239 36.5626 34.3149C35.016 34.5356 33.7091 35.7482 33.3182 37.3145L29.8489 50.2764L22.9308 38.7785C22.0629 37.3949 20.4564 36.611 18.9311 36.8287C18.4109 36.9032 17.9302 37.0873 17.5014 37.3781C16.5305 37.9771 15.8613 38.8793 15.6152 39.9225C15.3785 40.9146 15.5567 41.9498 16.0995 42.8147L27.802 62.4625C27.886 62.632 28.0167 62.8774 28.2447 63.0769C28.3243 63.166 28.4163 63.239 28.5201 63.2975C28.5201 63.299 28.5201 63.299 28.5208 63.2997L28.6246 63.4487L28.7685 63.5576C28.8203 63.597 28.8795 63.6387 28.9467 63.6759L28.9745 63.8702L29.4683 64.0353L29.6195 64.1478L30.7395 64.3897L31.0726 64.4525L31.2391 64.4284C31.524 64.443 31.7352 64.413 31.8572 64.3962C32.0237 64.3728 32.2414 64.3414 32.511 64.2465L32.763 64.2107L32.969 64.0689L33.9743 63.4232L34.1803 63.1485C34.2402 63.082 34.3271 62.9863 34.4162 62.8489C34.4864 62.7671 34.5463 62.6765 34.5908 62.5779C34.6208 62.5304 34.6515 62.4815 34.68 62.4311C34.6858 62.4216 34.6916 62.4128 34.6968 62.4033C34.7947 62.2981 34.8728 62.1761 34.9284 62.0439C35.0277 61.8576 35.1081 61.6363 35.1533 61.4251L41.0013 39.2899C41.2877 38.2825 41.1686 37.2385 40.666 36.3517C40.1334 35.41 39.2268 34.7262 38.1412 34.4355Z" fill="white"/>
<path d="M81.5784 34.2806C72.2604 34.4435 64.7585 42.3837 64.8564 51.9998C65.096 61.6874 72.7038 69.2017 82.1767 69.1053H82.1869C87.1729 69.0176 91.2083 67.444 94.5177 64.2947C95.3234 63.5335 95.7632 62.5648 95.7881 61.4945C95.8217 60.1197 95.1605 58.915 94.5191 58.2334C93.8288 57.4423 92.6168 56.9849 91.2631 57.0083C89.9036 57.0324 88.6485 57.5416 87.7975 58.4095C86.7053 59.2292 84.8052 59.7763 82.9211 59.8099C82.6552 59.8143 82.3922 59.8077 82.1402 59.7917C80.1728 59.658 77.9381 58.6725 76.8292 57.4481L76.7393 57.3575C76.2345 56.8966 75.786 56.2427 75.4346 55.4684L94.0267 55.144C96.4485 55.1016 98.3157 53.5967 98.6225 51.4628C98.6949 51.1947 98.708 50.9018 98.7022 50.5643L98.6927 50.1632C97.9738 40.7992 90.7759 34.1199 81.5784 34.2806ZM89.2184 47.065L75.0416 47.3126C76.0117 45.3935 78.158 43.3458 81.7099 43.0858C85.3502 43.3422 87.9355 45.2306 89.2184 47.065Z" fill="white"/>
<path d="M138.074 49.6825C140.609 49.9469 142.971 48.0578 143.232 45.5572C143.496 43.0112 141.616 40.7232 139.038 40.4544L138.796 40.4288L139.581 32.8999C139.851 30.3123 138.036 28.074 135.449 27.8037C132.827 27.5297 130.562 29.3429 130.292 31.9297L129.505 39.4579L129.02 39.4075C126.432 39.1379 124.193 40.9526 123.923 43.5409C123.658 46.0846 125.511 48.3704 128.056 48.6371L128.541 48.6875L126.906 64.3517C126.443 68.7699 129.663 72.7411 134.083 73.2028C136.67 73.4731 138.908 71.6592 139.18 69.0702C139.407 66.8976 138.201 64.9711 136.31 64.2202L137.83 49.6562L138.074 49.6825Z" fill="white"/>
</svg>
