<svg width="22" height="21" viewBox="0 0 22 21" fill="none" xmlns="http://www.w3.org/2000/svg">
<path d="M15.986 7.18399L16.0048 7.22869L16.0515 7.24166C18.9877 8.05649 21.149 10.753 21.149 13.9447C21.149 17.7798 18.0288 20.9 14.1937 20.9C12.1916 20.9 10.3847 20.0494 9.11424 18.6906L9.08459 18.6589H9.04119H4.15019C3.15276 18.6589 2.3411 17.8472 2.3411 16.8498C2.3411 16.2771 2.60885 15.7659 3.02612 15.434L3.12448 15.3557L3.02612 15.2774C2.60885 14.9455 2.3411 14.4343 2.3411 13.8616C2.3411 13.289 2.60885 12.7778 3.02612 12.4458L3.12448 12.3676L3.02612 12.2893C2.60885 11.9573 2.3411 11.4461 2.3411 10.8735C2.3411 10.3009 2.60885 9.78965 3.02612 9.45768L3.12448 9.37943L3.02612 9.30117C2.60885 8.9692 2.3411 8.458 2.3411 7.88536C2.3411 6.88793 3.15276 6.07627 4.15019 6.07627H5.23256H5.42273L5.31495 5.9196C5.11466 5.62845 4.99722 5.27644 4.99722 4.89722C4.99722 4.51801 5.1147 4.166 5.31495 3.87484L5.42271 3.71817H5.23256H1.90909C0.911662 3.71817 0.1 2.90651 0.1 1.90909C0.1 0.911662 0.911662 0.1 1.90909 0.1H12.0771C13.0745 0.1 13.8861 0.911662 13.8861 1.90909C13.8861 2.2883 13.7687 2.64031 13.5684 2.93147L13.4607 3.08814H13.6508H16.9743C17.9717 3.08814 18.7834 3.8998 18.7834 4.89722C18.7834 5.89465 17.9717 6.70631 16.9743 6.70631H15.8938H15.7042L15.8113 6.86279C15.8795 6.96238 15.9381 7.06985 15.986 7.18399ZM14.7806 7.01436L14.8326 6.82472C14.6759 6.7488 14.5009 6.70631 14.3182 6.70631H4.15019C3.49999 6.70631 2.97114 7.23516 2.97114 7.88536C2.97114 8.53556 3.49999 9.06441 4.15019 9.06441H9.20105H9.24255L9.27185 9.03503C10.5319 7.77184 12.2731 6.98936 14.1937 6.98936C14.3913 6.98936 14.5869 6.99811 14.7806 7.01436ZM8.57268 9.8534L8.6887 9.69445H8.49191H4.15019C3.49995 9.69445 2.97114 10.2233 2.97114 10.8735C2.97114 11.5237 3.49995 12.0525 4.15019 12.0525H7.42519H7.49996L7.5211 11.9808C7.74912 11.2075 8.10819 10.4898 8.57268 9.8534ZM7.33325 12.799L7.35263 12.6826H7.23461H4.15019C3.49995 12.6826 2.97114 13.2114 2.97114 13.8616C2.97114 14.5119 3.49995 15.0407 4.15019 15.0407H7.209H7.3242L7.30801 14.9266C7.26246 14.6057 7.23837 14.2779 7.23837 13.9447C7.23837 13.5545 7.27118 13.1719 7.33325 12.799ZM7.47504 15.7448L7.45517 15.6707H7.37846H4.15019C3.49995 15.6707 2.97114 16.1995 2.97114 16.8498C2.97114 17.5 3.49995 18.0288 4.15019 18.0288H8.37421H8.56419L8.45665 17.8722C8.0168 17.2317 7.68146 16.5144 7.47504 15.7448ZM18.1533 4.89722C18.1533 4.24703 17.6245 3.71817 16.9743 3.71817H6.80631C6.15607 3.71817 5.62726 4.24703 5.62726 4.89722C5.62726 5.54742 6.15607 6.07627 6.80631 6.07627H14.3182H16.9743C17.6245 6.07627 18.1533 5.54742 18.1533 4.89722ZM0.730038 1.90909C0.730038 2.55928 1.25884 3.08814 1.90909 3.08814H12.0771C12.7273 3.08814 13.2561 2.55928 13.2561 1.90909C13.2561 1.25889 12.7273 0.730038 12.0771 0.730038H1.90909C1.25884 0.730038 0.730038 1.25889 0.730038 1.90909ZM7.86841 13.9447C7.86841 17.4325 10.7058 20.27 14.1937 20.27C17.6815 20.27 20.519 17.4325 20.519 13.9447C20.519 10.4568 17.6815 7.61939 14.1937 7.61939C10.7058 7.61939 7.86841 10.4568 7.86841 13.9447Z" fill="white" stroke="white" stroke-width="0.2"/>
</svg>
