<svg width="20" height="20" viewBox="0 0 20 20" fill="none" xmlns="http://www.w3.org/2000/svg">
<path d="M18.8889 0H1.11111C0.816426 0 0.533811 0.117063 0.325437 0.325437C0.117063 0.533811 0 0.816426 0 1.11111V18.8889C0 19.1836 0.117063 19.4662 0.325437 19.6746C0.533811 19.8829 0.816426 20 1.11111 20H10.6833V12.2667H8.08556V9.23889H10.6833V7.01667C10.6833 4.43333 12.2611 3.02556 14.5722 3.02556C15.3489 3.02333 16.1267 3.06333 16.9 3.14444V5.83333H15.3056C14.0522 5.83333 13.8078 6.43111 13.8078 7.30556V9.23333H16.8044L16.4156 12.2611H13.8067V20H18.8889C19.1836 20 19.4662 19.8829 19.6746 19.6746C19.8829 19.4662 20 19.1836 20 18.8889V1.11111C20 0.816426 19.8829 0.533811 19.6746 0.325437C19.4662 0.117063 19.1836 0 18.8889 0Z" fill="#1C3AA3"/>
</svg>
