<svg width="87" height="78" viewBox="0 0 87 78" fill="none" xmlns="http://www.w3.org/2000/svg">
<path d="M1.44446 7.22217H85.2222V73.6666C85.2222 74.4328 84.9179 75.1676 84.3761 75.7094C83.8343 76.2511 83.0995 76.5555 82.3333 76.5555H4.33335C3.56717 76.5555 2.83237 76.2511 2.29059 75.7094C1.74882 75.1676 1.44446 74.4328 1.44446 73.6666V7.22217Z" fill="#EBEBEB"/>
<path d="M1.44446 7.22217H85.2222V18.7777H1.44446V7.22217Z" fill="#428DC5"/>
<path d="M34.1737 34.6631C33.5662 35.7135 32.8298 36.684 31.9818 37.552C29.4103 40.1781 25.9349 41.7257 22.2627 41.88C18.5905 42.0342 14.9975 40.7834 12.215 38.3821C9.43241 35.9808 7.66937 32.6095 7.28463 28.9543C6.89989 25.299 7.92238 21.6346 10.144 18.7066C12.3656 15.7786 15.6194 13.8071 19.2432 13.1933C22.8671 12.5796 26.5886 13.3697 29.6504 15.4029C32.7123 17.4361 34.8844 20.5595 35.7247 24.1376C36.565 27.7157 36.0104 31.4795 34.1737 34.6631Z" fill="#8DC79D"/>
<path d="M32.9185 33.9386C32.3721 34.8836 31.7099 35.7567 30.9472 36.5377C28.6337 38.9004 25.5069 40.2928 22.2031 40.4316C18.8993 40.5703 15.6668 39.445 13.1633 37.2847C10.6599 35.1243 9.07365 32.0912 8.72748 28.8027C8.38131 25.5141 9.30119 22.2172 11.2999 19.5829C13.2987 16.9486 16.226 15.1749 19.4863 14.6227C22.7466 14.0705 26.0948 14.7813 28.8495 16.6105C31.6043 18.4397 33.5585 21.2498 34.3145 24.4689C35.0706 27.6881 34.5716 31.0743 32.9192 33.9386H32.9185Z" fill="#AAE5C8"/>
<path d="M34.1738 34.6631C33.5662 35.7136 32.8299 36.684 31.9818 37.552H24.552C23.4031 37.5508 22.3016 37.0939 21.4892 36.2815C20.6768 35.4691 20.2198 34.3676 20.2186 33.2187V30.3298H23.1075V33.2187C23.1075 33.6018 23.2597 33.9692 23.5306 34.24C23.8015 34.5109 24.1689 34.6631 24.552 34.6631H34.1738Z" fill="#428DC5"/>
<path d="M20.2222 56.3333C22.6155 56.3333 24.5556 54.3932 24.5556 52C24.5556 49.6067 22.6155 47.6666 20.2222 47.6666C17.829 47.6666 15.8889 49.6067 15.8889 52C15.8889 54.3932 17.829 56.3333 20.2222 56.3333Z" fill="#DBDBDB"/>
<path d="M20.2222 70.7778C22.6155 70.7778 24.5556 68.8377 24.5556 66.4444C24.5556 64.0512 22.6155 62.1111 20.2222 62.1111C17.829 62.1111 15.8889 64.0512 15.8889 66.4444C15.8889 68.8377 17.829 70.7778 20.2222 70.7778Z" fill="#DBDBDB"/>
<path d="M20.2222 53.4444C20.0324 53.4446 19.8444 53.4074 19.6691 53.3348C19.4938 53.2622 19.3345 53.1557 19.2004 53.0214L16.3115 50.1325C16.0406 49.8616 15.8884 49.4942 15.8884 49.1111C15.8884 48.728 16.0406 48.3606 16.3115 48.0897C16.5824 47.8188 16.9498 47.6666 17.3329 47.6666C17.716 47.6666 18.0834 47.8188 18.3543 48.0897L20.329 50.0644L26.5416 45.0943C26.8407 44.8548 27.2228 44.744 27.6036 44.7863C27.9844 44.8285 28.3329 45.0203 28.5723 45.3194C28.8117 45.6186 28.9225 46.0006 28.8803 46.3814C28.8381 46.7622 28.6463 47.1107 28.3472 47.3501L21.1249 53.1279C20.8689 53.3332 20.5504 53.4449 20.2222 53.4444Z" fill="#DC4D41"/>
<path d="M33.2222 47.6666H36.1111V50.5555H33.2222V47.6666Z" fill="#DBDBDB"/>
<path d="M39 47.6666H54.8889V50.5555H39V47.6666Z" fill="#DBDBDB"/>
<path d="M33.2222 53.4443H41.8888V56.3332H33.2222V53.4443Z" fill="#DBDBDB"/>
<path d="M44.7778 53.4443H53.4445V56.3332H44.7778V53.4443Z" fill="#DBDBDB"/>
<path d="M46.2222 37.5555C48.6155 37.5555 50.5556 35.6154 50.5556 33.2222C50.5556 30.8289 48.6155 28.8888 46.2222 28.8888C43.829 28.8888 41.8889 30.8289 41.8889 33.2222C41.8889 35.6154 43.829 37.5555 46.2222 37.5555Z" fill="#DBDBDB"/>
<path d="M46.2222 34.6666C46.0324 34.6669 45.8444 34.6296 45.6691 34.557C45.4938 34.4844 45.3345 34.3779 45.2004 34.2436L42.3115 31.3547C42.0406 31.0838 41.8884 30.7164 41.8884 30.3333C41.8884 29.9502 42.0406 29.5828 42.3115 29.3119C42.5824 29.041 42.9498 28.8888 43.3329 28.8888C43.716 28.8888 44.0834 29.041 44.3543 29.3119L46.3291 31.2866L52.5416 26.3165C52.8408 26.0771 53.2228 25.9663 53.6036 26.0085C53.9844 26.0507 54.3329 26.2425 54.5723 26.5416C54.8117 26.8408 54.9225 27.2228 54.8803 27.6036C54.8381 27.9845 54.6463 28.3329 54.3472 28.5724L47.1249 34.3501C46.8689 34.5554 46.5504 34.6671 46.2222 34.6666Z" fill="#DC4D41"/>
<path d="M59.2222 28.8888H62.1111V31.7777H59.2222V28.8888Z" fill="#DBDBDB"/>
<path d="M65 28.8888H78V31.7777H65V28.8888Z" fill="#DBDBDB"/>
<path d="M59.2222 34.6667H70.7777V37.5555H59.2222V34.6667Z" fill="#DBDBDB"/>
<path d="M73.6666 34.6667H78V37.5555H73.6666V34.6667Z" fill="#DBDBDB"/>
<path d="M33.2223 62.1109H36.1112V64.9998H33.2223V62.1109Z" fill="#DBDBDB"/>
<path d="M39 62.1109H54.8889V64.9998H39V62.1109Z" fill="#DBDBDB"/>
<path d="M33.2223 67.8887H43.3334V70.7776H33.2223V67.8887Z" fill="#DBDBDB"/>
<path d="M46.2223 67.8887H65.0001V70.7776H46.2223V67.8887Z" fill="#DBDBDB"/>
<path d="M37.5556 4.33329C37.5556 2.7378 36.2622 1.4444 34.6667 1.4444C33.0712 1.4444 31.7778 2.7378 31.7778 4.33329V10.1111C31.7778 11.7066 33.0712 13 34.6667 13C36.2622 13 37.5556 11.7066 37.5556 10.1111V4.33329Z" fill="#DBDBDB"/>
<path d="M20.2222 4.33332C20.2222 2.73783 18.9288 1.44443 17.3333 1.44443C15.7379 1.44443 14.4445 2.73783 14.4445 4.33332V10.1111C14.4445 11.7066 15.7379 13 17.3333 13C18.9288 13 20.2222 11.7066 20.2222 10.1111V4.33332Z" fill="#DBDBDB"/>
<path d="M54.8889 4.33329C54.8889 2.7378 53.5955 1.4444 52 1.4444C50.4045 1.4444 49.1111 2.7378 49.1111 4.33329V10.1111C49.1111 11.7066 50.4045 13 52 13C53.5955 13 54.8889 11.7066 54.8889 10.1111V4.33329Z" fill="#DBDBDB"/>
<path d="M72.2222 4.33329C72.2222 2.7378 70.9288 1.4444 69.3333 1.4444C67.7379 1.4444 66.4445 2.7378 66.4445 4.33329V10.1111C66.4445 11.7066 67.7379 13 69.3333 13C70.9288 13 72.2222 11.7066 72.2222 10.1111V4.33329Z" fill="#DBDBDB"/>
<path d="M78.9696 60.0328C78.0646 63.4616 75.9305 66.438 72.9734 68.3953C70.0163 70.3527 66.4428 71.1545 62.9329 70.648C59.423 70.1415 56.2219 68.3622 53.9389 65.6487C51.6558 62.9351 50.4502 59.4769 50.5514 55.9321C50.6527 52.3873 52.0538 49.0035 54.4881 46.4248C56.9224 43.8461 60.2199 42.2524 63.7529 41.9472C67.286 41.6419 70.8079 42.6464 73.6484 44.7694C76.4889 46.8924 78.4497 49.9858 79.1574 53.4606C79.6008 55.6367 79.5366 57.8857 78.9696 60.0328Z" fill="#FBB540"/>
<path d="M78.9696 60.033C78.1665 63.0486 76.4103 65.724 73.9629 67.6603C71.5154 69.5966 68.5078 70.6901 65.3882 70.7778H65L62.1111 62.1112H58.7022C58.0343 62.1116 57.387 61.8804 56.8704 61.457C56.3539 61.0336 56.0001 60.4442 55.8693 59.7892L54.8889 54.889L59.2222 53.4445L62.1111 49.1112H70.7778L78.9696 60.033Z" fill="#DA922A"/>
<path d="M75.1112 54.889V60.6667C75.1112 61.4329 74.8068 62.1677 74.265 62.7095C73.7232 63.2513 72.9884 63.5556 72.2223 63.5556C71.4561 63.5556 70.7213 63.2513 70.1795 62.7095C69.6377 62.1677 69.3334 61.4329 69.3334 60.6667V49.1112H70.7778L75.1112 54.889Z" fill="#834B10"/>
<path d="M62.1111 54.8889H65V57.7778H62.1111V54.8889Z" fill="#834B10"/>
<path d="M21.6638 31.7748C20.1319 31.7731 18.6634 31.1638 17.5802 30.0806C16.4971 28.9975 15.8878 27.5289 15.886 25.9971V23.1082C15.886 22.8399 15.9607 22.577 16.1017 22.3488C16.2427 22.1207 16.4445 21.9363 16.6844 21.8163L19.5733 20.3719L20.8653 22.9558L18.7749 24.001V25.9971C18.7749 26.7632 19.0792 27.498 19.621 28.0398C20.1628 28.5816 20.8976 28.886 21.6638 28.886C22.4299 28.886 23.1647 28.5816 23.7065 28.0398C24.2483 27.498 24.5527 26.7632 24.5527 25.9971V24.001L22.4622 22.9558L23.7542 20.3719L26.6431 21.8163C26.883 21.9363 27.0848 22.1207 27.2258 22.3488C27.3668 22.577 27.4415 22.8399 27.4415 23.1082V25.9971C27.4398 27.5289 26.8305 28.9975 25.7474 30.0807C24.6642 31.1638 23.1956 31.7731 21.6638 31.7748Z" fill="#4799CF"/>
<path d="M85.2222 5.77778H73.6667V4.33333C73.6667 3.18406 73.2101 2.08186 72.3975 1.2692C71.5848 0.456546 70.4826 0 69.3333 0C68.1841 0 67.0819 0.456546 66.2692 1.2692C65.4566 2.08186 65 3.18406 65 4.33333V5.77778H56.3333V4.33333C56.3333 3.18406 55.8768 2.08186 55.0641 1.2692C54.2515 0.456546 53.1493 0 52 0C50.8507 0 49.7485 0.456546 48.9359 1.2692C48.1232 2.08186 47.6667 3.18406 47.6667 4.33333V5.77778H39V4.33333C39 3.18406 38.5435 2.08186 37.7308 1.2692C36.9181 0.456546 35.8159 0 34.6667 0C33.5174 0 32.4152 0.456546 31.6025 1.2692C30.7899 2.08186 30.3333 3.18406 30.3333 4.33333V5.77778H21.6667V4.33333C21.6667 3.18406 21.2101 2.08186 20.3975 1.2692C19.5848 0.456546 18.4826 0 17.3333 0C16.1841 0 15.0819 0.456546 14.2692 1.2692C13.4565 2.08186 13 3.18406 13 4.33333V5.77778H1.44444C1.06135 5.77778 0.693954 5.92996 0.423068 6.20085C0.152182 6.47173 0 6.83913 0 7.22222V73.6667C0.001338 74.8155 0.458314 75.9169 1.27068 76.7293C2.08305 77.5417 3.18447 77.9987 4.33333 78H82.3333C83.4822 77.9987 84.5836 77.5417 85.396 76.7293C86.2084 75.9169 86.6653 74.8155 86.6667 73.6667V7.22222C86.6667 6.83913 86.5145 6.47173 86.2436 6.20085C85.9727 5.92996 85.6053 5.77778 85.2222 5.77778ZM67.8889 4.33333C67.8889 3.95024 68.0411 3.58284 68.312 3.31196C68.5828 3.04107 68.9502 2.88889 69.3333 2.88889C69.7164 2.88889 70.0838 3.04107 70.3547 3.31196C70.6256 3.58284 70.7778 3.95024 70.7778 4.33333V10.1111C70.7778 10.4942 70.6256 10.8616 70.3547 11.1325C70.0838 11.4034 69.7164 11.5556 69.3333 11.5556C68.9502 11.5556 68.5828 11.4034 68.312 11.1325C68.0411 10.8616 67.8889 10.4942 67.8889 10.1111V4.33333ZM50.5556 4.33333C50.5556 3.95024 50.7077 3.58284 50.9786 3.31196C51.2495 3.04107 51.6169 2.88889 52 2.88889C52.3831 2.88889 52.7505 3.04107 53.0214 3.31196C53.2923 3.58284 53.4444 3.95024 53.4444 4.33333V10.1111C53.4444 10.4942 53.2923 10.8616 53.0214 11.1325C52.7505 11.4034 52.3831 11.5556 52 11.5556C51.6169 11.5556 51.2495 11.4034 50.9786 11.1325C50.7077 10.8616 50.5556 10.4942 50.5556 10.1111V4.33333ZM33.2222 4.33333C33.2222 3.95024 33.3744 3.58284 33.6453 3.31196C33.9162 3.04107 34.2836 2.88889 34.6667 2.88889C35.0498 2.88889 35.4172 3.04107 35.688 3.31196C35.9589 3.58284 36.1111 3.95024 36.1111 4.33333V10.1111C36.1111 10.4942 35.9589 10.8616 35.688 11.1325C35.4172 11.4034 35.0498 11.5556 34.6667 11.5556C34.2836 11.5556 33.9162 11.4034 33.6453 11.1325C33.3744 10.8616 33.2222 10.4942 33.2222 10.1111V4.33333ZM34.4036 24.8538C34.7482 26.5266 34.7576 28.251 34.4312 29.9274C34.1048 31.6038 33.4492 33.1988 32.5022 34.6201C32.4922 34.6351 32.4814 34.649 32.4717 34.6638H24.5527C24.1697 34.6633 23.8026 34.511 23.5318 34.2402C23.261 33.9694 23.1087 33.6023 23.1082 33.2193V31.5922C24.3477 31.2703 25.4454 30.5465 26.2296 29.534C27.0137 28.5216 27.4399 27.2777 27.4416 25.9971V23.1082C27.4415 22.84 27.3668 22.5771 27.2258 22.3489C27.0848 22.1207 26.883 21.9363 26.6431 21.8163L23.7542 20.3719L22.4622 22.9558L24.5527 24.0011V25.9971C24.5527 26.7633 24.2483 27.4981 23.7065 28.0399C23.1648 28.5816 22.43 28.886 21.6638 28.886C20.8976 28.886 20.1628 28.5816 19.621 28.0399C19.0793 27.4981 18.7749 26.7633 18.7749 25.9971V24.0011L20.8654 22.9558L19.5733 20.3719L16.6844 21.8163C16.4445 21.9363 16.2427 22.1207 16.1017 22.3489C15.9607 22.5771 15.886 22.84 15.886 23.1082V25.9971C15.8877 27.2777 16.3139 28.5216 17.098 29.534C17.8822 30.5464 18.9799 31.2703 20.2193 31.5922V33.2193C20.2206 34.3682 20.6776 35.4697 21.49 36.282C22.3023 37.0944 23.4038 37.5514 24.5527 37.5527H29.8408C27.6346 39.3378 24.905 40.3522 22.0685 40.441C19.232 40.5298 16.4443 39.6882 14.1308 38.0445C11.8173 36.4009 10.1051 34.0455 9.25539 31.3377C8.40571 28.63 8.46522 25.7186 9.42484 23.0479C10.3845 20.3771 12.1915 18.0936 14.5702 16.5459C16.949 14.9982 19.7687 14.2712 22.5993 14.4758C25.4298 14.6805 28.1157 15.8055 30.247 17.6793C32.3784 19.5532 33.8381 22.0728 34.4036 24.8538ZM15.8889 4.33333C15.8889 3.95024 16.0411 3.58284 16.312 3.31196C16.5828 3.04107 16.9502 2.88889 17.3333 2.88889C17.7164 2.88889 18.0838 3.04107 18.3547 3.31196C18.6256 3.58284 18.7778 3.95024 18.7778 4.33333V10.1111C18.7778 10.4942 18.6256 10.8616 18.3547 11.1325C18.0838 11.4034 17.7164 11.5556 17.3333 11.5556C16.9502 11.5556 16.5828 11.4034 16.312 11.1325C16.0411 10.8616 15.8889 10.4942 15.8889 10.1111V4.33333ZM2.88889 8.66667H13V10.1111C12.9998 10.7121 13.125 11.3065 13.3674 11.8564C13.6099 12.4063 13.9644 12.8996 14.4083 13.3048C12.4869 14.2935 10.7877 15.6644 9.41507 17.3333H2.88889V8.66667ZM83.7778 73.6667C83.7773 74.0496 83.625 74.4168 83.3542 74.6876C83.0834 74.9584 82.7163 75.1107 82.3333 75.1111H4.33333C3.95037 75.1107 3.58322 74.9584 3.31243 74.6876C3.04164 74.4168 2.88932 74.0496 2.88889 73.6667V20.2222H7.51815C6.28362 22.6436 5.69111 25.3413 5.79731 28.0572C5.90351 30.7731 6.70486 33.4163 8.12471 35.7339C9.54455 38.0515 11.5354 39.966 13.9067 41.2942C16.278 42.6224 18.9505 43.3199 21.6685 43.3199C24.3864 43.3199 27.0589 42.6224 29.4302 41.2942C31.8016 39.966 33.7924 38.0515 35.2122 35.7339C36.6321 33.4163 37.4334 30.7731 37.5396 28.0572C37.6458 25.3413 37.0533 22.6436 35.8188 20.2222H83.7778V73.6667ZM83.7778 17.3333H33.9184C32.3996 15.4967 30.4883 14.0241 28.325 13.0239C26.1618 12.0237 23.8018 11.5214 21.4188 11.5539C21.583 11.0906 21.6668 10.6027 21.6667 10.1111V8.66667H30.3333V10.1111C30.3333 11.2604 30.7899 12.3626 31.6025 13.1752C32.4152 13.9879 33.5174 14.4444 34.6667 14.4444C35.8159 14.4444 36.9181 13.9879 37.7308 13.1752C38.5435 12.3626 39 11.2604 39 10.1111V8.66667H47.6667V10.1111C47.6667 11.2604 48.1232 12.3626 48.9359 13.1752C49.7485 13.9879 50.8507 14.4444 52 14.4444C53.1493 14.4444 54.2515 13.9879 55.0641 13.1752C55.8768 12.3626 56.3333 11.2604 56.3333 10.1111V8.66667H65V10.1111C65 11.2604 65.4566 12.3626 66.2692 13.1752C67.0819 13.9879 68.1841 14.4444 69.3333 14.4444C70.4826 14.4444 71.5848 13.9879 72.3975 13.1752C73.2101 12.3626 73.6667 11.2604 73.6667 10.1111V8.66667H83.7778V17.3333Z" fill="black"/>
<path d="M49.3735 53.4445H44.7778V56.3334H49.11C49.1133 58.3102 49.4832 60.2693 50.2009 62.1112H39V65.0001H51.6873C52.3757 66.0556 53.1874 67.0254 54.1051 67.8889H46.2222V70.7778H58.3917C60.4636 71.7317 62.7173 72.2259 64.9982 72.2268C65.1209 72.2268 65.2437 72.2253 65.3667 72.2223H65.3884C68.1189 72.1559 70.7861 71.3867 73.1327 69.9891C75.4793 68.5914 77.426 66.6125 78.7849 64.2432C80.1437 61.874 80.8689 59.1944 80.8905 56.4632C80.912 53.732 80.2291 51.0414 78.9077 48.651C77.5863 46.2607 75.671 44.2513 73.3467 42.8169C71.0224 41.3824 68.3676 40.5714 65.6385 40.4619C62.9094 40.3525 60.1982 40.9485 57.7666 42.1922C55.3349 43.436 53.2649 45.2856 51.7564 47.5625C51.7337 47.5968 51.7135 47.6324 51.6909 47.6669H39V50.5558H50.2013C49.8337 51.49 49.5565 52.4574 49.3735 53.4445ZM67.5915 69.0761C67.0754 69.1797 66.5535 69.252 66.0286 69.2928L63.4828 61.6542C63.3868 61.3664 63.2027 61.1161 62.9565 60.9389C62.7102 60.7616 62.4145 60.6664 62.1111 60.6667H58.7022C58.3684 60.6663 58.045 60.5504 57.7869 60.3389C57.5287 60.1273 57.3516 59.833 57.2856 59.5057L56.5554 55.856L59.679 54.8149C59.9837 54.7133 60.2459 54.5131 60.424 54.2458L62.8841 50.5556H67.8889V60.6667C67.8889 61.816 68.3454 62.9182 69.1581 63.7308C69.9708 64.5435 71.073 65.0001 72.2222 65.0001C73.3715 65.0001 74.4737 64.5435 75.2864 63.7308C76.099 62.9182 76.5556 61.816 76.5556 60.6667V59.2223L77.3738 60.3134C76.6672 62.5106 75.3887 64.4803 73.6694 66.0202C71.9502 67.5601 69.8521 68.6148 67.5906 69.0761H67.5915ZM70.7778 60.6667V51.5185L70.8126 51.5651L73.6667 55.3705V60.6667C73.6667 61.0498 73.5145 61.4172 73.2436 61.6881C72.9727 61.959 72.6053 62.1112 72.2222 62.1112C71.8391 62.1112 71.4717 61.959 71.2008 61.6881C70.93 61.4172 70.7778 61.0498 70.7778 60.6667ZM54.1645 49.1577C55.7075 46.8293 57.9595 45.0598 60.5868 44.1111C63.214 43.1625 66.077 43.0852 68.7516 43.8908C71.4263 44.6963 73.7703 46.3419 75.4367 48.5837C77.1031 50.8255 78.0032 53.5444 78.0036 56.3377L71.9333 48.2445C71.8159 48.088 71.6679 47.9569 71.4984 47.8593C71.3288 47.7617 71.1411 47.6995 70.9468 47.6766C70.8907 47.6701 70.8343 47.6668 70.7778 47.6667H62.1111C61.8733 47.6667 61.6392 47.7254 61.4296 47.8376C61.2199 47.9498 61.0412 48.112 60.9093 48.3099L58.2952 52.2308L54.4314 53.5185C54.0973 53.6298 53.8155 53.8593 53.6388 54.1639C53.462 54.4684 53.4026 54.827 53.4717 55.1722L54.4519 60.0714C54.65 61.0532 55.1813 61.9364 55.9559 62.5713C56.7304 63.2063 57.7007 63.554 58.7022 63.5556H61.07L62.9417 69.1709C60.795 68.8264 58.7691 67.9489 57.0492 66.6189C55.3294 65.2888 53.9707 63.5486 53.0975 61.5575C52.2243 59.5665 51.8644 57.3882 52.0508 55.2221C52.2373 53.056 52.9641 50.9712 54.1647 49.1586L54.1645 49.1577Z" fill="black"/>
<path d="M20.2222 60.6668C19.0795 60.6668 17.9624 61.0056 17.0123 61.6405C16.0621 62.2754 15.3216 63.1777 14.8843 64.2335C14.447 65.2892 14.3325 66.451 14.5555 67.5717C14.7784 68.6925 15.3287 69.722 16.1367 70.5301C16.9448 71.3381 17.9743 71.8884 19.095 72.1113C20.2158 72.3343 21.3775 72.2198 22.4333 71.7825C23.489 71.3452 24.3914 70.6047 25.0263 69.6545C25.6612 68.7044 26 67.5873 26 66.4446C25.9983 64.9127 25.389 63.4441 24.3058 62.361C23.2227 61.2778 21.7541 60.6685 20.2222 60.6668ZM20.2222 69.3334C19.6509 69.3334 19.0923 69.164 18.6173 68.8466C18.1422 68.5291 17.7719 68.078 17.5533 67.5501C17.3346 67.0222 17.2774 66.4413 17.3889 65.881C17.5003 65.3206 17.7755 64.8058 18.1795 64.4018C18.5835 63.9978 19.0983 63.7226 19.6586 63.6112C20.219 63.4997 20.7999 63.5569 21.3278 63.7756C21.8556 63.9942 22.3068 64.3645 22.6243 64.8396C22.9417 65.3146 23.1111 65.8732 23.1111 66.4446C23.1102 67.2105 22.8056 67.9447 22.264 68.4863C21.7224 69.0279 20.9881 69.3325 20.2222 69.3334Z" fill="black"/>
<path d="M26.5416 45.0943L23.6858 47.3788C22.5593 46.5343 21.1635 46.1297 19.76 46.2407C18.3565 46.3518 17.0417 46.971 16.0621 47.9822C15.0825 48.9934 14.5053 50.3272 14.4388 51.7335C14.3723 53.1398 14.8211 54.5221 15.7009 55.6212C16.5808 56.7203 17.8313 57.4608 19.2181 57.7038C20.6048 57.9467 22.0326 57.6756 23.2337 56.9411C24.4349 56.2066 25.3268 55.0592 25.7424 53.7141C26.1581 52.3689 26.0688 50.9184 25.4913 49.6343L28.3472 47.3501C28.6463 47.1107 28.8381 46.7622 28.8803 46.3814C28.9225 46.0006 28.8118 45.6186 28.5723 45.3194C28.3329 45.0203 27.9844 44.8285 27.6036 44.7863C27.2228 44.744 26.8408 44.8548 26.5416 45.0943ZM20.2222 49.1111C20.5812 49.1116 20.937 49.1794 21.271 49.3111L20.3294 50.0644L19.477 49.212C19.7199 49.1459 19.9704 49.112 20.2222 49.1111ZM20.2222 54.8889C19.7788 54.8905 19.3411 54.7897 18.9432 54.5944C18.5452 54.399 18.1978 54.1144 17.9279 53.7626C17.658 53.4109 17.4731 53.0016 17.3875 52.5666C17.3018 52.1317 17.3178 51.6828 17.4342 51.255L19.2008 53.0214C19.4521 53.2727 19.7873 53.4225 20.1422 53.4422C20.4971 53.4618 20.8468 53.3499 21.1244 53.1279L23.0744 51.5674C23.1402 51.9788 23.1156 52.3997 23.0023 52.8006C22.8889 53.2016 22.6896 53.5731 22.4182 53.8892C22.1467 54.2053 21.8096 54.4585 21.4304 54.6312C21.0511 54.8038 20.6388 54.8917 20.2222 54.8889Z" fill="black"/>
<path d="M62.1111 54.8889H65V57.7778H62.1111V54.8889Z" fill="black"/>
<path d="M33.2222 47.6666H36.1111V50.5555H33.2222V47.6666Z" fill="black"/>
<path d="M33.2222 53.4443H41.8888V56.3332H33.2222V53.4443Z" fill="black"/>
<path d="M46.2222 39C47.1867 39.0006 48.1361 38.7596 48.9835 38.299C49.831 37.8383 50.5495 37.1727 51.0735 36.3629C51.5975 35.553 51.9103 34.6249 51.9833 33.6631C52.0562 32.7013 51.8871 31.7365 51.4913 30.8569L54.3472 28.5724C54.6463 28.3329 54.8381 27.9845 54.8803 27.6036C54.9225 27.2228 54.8117 26.8408 54.5723 26.5416C54.4538 26.3935 54.3072 26.2702 54.141 26.1787C53.9748 26.0873 53.7922 26.0294 53.6036 26.0085C53.2228 25.9663 52.8408 26.0771 52.5416 26.3165L49.6858 28.6011C48.9534 28.0519 48.1009 27.6847 47.1988 27.5297C46.2966 27.3747 45.3705 27.4362 44.4968 27.7093C43.6231 27.9825 42.8268 28.4593 42.1735 29.1005C41.5203 29.7418 41.0288 30.5291 40.7395 31.3976C40.4502 32.2661 40.3715 33.1909 40.5098 34.0958C40.6481 35.0007 40.9994 35.8597 41.5348 36.6022C42.0703 37.3447 42.7745 37.9492 43.5895 38.3661C44.4044 38.783 45.3068 39.0003 46.2222 39ZM46.2222 30.3333C46.5812 30.3338 46.937 30.4016 47.271 30.5334L46.3294 31.2866L45.477 30.4342C45.7199 30.3681 45.9704 30.3342 46.2222 30.3333ZM43.4342 32.4772L45.2008 34.2436C45.4521 34.4949 45.7873 34.6448 46.1422 34.6644C46.4971 34.6841 46.8468 34.5722 47.1244 34.3501L49.0744 32.7896C49.1412 33.2151 49.112 33.6502 48.989 34.063C48.8659 34.4758 48.6521 34.8559 48.3632 35.1754C48.0743 35.4949 47.7176 35.7457 47.3192 35.9095C46.9208 36.0733 46.4908 36.146 46.0608 36.1222C45.6307 36.0984 45.2113 35.9787 44.8335 35.7719C44.4556 35.5651 44.1288 35.2764 43.8769 34.9269C43.6251 34.5775 43.4545 34.1762 43.3778 33.7523C43.3011 33.3284 43.3201 32.8928 43.4335 32.4772H43.4342Z" fill="black"/>
<path d="M59.2222 28.8888H62.1111V31.7777H59.2222V28.8888Z" fill="black"/>
<path d="M65 28.8888H78V31.7777H65V28.8888Z" fill="black"/>
<path d="M59.2222 34.6667H70.7777V37.5556H59.2222V34.6667Z" fill="black"/>
<path d="M73.6666 34.6667H78V37.5556H73.6666V34.6667Z" fill="black"/>
<path d="M33.2222 62.1111H36.1111V65H33.2222V62.1111Z" fill="black"/>
<path d="M33.2222 67.8889H43.3333V70.7778H33.2222V67.8889Z" fill="black"/>
</svg>
