<svg width="161" height="126" viewBox="0 0 161 126" fill="none" xmlns="http://www.w3.org/2000/svg">
<path d="M31.6925 125.258C32.5213 124.78 32.742 123.863 32.3077 122.495C31.3824 120.346 30.8339 118.097 30.6624 115.749C30.5699 114.974 30.4786 114.474 30.3294 114.284C30.3123 114.254 30.2952 114.225 30.2656 114.242L30.2193 115.255C30.2571 116.141 30.2846 116.599 30.2254 116.633L30.1171 116.103C29.8592 114.358 29.3657 113.025 28.6787 112.04C28.5808 111.939 28.5466 111.879 28.4874 111.914C28.3269 112.046 28.3943 112.915 28.7069 114.55C28.8494 115.138 28.9702 115.621 29.0649 115.922C29.2928 116.658 29.4058 117.264 29.3444 117.773C29.3331 118.095 29.1943 118.333 28.9575 118.47C28.7207 118.607 28.6331 118.934 28.6823 119.497C28.7314 120.061 28.7201 120.383 28.6017 120.451C28.5425 120.486 28.4958 120.473 28.415 120.401C28.3124 120.224 28.1836 119.864 28.0878 119.288L27.9578 118.653C27.6294 117.263 27.3773 115.87 27.2311 114.454C27.0245 112.798 26.7165 111.239 26.2731 109.719C26.1568 109.312 25.9401 108.254 25.6822 106.508C25.3593 104.445 25.1585 103.14 25.1264 102.606C25.1173 102.453 25.0431 101.983 24.9039 101.195C24.7364 100.7 24.9253 100.275 25.4581 99.9675C26.2277 99.5231 26.4803 99.1404 26.2628 98.8319C26.1477 98.701 25.9905 98.6339 25.7867 98.5542C25.5532 98.4917 25.4132 98.4541 25.3619 98.3653L25.3448 98.3357C25.2935 98.2469 25.314 98.0773 25.4528 97.8392C27.1931 95.4531 29.1055 93.6386 31.1184 92.4765C31.9472 91.998 32.7681 91.6424 33.6277 91.4224C33.1007 92.0818 32.4461 92.6571 31.6173 93.1356C31.3805 93.2723 31.1733 93.392 30.9786 93.4649C30.209 93.9092 29.6762 94.2169 29.3973 94.4173C28.9283 94.7671 28.6585 95.1202 28.5459 95.5404C28.5255 95.71 28.5471 95.8159 28.5813 95.8751C28.7305 96.0652 29.1666 95.9319 29.9362 95.4875C30.6466 95.0774 31.5551 94.395 32.7083 93.453L34.2292 92.2591C34.4489 92.0928 34.6686 91.9265 34.9646 91.7556C35.2606 91.5847 35.5566 91.4138 35.8105 91.3067C36.094 91.1825 36.3308 91.0457 36.538 90.9261C36.7748 90.7894 37.0116 90.6527 37.1722 90.5205C37.5695 90.2517 37.8221 89.869 37.9302 89.3725L37.9256 89.2962C37.8914 89.237 37.7513 89.1995 37.4758 89.2007C37.1489 89.1131 36.9451 89.0335 36.8938 88.9447C36.8767 88.9151 36.8892 88.8684 36.9484 88.8342C36.9951 88.8467 37.0714 88.8421 37.1306 88.808C37.2786 88.7225 37.2353 88.5107 37.0006 88.1726C36.7659 87.8345 36.5108 87.6661 36.2478 87.6206C36.0314 87.5876 35.7729 87.6185 35.5019 87.696C35.1547 87.7781 34.9554 87.7747 34.8574 87.6734C34.7891 87.555 34.8141 87.4616 34.9621 87.3762C35.0805 87.3078 35.2456 87.252 35.4699 87.1619C35.7113 87.1015 35.9185 86.9819 36.1553 86.8452C36.5401 86.623 36.6869 86.262 36.591 85.6858C36.4827 85.1564 36.3493 84.7203 36.1146 84.3822C35.6352 84.3038 34.721 84.6343 33.3889 85.4033C31.0209 86.7705 28.8442 88.264 26.8588 89.8839C25.7056 90.826 25.0044 91.3887 24.7676 91.5254C24.7209 91.5129 24.64 91.4412 24.525 91.3103C24.4395 91.1623 24.3199 90.9551 24.1832 90.7183C24.0373 90.3289 23.8151 89.9441 23.5338 89.5935C23.4654 89.4751 23.4016 89.4329 23.3549 89.4204L23.5054 89.8861C23.6729 90.3814 23.6913 90.6866 23.5729 90.7549C23.4078 90.8108 23.2506 90.7436 23.1356 90.6127C23.033 90.4351 22.9213 90.1049 22.8768 89.6176C22.8368 89.2065 22.8697 88.9902 23.0177 88.9047C23.0769 88.8705 23.2466 88.891 23.4208 88.9877C23.6247 89.0674 23.7944 89.0878 23.8536 89.0536C24.0016 88.9682 23.8945 88.7143 23.6085 88.2874L23.2292 87.8354C22.9603 87.4381 22.794 87.2184 22.7894 87.1421C22.7848 87.0658 22.7973 87.0191 22.8565 86.9849C22.9158 86.9508 22.992 86.9462 23.0979 86.9245C23.1742 86.9199 23.2801 86.8983 23.3393 86.8641C23.4873 86.7786 23.4907 86.5794 23.3027 86.2538C23.1055 85.7756 23.1043 85.5 23.2819 85.3975C23.4891 85.2778 23.4912 84.803 23.2883 83.973C23.197 83.4731 23.0853 83.1429 22.9361 82.9528C22.8381 82.8515 22.7744 82.8094 22.6685 82.8311C22.3679 82.9257 22.1857 82.9519 22.1686 82.9223L22.0877 82.8506C22.0536 82.7914 22.1378 82.6638 22.3575 82.4975C22.7924 82.0886 22.9437 81.8039 22.8412 81.6263L22.6236 81.3177C22.2397 80.7895 21.2046 80.6373 19.5057 80.9077L18.0061 81.1814L19.206 80.2519C20.4184 79.2756 21.0434 78.7175 21.0809 78.5774C21.0376 78.3656 20.935 78.188 20.8154 77.9808C20.7004 77.8499 20.607 77.8249 20.4886 77.8933C20.3702 77.9616 20.3452 78.055 20.4602 78.1859C20.4944 78.2451 20.4523 78.3089 20.3043 78.3943C19.9195 78.6165 19.4492 78.6907 18.8514 78.6806C18.6054 78.6647 18.4654 78.6272 18.3845 78.5555C18.0985 78.1286 18.2453 77.7676 18.7781 77.46L19.7003 77.0065C20.1147 76.7672 20.3173 76.5713 20.2911 76.3891C20.2819 76.2365 20.6918 75.921 21.5206 75.4425L22.8401 74.7201C24.3497 73.8485 25.3345 73.1616 25.7476 72.6468C25.8786 72.5317 25.9503 72.4508 26.0391 72.3996C26.1871 72.3141 26.3101 72.322 26.3909 72.3938C26.4718 72.4655 26.6415 72.4859 26.8828 72.4255C27.1709 72.3776 27.4544 72.2534 27.8267 72.0779C28.6134 71.6631 29.0837 71.589 29.3309 71.8804C29.4163 72.0284 29.3913 72.1218 29.2433 72.2072L29.0486 72.2802C28.7434 72.2985 28.1172 72.5811 27.17 73.128C26.2228 73.6748 25.6433 73.9699 25.419 74.06C25.2118 74.1796 25.1959 74.4256 25.4181 74.8104C25.5673 75.0005 25.6824 75.1314 25.7929 75.186C25.9033 75.2406 26.369 75.0902 27.1853 74.6584C28.0437 74.1628 28.4832 73.8301 28.474 73.6775C28.6003 73.4862 29.0102 73.1706 29.6614 72.7947C29.839 72.6921 30.2876 72.5121 31.0071 72.2545C31.6208 72.0186 32.222 71.8294 32.781 71.7039C33.717 71.4793 34.3364 71.5953 34.6862 72.0643C34.8867 72.3432 35.0121 72.9023 35.0329 73.7586C35.0137 74.2038 35.0616 74.4919 35.1299 74.6103C35.1766 74.6228 35.2233 74.6353 35.3292 74.6136L35.6457 74.2731C36.2581 73.7616 36.7134 73.183 37.0115 72.5372C37.3209 71.5693 37.5349 71.0511 37.5941 71.0169C37.6999 70.9952 37.8104 71.0499 37.9426 71.2104C38.2331 71.7136 38.3369 72.1667 38.2197 72.5107C38.1492 72.8671 38.1333 73.1131 38.2484 73.244L38.3122 73.2861C38.3714 73.2519 38.4806 73.031 38.5932 72.6108C38.7354 72.1735 38.8559 71.6303 38.9206 70.922C38.9557 70.2308 38.9316 69.5738 38.7845 68.9088C38.6544 68.2735 38.406 67.7065 38.0392 67.2078C37.4206 66.3415 36.4981 65.769 35.2249 65.4779C33.7867 65.2427 32.2017 65.3685 30.4449 65.9486C28.6881 66.5288 27.093 67.2523 25.7018 68.0556L24.8012 68.615C24.7979 68.8142 24.5953 69.0101 24.2697 69.1981L23.9862 69.3223C23.4317 69.5241 23.0719 69.6529 22.8943 69.7554C22.8055 69.8067 22.7167 69.8579 22.645 69.9388C22.176 70.2885 21.4234 70.7625 20.4466 71.3264C18.7048 72.411 17.0984 73.4569 15.6913 74.506C15.0026 75.0221 14.5928 75.3376 14.496 75.5119C14.3697 75.7032 14.1796 75.8525 13.9132 76.0063C13.6468 76.1601 13.1652 76.5565 12.4982 77.1784C11.8732 77.7366 10.9147 78.6057 9.51677 79.8075C8.803 80.4169 8.05964 81.0434 7.36297 81.6825L6.37487 82.5687C4.90065 83.775 3.60068 85.0781 2.47496 86.4779C1.27754 87.9586 0.649551 89.742 0.531807 91.8623C0.467128 92.5706 0.494604 93.0283 0.643833 93.2184L0.660923 93.248C0.839753 93.421 1.30208 93.4699 2.0775 93.3774C1.95574 93.645 1.85901 93.8193 1.76228 93.9935C1.4971 94.4229 1.36741 94.8135 1.29693 95.1699C1.25604 95.5093 1.3473 96.0091 1.60029 96.6524L1.74617 97.0418C1.84994 97.4949 1.99582 97.8843 2.17922 98.1336C2.36263 98.383 2.579 98.4159 2.83289 98.3088C3.4249 97.967 3.79932 97.3167 4.00284 96.3704C4.11544 95.9502 4.30432 95.5254 4.5103 95.1302C5.04981 94.424 5.61435 93.6245 6.14012 92.6894C7.0153 91.1975 7.62194 90.3342 7.97715 90.1291C8.02384 90.1416 8.08304 90.1074 8.17184 90.0561C8.40865 89.9194 8.65338 89.6597 8.93565 89.2599C9.18831 88.8773 9.56396 88.5025 10.0284 88.0765L10.1889 87.9444C10.4974 87.7268 11.0336 87.2199 11.8566 86.3895C12.0296 86.2107 12.477 85.7551 13.2158 85.0523C13.4901 84.7755 13.7394 84.5921 13.917 84.4895C14.4202 84.199 15.2524 83.5212 16.3839 82.4732C16.426 82.4095 16.4681 82.3457 16.4977 82.3286C16.6458 82.2431 16.7858 82.2807 16.9351 82.4708C17.2039 82.8681 17.4798 83.8928 17.7627 85.545L19.0482 92.42C19.4737 94.6608 19.6495 96.059 19.5882 96.5681C19.5006 96.8949 19.3492 97.1796 19.1637 97.4051C18.9782 97.6307 18.6617 97.9712 18.2781 98.469C16.5616 100.486 15.4564 101.716 14.9156 102.147C14.4887 102.433 14.1005 102.854 13.7808 103.394C13.5406 103.73 13.2287 104.147 12.8747 104.628C12.1326 105.53 11.6944 106.138 11.5601 106.452C11.4646 106.902 11.5513 107.326 11.8202 107.723C12.0719 108.091 12.3567 108.242 12.6618 108.224C12.967 108.205 13.2004 108.268 13.3964 108.471C13.4772 108.542 13.5923 108.673 13.7665 108.77C14.451 109.203 14.9179 109.329 15.1422 109.239C15.3961 109.131 15.5316 109.093 15.5908 109.059C15.946 108.853 16.3091 108.525 16.6631 108.045C17.6579 106.76 18.6744 105.581 19.7547 104.444C19.8651 104.499 19.9289 104.541 20.0177 104.49C20.0769 104.456 20.1236 104.468 20.1407 104.498L20.0986 104.562C19.9552 104.723 19.9472 104.846 20.0156 104.965C20.0965 105.036 20.2536 105.103 20.4575 105.183C20.954 105.291 21.2854 105.455 21.4688 105.704C21.6351 105.924 21.7001 106.242 21.6809 106.687C21.59 107.213 22.2996 111.382 23.8268 119.222C23.9489 119.98 24.1393 120.857 24.4448 121.865C24.6603 122.648 24.9429 123.274 25.2459 123.731C25.3781 123.891 25.5102 124.052 25.6719 124.195C28.1127 125.825 30.1237 126.164 31.6925 125.258ZM25.155 99.5109C24.9432 99.5543 24.769 99.4575 24.5685 99.1786C24.4705 99.0773 24.4956 98.9839 24.5844 98.9327C24.7028 98.8643 24.779 98.8597 24.8895 98.9143C25 98.969 25.0809 99.0407 25.1617 99.1124C25.2814 99.3196 25.2734 99.4426 25.155 99.5109ZM6.66189 89.9018C6.42508 90.0385 6.2725 90.0476 6.17454 89.9463C6.00822 89.7266 6.60236 88.91 7.93986 87.4668C9.61089 85.7127 10.6832 84.6989 11.1568 84.4255L11.2456 84.3742C11.6008 84.1691 11.9936 83.824 12.4489 83.2454C12.8916 82.7135 13.3436 82.3342 13.758 82.0949L14.1895 81.8852C14.5151 81.6973 14.7894 81.4205 14.9829 81.072C15.1764 80.7235 15.4211 80.4638 15.7171 80.2929C16.1907 80.0194 16.5426 80.0136 16.8023 80.2584C16.9219 80.4656 16.8297 80.7161 16.462 80.9679C16.0943 81.2196 15.8496 81.4793 15.6982 81.7641C15.5469 82.0488 15.1074 82.3814 14.4266 82.7745C13.7504 83.2438 13.476 83.5206 13.5444 83.639C13.6595 83.7699 13.5752 83.8975 13.3088 84.0513L12.5346 84.4194C12.209 84.6073 12.0827 84.7987 12.1556 84.9934C12.2286 85.1881 12.191 85.3281 12.043 85.4136C11.9542 85.4649 11.8654 85.5161 11.7425 85.5082C11.607 85.547 11.4123 85.6199 11.1755 85.7566C10.6723 86.0471 10.2032 86.3969 9.75587 86.8525C8.86115 87.7637 8.12695 88.5428 7.53617 89.1602C7.19012 89.5178 6.89869 89.765 6.66189 89.9018ZM31.7093 70.9414C31.3245 71.1635 30.918 71.2798 30.4648 71.3836C30.0413 71.4703 29.7611 71.3952 29.6461 71.2643C29.5948 71.1755 29.6198 71.0821 29.7974 70.9796C30.0342 70.8428 30.5591 70.6582 31.3129 70.4598C31.8423 70.3515 32.1304 70.3036 32.1988 70.422C32.2158 70.4516 32.2158 70.4516 32.1737 70.5153C32.0599 70.66 31.9165 70.8217 31.7093 70.9414ZM28.2769 116.061C28.2769 116.061 28.2894 116.014 28.3145 115.921C28.3099 115.844 28.3132 115.645 28.2949 115.34C28.3062 115.018 28.2708 114.683 28.2012 114.289C28.1316 113.895 28.0791 113.531 28.0141 113.213C27.9491 112.895 27.842 112.641 27.7565 112.493L27.6336 112.486C27.5301 113.058 27.5884 113.775 27.8256 114.664C27.9943 115.435 28.0981 115.888 28.2131 116.019C28.2302 116.048 28.2473 116.078 28.2769 116.061ZM27.7291 112.036C27.86 111.921 27.7937 111.327 27.6363 110.234C27.3842 108.841 27.1174 107.968 26.8315 107.542C26.7506 107.47 26.7335 107.44 26.7039 107.457C26.5855 107.526 26.5571 107.818 26.6188 108.335C26.7171 109.463 26.8813 110.157 27.0989 110.466L27.1514 110.83C27.1047 110.818 27.1047 110.818 27.0751 110.835C27.0455 110.852 26.9863 110.886 26.9908 110.962C27.0809 111.186 27.2005 111.394 27.3201 111.601C27.4352 111.732 27.5673 111.892 27.7291 112.036ZM27.4983 109.722C27.4641 109.663 27.4595 109.586 27.4721 109.54C27.455 109.51 27.4675 109.463 27.4504 109.434C27.4629 109.387 27.4287 109.328 27.4412 109.281C27.4241 109.252 27.4367 109.205 27.3729 109.163C27.4287 109.328 27.4037 109.421 27.3149 109.473C27.2853 109.49 27.2044 109.418 27.119 109.27C26.9356 109.021 26.7601 108.648 26.6051 108.106C26.523 107.759 26.4967 107.577 26.5388 107.513C26.598 107.479 26.7085 107.534 26.8531 107.647C27.1391 108.074 27.3362 108.553 27.3808 109.04C27.53 109.23 27.5438 109.459 27.4983 109.722ZM27.0603 107.528C27.1491 107.477 27.1479 107.201 27.133 106.697C27.0884 106.209 27.0405 105.921 26.9892 105.832C26.8229 105.613 26.6907 105.452 26.5632 105.368C26.5336 105.385 26.5211 105.432 26.479 105.495C26.4539 105.589 26.4289 105.682 26.421 105.805C26.4131 105.928 26.4051 106.051 26.3972 106.174C26.3597 106.314 26.3642 106.391 26.3813 106.42C26.3984 106.45 26.4497 106.539 26.4884 106.674C26.5272 106.809 26.5956 106.928 26.6468 107.017C26.6981 107.106 26.7494 107.194 26.7836 107.254C26.9157 107.414 26.9841 107.532 27.0603 107.528ZM17.9588 107.691C18.2082 107.508 18.5588 107.227 18.9173 106.822C19.1871 106.469 19.3134 106.278 19.2793 106.219C19.2622 106.189 19.1563 106.211 18.9787 106.313L18.5222 106.616L17.7788 107.243C17.5341 107.502 17.4544 107.706 17.5353 107.778C17.5865 107.867 17.6924 107.845 17.87 107.743L17.9588 107.691ZM26.6566 105.393C26.7704 105.248 26.7679 104.697 26.6367 103.786L26.4655 102.464C26.5247 102.43 26.5372 102.383 26.5497 102.337C26.5381 101.633 26.4639 101.163 26.3101 100.896C26.1438 100.677 26.0583 100.529 26.0242 100.469C25.7086 100.06 25.5002 99.9037 25.3522 99.9891C25.2634 100.04 25.3534 100.265 25.5756 100.649C25.4913 100.777 25.455 101.193 25.5259 101.862C25.6675 103.201 25.9046 104.091 26.161 104.535C26.178 104.564 26.1655 104.611 26.1997 104.67C26.2043 104.746 26.2385 104.805 26.2601 104.911C26.2818 105.017 26.316 105.076 26.3331 105.106C26.3206 105.153 26.3377 105.182 26.3718 105.242C26.504 105.402 26.5678 105.444 26.627 105.41L26.6566 105.393ZM19.7654 105.898C20.2094 105.642 20.314 105.345 20.1215 104.943C20.0748 104.93 20.0156 104.965 19.9564 104.999C19.8972 105.033 19.8084 105.084 19.7071 105.182C19.6058 105.28 19.4919 105.425 19.3952 105.599C19.3281 105.756 19.2734 105.867 19.3543 105.938C19.4056 106.027 19.5582 106.018 19.7654 105.898ZM27.3738 97.9536C27.433 97.9195 27.5047 97.8386 27.6061 97.7406C27.6903 97.6131 27.7449 97.5026 27.7528 97.3796C27.7904 97.2395 27.7858 97.1632 27.7516 97.104L27.7049 97.0915C27.5944 97.0369 27.4123 97.0632 27.2051 97.1828C27.0149 97.332 26.8544 97.4642 26.7281 97.6555C26.6018 97.8468 26.5938 97.9698 26.6451 98.0586C26.7431 98.1599 26.9252 98.1337 27.285 98.0049L27.3738 97.9536ZM28.5304 96.8123C28.708 96.7098 28.7626 96.5993 28.6476 96.4684C28.4812 96.2487 28.2899 96.1223 28.1248 96.1782C27.9768 96.2636 27.9393 96.4037 27.953 96.6326L28.0043 96.7214C28.1535 96.9115 28.3232 96.9319 28.5304 96.8123ZM36.9918 74.7588C37.2582 74.605 37.4266 74.3499 37.5267 73.9764C37.6268 73.6029 37.6426 73.3569 37.5447 73.2556C37.4934 73.1668 37.4171 73.1714 37.2987 73.2397L37.1303 73.4948C36.7479 74.2681 36.6057 74.7054 36.7037 74.8068C36.7379 74.866 36.8437 74.8443 36.9918 74.7588ZM22.2649 77.8938C22.6622 77.625 23.0379 77.2502 23.3156 76.7742C23.4419 76.5828 23.632 76.4336 23.8221 76.2844C24.0589 76.1476 24.2536 76.0747 24.4654 76.0314C24.6647 76.0347 24.8298 75.9789 24.9186 75.9276C25.185 75.7738 25.235 75.587 25.0858 75.3969C24.8169 74.9996 24.2533 75.0487 23.4541 75.5102C22.3589 76.1425 21.6451 76.7519 21.3253 77.2918C21.174 77.5765 21.1877 77.8053 21.354 78.0251C21.5033 78.2152 21.7913 78.1673 22.1465 77.9622L22.2649 77.8938ZM51.9616 101.439C52.0504 101.388 52.3168 101.234 52.7437 100.948C53.1706 100.662 53.718 99.8331 54.4327 98.4733C54.7479 97.8572 55.1803 96.8971 55.7003 95.6102C56.0063 94.8415 56.1986 94.2175 56.3066 93.721C56.385 93.2415 56.4726 92.9147 56.5522 92.7109C56.649 92.5366 56.7411 92.2861 56.8458 91.9888C56.9596 91.8442 57.1097 91.2839 57.3383 90.2442C57.4088 89.8878 57.4417 89.6714 57.3904 89.5826C57.3142 89.5872 57.2174 89.7614 57.1128 90.0587C55.8043 93.2611 54.2828 96.2313 52.5358 99.0159C52.5062 99.033 52.4937 99.0797 52.4516 99.1435C52.4095 99.2073 52.3378 99.2881 52.2661 99.369C52.224 99.4328 52.1522 99.5137 52.0759 99.5182C52.0167 99.5524 51.9701 99.5399 51.9188 99.4511C51.8413 99.1801 51.9243 98.777 52.2395 98.1609C52.8357 96.8694 53.3536 96.0574 53.8226 95.7076C54.0378 95.465 54.2016 95.1336 54.2971 94.6838C54.3597 94.4503 54.4097 94.2636 54.5235 94.1189C56.1997 90.6647 57.4932 86.9579 58.4462 82.9346C58.7952 81.3517 58.91 80.4567 58.7903 80.2495C58.7311 80.2836 58.4547 81.0353 57.9735 82.4576L57.6094 83.5361C57.6082 83.2605 57.8935 81.6355 58.4824 78.6907C58.7234 77.6043 58.7927 76.9723 58.7243 76.8539C58.7072 76.8243 58.7072 76.8243 58.6776 76.8414C58.5592 76.9097 58.2327 77.8481 57.7323 79.7157C56.8157 83.3234 55.5426 86.8606 53.9302 90.3569C53.0438 92.1711 52.0719 93.8373 50.904 95.3009C50.2632 96.105 49.579 96.6974 48.9107 97.0437C48.3904 97.3047 47.8906 97.3959 47.352 97.3517L47.1527 97.3483C46.8304 97.3371 46.6562 97.2403 46.5878 97.1219C46.5537 97.0627 46.532 96.9568 46.4932 96.8213C46.4841 96.6688 46.4282 96.5037 46.3257 96.3261C46.2231 96.1485 46.0739 95.9583 45.9589 95.8274C45.8563 95.6498 45.7413 95.5189 45.6558 95.3709C45.502 95.1045 45.535 94.8882 45.7593 94.7981L45.9244 94.7423C45.954 94.7252 45.9665 94.6785 45.9494 94.6489C45.9494 94.6489 45.9152 94.5897 45.8514 94.5476C45.7876 94.5055 45.7535 94.4463 45.6897 94.4042C45.6259 94.362 45.5917 94.3028 45.5575 94.2436C45.1303 93.5036 45.1324 93.0288 45.5639 92.8191L46.0717 92.6049C46.8459 92.2369 47.6814 91.3598 48.5828 90.05C48.7513 89.7949 48.9823 89.3063 49.2929 88.6139C49.9563 87.1653 50.3979 86.3578 50.6051 86.2382L50.6221 86.2678C50.8101 86.5934 50.5553 87.4509 49.8749 88.8699C49.3878 89.9404 48.9338 90.7946 48.4877 91.5258C48.2975 91.675 48.0824 91.9176 47.8548 92.2069C47.8548 92.2069 47.8126 92.2707 47.7705 92.3345C47.7113 92.3687 47.6396 92.4495 47.5554 92.5771C47.4541 92.6751 47.4291 92.7684 47.4632 92.8276C47.4803 92.8572 47.5737 92.8823 47.7092 92.8435C47.9973 92.7956 48.2432 92.8114 48.3583 92.9424C48.4859 93.0266 48.6259 93.0641 48.8035 92.9616C48.8923 92.9103 49.0403 92.8249 49.2008 92.6927C50.2903 91.7085 51.2405 89.9364 51.9798 87.4573C52.3893 86.1158 52.3081 85.0181 51.7784 84.1005C51.6929 83.9525 51.6291 83.9104 51.5403 83.9616C51.4811 83.9958 51.4015 84.1997 51.2718 84.5903C51.1638 85.0868 51.042 85.3544 50.9361 85.3761L50.8007 85.4148C50.7106 85.1905 50.6752 84.8558 50.7115 84.4401C50.7558 83.9015 50.7033 83.5372 50.5836 83.33C50.4811 83.1524 50.3535 83.0681 50.1076 83.0523C49.8958 83.0956 49.7044 82.9693 49.5335 82.6733C49.3205 82.4411 49.1496 82.145 48.9617 81.8194C48.7657 81.6168 48.4343 81.453 47.9253 81.3916C47.1236 81.3019 46.3528 81.4707 45.6378 81.8046C44.2841 82.4677 43.2072 83.4052 42.4242 84.6466C41.3022 86.8731 40.745 89.326 40.7527 92.0054C40.7692 93.8113 41.1205 95.5819 41.8407 97.3762C41.9695 97.736 42.1404 98.032 42.3113 98.328C42.4993 98.6536 42.7169 98.9621 42.9982 99.3128C43.2967 99.693 43.8069 100.03 44.5335 100.4C45.0859 100.673 45.4982 100.908 45.8513 101.178C46.1872 101.418 46.5654 101.595 46.9435 101.771C47.3512 101.93 47.8898 101.975 48.5935 101.963C50.0943 101.965 51.217 101.79 51.9616 101.439ZM45.3228 90.0773C45.0985 90.1673 44.9459 90.1764 44.8604 90.0284C44.8092 89.9396 44.7829 89.7575 44.8159 89.5411C44.8555 88.9262 45.0432 88.2258 45.3789 87.44C45.8488 86.3399 46.4179 85.6166 47.0737 85.317C47.3993 85.129 47.6623 85.1744 47.7991 85.4112C48.0554 85.8552 47.9611 86.5806 47.457 87.6216C46.797 88.8709 46.097 89.7092 45.3228 90.0773ZM46.1337 94.1478C46.5356 93.9552 46.8145 93.7547 46.9704 93.5463C47.1264 93.3379 47.1639 93.1978 47.1297 93.1386C47.0614 93.0202 46.9259 93.059 46.7016 93.149C46.5536 93.2344 46.3464 93.3541 46.097 93.5375C45.9957 93.6354 45.9582 93.7755 45.874 93.9031C45.8068 94.0602 45.8285 94.1661 45.8627 94.2253C45.8798 94.2549 45.9561 94.2503 46.1337 94.1478ZM67.1762 92.6551C67.265 92.6038 67.5314 92.45 67.9583 92.164C68.3852 91.8781 68.9327 91.049 69.6473 89.6891C69.9626 89.073 70.395 88.1129 70.9149 86.8261C71.221 86.0573 71.4132 85.4333 71.5212 84.9368C71.5997 84.4574 71.6872 84.1305 71.7669 83.9267C71.8636 83.7524 71.9558 83.5019 72.0604 83.2047C72.1743 83.06 72.3244 82.4997 72.5529 81.46C72.6234 81.1036 72.6564 80.8872 72.6051 80.7984C72.5288 80.803 72.4321 80.9773 72.3274 81.2745C71.0189 84.4769 69.4975 87.4471 67.7505 90.2318C67.7209 90.2488 67.7084 90.2955 67.6662 90.3593C67.6241 90.4231 67.5524 90.504 67.4807 90.5848C67.4386 90.6486 67.3669 90.7295 67.2906 90.7341C67.2314 90.7682 67.1847 90.7557 67.1334 90.6669C67.0559 90.396 67.1389 89.9928 67.4541 89.3767C68.0504 88.0852 68.5682 87.2732 69.0373 86.9234C69.2524 86.6808 69.4163 86.3494 69.5118 85.8996C69.5743 85.6662 69.6244 85.4794 69.7382 85.3348C71.4144 81.8806 72.7079 78.1737 73.6608 74.1504C74.0099 72.5675 74.1246 71.6725 74.005 71.4653C73.9458 71.4995 73.6693 72.2511 73.1881 73.6735L72.8241 74.7519C72.8228 74.4763 73.1081 72.8513 73.697 69.9065C73.9381 68.8201 74.0073 68.1881 73.939 68.0697C73.9219 68.0401 73.9219 68.0401 73.8923 68.0572C73.7739 68.1256 73.4474 69.064 72.947 70.9316C72.0303 74.5392 70.7573 78.0764 69.1449 81.5727C68.2584 83.3869 67.2865 85.0531 66.1187 86.5167C65.4778 87.3209 64.7937 87.9132 64.1254 88.2596C63.6051 88.5205 63.1052 88.6118 62.5666 88.5675L62.3673 88.5642C62.0451 88.5529 61.8708 88.4561 61.8025 88.3377C61.7683 88.2785 61.7466 88.1727 61.7079 88.0372C61.6987 87.8846 61.6429 87.7195 61.5403 87.5419C61.4378 87.3643 61.2886 87.1742 61.1735 87.0433C61.071 86.8657 60.9559 86.7347 60.8705 86.5867C60.7167 86.3203 60.7496 86.104 60.9739 86.0139L61.139 85.9581C61.1686 85.941 61.1811 85.8943 61.164 85.8647C61.164 85.8647 61.1298 85.8055 61.0661 85.7634C61.0023 85.7213 60.9681 85.6621 60.9043 85.62C60.8405 85.5779 60.8064 85.5187 60.7722 85.4595C60.3449 84.7195 60.3471 84.2446 60.7786 84.035L61.2863 83.8207C62.0605 83.4527 62.896 82.5756 63.7975 81.2658C63.9659 81.0107 64.1969 80.5221 64.5076 79.8297C65.1709 78.3811 65.6125 77.5736 65.8197 77.454L65.8368 77.4836C66.0248 77.8092 65.77 78.6667 65.0895 80.0857C64.6025 81.1563 64.1484 82.0104 63.7023 82.7416C63.5122 82.8908 63.297 83.1334 63.0694 83.4228C63.0694 83.4228 63.0273 83.4865 62.9852 83.5503C62.926 83.5845 62.8543 83.6654 62.77 83.7929C62.6687 83.8909 62.6437 83.9843 62.6779 84.0435C62.695 84.0731 62.7884 84.0981 62.9239 84.0593C63.2119 84.0114 63.4579 84.0273 63.5729 84.1582C63.7005 84.2424 63.8406 84.2799 64.0182 84.1774C64.107 84.1261 64.255 84.0407 64.4155 83.9085C65.5049 82.9244 66.4551 81.1523 67.1945 78.6731C67.604 77.3316 67.5228 76.2339 66.993 75.3163C66.9076 75.1683 66.8438 75.1262 66.755 75.1774C66.6958 75.2116 66.6161 75.4155 66.4864 75.8061C66.3784 76.3026 66.2567 76.5702 66.1508 76.5919L66.0153 76.6307C65.9253 76.4064 65.8899 76.0716 65.9262 75.656C65.9704 75.1174 65.9179 74.753 65.7983 74.5458C65.6957 74.3682 65.5682 74.284 65.3222 74.2681C65.1104 74.3114 64.9191 74.1851 64.7482 73.8891C64.5352 73.6569 64.3643 73.3609 64.1763 73.0353C63.9804 72.8326 63.649 72.6688 63.14 72.6074C62.3383 72.5177 61.5674 72.6865 60.8525 73.0204C59.4988 73.6835 58.4219 74.621 57.6388 75.8624C56.5168 78.0889 55.9596 80.5419 55.9673 83.2212C55.9838 85.0272 56.3351 86.7977 57.0554 88.5921C57.1841 88.9518 57.355 89.2478 57.5259 89.5438C57.7139 89.8695 57.9315 90.178 58.2129 90.5286C58.5113 90.9088 59.0216 91.2457 59.7482 91.6156C60.3005 91.8887 60.7128 92.1242 61.0659 92.394C61.4019 92.6342 61.78 92.8105 62.1581 92.9869C62.5658 93.1462 63.1044 93.1904 63.8081 93.1788C65.3089 93.1806 66.4316 93.006 67.1762 92.6551ZM60.5374 81.2931C60.3131 81.3831 60.1605 81.3923 60.0751 81.2443C60.0238 81.1555 59.9976 80.9733 60.0305 80.7569C60.0702 80.142 60.2578 79.4417 60.5935 78.6558C61.0634 77.5557 61.6325 76.8325 62.2883 76.5328C62.6139 76.3448 62.877 76.3903 63.0137 76.6271C63.2701 77.0711 63.1758 77.7964 62.6717 78.8374C62.0116 80.0867 61.3116 80.925 60.5374 81.2931ZM61.3483 85.3636C61.7502 85.1711 62.0291 84.9706 62.1851 84.7621C62.341 84.5537 62.3785 84.4136 62.3444 84.3544C62.276 84.236 62.1405 84.2748 61.9162 84.3648C61.7682 84.4503 61.561 84.5699 61.3117 84.7533C61.2104 84.8513 61.1728 84.9913 61.0886 85.1189C61.0215 85.2761 61.0432 85.3819 61.0773 85.4411C61.0944 85.4707 61.1707 85.4662 61.3483 85.3636ZM74.6993 74.1034C74.6981 73.8278 74.731 73.6115 74.781 73.4247C74.8061 73.3313 74.814 73.2083 74.8219 73.0854C74.8299 72.9624 74.7911 72.8269 74.7649 72.6447C74.6998 72.327 74.6815 72.0219 74.6757 71.67C74.687 71.3478 74.7325 71.0847 74.7996 70.9276C74.8417 70.8638 74.8542 70.8171 74.8963 70.7533C74.968 70.6724 75.0227 70.562 75.0602 70.4219C75.1148 70.3114 75.1524 70.1714 75.1557 69.9721C75.1295 69.7899 75.1499 69.6202 75.1533 69.421C75.1566 69.2217 75.1474 69.0691 75.1383 68.9165C75.1291 68.7639 75.1712 68.7002 75.1712 68.7002C75.0846 68.2766 75.0833 68.001 75.1676 67.8735C75.2051 67.7334 75.2643 67.6992 75.2814 67.7288C75.3452 67.7709 75.4089 67.813 75.4602 67.9018L75.4773 67.9314C75.5411 67.9736 75.5582 68.0032 75.6049 68.0157C75.639 68.0749 75.6561 68.1045 75.7199 68.1466C75.737 68.1762 75.7541 68.2058 75.7416 68.2525C75.7132 68.5451 75.6848 68.8378 75.6781 69.2363C75.6668 69.5586 75.6681 69.8341 75.6397 70.1268C75.6113 70.4194 75.5488 70.6529 75.435 70.7975C75.3678 70.9547 75.2711 71.129 75.2336 71.269C75.1835 71.4558 75.1756 71.5788 75.1676 71.7017C75.1597 71.8247 75.1643 71.901 75.1643 71.901C75.1643 71.901 75.1689 71.9773 75.178 72.1299C75.2043 72.3121 75.2305 72.4943 75.2443 72.7231C75.2876 72.9349 75.3013 73.1638 75.2684 73.3801C75.2776 73.5327 75.2571 73.7024 75.2788 73.8083C75.2879 73.9609 75.28 74.0839 75.2721 74.2068C75.2812 74.3594 75.2312 74.5462 75.1811 74.7329C75.1482 74.9493 75.1415 75.3478 75.2373 75.924C75.3036 76.5172 75.4757 77.0888 75.7412 77.6854C76.0192 78.2353 76.2756 78.6793 76.5102 79.0174C76.6595 79.2075 76.762 79.3851 76.7666 79.4614C76.8178 79.5502 76.7712 79.5377 76.6265 79.4239C76.5115 79.293 76.3622 79.1029 76.1321 78.841C75.9487 78.5917 75.7311 78.2832 75.5261 77.928C75.2868 77.5136 75.1238 77.0946 74.995 76.7348C74.8959 76.3579 74.865 76.0995 74.873 75.9765C74.8763 75.7772 74.8455 75.5187 74.7976 75.2307C74.7326 74.913 74.7097 74.5315 74.6993 74.1034ZM75.9781 67.0898C76.0669 67.0385 76.1431 67.0339 76.2194 67.0294C76.2957 67.0248 76.3595 67.0669 76.3937 67.1261C76.4279 67.1853 76.4154 67.232 76.3903 67.3254C76.3482 67.3891 76.3061 67.4529 76.2173 67.5042C76.1285 67.5555 76.0226 67.5771 75.9463 67.5817C75.853 67.5567 75.8063 67.5442 75.7721 67.485C75.7379 67.4258 75.7333 67.3495 75.7754 67.2857C75.8175 67.2219 75.8893 67.1411 75.9781 67.0898ZM77.379 78.9499C76.8892 78.4434 76.5245 77.4699 76.3487 76.0717C76.1729 74.6734 76.103 73.2535 76.1686 71.7948C76.2342 70.3361 76.3693 69.2714 76.5741 68.6006C76.8847 67.9082 77.3833 67.5414 78.0825 67.4535C78.8283 67.3781 79.3886 67.5282 79.8396 67.8993C80.096 68.3433 80.3081 69.3259 80.3997 70.8517C80.4912 72.3776 80.4006 73.9296 80.1575 75.4908C79.8847 77.0692 79.351 78.1272 78.5734 78.6945C78.3879 78.92 78.2103 79.0226 78.0156 79.0955C77.838 79.198 77.6342 79.1184 77.379 78.9499ZM86.2606 71.2962C86.0156 70.53 85.8218 69.8525 85.7214 69.2001C85.6084 68.5943 85.4488 67.9761 85.2254 67.3157C85.0966 66.9559 85.002 66.6553 84.9883 66.4265C84.9621 66.2443 84.9483 66.0154 84.9688 65.8457C84.9846 65.5998 84.9617 65.2183 84.875 64.7948C84.8146 64.5534 84.7713 64.3416 84.7621 64.189C84.753 64.0364 84.7609 63.9134 84.7688 63.7905C84.8018 63.5741 84.771 63.3156 84.6934 63.0446C84.478 62.2613 84.3434 61.5497 84.2851 60.8334C84.2372 60.5454 84.1892 60.2573 84.1413 59.9692C84.1197 59.8633 84.098 59.7574 84.0763 59.6515C84.033 59.4398 84.0067 59.2576 83.9805 59.0754C83.9542 58.8932 83.9622 58.7702 84.0464 58.6427C84.101 58.5322 84.2069 58.5105 84.4062 58.5139C84.6692 58.5594 84.8343 58.5035 84.8593 58.4101C84.8844 58.3167 84.8627 58.2109 84.7476 58.0799C84.6326 57.949 84.4879 57.8352 84.2841 57.7556C84.2203 57.7134 84.1269 57.6884 84.0632 57.6463C83.9356 57.5621 83.8422 57.5371 83.7784 57.495C83.7317 57.4825 83.7146 57.4529 83.6976 57.4233C83.7272 57.4062 83.7397 57.3595 83.7693 57.3424C83.8285 57.3082 83.9173 57.2569 83.9719 57.1465C84.0436 57.0656 84.1278 56.938 84.1779 56.7513C84.2279 56.5645 84.2438 56.3185 84.2084 55.9838C84.1763 55.4497 84.1055 54.7802 84.013 54.0048C83.9239 53.0301 83.8177 52.0258 83.741 51.0044C83.6644 49.9831 83.6437 49.1268 83.6958 48.4652C83.7401 47.9266 83.7843 47.3879 83.841 46.8026C83.8657 45.6833 83.9884 44.6653 84.1452 43.7064C84.2908 43.0699 84.4751 42.5688 84.6219 42.2078C84.8233 41.7363 84.9062 41.3332 84.8538 40.9688C84.7717 40.6215 84.4219 40.1525 83.7579 39.5492C83.5961 39.4058 83.4811 39.2749 83.4298 39.1861C83.3785 39.0973 83.3569 38.9914 83.3398 38.9618C83.3523 38.9151 83.3352 38.8855 83.3181 38.8559C83.301 38.8263 83.2839 38.7967 83.2372 38.7842C82.0267 38.2596 80.831 38.2395 79.6162 38.6646C79.1346 39.0611 78.7569 39.9106 78.5421 41.1792C78.3147 42.4945 78.1808 43.8347 78.1277 45.2467C78.0872 46.612 78.0875 47.638 78.1412 48.2779C78.2133 49.223 78.3207 50.5029 78.4294 52.0583C78.5439 53.9656 78.6822 55.5039 78.8146 56.6904C78.9025 57.3895 78.9483 58.1524 79.0112 58.9449C79.1061 60.2714 79.2386 61.4579 79.4553 62.5168C79.607 63.2581 79.7587 63.9993 79.8933 64.711C79.9024 64.8635 79.9412 64.999 79.9799 65.1345C78.8285 64.5758 77.6317 64.2801 76.3598 64.2646C74.9603 64.1648 73.8672 64.3223 73.0851 64.8133C72.3325 65.2873 71.7134 66.1973 71.2572 67.5263C70.7476 69.2413 70.6128 71.332 70.8698 73.8279C71.0972 76.3409 71.5852 78.3483 72.3384 79.9263C72.5138 80.2986 72.7656 80.6663 73.0299 80.9873C74.8286 83.1457 77.113 83.958 79.8537 83.4413C81.9248 82.9954 83.2373 81.6456 83.7911 79.392C83.8207 79.3749 83.8207 79.3749 83.8037 79.3453C83.8787 79.0651 83.988 78.8442 84.0722 78.7166C84.186 78.572 84.3728 78.622 84.6154 78.8372C84.7692 79.1036 84.9526 79.3529 85.1235 79.6489C85.5462 80.3126 85.9859 81.0059 86.4849 81.6651C87.0009 82.3538 87.4907 82.8604 88.0135 83.1506C88.4258 83.3862 88.8209 83.5921 89.2457 83.781C89.6705 83.9699 89.9848 84.1042 90.2058 84.2134C90.4392 84.276 90.6727 84.3385 90.9357 84.384C91.1817 84.3998 91.504 84.4111 91.9788 84.4133C92.3477 84.4371 92.6746 84.5246 92.8955 84.6339C93.006 84.6885 93.1165 84.7431 93.2098 84.7681C93.2861 84.7636 93.3624 84.759 93.4512 84.7077C93.6584 84.5881 93.8064 84.5026 93.9123 84.481C93.9886 84.4764 94.0478 84.4422 94.0307 84.4126C94.0136 84.383 93.9794 84.3238 93.8986 84.2521C93.8986 84.2521 93.8986 84.2521 93.8815 84.2225C91.7868 82.235 90.2695 80.4272 89.3762 78.8117C88.483 77.1962 87.6431 75.1947 86.8271 72.8242C86.6595 72.3289 86.492 71.8336 86.2606 71.2962ZM82.6609 45.5106C82.5959 45.1929 82.5605 44.8582 82.5593 44.5826C82.5877 44.2899 82.6331 44.0269 82.7174 43.8993C82.7424 43.806 82.8141 43.7251 82.9154 43.6271C82.9871 43.5463 83.0417 43.4358 83.126 43.3082C83.1806 43.1978 83.2181 43.0577 83.209 42.9051C83.2294 42.7354 83.2032 42.5532 83.1894 42.3244C83.1461 42.1126 83.1494 41.9133 83.0936 41.7482C83.0844 41.5956 83.0628 41.4898 83.0628 41.4898L82.8769 40.6893C82.8769 40.6893 82.9065 40.6722 82.9657 40.638C83.0124 40.6506 83.0716 40.6164 83.1479 40.6118C83.2071 40.5776 83.2834 40.573 83.3597 40.5685C83.436 40.5639 83.5293 40.5889 83.6056 40.5843C83.7457 40.6219 83.8437 40.7232 83.9245 40.7949C84.0054 40.8666 84.0567 40.9554 84.0612 41.0317C84.0658 41.108 83.977 41.1592 83.8244 41.1684C83.7652 41.2026 83.706 41.2368 83.7231 41.2664C83.7106 41.3131 83.7448 41.3723 83.7619 41.4019C83.7665 41.4781 83.7836 41.5077 83.771 41.5544C83.7802 41.707 83.7598 41.8767 83.7393 42.0464C83.7109 42.339 83.6826 42.6317 83.6542 42.9243C83.6087 43.1874 83.5462 43.4208 83.4324 43.5655C83.3481 43.693 83.3106 43.8331 83.2731 43.9732C83.2355 44.1132 83.2276 44.2362 83.2368 44.3888C83.2288 44.5118 83.2209 44.6348 83.2255 44.7111C83.2301 44.7874 83.2642 44.8466 83.2642 44.8466C83.2642 44.8466 83.2517 44.8932 83.2438 45.0162C83.2359 45.1392 83.245 45.2918 83.2417 45.4911C83.2383 45.6903 83.235 45.8896 83.2145 46.0593C83.2112 46.2585 83.2078 46.4578 83.1999 46.5808C83.192 46.7038 83.1669 46.7972 83.1544 46.8439C83.1419 46.8905 83.1294 46.9372 83.1169 46.9839C83.0873 47.001 83.0748 47.0477 83.0623 47.0944C83.0498 47.1411 83.0247 47.2345 83.0168 47.3574C83.0089 47.4804 83.018 47.633 83.0147 47.8323C82.9863 48.1249 83.0184 48.659 83.0596 49.3456C83.0883 50.0789 83.1637 50.8247 83.197 51.6343C83.2598 52.4268 83.3011 53.1134 83.3377 53.7238C83.3868 54.2874 83.4051 54.5926 83.4051 54.5926C83.4051 54.5926 83.3835 54.4867 83.2934 54.2624C83.233 54.021 83.1555 53.75 83.0438 53.4198C82.9788 53.1022 82.8842 52.8016 82.8363 52.5135C82.7884 52.2254 82.7621 52.0432 82.77 51.9203C82.8076 51.7802 82.7893 51.475 82.7618 51.0173C82.7639 50.5424 82.7193 50.0551 82.6998 49.4744C82.6552 48.987 82.6448 48.5589 82.6345 48.1307C82.5945 47.7197 82.6058 47.3974 82.6262 47.2278C82.625 46.9522 82.6408 46.7062 82.6909 46.5195C82.7113 46.3498 82.7318 46.1801 82.7226 46.0275C82.7134 45.875 82.6872 45.6928 82.6609 45.5106ZM82.2842 78.0124C82.3138 77.9953 82.3263 77.9486 82.3513 77.8552C82.4185 77.698 82.4856 77.5409 82.5949 77.3199C82.7041 77.099 82.8008 76.9248 82.8976 76.7505C82.9943 76.5763 83.066 76.4954 83.1423 76.4908C83.2528 76.5454 83.2744 76.6513 83.254 76.821C83.2632 76.9736 83.2131 77.1603 83.1631 77.3471C83.113 77.5339 83.0459 77.691 82.9913 77.8015C83.0084 77.8311 82.9788 77.8482 82.9662 77.8949C82.9287 78.0349 82.8616 78.1921 82.7865 78.4722C82.6489 78.9858 82.4396 79.5803 82.1836 80.1622C81.9275 80.7442 81.6407 81.0677 81.323 81.1327C81.3764 80.7467 81.4969 80.2035 81.7188 79.5623C81.9235 78.8916 82.1078 78.3905 82.2842 78.0124ZM83.5834 56.5419C83.4433 56.5044 83.3625 56.4327 83.3237 56.2972C83.3145 56.1446 83.3054 55.992 83.3554 55.8053C83.3759 55.6356 83.443 55.4784 83.468 55.3851C83.4976 55.368 83.5318 55.4272 83.5831 55.516C83.6343 55.6048 83.656 55.7107 83.6948 55.8462C83.7335 55.9817 83.7256 56.1046 83.7177 56.2276C83.7097 56.3506 83.6551 56.4611 83.5834 56.5419ZM87.5161 34.3009C87.1313 34.5231 86.9025 34.5368 86.817 34.3888C86.7145 34.2112 86.8408 34.0199 87.2256 33.7977C87.5808 33.5926 87.8393 33.5618 87.9418 33.7394C88.0273 33.8874 87.8714 34.0958 87.5161 34.3009ZM93.2525 43.8948L93.0001 41.4752C92.9122 40.7761 92.7572 40.2341 92.535 39.8493C92.2274 39.3165 92.1065 38.8337 92.1257 38.3885C92.1758 38.2017 92.1324 37.9899 91.9786 37.7235C91.8032 37.3512 91.7211 37.004 91.6731 36.7159C91.6377 36.3811 91.5477 36.1568 91.4281 35.9496L91.3426 35.8016C90.8916 35.4306 90.6148 35.1562 90.4781 34.9194L90.2513 34.4583L90.1784 34.2636C90.11 34.1452 89.9996 34.0906 89.9062 34.0656C89.7661 34.028 89.6431 34.0201 89.5031 33.9826C89.2446 34.0134 89.0874 33.9463 89.002 33.7983L88.8994 33.6207L89.0304 33.5056L89.3138 33.3814C89.7328 33.2184 90.0642 33.3823 90.3377 33.8559L90.6966 34.4775C90.8504 34.7439 91.0338 34.9933 91.2297 35.1959C91.4256 35.3985 91.6386 35.6307 91.7754 35.8675L91.9508 36.2398C92.0409 36.4641 92.1263 36.6121 92.1776 36.7009C92.2288 36.7897 92.2459 36.8193 92.2334 36.866C92.285 37.9808 92.5451 39.2515 92.9964 40.6485C93.1719 41.0208 93.2369 41.3385 93.2381 41.614C93.2656 42.0718 93.2726 42.6992 93.2592 43.4963L93.2525 43.8948ZM99.9736 77.5478C102.688 75.823 104.115 71.8018 104.304 65.4968C104.304 62.6945 103.798 60.382 102.772 58.6059C102.037 57.3331 100.91 56.4054 99.3597 55.84C97.5217 55.3225 95.9367 55.4483 94.6047 56.2173C93.6279 56.7813 92.7798 57.705 92.0777 59.0181C92.0652 59.0648 92.0231 59.1286 91.9981 59.222C91.9434 59.3325 91.8342 59.5534 91.6578 59.9315C91.5861 60.0124 91.544 60.0762 91.4848 60.1103L91.4244 59.869C91.3911 59.0594 91.4307 58.4445 91.4795 57.9821C91.5455 57.5494 91.7377 56.9253 92.0438 56.1566C93.9857 50.4967 94.4814 44.7245 93.5014 38.8572L93.2802 37.722C93.1272 36.7052 92.8388 35.7271 92.3558 34.822C91.9285 34.082 91.4933 33.465 91.0331 32.9413C90.3349 32.2788 89.5958 31.9557 88.8033 32.0186C88.0108 32.0814 87.3629 32.2582 86.8597 32.5487C85.5573 33.3006 84.8768 34.7197 84.7887 36.8229C84.7197 38.4808 84.7475 39.9645 84.9062 41.3332L85.1565 44.2276C85.3177 46.1474 85.4914 48.0205 85.6822 49.9232C85.7655 50.546 85.8238 51.2623 85.8913 52.1311C85.9954 53.6102 86.1757 55.0847 86.3857 56.5422L86.4303 57.0295C86.557 57.8641 86.7486 59.0164 87.0474 60.4226C87.377 62.0873 87.7362 63.7349 88.1251 65.3653L88.2813 66.1829C88.5038 67.5936 88.8264 68.6309 89.2195 69.3117C89.6467 70.0517 90.2799 70.3965 91.1237 70.4224C92.2681 70.3538 93.1277 70.1337 93.6901 69.809C94.5189 69.3305 94.9205 68.112 94.8185 66.158L94.8603 65.0683C94.9997 63.0539 95.5764 61.1817 96.6076 59.4813C96.9444 58.971 97.3201 58.5963 97.7049 58.3741C98.018 58.2328 98.3198 58.4138 98.6103 58.917C99.1059 59.7754 99.366 61.0461 99.3608 62.7462C99.3819 64.6284 99.2947 65.9812 99.0945 66.7283C98.8025 68.7518 98.1324 70.599 97.0546 72.2869C96.6085 73.018 96.119 73.5374 95.5862 73.8451C94.5502 74.4432 93.4046 74.2363 92.0731 73.229C91.3716 72.7658 90.9468 72.5769 90.8113 72.6157L90.6041 72.7353C90.2193 72.9575 90.2513 73.4915 90.7298 74.3203C90.9178 74.6459 91.263 75.0386 91.7482 75.4689C92.8804 76.4729 94.231 77.035 95.7831 77.1256C96.9662 77.1924 97.9955 76.9928 98.8539 76.4972L99.3993 76.1428C100.121 75.4104 100.855 73.6054 101.601 70.7277C102.026 69.1402 102.288 67.8841 102.398 66.9128C102.669 65.0589 102.928 64.0021 103.155 63.7128C103.369 64.971 103.32 66.4593 102.985 68.2711C102.889 68.7209 102.823 69.1536 102.775 69.6159C102.615 71.8 101.954 73.7997 100.762 75.6323L99.9733 76.5218C99.4634 77.2109 99.2574 77.6061 99.3087 77.6949C99.3599 77.7837 99.5717 77.7404 99.9736 77.5478ZM90.3662 51.6787L90.3149 51.5899C89.9218 50.9091 89.6386 48.231 89.448 43.526C89.4556 42.377 89.4257 41.3682 89.3116 40.4868C89.2804 39.2024 89.3155 38.5112 89.4043 38.4599C89.4339 38.4429 89.451 38.4725 89.4681 38.5021C90.328 39.308 90.8844 41.4337 91.1668 44.8622C91.1408 45.706 91.0661 47.0121 90.8788 48.7384C90.7085 50.4943 90.5221 51.4703 90.3662 51.6787ZM91.0187 55.4066C90.8899 55.0468 91.0229 54.4569 91.4303 53.5902L91.6067 53.2121C91.8081 52.7406 92.0733 52.3113 92.3384 51.8819C92.3214 51.8523 92.3214 51.8523 92.351 51.8352C92.426 51.5551 92.4498 51.1861 92.3802 50.7922C92.3586 50.6863 92.3369 50.5804 92.3152 50.4745C92.3106 50.3982 92.3357 50.3048 92.3311 50.2285C92.3265 50.1522 92.3219 50.0759 92.3344 50.0292L92.2966 49.1434C92.3466 48.9566 92.3671 48.7869 92.3875 48.6172C92.3954 48.4943 92.4034 48.3713 92.4284 48.2779C92.4534 48.1845 92.4784 48.0911 92.4738 48.0149C92.4864 47.9682 92.4989 47.9215 92.5114 47.8748C92.541 47.8577 92.5614 47.688 92.6194 47.3783C92.6694 47.1915 92.7241 47.081 92.7537 47.064C92.7833 47.0469 92.8004 47.0765 92.8345 47.1357C92.92 47.2837 92.9633 47.4955 92.9179 47.7585C92.7915 47.9498 92.7677 48.3188 92.8932 48.8778C92.9319 49.0133 92.924 49.1363 92.8694 49.2468C92.8147 49.3573 92.7772 49.4973 92.7864 49.6499C92.8001 49.8788 92.7513 50.3411 92.682 50.9731C92.6491 51.1895 92.4068 52.0003 91.9039 53.3168C91.4181 54.6629 91.1371 55.3382 91.0187 55.4066ZM93.7438 66.6207C93.7438 66.6207 93.7267 66.5911 93.7096 66.5614C93.6925 66.5318 93.6958 66.3326 93.7071 66.0103C93.69 65.9807 93.7025 65.934 93.7105 65.8111C93.7355 65.7177 93.7605 65.6243 93.7684 65.5013C93.7764 65.3783 93.8014 65.2849 93.8139 65.2383C93.8264 65.1916 93.856 65.1745 93.856 65.1745L93.8856 65.1574L93.9039 65.4626C93.9177 65.6914 93.9143 65.8907 93.8939 66.0604C93.8609 66.2767 93.8234 66.4168 93.7813 66.4806C93.7859 66.5569 93.7438 66.6207 93.7438 66.6207ZM93.9558 63.775C93.9216 63.7158 93.925 63.5165 93.9783 63.1305C94.1068 62.4643 94.2865 61.8869 94.5346 61.428C94.5563 61.5339 94.5154 61.8732 94.3949 62.4164C94.1868 63.2864 94.0446 63.7237 93.9558 63.775ZM112.724 65.7264C113.02 65.5555 113.206 65.33 113.357 65.0453C113.807 64.1148 114.031 62.9988 114.012 61.6677C113.97 60.7055 114.055 59.8275 114.267 59.0338C114.41 58.5965 114.463 58.2105 114.445 57.9053C114.414 57.6468 114.383 57.3884 114.327 57.2233C114.271 57.0582 114.262 56.9056 114.317 56.7951C115.128 58.0634 115.95 59.0094 116.831 59.6456C117.682 60.2989 118.938 60.5604 120.569 60.4472C121.48 60.3159 122.234 60.1176 122.856 59.7587C124.099 59.0409 124.931 57.3372 125.351 54.6474L125.736 52.6489C126.1 50.5445 126.197 49.3443 126.043 49.0779C126.009 49.0187 125.945 48.9766 125.886 49.0107C125.725 49.1429 125.462 50.1234 125.097 51.9522L124.604 54.4473C124.308 55.6441 123.796 56.808 123.021 57.9265C125.172 50.6461 125.932 45.195 125.208 41.548L125.148 41.3066L125.101 41.2941C125.042 41.3283 125.009 41.5446 125.002 41.9432C124.919 43.3723 124.851 44.2798 124.82 44.7717C124.771 45.2341 124.713 45.5438 124.629 45.6714C124.558 45.0018 124.524 44.1922 124.499 43.2597C124.485 40.9789 124.304 39.5043 123.945 38.8827C123.911 38.8235 123.865 38.811 123.848 38.7814C123.83 38.7518 123.813 38.7222 123.784 38.7393L123.714 39.3713C123.52 40.4702 123.357 41.8276 123.3 43.4388C122.871 48.0279 122.006 51.7244 120.674 54.5453C120.389 55.1444 120.082 55.6375 119.718 55.9656C119.126 56.3074 118.642 56.1527 118.266 55.5015C117.89 54.8502 117.611 54.0248 117.412 52.9955C117.221 52.1187 117.125 51.5426 117.09 51.2078C117.073 50.1523 117.103 48.3588 117.257 45.8229C117.253 44.9962 117.145 44.4668 116.974 44.1708C116.717 43.7267 116.313 43.3682 115.731 43.1122C114.69 42.6081 113.8 42.5696 113.03 43.014C112.468 43.3387 112.11 44.0186 112.017 45.0195C112.012 45.6936 111.899 46.1138 111.633 46.2677C111.485 46.3531 111.226 46.3839 110.904 46.3727C110.823 46.3009 110.454 46.2771 109.852 46.1908C109.021 46.1182 108.267 46.3166 107.527 46.7438C106.639 47.2565 105.986 48.1073 105.508 49.3304C105.361 49.6914 105.202 50.0991 105.042 50.5068C104.883 50.9145 104.778 51.2118 104.682 51.386C104.602 51.5899 104.522 51.7937 104.472 51.9805C104.41 52.2139 104.419 52.3665 104.487 52.4849C104.539 52.5737 104.507 53.0656 104.388 53.8844C104.131 55.2168 104.411 57.3437 105.217 60.312C105.537 61.5486 105.987 62.67 106.551 63.6468C107.34 64.8092 108.395 65.5422 109.69 65.9392C111.081 66.1619 112.103 66.0853 112.724 65.7264ZM124.524 46.9946C124.495 47.0117 124.478 46.9821 124.46 46.9525C124.426 46.8933 124.388 46.7578 124.408 46.5881C124.419 46.2658 124.457 46.1258 124.516 46.0916C124.546 46.0745 124.546 46.0745 124.58 46.1337C124.614 46.1929 124.64 46.3751 124.641 46.6506C124.579 46.8841 124.554 46.9775 124.524 46.9946ZM118.276 56.68L117.834 56.4615L117.663 56.1655C117.612 56.0767 117.624 56.03 117.713 55.9787L117.772 55.9446C117.942 55.965 118.087 56.0788 118.206 56.286C118.326 56.4932 118.365 56.6287 118.276 56.68ZM111.419 61.073L111.182 61.2097C110.945 61.3464 110.656 61.1188 110.297 60.4972C109.716 59.4907 109.363 58.195 109.224 56.6567C109.112 55.3006 109.234 54.007 109.512 52.7805C109.725 51.9868 109.989 51.2818 110.338 50.7249C110.688 50.168 111.004 49.8274 111.33 49.6394C111.537 49.5198 111.66 49.5277 111.746 49.6757C111.797 49.7645 111.905 50.294 112.041 51.2812C112.278 53.1964 112.356 54.4933 112.257 55.1424L112.234 55.5114C112.207 57.1055 112.095 58.5517 111.833 59.8078C111.68 60.5673 111.55 60.9579 111.419 61.073ZM117.346 55.4801C117.258 55.5314 117.091 55.3117 116.835 54.8677L116.369 53.9922C116.249 53.785 116.147 53.6073 116.032 53.4764C115.917 53.3455 115.848 53.2271 115.797 53.1383C115.626 52.8423 115.642 52.5964 115.874 52.3833C115.933 52.3492 115.954 52.1795 115.889 51.8618C115.81 51.3153 115.846 50.8996 115.964 50.5557C116.006 50.4919 116.009 50.2927 115.978 50.0342C115.947 49.7757 115.929 49.4706 115.957 49.1779C116.007 48.9911 116.036 48.6985 116.047 48.3762C116.021 48.1941 115.96 47.9527 115.9 47.7113C115.84 47.4699 115.843 47.2706 115.846 47.0714L116.064 46.3539L116.297 46.4165C116.407 46.4711 116.518 46.5257 116.552 46.5849C116.603 46.6737 116.57 46.8901 116.517 47.2761C116.373 48.1882 116.328 49.4773 116.428 51.1557C116.514 52.3296 116.662 53.2701 116.92 53.9897C117.314 54.9461 117.465 55.4118 117.346 55.4801ZM122.724 58.8478C122.576 58.9332 122.441 58.972 122.318 58.964C122.225 58.939 122.161 58.8969 122.144 58.8673C122.144 58.8673 122.127 58.8377 122.109 58.8081C122.075 58.7489 122.147 58.668 122.261 58.5234C122.468 58.4038 122.638 58.4242 122.757 58.6314C122.779 58.7373 122.737 58.8011 122.724 58.8478ZM108.415 57.7159C108.369 57.7034 108.322 57.6909 108.288 57.6317C108.117 57.3357 108.054 56.5432 108.035 55.2121C108.015 53.6054 108.202 52.6295 108.535 52.3185L108.565 52.3014C108.599 52.3606 108.58 52.8059 108.524 53.6667C108.448 55.4477 108.423 56.567 108.475 56.9314C108.515 57.3424 108.499 57.5884 108.415 57.7159ZM125.14 43.4815C125.124 42.7015 125.124 42.7015 125.14 43.4815V43.4815ZM134.822 53.7574C135.072 53.574 135.291 53.4076 135.494 53.2117C135.886 52.591 136.213 51.9282 136.502 51.1299C136.724 50.4887 137.01 49.8897 137.33 49.3498C137.632 48.7804 137.821 48.3556 137.896 48.0755C137.984 47.7486 138 47.5027 138.003 47.3034C137.989 47.0745 138.035 46.8115 138.169 46.4971C138.664 45.3036 139.041 44.1785 139.222 43.1263C139.368 42.4897 139.573 41.8189 139.76 41.1186C139.743 41.089 139.793 40.9022 139.91 40.5583C139.998 40.2315 140.14 39.7942 140.265 39.3273C140.403 38.8137 140.528 38.3468 140.624 37.897C140.736 37.4767 140.765 37.1841 140.772 37.0611C140.763 36.9085 140.759 36.8322 140.742 36.8026C140.725 36.773 140.678 36.7605 140.648 36.7776C140.429 36.9439 140.198 37.4325 139.913 38.3071C139.696 39.0246 139.454 39.8354 139.186 40.7396C138.323 43.9612 137.69 45.6683 137.293 45.9372C137.264 45.9543 137.217 45.9418 137.2 45.9122C137.183 45.8826 137.191 45.7596 137.211 45.5899C137.584 43.6381 138.114 41.7534 138.784 39.9062C139.404 38.2458 139.772 36.9681 139.967 36.1447C140.084 35.8008 140.134 35.614 140.083 35.5252C140.078 35.449 139.976 35.2713 139.788 34.9457C139.62 34.4505 139.699 33.9711 139.994 33.5246C140.271 33.0485 140.393 32.7809 140.342 32.6921C140.325 32.6625 140.261 32.6204 140.138 32.6125C140.062 32.617 139.985 32.6216 139.939 32.6091C139.845 32.5841 139.799 32.5716 139.781 32.542C139.645 32.3052 139.58 31.9875 139.633 31.6015L139.648 31.0799C139.639 30.9274 139.629 30.7748 139.561 30.6564C139.527 30.5972 139.434 30.5721 139.374 30.6063C139.273 30.7043 139.147 30.8956 139.025 31.1633C138.739 31.7623 138.593 32.1233 138.572 32.293C137.841 34.6492 137.356 36.2708 137.072 37.1454C135.853 40.5721 134.426 43.8429 132.838 46.9703C132.312 47.9053 131.709 48.5693 131.003 49.0558C130.487 49.393 130 49.4376 129.558 49.2191C129.426 49.0586 129.311 48.9277 129.225 48.7797C129.106 48.5725 129.007 48.1956 128.869 47.6832C128.574 46.3533 128.353 45.2181 128.264 44.2434C128.175 43.2687 128.288 42.0981 128.617 40.6849C129.182 39.135 130.276 38.2271 131.865 37.902C132.388 37.4418 132.594 37.0467 132.525 36.6527C132.455 36.2587 132.412 36.0469 132.361 35.9581C132.07 35.4549 131.661 35.0201 131.075 34.6878C130.326 34.212 129.656 34.0073 129.033 34.0906C128.367 33.9622 127.596 34.1309 126.644 34.6015C125.739 35.0846 124.937 36.0209 124.274 37.4695C123.762 38.6334 123.488 39.9362 123.482 41.3607C123.456 44.2564 123.779 46.3196 124.357 47.5252C124.981 48.7434 125.345 49.4413 125.43 49.5894C126.592 51.6022 128.372 53.1798 130.793 54.2289C132.215 54.7101 133.584 54.5514 134.822 53.7574ZM134.304 52.5175C134.092 52.5608 134.016 52.5654 133.999 52.5358C133.982 52.5062 134.011 52.4891 134.083 52.4083C134.244 52.2761 134.311 52.119 134.272 51.9835C134.263 51.8309 134.258 51.7546 134.317 51.7204C134.752 51.3115 135.248 50.3935 135.806 48.9666L136.388 47.4462C136.615 46.8814 136.808 46.5329 136.956 46.4474C137.075 46.3791 137.168 46.4041 137.236 46.5225C137.407 46.8185 137.056 47.8503 136.148 49.5586C135.366 51.0756 134.751 52.0619 134.304 52.5175ZM146.239 50.8364C146.404 50.7805 146.049 49.9596 145.19 48.4033C144.599 47.2443 144.179 46.1058 143.898 45.0048L143.598 44.0734C143.314 43.1717 143.222 42.6718 143.294 42.5909L143.425 42.4759C143.573 42.3904 144.129 42.4643 145.063 42.7145C146.603 43.1273 148.186 43.4764 149.888 43.7571C152.085 44.1458 153.878 43.9004 155.328 43.063C156.038 42.6529 156.701 41.9547 157.239 40.9729L158.152 39.3409C158.425 38.7885 158.53 38.4913 158.478 38.4025C158.461 38.3729 158.432 38.39 158.372 38.4242C158.076 38.5951 157.802 38.8719 157.537 39.3012C157.138 40.0449 156.322 40.7523 155.168 41.4188C154.931 41.5555 154.766 41.6114 154.749 41.5818C154.744 41.5055 154.871 41.3142 155.158 40.9907L156.394 39.6455C157.574 38.1352 158.375 36.173 158.767 33.7759C159.159 31.3789 159.395 29.1902 159.488 27.1633C159.482 26.8115 159.523 26.4721 159.564 26.1328C159.741 25.0043 159.737 23.902 159.473 22.8306C159.374 22.4537 159.287 22.0302 159.289 21.5553C159.402 21.1351 159.362 20.7241 159.157 20.3689C159.106 20.2801 159.042 20.2379 158.983 20.2721C158.835 20.3576 158.614 21.2743 158.304 22.9927L157.802 25.6107C156.692 31.3432 155.505 35.3039 154.184 37.5271C153.796 37.9485 153.386 38.2641 152.942 38.5204C151.876 39.1357 150.712 39.374 149.418 39.2526C148.053 39.212 147.259 38.9994 147.02 38.585C146.815 38.2298 146.889 37.674 147.195 36.9053L148.071 34.663C148.737 33.0151 149.217 32.0675 149.513 31.8966L149.589 31.8921C149.606 31.9217 149.606 31.9217 149.593 31.9683C149.581 32.015 149.568 32.0617 149.514 32.1722L149.741 31.8829C149.683 32.1926 149.608 32.4728 149.516 32.7233C149.324 33.3474 149.044 34.2983 148.677 35.576C149.194 35.5144 149.757 34.4392 150.413 32.3632C151.07 30.2872 151.436 28.7339 151.571 27.6692L151.645 27.1134C151.723 26.634 151.797 26.0783 151.824 25.5101C151.869 24.9715 151.637 24.4341 151.147 23.9276C150.645 23.4677 150.046 23.1821 149.397 23.0832C148.981 23.0469 148.664 23.1119 148.427 23.2486C148.16 23.4024 147.916 23.6621 147.693 24.0277C147.39 24.5972 146.977 26.1379 146.437 28.6205C145.981 30.9754 145.089 33.4637 143.761 36.0854C143.262 37.2027 142.811 37.8575 142.456 38.0626C142.337 38.131 142.291 38.1185 142.239 38.0297C142.103 37.7929 142.075 37.3351 142.174 36.686C142.277 36.1132 142.289 35.791 142.238 35.7022C142.186 35.6134 142.08 35.6351 141.886 35.708C141.856 35.7251 141.826 35.7422 141.809 35.7126L142.147 35.4779C142.515 35.2261 142.642 35.0348 142.62 34.9289C142.569 34.8401 142.552 34.8105 142.581 34.7934C142.581 34.7934 142.645 34.8355 142.755 34.8901C142.836 34.9618 142.913 34.9573 143.001 34.906C143.09 34.8547 143.103 34.808 143.034 34.6896C143 34.6304 142.983 34.6008 142.919 34.5587C142.885 34.4995 142.838 34.487 142.804 34.4278C142.633 34.1318 142.738 32.8086 143.105 30.5049C143.348 28.9437 143.48 28.0783 143.5 27.9086C143.571 27.5522 143.641 27.1957 143.771 26.8051C143.888 26.4612 143.912 26.0922 143.83 25.745C143.735 25.4444 143.738 25.2451 143.916 25.1426C144.102 24.9171 144.247 24.2805 144.365 23.1862C144.419 22.8001 144.388 22.5417 144.302 22.3937C144.217 22.2456 144.242 22.1523 144.39 22.0668C144.575 21.8413 144.679 21.2685 144.717 20.378C144.741 20.0091 144.735 19.6572 144.67 19.3396C144.622 19.0515 144.643 18.8818 144.744 18.7839C144.862 18.7155 144.905 18.6517 144.87 18.5925C144.853 18.5629 144.807 18.5504 144.76 18.5379C144.696 18.4958 144.632 18.4537 144.598 18.3945C144.53 18.2761 144.584 18.1656 144.703 18.0972C144.762 18.0631 144.792 18.046 144.898 18.0243C144.991 18.0493 145.021 18.0322 145.08 17.9981C145.169 17.9468 145.194 17.8534 145.108 17.7054C145.052 17.5403 145.042 17.1122 145.141 16.4631C145.193 15.8015 145.24 15.0636 145.254 14.2665C145.238 13.4865 145.286 13.0242 145.341 12.9137C145.43 12.8624 145.42 12.4343 145.386 11.6247C145.323 10.8322 145.316 10.2048 145.382 9.77206C145.436 9.38603 145.434 9.11046 145.383 9.02166L145.366 8.99206C145.298 8.87366 145.323 8.78028 145.454 8.66523C145.521 8.50807 145.529 8.38509 145.46 8.26668L145.426 8.20748C145.324 8.02988 145.332 7.9069 145.42 7.85563C145.509 7.80436 145.5 7.65178 145.405 7.35119C145.332 7.1565 145.283 6.59287 145.228 5.67738C145.221 5.04996 145.177 4.56262 145.018 4.21992C144.963 4.05483 144.953 3.90225 144.949 3.82596C144.965 3.57999 144.887 3.30901 144.75 3.07221C144.477 2.5986 144.038 2.18084 143.481 1.83144C143.18 1.65048 142.984 1.44786 142.898 1.29986C142.813 1.15186 142.698 1.02094 142.524 0.92421C141.385 0.318792 140.223 0.35788 139.069 1.02438C138.506 1.34909 138.022 1.94478 137.58 2.75225C136.625 4.44807 136.202 5.56071 136.281 6.10725C136.383 6.28486 136.384 6.56042 136.272 6.98063C136.222 7.16739 136.167 7.27786 136.125 7.34164C135.91 7.58425 135.734 8.98832 135.609 11.5071C135.519 13.0592 135.547 14.5429 135.688 15.882C135.739 18.7731 135.846 20.8033 135.978 21.9898L136.264 24.1931C136.376 25.5492 137.018 29.8749 138.161 37.1872C138.276 38.0685 138.308 38.6026 138.287 38.7722C138.25 38.9123 138.276 39.0945 138.361 39.2425L138.396 39.3017C138.464 39.4201 138.546 39.7674 138.693 40.4323C138.759 41.0255 138.829 41.4195 138.949 41.6267L139.029 41.6984C139.098 41.8168 139.107 41.9694 139.133 42.1516C139.351 43.4861 139.722 44.8114 140.198 46.115C140.348 46.5807 140.529 47.0293 140.751 47.4141C141.161 48.1245 141.638 48.6778 142.119 49.0317C142.812 49.6179 143.607 50.1062 144.474 50.5136C145.37 50.9038 145.914 51.0244 146.18 50.8706L146.239 50.8364ZM143.468 4.40488C143.416 4.31608 143.36 4.15099 143.33 3.89252C143.295 3.83332 143.291 3.75703 143.303 3.71034C143.316 3.66365 143.316 3.66365 143.328 3.61696L143.311 3.58736L143.422 3.64198C143.507 3.78998 143.516 3.94256 143.525 4.09514C143.535 4.24772 143.51 4.3411 143.468 4.40488ZM140.178 22.5646L140.148 22.5817C140.089 22.6159 140.025 22.5738 139.957 22.4554C139.889 22.337 139.862 22.1548 139.878 21.9088C139.958 21.705 139.949 21.5524 139.863 21.4044C139.761 21.2268 139.679 20.8795 139.63 20.3159C139.619 19.8878 139.542 19.6168 139.473 19.4984L139.422 19.4096C139.354 19.2912 139.381 18.723 139.503 17.7049C139.565 17.1959 139.564 16.9203 139.529 16.8611C139.41 16.6539 139.449 15.0131 139.626 11.8327C139.688 10.5732 139.917 8.78315 140.297 6.43277C140.572 5.40558 140.828 4.82363 141.095 4.66982C141.154 4.63564 141.2 4.64815 141.218 4.67775C141.32 4.85536 141.39 5.24932 141.397 5.87674L141.382 6.39826C141.399 6.42786 141.399 6.42786 141.37 6.44495C141.341 8.51396 141.358 9.56952 141.392 9.62872C141.478 9.77673 141.487 9.92931 141.437 10.1161C141.387 10.3028 141.251 12.1179 141.041 15.5147C140.981 16.2993 140.958 16.9438 140.956 17.4186C140.888 18.3262 140.778 19.2975 140.613 20.3794C140.433 21.7071 140.262 22.4371 140.178 22.5646ZM137.259 13.4754C137.2 13.5096 137.153 13.4971 137.119 13.4379C137.102 13.4083 137.085 13.3787 137.097 13.332C137.11 13.2853 137.122 13.2386 137.135 13.1919C137.147 13.1452 137.13 13.1156 137.16 13.0985C137.189 13.0814 137.253 13.1236 137.304 13.2124C137.373 13.3308 137.348 13.4241 137.259 13.4754ZM137.266 17.9311C137.236 17.9482 137.19 17.9357 137.156 17.8765C137.083 17.6818 137.024 16.9656 137.027 15.7403C137.013 14.4855 137.053 13.8706 137.142 13.8193C137.171 13.8022 137.171 13.8022 137.188 13.8318C137.223 13.891 137.261 14.0265 137.305 14.2383C137.301 14.4376 137.357 14.6027 137.396 14.7382C137.435 14.8737 137.456 14.9796 137.473 15.0092C137.508 15.0684 137.501 15.4669 137.47 16.2344C137.44 17.0019 137.391 17.4642 137.371 17.6339C137.35 17.8035 137.296 17.914 137.266 17.9311ZM137.464 21.4872C137.435 21.5043 137.435 21.5043 137.417 21.4747C137.298 21.2675 137.278 20.6867 137.312 19.72C137.336 19.351 137.356 19.1814 137.386 19.1643L137.403 19.1939C137.506 19.3715 137.559 20.0114 137.547 21.084C137.561 21.3129 137.523 21.453 137.464 21.4872ZM138.611 21.9696C138.581 21.9867 138.535 21.9742 138.5 21.915L138.462 21.7795C138.406 21.6144 138.35 21.4493 138.282 21.3309C138.213 21.2125 138.209 21.1362 138.298 21.0849C138.386 21.0337 138.484 21.135 138.604 21.3422C138.655 21.431 138.706 21.5198 138.728 21.6257C138.75 21.7316 138.708 21.7954 138.695 21.842C138.653 21.9058 138.641 21.9525 138.611 21.9696ZM138.75 22.7575L138.661 22.8088C138.573 22.8601 138.526 22.8476 138.415 22.7929C138.347 22.6745 138.402 22.5641 138.55 22.4786C138.698 22.3932 138.804 22.3715 138.855 22.4603C138.923 22.5787 138.898 22.6721 138.75 22.7575ZM137.908 24.0331L137.878 24.0502C137.819 24.0844 137.785 24.0252 137.687 23.9239C137.465 23.5391 137.419 22.7762 137.537 21.6819L137.584 21.6944C137.601 21.724 137.605 21.8003 137.64 21.8595C137.644 21.9358 137.713 22.0542 137.785 22.2488C137.906 22.7316 137.993 23.1552 137.952 23.4945C137.958 23.8464 137.937 24.016 137.908 24.0331ZM138.809 24.4997C138.779 24.5168 138.732 24.5043 138.664 24.3859C138.493 24.0899 138.497 23.8906 138.645 23.8052C138.674 23.7881 138.721 23.8006 138.738 23.8302C138.755 23.8598 138.789 23.919 138.811 24.0249C138.833 24.1308 138.808 24.2241 138.829 24.33C138.851 24.4359 138.838 24.4826 138.809 24.4997ZM138.165 25.5031L138.105 25.5373C137.928 25.6398 137.805 25.6319 137.69 25.501C137.604 25.353 137.642 25.2129 137.79 25.1275C138.027 24.9907 138.196 25.0112 138.299 25.1888C138.35 25.2776 138.325 25.371 138.165 25.5031ZM141.748 32.3933C141.718 32.4104 141.672 32.3979 141.637 32.3387C141.518 32.1315 141.465 31.7671 141.463 31.216C141.466 31.0167 141.487 30.8471 141.558 30.7662C141.63 30.6853 141.792 29.8028 142.043 28.1186C142.215 26.9138 142.529 24.9961 142.996 22.3189C143.355 20.1382 143.635 18.1614 143.758 16.3929C143.835 15.6379 143.825 15.2098 143.803 15.1039C143.735 14.9855 143.758 14.341 143.854 13.1408C143.95 11.9406 143.981 11.1731 143.975 10.8212C143.94 10.4865 143.946 10.0879 143.966 9.6427C143.985 9.19747 143.954 8.93899 143.92 8.87979L143.886 8.82059C143.817 8.70219 143.813 8.6259 143.884 8.54503C143.973 8.49376 144.022 8.03144 144.001 7.17515L143.913 5.45006C143.834 4.90351 143.816 4.59835 143.964 4.5129L144.04 4.50832C144.18 4.54585 144.308 4.63008 144.342 4.68928C144.41 4.80768 144.39 4.97735 144.327 5.2108C144.265 5.44425 144.257 5.56723 144.291 5.62644C144.523 6.16382 144.653 6.79917 144.698 7.56208C144.721 7.94353 144.693 8.23619 144.63 8.46964C144.512 8.538 144.518 8.88985 144.601 9.51269C144.714 10.1184 144.741 10.5762 144.654 10.903C144.529 12.3959 144.486 13.2101 144.554 13.3285L144.785 13.5903C144.819 13.6495 144.789 13.6666 144.759 13.6837L144.641 13.752C144.523 13.8204 144.473 14.0071 144.521 14.2952C144.586 14.6129 144.582 14.8122 144.498 14.9397C144.468 14.9568 144.468 14.9568 144.485 14.9864C144.537 15.0752 144.601 15.1173 144.724 15.1253C144.864 15.1628 144.927 15.2049 144.944 15.2345L144.962 15.2641C144.962 15.2641 144.932 15.2812 144.902 15.2983L144.636 15.4521C144.429 15.5717 144.319 15.7927 144.355 16.1274C144.371 16.9074 144.201 18.6633 143.785 21.4293C143.625 22.5874 143.585 23.2024 143.636 23.2912C143.688 23.38 143.663 23.4733 143.578 23.6009C143.43 23.6863 143.305 24.1532 143.191 25.0483C143.029 25.9308 143.015 26.4524 143.117 26.63C143.168 26.7188 143.114 26.8292 142.97 26.991C142.81 27.1231 142.614 27.9464 142.337 29.4485C142.023 31.3661 141.837 32.342 141.748 32.3933ZM138.679 28.7186C138.62 28.7528 138.573 28.7403 138.522 28.6515C138.505 28.6219 138.488 28.5923 138.454 28.5331C138.449 28.4568 138.415 28.3976 138.41 28.3213C138.423 28.2746 138.406 28.245 138.435 28.2279C138.495 28.1937 138.575 28.2654 138.661 28.4134C138.746 28.5614 138.768 28.6673 138.679 28.7186ZM142.777 45.4549C142.747 45.472 142.654 45.447 142.573 45.3753C142.436 45.1385 142.337 44.7616 142.229 44.2321C142.138 43.7323 142.034 43.2791 141.875 42.9364C141.722 42.67 141.54 41.9459 141.315 40.7344L141.084 39.4466C140.949 38.7349 140.85 38.3581 140.816 38.2989C140.731 38.1509 140.704 37.9687 140.75 37.7056C140.812 37.4722 140.88 37.315 140.939 37.2808C140.968 37.2637 141.066 37.3651 141.186 37.5723C141.357 37.8683 141.439 38.2155 141.479 38.6266C141.489 39.0547 141.503 39.2836 141.52 39.3132C141.627 39.5671 141.692 39.8848 141.757 40.2024C141.784 40.3846 141.822 40.5201 141.861 40.6556L141.866 40.7319C141.909 40.9437 141.999 41.168 142.119 41.3752L142.319 41.6541C142.37 41.7429 142.405 41.8021 142.375 41.8192C142.345 41.8363 142.316 41.8534 142.333 41.883C142.236 42.0572 142.267 42.3157 142.379 42.6459C142.464 42.7939 142.507 43.0057 142.538 43.2641C142.56 43.37 142.594 43.4292 142.616 43.5351C142.62 43.6114 142.672 43.7002 142.723 43.789L142.808 43.937L142.886 44.208C142.772 44.3526 142.798 44.5348 142.842 44.7466C142.852 45.1748 142.836 45.4207 142.777 45.4549ZM159.204 26.2616C159.158 26.2491 159.141 26.2195 159.106 26.1602L159.016 25.936C158.956 25.6946 158.976 25.5249 159.065 25.4736C159.095 25.4565 159.095 25.4565 159.142 25.4691C159.159 25.4987 159.222 25.5408 159.239 25.5704C159.325 25.7184 159.334 25.8709 159.297 26.011C159.259 26.1511 159.234 26.2445 159.204 26.2616ZM158.863 21.8413C158.833 21.8584 158.816 21.8288 158.799 21.7992C158.765 21.74 158.743 21.6341 158.751 21.5111C158.802 21.5999 158.853 21.6887 158.841 21.7354L158.863 21.8413ZM159.093 37.4162C159.211 37.3479 159.363 37.0631 159.547 36.562C159.727 35.9847 159.78 35.5986 159.678 35.421C159.609 35.3026 159.499 35.248 159.351 35.3335C159.173 35.436 159.039 35.7503 158.948 36.2764C158.81 36.79 158.816 37.1419 158.936 37.3491C158.987 37.4379 159.034 37.4504 159.093 37.4162ZM159.686 35.2981C159.834 35.2126 159.954 34.6694 160 33.656C160.026 32.8122 159.994 32.2781 159.892 32.1005C159.875 32.0709 159.858 32.0413 159.828 32.0584C159.781 32.0459 159.752 32.063 159.752 32.063C159.663 32.1143 159.605 32.424 159.548 33.0093L159.476 33.8406C159.381 34.566 159.379 35.0408 159.482 35.2184C159.533 35.3072 159.597 35.3493 159.686 35.2981Z" fill="#535353"/>
</svg>
