<svg width="1440" height="308" viewBox="0 0 1440 308" fill="none" xmlns="http://www.w3.org/2000/svg">
<mask id="mask0" mask-type="alpha" maskUnits="userSpaceOnUse" x="0" y="0" width="1440" height="308">
<rect width="1440" height="308" rx="5" fill="#78C0DE"/>
</mask>
<g mask="url(#mask0)">
<rect width="1444" height="308" rx="5" fill="#78C0DE"/>
<g opacity="0.1">
<path d="M1348.87 201.397C1327.21 190.188 1301.68 190.769 1280.58 202.954C1259.47 215.139 1246.2 236.959 1245.08 261.319L1242.38 320.022C1241.93 329.761 1244.57 339.189 1250.01 347.282C1255.46 355.376 1263.19 361.374 1272.38 364.634C1281.58 367.886 1291.36 368.088 1300.68 365.219C1309.99 362.351 1317.96 356.677 1323.73 348.814L1324.11 348.285C1338.72 328.672 1360.99 315.919 1385.32 313.257C1391.59 312.57 1397.53 310.623 1402.88 307.534C1405.79 305.855 1408.53 303.835 1411.04 301.5C1418.19 294.868 1422.9 286.295 1424.69 276.705C1426.46 267.118 1425.14 257.418 1420.85 248.653C1416.56 239.889 1409.72 232.889 1401.06 228.405L1348.87 201.397Z" fill="white"/>
<path d="M1224.78 271.589C1231.1 263.775 1233.5 253.664 1231.52 243.117C1229.64 233.08 1223.96 223.801 1215.53 216.988C1207.1 210.181 1196.83 206.58 1186.62 206.843C1175.89 207.122 1166.5 211.58 1160.19 219.392C1147.49 235.091 1151.64 259.578 1169.45 273.987C1183.64 285.444 1202.28 287.091 1215.69 279.349C1219.11 277.372 1222.2 274.782 1224.78 271.589Z" fill="white"/>
<path d="M1258.19 207.535C1278.89 195.583 1284.93 167.149 1271.65 144.151C1258.37 121.147 1230.73 112.157 1210.02 124.109C1189.32 136.06 1183.29 164.496 1196.57 187.5C1209.85 210.498 1237.49 219.486 1258.19 207.535Z" fill="white"/>
<path d="M1328.47 181.57L1328.47 181.569C1332.21 180.813 1335.7 179.471 1338.88 177.634C1353.73 169.063 1361.88 149.772 1357.7 129.777C1355.29 118.266 1349.18 108.157 1340.48 101.313C1331.38 94.1467 1320.57 91.3694 1310.05 93.492C1299.53 95.6157 1290.71 102.354 1285.22 112.462C1279.98 122.119 1278.42 133.777 1280.83 145.286C1285.91 169.565 1307.28 185.842 1328.47 181.57Z" fill="white"/>
<path d="M1403.85 130.883L1403.84 130.881C1383.75 128.665 1365.24 145.34 1362.58 168.06C1359.94 190.781 1374.12 211.085 1394.2 213.321C1401.52 214.138 1408.64 212.442 1414.85 208.854C1425.68 202.602 1433.78 190.601 1435.47 176.147C1438.12 153.427 1423.93 133.122 1403.85 130.883Z" fill="white"/>
</g>
<g opacity="0.1">
<path d="M208.094 270.896C203.838 257.51 193.204 247.349 179.646 243.716C166.089 240.083 151.799 243.566 141.421 253.031L116.412 275.837C112.263 279.62 109.499 284.536 108.42 290.048C107.34 295.562 108.048 301.155 110.464 306.226C112.884 311.294 116.786 315.361 121.748 317.987C126.71 320.613 132.268 321.548 137.818 320.694L138.19 320.636C152.127 318.597 166.389 322.471 177.381 331.295C180.216 333.571 183.43 335.198 186.867 336.119C188.735 336.62 190.671 336.911 192.647 336.986C198.257 337.194 203.67 335.623 208.301 332.443C212.93 329.263 216.34 324.772 218.164 319.457C219.987 314.141 220.051 308.503 218.35 303.15L208.094 270.896Z" fill="white"/>
<path d="M128.97 248.944C134.729 248.339 139.822 245.197 143.312 240.096C146.634 235.243 148.101 229.151 147.442 222.942C146.78 216.737 144.065 211.089 139.798 207.036C135.315 202.781 129.676 200.772 123.925 201.383C112.357 202.603 104.073 214.265 105.459 227.387C106.575 237.835 113.494 246.095 122.108 248.404C124.308 248.993 126.618 249.194 128.97 248.944Z" fill="white"/>
<path d="M168.664 236.465C181.963 240.029 196.003 230.908 199.961 216.134C203.921 201.357 196.323 186.436 183.024 182.873C169.727 179.31 155.688 188.433 151.728 203.21C147.769 217.984 155.367 232.902 168.664 236.465Z" fill="white"/>
<path d="M207.862 254.514L207.863 254.514C209.694 255.729 211.659 256.602 213.703 257.15C223.24 259.705 234.418 255.17 240.857 245.323C244.565 239.655 246.192 233.047 245.437 226.718C244.648 220.092 241.379 214.561 236.23 211.14C231.079 207.72 224.745 206.874 218.393 208.756C212.325 210.553 206.943 214.666 203.237 220.335C195.419 232.292 197.493 247.625 207.862 254.514Z" fill="white"/>
<path d="M259.203 264.57L259.201 264.565C251.92 255.48 237.591 254.733 227.255 262.903C216.925 271.08 214.434 285.126 221.7 294.213C224.349 297.529 227.938 299.736 231.93 300.806C238.887 302.67 247.071 301.079 253.649 295.883C263.977 287.706 266.47 273.66 259.203 264.57Z" fill="white"/>
</g>
<g opacity="0.1">
<path d="M39.784 178.463C44.8051 169.19 44.7608 158.148 39.664 148.926C34.5673 139.703 25.2416 133.791 14.7194 133.109L-10.6364 131.465C-14.8429 131.192 -18.9403 132.258 -22.4828 134.545C-26.0261 136.832 -28.6818 140.128 -30.1654 144.075C-31.6456 148.023 -31.8121 152.251 -30.6475 156.302C-29.4829 160.352 -27.0943 163.844 -23.742 166.401L-23.5165 166.571C-15.1557 173.045 -9.82265 182.774 -8.86912 193.313C-8.62277 196.031 -7.82905 198.617 -6.53713 200.954C-5.83474 202.225 -4.98371 203.424 -3.99477 204.531C-1.18558 207.673 2.4827 209.781 6.61423 210.629C10.744 211.476 14.9484 210.981 18.772 209.198C22.5956 207.416 25.6772 204.514 27.6859 200.806L39.784 178.463Z" fill="white"/>
<path d="M10.4446 124.248C13.7711 127.046 18.1228 128.164 22.6985 127.394C27.0529 126.663 31.1104 124.283 34.124 120.693C37.1346 117.103 38.7748 112.694 38.7434 108.276C38.7097 103.636 36.8585 99.5407 33.5327 96.7494C26.8488 91.13 16.229 92.7251 9.85571 100.308C4.78794 106.353 3.92508 114.396 7.16352 120.256C7.99043 121.752 9.08495 123.106 10.4446 124.248Z" fill="white"/>
<path d="M37.8645 139.211C42.8638 148.257 55.1073 151.099 65.1571 145.545C75.2093 139.989 79.3197 128.11 74.3204 119.064C69.3215 110.019 57.0768 107.179 47.0246 112.734C36.9748 118.288 32.8656 130.166 37.8645 139.211Z" fill="white"/>
<path d="M48.5216 169.805L48.5221 169.806C48.8186 171.428 49.3705 172.946 50.1388 174.336C53.7242 180.824 61.9975 184.505 70.6756 182.859C75.6713 181.911 80.0912 179.35 83.1204 175.645C86.292 171.768 87.5801 167.119 86.7477 162.554C85.9148 157.987 83.0733 154.122 78.7475 151.668C74.6152 149.323 69.5882 148.555 64.5934 149.504C54.056 151.504 46.8462 160.611 48.5216 169.805Z" fill="white"/>
<path d="M69.8237 202.802L69.8249 202.798C70.9455 194.13 63.8866 185.993 54.086 184.66C44.2849 183.333 35.3926 189.302 34.2635 197.963C33.8507 201.122 34.5264 204.212 36.027 206.927C38.6424 211.66 43.7649 215.256 50 216.107C59.8006 217.433 68.6934 211.465 69.8237 202.802Z" fill="white"/>
</g>
<g opacity="0.1">
<path d="M352.683 189.348C349.644 187.388 345.866 187.114 342.579 188.615C339.292 190.117 337.026 193.151 336.517 196.731L335.291 205.359C335.087 206.79 335.344 208.219 336.033 209.49C336.723 210.762 337.78 211.756 339.091 212.367C340.403 212.977 341.844 213.144 343.26 212.852C344.675 212.56 345.932 211.835 346.894 210.755L346.958 210.683C349.391 207.993 352.858 206.425 356.486 206.375C357.422 206.361 358.327 206.158 359.161 205.777C359.614 205.57 360.046 205.311 360.45 205.002C361.598 204.123 362.415 202.924 362.813 201.533C363.211 200.143 363.152 198.693 362.643 197.339C362.133 195.984 361.222 194.855 360.006 194.07L352.683 189.348Z" fill="white"/>
<path d="M333.375 197.961C334.419 196.897 334.915 195.438 334.772 193.853C334.636 192.345 333.929 190.895 332.78 189.77C331.631 188.647 330.166 187.97 328.655 187.865C327.067 187.755 325.618 188.281 324.577 189.345C322.48 191.484 322.747 195.157 325.173 197.535C327.108 199.426 329.835 199.932 331.924 198.978C332.457 198.735 332.949 198.396 333.375 197.961Z" fill="white"/>
<path d="M339.21 188.976C342.435 187.504 343.727 183.391 342.091 179.809C340.455 176.226 336.5 174.509 333.276 175.982C330.052 177.454 328.76 181.567 330.396 185.15C332.032 188.732 335.986 190.449 339.21 188.976Z" fill="white"/>
<path d="M349.951 186.133L349.951 186.133C350.514 186.074 351.047 185.925 351.543 185.699C353.855 184.643 355.331 181.91 354.995 178.899C354.802 177.166 354.042 175.588 352.855 174.455C351.612 173.269 350.056 172.706 348.473 172.872C346.89 173.037 345.493 173.907 344.541 175.322C343.631 176.674 343.236 178.373 343.43 180.106C343.838 183.761 346.763 186.465 349.951 186.133Z" fill="white"/>
<path d="M361.793 179.713L361.792 179.713C358.857 179.103 355.889 181.303 355.177 184.62C354.466 187.937 356.274 191.134 359.207 191.747C360.276 191.971 361.35 191.821 362.318 191.379C364.005 190.608 365.369 188.951 365.823 186.841C366.533 183.524 364.726 180.327 361.793 179.713Z" fill="white"/>
</g>
<g opacity="0.05">
<path d="M360.835 162.962C360.669 159.349 358.701 156.113 355.571 154.306C352.442 152.499 348.656 152.413 345.444 154.076L337.705 158.081C336.421 158.745 335.406 159.784 334.77 161.083C334.134 162.382 333.937 163.82 334.2 165.242C334.464 166.664 335.164 167.935 336.223 168.919C337.282 169.903 338.602 170.506 340.039 170.663L340.136 170.673C343.737 171.095 347.026 173.009 349.172 175.936C349.725 176.691 350.416 177.31 351.209 177.768C351.641 178.017 352.103 178.218 352.589 178.369C353.971 178.794 355.422 178.764 356.785 178.282C358.148 177.8 359.296 176.91 360.103 175.71C360.911 174.509 361.303 173.111 361.236 171.667L360.835 162.962Z" fill="white"/>
<path d="M342.62 152.23C344.092 152.463 345.569 152.021 346.776 150.985C347.926 149.999 348.697 148.582 348.947 146.994C349.195 145.406 348.897 143.821 348.106 142.529C347.274 141.172 346.006 140.296 344.535 140.065C341.576 139.597 338.739 141.946 338.209 145.302C337.791 147.974 338.961 150.49 340.95 151.638C341.457 151.931 342.018 152.135 342.62 152.23Z" fill="white"/>
<path d="M353.323 151.771C356.393 153.544 360.493 152.211 362.462 148.801C364.431 145.389 363.536 141.172 360.466 139.4C357.396 137.628 353.297 138.961 351.327 142.372C349.358 145.783 350.254 149.999 353.323 151.771Z" fill="white"/>
<path d="M361.869 158.872L361.87 158.872C362.244 159.296 362.675 159.644 363.146 159.917C365.348 161.188 368.43 160.805 370.688 158.785C371.987 157.622 372.832 156.087 373.066 154.463C373.312 152.763 372.867 151.169 371.815 149.975C370.762 148.781 369.243 148.149 367.538 148.194C365.909 148.236 364.296 148.9 362.997 150.063C360.255 152.516 359.75 156.468 361.869 158.872Z" fill="white"/>
<path d="M373.968 164.794L373.967 164.793C372.762 162.048 369.248 160.907 366.133 162.25C363.019 163.596 361.464 166.923 362.665 169.667C363.103 170.668 363.849 171.456 364.77 171.988C366.376 172.916 368.517 173.065 370.499 172.212C373.613 170.866 375.169 167.539 373.968 164.794Z" fill="white"/>
</g>
<g opacity="0.05">
<path d="M627.895 50.7235C628.669 47.1909 627.606 43.5562 625.051 41.0008C622.496 38.4454 618.861 37.3824 615.329 38.1569L606.816 40.0226C605.404 40.332 604.155 41.0723 603.205 42.1624C602.254 43.2528 601.692 44.5909 601.578 46.0327C601.465 47.4743 601.811 48.8834 602.58 50.1078C603.348 51.3321 604.467 52.2561 605.815 52.7803L605.905 52.8151C609.275 54.1545 611.956 56.8547 613.271 60.2371C613.611 61.1095 614.118 61.8862 614.765 62.534C615.118 62.8861 615.512 63.2004 615.943 63.4713C617.167 64.24 618.576 64.5865 620.018 64.4736C621.46 64.3604 622.798 63.7981 623.889 62.8476C624.98 61.8971 625.72 60.6482 626.03 59.2355L627.895 50.7235Z" fill="white"/>
<path d="M613.078 35.6426C614.44 36.249 615.981 36.2042 617.416 35.5161C618.781 34.8615 619.892 33.692 620.545 32.2227C621.196 30.7539 621.318 29.145 620.888 27.6921C620.436 26.1661 619.437 24.9922 618.076 24.3881C615.34 23.1709 611.992 24.7049 610.611 27.8092C609.515 30.2825 609.994 33.0151 611.618 34.6387C612.033 35.0533 612.522 35.3955 613.078 35.6426Z" fill="white"/>
<path d="M623.536 37.9702C626.042 40.4768 630.347 40.2506 633.131 37.466C635.917 34.6807 636.143 30.3756 633.637 27.869C631.131 25.3628 626.826 25.5896 624.04 28.3749C621.256 31.1595 621.029 35.464 623.536 37.9702Z" fill="white"/>
<path d="M629.953 47.0406L629.953 47.0409C630.205 47.5474 630.531 47.9951 630.916 48.3803C632.713 50.1779 635.79 50.6055 638.493 49.2389C640.05 48.4524 641.263 47.1884 641.909 45.68C642.586 44.1011 642.57 42.4468 641.862 41.0212C641.154 39.5955 639.85 38.5914 638.192 38.1933C636.607 37.813 634.878 38.0372 633.322 38.8241C630.039 40.4839 628.528 44.1698 629.953 47.0406Z" fill="white"/>
<path d="M640.106 55.8923L640.106 55.8909C639.652 52.9277 636.553 50.9165 633.197 51.4076C629.841 51.9011 627.477 54.7125 627.927 57.674C628.091 58.7544 628.607 59.7085 629.36 60.4609C630.671 61.7721 632.701 62.471 634.836 62.1594C638.192 61.6656 640.556 58.8545 640.106 55.8923Z" fill="white"/>
</g>
<g opacity="0.05">
<path d="M621.089 291.529C616.158 276.021 603.838 264.248 588.13 260.039C572.423 255.831 555.867 259.866 543.844 270.832L514.869 297.254C510.062 301.637 506.86 307.332 505.609 313.719C504.358 320.106 505.178 326.586 507.977 332.462C510.781 338.333 515.302 343.045 521.051 346.087C526.8 349.13 533.239 350.213 539.669 349.224L540.1 349.156C556.247 346.794 572.771 351.283 585.505 361.506C588.79 364.142 592.514 366.028 596.495 367.095C598.66 367.675 600.904 368.013 603.193 368.099C609.693 368.34 615.964 366.52 621.329 362.836C626.691 359.152 630.643 353.949 632.755 347.79C634.867 341.632 634.942 335.1 632.971 328.898L621.089 291.529Z" fill="white"/>
<path d="M529.418 266.096C536.09 265.395 541.991 261.755 546.035 255.845C549.883 250.222 551.583 243.164 550.819 235.971C550.052 228.782 546.907 222.238 541.963 217.543C536.77 212.612 530.236 210.285 523.573 210.993C510.171 212.406 500.574 225.918 502.179 241.121C503.472 253.225 511.488 262.796 521.468 265.47C524.017 266.153 526.694 266.386 529.418 266.096Z" fill="white"/>
<path d="M575.407 251.639C590.814 255.767 607.08 245.201 611.667 228.084C616.254 210.964 607.451 193.677 592.044 189.548C576.638 185.42 560.372 195.99 555.785 213.111C551.198 230.227 560.001 247.511 575.407 251.639Z" fill="white"/>
<path d="M620.821 272.548L620.823 272.549C622.944 273.956 625.221 274.967 627.589 275.602C638.639 278.563 651.588 273.308 659.049 261.9C663.345 255.333 665.23 247.677 664.355 240.345C663.441 232.668 659.653 226.259 653.688 222.297C647.72 218.334 640.382 217.354 633.023 219.534C625.992 221.617 619.756 226.382 615.463 232.949C606.405 246.803 608.809 264.567 620.821 272.548Z" fill="white"/>
<path d="M680.304 284.199L680.301 284.194C671.866 273.668 655.264 272.802 643.289 282.268C631.321 291.742 628.435 308.016 636.853 318.544C639.923 322.385 644.08 324.942 648.705 326.181C656.765 328.341 666.247 326.498 673.868 320.478C685.835 311.004 688.722 294.731 680.304 284.199Z" fill="white"/>
</g>
<g opacity="0.1">
<path d="M1362.38 6.10775C1363.2 13.4251 1367.62 19.7392 1374.22 22.9974C1380.81 26.2556 1388.52 25.9313 1394.82 22.1306L1410.02 12.9731C1412.54 11.4541 1414.46 9.21078 1415.58 6.48811C1416.7 3.76483 1416.91 0.817324 1416.19 -2.03734C1415.47 -4.89079 1413.88 -7.38149 1411.6 -9.24035C1409.32 -11.0992 1406.56 -12.1502 1403.62 -12.2807L1403.42 -12.2887C1396.05 -12.6702 1389.11 -16.1252 1384.37 -21.7884C1383.14 -23.249 1381.66 -24.4154 1379.99 -25.2413C1379.08 -25.6903 1378.11 -26.0387 1377.1 -26.2796C1374.24 -26.9622 1371.3 -26.71 1368.59 -25.5503C1365.88 -24.3907 1363.67 -22.4321 1362.19 -19.8868C1360.71 -17.3415 1360.09 -14.4501 1360.42 -11.5237L1362.38 6.10775Z" fill="white"/>
<path d="M1400.8 25.5085C1397.78 25.2288 1394.84 26.3214 1392.52 28.5854C1390.32 30.7395 1388.94 33.7203 1388.64 36.9794C1388.34 40.2371 1389.16 43.419 1390.94 45.9397C1392.81 48.5871 1395.5 50.1981 1398.52 50.4739C1404.59 51.0337 1410.04 45.8887 1410.68 39.0014C1411.18 33.5165 1408.47 28.5606 1404.27 26.4904C1403.2 25.9618 1402.04 25.6214 1400.8 25.5085Z" fill="white"/>
<path d="M1379.12 27.8511C1372.65 24.6552 1364.5 27.903 1360.95 35.0911C1357.39 42.281 1359.77 50.7303 1366.24 53.9261C1372.71 57.1217 1380.86 53.8724 1384.41 46.6825C1387.96 39.4944 1385.59 31.0467 1379.12 27.8511Z" fill="white"/>
<path d="M1360.82 14.5529L1360.82 14.5526C1360 13.7404 1359.08 13.09 1358.09 12.5989C1353.45 10.3069 1347.24 11.4915 1342.92 15.8925C1340.43 18.4256 1338.92 21.6554 1338.65 24.9862C1338.38 28.4729 1339.49 31.6518 1341.79 33.9382C1344.09 36.2248 1347.26 37.3095 1350.71 36.9937C1354.02 36.6922 1357.21 35.1302 1359.69 32.5965C1364.94 27.252 1365.44 19.1576 1360.82 14.5529Z" fill="white"/>
<path d="M1335.46 4.11656L1335.46 4.11925C1338.27 9.53644 1345.56 11.3905 1351.71 8.25105C1357.86 5.10746 1360.58 -1.85739 1357.78 -7.2737C1356.76 -9.24979 1355.14 -10.7524 1353.2 -11.7117C1349.81 -13.3836 1345.44 -13.4055 1341.53 -11.4097C1335.38 -8.26579 1332.66 -1.30124 1335.46 4.11656Z" fill="white"/>
</g>
<g opacity="0.1">
<path d="M886.721 154.945C882.68 154.06 878.522 155.276 875.599 158.199C872.676 161.122 871.46 165.28 872.346 169.321L874.48 179.058C874.834 180.674 875.681 182.103 876.928 183.19C878.175 184.277 879.706 184.92 881.355 185.051C883.004 185.18 884.616 184.784 886.017 183.904C887.417 183.025 888.474 181.746 889.074 180.204L889.114 180.101C890.646 176.246 893.735 173.178 897.604 171.674C898.602 171.286 899.49 170.706 900.231 169.965C900.634 169.562 900.994 169.111 901.304 168.618C902.183 167.218 902.579 165.606 902.45 163.956C902.321 162.307 901.677 160.776 900.59 159.528C899.503 158.28 898.074 157.434 896.458 157.079L886.721 154.945Z" fill="white"/>
<path d="M869.47 171.895C870.163 170.337 870.112 168.575 869.325 166.934C868.576 165.372 867.238 164.1 865.557 163.354C863.877 162.609 862.037 162.47 860.375 162.961C858.629 163.478 857.286 164.621 856.595 166.178C855.203 169.308 856.958 173.138 860.509 174.717C863.338 175.971 866.464 175.423 868.321 173.565C868.795 173.091 869.187 172.532 869.47 171.895Z" fill="white"/>
<path d="M872.132 159.932C874.999 157.065 874.741 152.141 871.555 148.956C868.369 145.769 863.444 145.51 860.577 148.377C857.71 151.244 857.969 156.169 861.156 159.355C864.341 162.541 869.265 162.8 872.132 159.932Z" fill="white"/>
<path d="M882.508 152.592L882.508 152.591C883.088 152.303 883.6 151.931 884.04 151.49C886.097 149.434 886.586 145.915 885.023 142.822C884.123 141.042 882.677 139.654 880.952 138.914C879.145 138.139 877.253 138.159 875.622 138.968C873.991 139.778 872.843 141.27 872.387 143.167C871.952 144.979 872.209 146.958 873.109 148.738C875.007 152.493 879.224 154.222 882.508 152.592Z" fill="white"/>
<path d="M892.634 140.977L892.632 140.977C889.243 141.496 886.942 145.041 887.504 148.881C888.068 152.72 891.284 155.424 894.672 154.909C895.908 154.721 896.999 154.131 897.86 153.27C899.36 151.77 900.159 149.448 899.803 147.005C899.238 143.167 896.022 140.462 892.634 140.977Z" fill="white"/>
</g>
<g opacity="0.1">
<path d="M978.578 194.93C975.946 191.739 971.924 190.129 967.819 190.625C963.715 191.121 960.192 193.641 958.395 197.368L954.064 206.346C953.346 207.836 953.13 209.483 953.44 211.108C953.751 212.733 954.558 214.184 955.775 215.305C956.993 216.424 958.506 217.107 960.151 217.28C961.795 217.453 963.417 217.098 964.84 216.255L964.935 216.199C968.52 214.111 972.843 213.604 976.816 214.809C977.841 215.119 978.898 215.211 979.938 215.086C980.504 215.017 981.065 214.884 981.613 214.688C983.169 214.129 984.476 213.105 985.393 211.727C986.308 210.35 986.747 208.748 986.662 207.096C986.577 205.443 985.975 203.895 984.923 202.618L978.578 194.93Z" fill="white"/>
<path d="M954.544 197.618C956.051 196.82 957.098 195.402 957.492 193.625C957.867 191.934 957.599 190.108 956.737 188.483C955.875 186.86 954.513 185.615 952.902 184.976C951.209 184.305 949.447 184.375 947.943 185.174C944.915 186.777 943.932 190.874 945.751 194.308C947.203 197.041 950.001 198.539 952.609 198.224C953.275 198.143 953.928 197.944 954.544 197.618Z" fill="white"/>
<path d="M964.022 189.849C968.047 189.363 970.883 185.329 970.343 180.856C969.803 176.383 966.088 173.139 962.062 173.626C958.037 174.112 955.201 178.147 955.742 182.62C956.282 187.092 959.996 190.335 964.022 189.849Z" fill="white"/>
<path d="M976.716 190.478L976.717 190.477C977.35 190.608 977.983 190.631 978.602 190.556C981.489 190.208 984.046 187.741 984.725 184.343C985.116 182.387 984.835 180.402 983.934 178.755C982.991 177.031 981.49 175.878 979.707 175.509C977.924 175.139 976.1 175.604 974.57 176.815C973.109 177.973 972.09 179.688 971.7 181.644C970.876 185.771 973.126 189.733 976.716 190.478Z" fill="white"/>
<path d="M991.852 187.589L991.851 187.588C988.863 185.904 984.865 187.273 982.937 190.641C981.012 194.01 981.874 198.123 984.857 199.808C985.945 200.423 987.168 200.633 988.377 200.487C990.483 200.232 992.545 198.899 993.772 196.757C995.697 193.388 994.836 189.275 991.852 187.589Z" fill="white"/>
</g>
<g opacity="0.1">
<path d="M855.028 62.1135C851.425 60.0805 847.094 60.0224 843.441 61.9587C839.789 63.895 837.406 67.5127 837.066 71.6356L836.248 81.5706C836.112 83.2188 836.502 84.8333 837.375 86.2386C838.249 87.6441 839.523 88.7084 841.061 89.3173C842.6 89.9249 844.257 90.0191 845.854 89.59C847.451 89.1608 848.837 88.2477 849.863 86.9502L849.931 86.8629C852.528 83.6274 856.381 81.6019 860.521 81.2999C861.589 81.2218 862.609 80.9281 863.535 80.4373C864.038 80.1705 864.514 79.8448 864.955 79.4645C866.207 78.384 867.059 76.9594 867.419 75.3446C867.78 73.7304 867.614 72.0777 866.941 70.5657C866.268 69.0537 865.151 67.825 863.71 67.0118L855.028 62.1135Z" fill="white"/>
<path d="M833.562 73.2522C834.682 71.9664 835.15 70.2671 834.88 68.4669C834.622 66.7538 833.717 65.146 832.329 63.9393C830.941 62.7338 829.223 62.0603 827.49 62.0424C825.669 62.024 824.05 62.7221 822.933 64.0077C820.683 66.5912 821.236 70.7678 824.167 73.3197C826.503 75.3489 829.653 75.7423 831.973 74.512C832.566 74.1978 833.104 73.7778 833.562 73.2522Z" fill="white"/>
<path d="M839.618 62.5983C843.201 60.699 844.399 55.9157 842.289 51.9356C840.179 47.9545 835.547 46.261 831.964 48.1602C828.382 50.0593 827.184 54.8431 829.295 58.8242C831.405 62.8043 836.036 64.4974 839.618 62.5983Z" fill="white"/>
<path d="M851.692 58.6268L851.692 58.6266C852.331 58.5214 852.93 58.3153 853.48 58.0234C856.05 56.6613 857.55 53.4411 856.964 50.0257C856.626 48.0596 855.652 46.3083 854.219 45.0948C852.72 43.8242 850.905 43.2871 849.109 43.5825C847.312 43.878 845.776 44.9662 844.784 46.6463C843.836 48.2512 843.5 50.2179 843.838 52.1837C844.551 56.3308 848.074 59.2212 851.692 58.6268Z" fill="white"/>
<path d="M864.781 50.4965L864.78 50.496C861.387 49.9972 858.147 52.7106 857.557 56.5459C856.97 60.3815 859.25 63.9104 862.64 64.4125C863.876 64.596 865.093 64.3521 866.169 63.782C868.043 62.7884 869.489 60.8035 869.865 58.3636C870.452 54.5282 868.172 50.9991 864.781 50.4965Z" fill="white"/>
</g>
<g opacity="0.05">
<path d="M737.139 51.4714C733.012 51.7598 729.365 54.0977 727.383 57.7259C725.402 61.3541 725.406 65.6862 727.394 69.3138L732.185 78.0559C732.979 79.5063 734.195 80.6388 735.697 81.3306C737.2 82.0226 738.85 82.2086 740.47 81.8693C742.088 81.5287 743.523 80.6943 744.62 79.4564C745.716 78.2185 746.37 76.6928 746.511 75.0448L746.52 74.9343C746.904 70.8037 749.004 66.9905 752.293 64.4575C753.141 63.8039 753.83 62.9971 754.332 62.0774C754.606 61.5774 754.823 61.0434 754.982 60.483C755.431 58.8917 755.358 57.2334 754.769 55.687C754.18 54.1414 753.132 52.8532 751.737 51.9622C750.342 51.0712 748.733 50.6613 747.083 50.7763L737.139 51.4714Z" fill="white"/>
<path d="M725.36 72.5939C725.587 70.9035 725.041 69.2274 723.823 67.8742C722.665 66.5862 721.023 65.7433 719.2 65.5008C717.378 65.2592 715.573 65.6438 714.117 66.5838C712.587 67.5713 711.621 69.0459 711.396 70.7345C710.942 74.1302 713.705 77.3111 717.557 77.8259C720.625 78.2321 723.469 76.8255 724.728 74.5202C725.05 73.9316 725.268 73.2843 725.36 72.5939Z" fill="white"/>
<path d="M724.545 60.3658C726.489 56.807 724.853 52.155 720.9 49.9958C716.945 47.836 712.147 48.9744 710.203 52.5333C708.26 56.0918 709.896 60.7438 713.85 62.9035C717.804 65.0627 722.602 63.9243 724.545 60.3658Z" fill="white"/>
<path d="M732.433 50.3996L732.433 50.3993C732.908 49.9597 733.295 49.4577 733.593 48.9107C734.987 46.3585 734.465 42.8443 732.094 40.3172C730.73 38.8622 728.951 37.9377 727.087 37.7141C725.136 37.4796 723.326 38.0312 721.989 39.2675C720.652 40.5041 719.97 42.2582 720.068 44.2071C720.161 46.0687 720.964 47.895 722.329 49.3493C725.209 52.4177 729.741 52.8889 732.433 50.3996Z" fill="white"/>
<path d="M738.878 36.4033L738.876 36.4037C735.77 37.8566 734.561 41.9061 736.181 45.4319C737.804 48.9564 741.652 50.6451 744.757 49.1966C745.89 48.6686 746.771 47.7947 747.355 46.7265C748.372 44.8647 748.485 42.4117 747.455 40.1681C745.831 36.6439 741.984 34.9549 738.878 36.4033Z" fill="white"/>
</g>
<g opacity="0.05">
<path d="M157.228 93.3922C158.26 89.3861 157.196 85.1867 154.381 82.159C151.567 79.1314 147.456 77.7647 143.385 78.503L133.577 80.2814C131.949 80.5763 130.491 81.3705 129.359 82.5771C128.227 83.784 127.528 85.2903 127.338 86.9339C127.149 88.5771 127.486 90.2024 128.314 91.6341C129.141 93.0657 130.381 94.1686 131.9 94.8239L132.002 94.8675C135.799 96.5391 138.752 99.7374 140.114 103.659C140.465 104.67 141.013 105.579 141.726 106.347C142.114 106.764 142.552 107.14 143.033 107.467C144.401 108.397 145.997 108.852 147.65 108.783C149.303 108.714 150.856 108.127 152.143 107.085C153.43 106.044 154.328 104.647 154.741 103.045L157.228 93.3922Z" fill="white"/>
<path d="M140.918 75.5353C142.449 76.2853 144.212 76.2981 145.881 75.5713C147.469 74.8798 148.788 73.5892 149.595 71.9367C150.401 70.2847 150.607 68.4505 150.176 66.7717C149.723 65.0084 148.63 63.6248 147.1 62.8776C144.022 61.3721 140.131 62.9863 138.423 66.4776C137.067 69.2593 137.501 72.4031 139.29 74.3268C139.747 74.8181 140.292 75.2297 140.918 75.5353Z" fill="white"/>
<path d="M152.775 78.6314C155.536 81.6012 160.467 81.5219 163.766 78.4546C167.066 75.3865 167.504 70.4744 164.743 67.5046C161.982 64.5351 157.052 64.6152 153.752 67.6833C150.452 70.7506 150.014 75.6619 152.775 78.6314Z" fill="white"/>
<path d="M159.733 89.2678L159.734 89.268C160 89.8576 160.354 90.383 160.779 90.8393C162.759 92.9692 166.257 93.5862 169.405 92.1365C171.217 91.3022 172.657 89.9078 173.459 88.2103C174.298 86.4336 174.348 84.5416 173.598 82.8825C172.848 81.2232 171.4 80.0211 169.52 79.4969C167.725 78.9961 165.738 79.1803 163.927 80.0152C160.105 81.7758 158.224 85.9266 159.733 89.2678Z" fill="white"/>
<path d="M170.971 99.8098L170.971 99.8082C170.576 96.4019 167.117 93.9736 163.26 94.3953C159.403 94.8197 156.584 97.9351 156.975 101.339C157.117 102.581 157.668 103.694 158.496 104.585C159.941 106.139 162.232 107.022 164.686 106.755C168.543 106.33 171.363 103.215 170.971 99.8098Z" fill="white"/>
</g>
<g opacity="0.05">
<path d="M423.959 9.02964C428.718 16.4604 436.823 20.8973 445.641 20.8973C454.458 20.8973 462.563 16.4604 467.322 9.02965L478.789 -8.87567C480.692 -11.846 481.57 -15.2783 481.328 -18.7987C481.087 -22.3198 479.748 -25.5987 477.458 -28.2831C475.165 -30.9652 472.136 -32.7984 468.698 -33.585C465.26 -34.3716 461.735 -34.0357 458.506 -32.6151L458.29 -32.519C450.165 -29.0156 440.88 -29.0479 432.776 -32.6151C430.685 -33.5349 428.47 -34.0001 426.235 -34.0001C425.02 -34.0001 423.797 -33.862 422.586 -33.5858C419.148 -32.8 416.119 -30.9668 413.826 -28.2839C411.534 -25.6019 410.195 -22.3222 409.953 -18.8003C409.711 -15.2783 410.589 -11.8468 412.491 -8.87486L423.959 9.02964Z" fill="white"/>
<path d="M475.542 9.48472C472.146 10.7883 469.566 13.5232 468.277 17.1859C467.051 20.6713 467.151 24.6062 468.561 28.2666C469.971 31.9245 472.537 34.9106 475.785 36.6758C479.197 38.5292 482.946 38.831 486.336 37.525C493.158 34.9042 496.288 26.4805 493.313 18.7432C490.937 12.5848 485.396 8.69726 479.793 8.69726C478.363 8.69726 476.928 8.95092 475.542 9.48472Z" fill="white"/>
<path d="M453.484 23.5114C444.835 23.5114 437.798 31.3286 437.798 40.9372C437.798 50.5482 444.835 58.3669 453.484 58.3669C462.132 58.3669 469.168 50.5482 469.168 40.9372C469.168 31.3286 462.132 23.5114 453.484 23.5114Z" fill="white"/>
<path d="M426.763 18.9335L426.762 18.9335C425.454 18.494 424.119 18.284 422.79 18.284C416.587 18.284 410.542 22.8534 408.235 29.8757C406.907 33.918 406.994 38.1922 408.481 41.9101C410.037 45.8024 412.921 48.6276 416.601 49.8658C420.283 51.104 424.264 50.5875 427.812 48.4127C431.202 46.3352 433.8 42.9643 435.127 38.922C437.927 30.3947 434.175 21.4278 426.763 18.9335Z" fill="white"/>
<path d="M393.973 21.1788L393.976 21.1812C399.871 25.5107 408.688 23.6342 413.631 16.9958C418.57 10.3543 417.798 1.42557 411.911 -2.90711C409.765 -4.48823 407.228 -5.24397 404.632 -5.24397C400.107 -5.24397 395.4 -2.94794 392.253 1.27426C387.315 7.91578 388.086 16.8445 393.973 21.1788Z" fill="white"/>
</g>
<g opacity="0.2">
<path d="M1191.18 -5.76024C1188.5 -8.19708 1184.82 -9.09382 1181.33 -8.15849C1177.84 -7.22316 1175.11 -4.60692 1174.01 -1.16054L1171.37 7.14417C1170.93 8.52188 1170.95 9.97377 1171.42 11.3418C1171.89 12.7101 1172.76 13.8662 1173.96 14.6859C1175.15 15.5045 1176.54 15.9089 1177.99 15.8556C1179.43 15.8023 1180.79 15.2955 1181.92 14.3906L1181.99 14.3296C1184.84 12.0808 1188.52 11.1087 1192.1 11.6612C1193.03 11.8036 1193.95 11.7528 1194.84 11.5157C1195.32 11.3868 1195.79 11.2025 1196.24 10.9647C1197.52 10.2889 1198.52 9.24182 1199.15 7.9365C1199.77 6.63166 1199.95 5.19124 1199.67 3.77131C1199.4 2.35137 1198.68 1.08605 1197.62 0.111333L1191.18 -5.76024Z" fill="white"/>
<path d="M1170.71 -0.468921C1171.91 -1.34523 1172.65 -2.70156 1172.77 -4.28824C1172.88 -5.79812 1172.43 -7.3452 1171.48 -8.64472C1170.53 -9.9432 1169.2 -10.8532 1167.73 -11.2074C1166.18 -11.5792 1164.66 -11.301 1163.46 -10.4244C1161.04 -8.66328 1160.69 -4.99651 1162.69 -2.24899C1164.28 -0.0630593 1166.89 0.8881 1169.11 0.293802C1169.67 0.142053 1170.22 -0.110538 1170.71 -0.468921Z" fill="white"/>
</g>
</g>
</svg>
