<svg width="935" height="330" viewBox="0 0 935 330" fill="none" xmlns="http://www.w3.org/2000/svg">
<g opacity="0.25">
<g opacity="0.2">
<path d="M112.071 30.1749C114.851 29.7578 117.196 27.9775 118.345 25.4125C119.494 22.8474 119.261 19.912 117.721 17.5606L114.011 11.8939C113.395 10.9538 112.512 10.2516 111.457 9.86354C110.403 9.47537 109.275 9.43796 108.197 9.75491C107.118 10.0726 106.191 10.7152 105.514 11.6129C104.838 12.5107 104.476 13.5797 104.468 14.704L104.468 14.7794C104.428 17.5991 103.209 20.2959 101.116 22.1891C100.576 22.6776 100.153 23.2613 99.8613 23.9115C99.703 24.265 99.5839 24.6386 99.5063 25.0269C99.2868 26.1293 99.425 27.2491 99.906 28.2654C100.387 29.2812 101.166 30.0977 102.158 30.6266C103.15 31.1555 104.262 31.3468 105.373 31.1802L112.071 30.1749Z" fill="black"/>
<path d="M118.819 15.1262C118.756 16.2893 119.218 17.4015 120.12 18.2576C120.979 19.0725 122.143 19.5585 123.397 19.6259C124.652 19.6928 125.861 19.3342 126.802 18.6161C127.791 17.8618 128.369 16.8058 128.431 15.644C128.558 13.3075 126.504 11.2896 123.852 11.1454C121.741 11.0332 119.878 12.1435 119.145 13.7807C118.958 14.1987 118.844 14.6512 118.819 15.1262Z" fill="black"/>
<path d="M119.997 23.425C118.881 25.9168 120.283 28.9786 123.122 30.2501C125.962 31.5219 129.18 30.5292 130.296 28.0374C131.412 25.5458 130.009 22.4841 127.17 21.2122C124.331 19.9407 121.113 20.9334 119.997 23.425Z" fill="black"/>
<path d="M115.237 30.6631L115.237 30.6633C114.938 30.9896 114.702 31.3535 114.528 31.7429C113.714 33.5601 114.243 35.9235 115.973 37.5097C116.969 38.4229 118.218 38.9514 119.489 38.9978C120.82 39.0466 122.016 38.568 122.857 37.6502C123.699 36.7322 124.072 35.4989 123.908 34.1774C123.751 32.9149 123.116 31.7169 122.12 30.8042C120.019 28.8783 116.931 28.815 115.237 30.6631Z" fill="black"/>
<path d="M111.575 40.4491L111.576 40.4487C113.615 39.2988 114.216 36.4824 112.915 34.1697C111.613 31.858 108.894 30.9106 106.855 32.0575C106.111 32.4757 105.559 33.1158 105.22 33.8725C104.629 35.1915 104.688 36.8652 105.515 38.3369C106.817 40.6484 109.536 41.596 111.575 40.4491Z" fill="black"/>
</g>
<g opacity="0.3">
<path d="M243.071 100.175C245.851 99.7578 248.196 97.9775 249.345 95.4125C250.494 92.8474 250.261 89.912 248.721 87.5606L245.011 81.8939C244.395 80.9538 243.512 80.2516 242.457 79.8635C241.403 79.4754 240.275 79.438 239.197 79.7549C238.118 80.0726 237.191 80.7152 236.514 81.6129C235.838 82.5107 235.476 83.5797 235.468 84.704L235.468 84.7794C235.428 87.5991 234.209 90.2959 232.116 92.1891C231.576 92.6776 231.153 93.2613 230.861 93.9115C230.703 94.265 230.584 94.6386 230.506 95.0269C230.287 96.1293 230.425 97.2491 230.906 98.2654C231.387 99.2812 232.166 100.098 233.158 100.627C234.15 101.155 235.262 101.347 236.373 101.18L243.071 100.175Z" fill="black"/>
<path d="M249.819 85.1262C249.756 86.2893 250.218 87.4015 251.12 88.2576C251.979 89.0725 253.143 89.5585 254.397 89.6259C255.652 89.6928 256.861 89.3342 257.802 88.6161C258.791 87.8618 259.369 86.8058 259.431 85.644C259.558 83.3075 257.504 81.2896 254.852 81.1454C252.741 81.0332 250.878 82.1435 250.145 83.7807C249.958 84.1987 249.844 84.6512 249.819 85.1262Z" fill="black"/>
<path d="M250.997 93.425C249.881 95.9168 251.283 98.9786 254.122 100.25C256.962 101.522 260.18 100.529 261.296 98.0374C262.412 95.5458 261.009 92.4841 258.17 91.2122C255.331 89.9407 252.113 90.9334 250.997 93.425Z" fill="black"/>
<path d="M246.237 100.663L246.237 100.663C245.938 100.99 245.702 101.353 245.528 101.743C244.714 103.56 245.243 105.923 246.973 107.51C247.969 108.423 249.218 108.951 250.489 108.998C251.82 109.047 253.016 108.568 253.857 107.65C254.699 106.732 255.072 105.499 254.908 104.177C254.751 102.915 254.116 101.717 253.12 100.804C251.019 98.8783 247.931 98.815 246.237 100.663Z" fill="black"/>
<path d="M242.575 110.449L242.576 110.449C244.615 109.299 245.216 106.482 243.915 104.17C242.613 101.858 239.894 100.911 237.855 102.058C237.111 102.476 236.559 103.116 236.22 103.873C235.629 105.191 235.688 106.865 236.515 108.337C237.817 110.648 240.536 111.596 242.575 110.449Z" fill="black"/>
</g>
<g opacity="0.6">
<path d="M696.338 71.8767C697.936 69.5645 698.243 66.6359 697.159 64.0428C696.075 61.4496 693.775 59.611 691.007 59.1244L684.336 57.9512C683.229 57.7565 682.113 57.9199 681.108 58.4232C680.103 58.9266 679.304 59.723 678.797 60.7264C678.291 61.73 678.125 62.846 678.316 63.9537C678.508 65.0614 679.04 66.0566 679.854 66.8318L679.909 66.8836C681.937 68.8428 683.069 71.5773 683.017 74.3988C683.004 75.1266 683.14 75.8352 683.414 76.4925C683.564 76.8498 683.755 77.1924 683.985 77.5146C684.638 78.4292 685.549 79.0948 686.62 79.4397C687.689 79.7842 688.818 79.7753 689.882 79.4139C690.947 79.0525 691.847 78.3728 692.486 77.4483L696.338 71.8767Z" fill="black"/>
<path d="M689.984 56.6574C690.788 57.4996 691.915 57.9238 693.157 57.8518C694.339 57.7835 695.49 57.2676 696.398 56.3988C697.305 55.5301 697.871 54.4032 697.992 53.2254C698.118 51.9884 697.744 50.8436 696.94 50.0034C695.323 48.3122 692.446 48.4284 690.526 50.2632C688.999 51.7261 688.534 53.8436 689.226 55.4987C689.402 55.9214 689.655 56.3138 689.984 56.6574Z" fill="black"/>
<path d="M696.841 61.478C697.894 63.9971 701.085 65.0705 703.955 63.8708C706.826 62.6707 708.305 59.645 707.252 57.1259C706.199 54.607 703.007 53.534 700.136 54.734C697.266 55.9338 695.788 58.9591 696.841 61.478Z" fill="black"/>
<path d="M698.86 69.9026L698.86 69.9028C698.894 70.3441 698.997 70.7651 699.162 71.1588C699.93 72.9959 702.016 74.2273 704.356 74.0515C705.703 73.9504 706.943 73.4017 707.847 72.5065C708.794 71.5695 709.263 70.3699 709.17 69.1283C709.077 67.8865 708.433 66.7706 707.357 65.9857C706.329 65.2358 705.021 64.8788 703.674 64.9804C700.832 65.1942 698.672 67.4023 698.86 69.9026Z" fill="black"/>
<path d="M703.489 79.2697L703.49 79.2687C704.047 76.995 702.405 74.6294 699.828 73.9952C697.251 73.3627 694.7 74.6966 694.141 76.9681C693.936 77.7966 694.025 78.6377 694.345 79.4027C694.902 80.7361 696.162 81.8388 697.802 82.243C700.378 82.8752 702.93 81.5416 703.489 79.2697Z" fill="black"/>
</g>
<g opacity="0.2">
<path d="M19.2663 29.0966C22.3643 28.9684 25.1477 27.2939 26.7115 24.6169C28.2754 21.9399 28.367 18.6929 26.9569 15.9316L23.5595 9.27728C22.9959 8.1733 22.1105 7.29858 20.9999 6.74803C19.889 6.19733 18.657 6.02273 17.4365 6.24252C16.2163 6.46323 15.123 7.058 14.2747 7.96244C13.4263 8.86687 12.9031 9.99644 12.7613 11.2285L12.7521 11.3112C12.3737 14.3989 10.7172 17.212 8.19783 19.0404C7.54802 19.5121 7.01409 20.1021 6.61769 20.7807C6.40218 21.1496 6.22726 21.5452 6.09624 21.9619C5.72482 23.1449 5.74369 24.3894 6.15078 25.561C6.55791 26.732 7.31518 27.7198 8.34056 28.4174C9.36595 29.1149 10.5625 29.4565 11.8015 29.4054L19.2663 29.0966Z" fill="black"/>
<path d="M28.4501 13.392C28.2428 14.6601 28.6178 15.9345 29.5061 16.9804C30.3512 17.9759 31.5699 18.6467 32.9382 18.8694C34.3058 19.0913 35.6742 18.8413 36.7916 18.1653C37.9651 17.4551 38.7251 16.3656 38.9306 15.0988C39.346 12.5512 37.333 10.0948 34.4418 9.62256C32.139 9.24928 29.9654 10.2463 28.9672 11.9549C28.7123 12.3912 28.5342 12.874 28.4501 13.392Z" fill="black"/>
<path d="M28.759 22.633C27.2397 25.2336 28.4143 28.7576 31.3772 30.4885C34.3408 32.2197 37.9878 31.5124 39.507 28.9118C41.0261 26.3114 39.851 22.7874 36.8873 21.0561C33.9244 19.3252 30.278 20.0327 28.759 22.633Z" fill="black"/>
<path d="M22.6805 30.0071L22.6803 30.0074C22.3139 30.3298 22.012 30.7009 21.7746 31.1073C20.6667 33.0039 20.9674 35.6586 22.6768 37.6031C23.6607 38.7227 24.9676 39.4503 26.3564 39.6518C27.8101 39.8629 29.1786 39.4799 30.2101 38.573C31.2418 37.6659 31.7968 36.3575 31.7736 34.8887C31.7515 33.4856 31.1971 32.0965 30.2129 30.9774C28.1369 28.6164 24.7579 28.1811 22.6805 30.0071Z" fill="black"/>
<path d="M17.5055 40.3058L17.5067 40.3055C19.8792 39.286 20.8718 36.2683 19.719 33.5778C18.5644 30.8882 15.695 29.5271 13.3231 30.5433C12.4578 30.9138 11.7758 31.5504 11.3144 32.3402C10.5103 33.7166 10.3763 35.5592 11.109 37.2712C12.2637 39.9606 15.133 41.322 17.5055 40.3058Z" fill="black"/>
</g>
<g opacity="0.4">
<path d="M395.778 123.314C397.371 121.062 397.703 118.191 396.666 115.635C395.629 113.079 393.391 111.251 390.679 110.745L384.145 109.524C383.061 109.322 381.964 109.471 380.973 109.954C379.982 110.438 379.189 111.211 378.681 112.19C378.174 113.17 377.999 114.263 378.176 115.352C378.352 116.441 378.864 117.424 379.655 118.193L379.708 118.244C381.678 120.188 382.761 122.883 382.681 125.651C382.66 126.365 382.786 127.062 383.049 127.71C383.192 128.062 383.375 128.4 383.598 128.719C384.23 129.623 385.117 130.286 386.163 130.635C387.21 130.985 388.317 130.988 389.365 130.644C390.414 130.3 391.304 129.643 391.941 128.742L395.778 123.314Z" fill="black"/>
<path d="M389.701 108.313C390.482 109.148 391.584 109.576 392.803 109.518C393.963 109.464 395.098 108.969 395.998 108.126C396.897 107.283 397.464 106.183 397.595 105.028C397.732 103.816 397.377 102.689 396.596 101.856C395.027 100.179 392.203 100.263 390.299 102.044C388.786 103.464 388.307 105.537 388.969 107.168C389.138 107.585 389.382 107.973 389.701 108.313Z" fill="black"/>
<path d="M396.38 113.115C397.387 115.598 400.508 116.685 403.337 115.537C406.167 114.389 407.649 111.435 406.642 108.952C405.635 106.469 402.513 105.383 399.684 106.531C396.855 107.679 395.373 110.632 396.38 113.115Z" fill="black"/>
<path d="M398.274 121.403L398.275 121.404C398.303 121.837 398.4 122.251 398.558 122.639C399.292 124.45 401.326 125.68 403.625 125.532C404.948 125.447 406.17 124.921 407.067 124.052C408.005 123.142 408.479 121.97 408.4 120.75C408.321 119.531 407.701 118.429 406.653 117.648C405.652 116.901 404.372 116.537 403.049 116.623C400.258 116.803 398.116 118.948 398.274 121.403Z" fill="black"/>
<path d="M402.72 130.644L402.72 130.643C403.291 128.417 401.704 126.079 399.182 125.43C396.659 124.782 394.142 126.065 393.57 128.288C393.361 129.099 393.439 129.925 393.745 130.679C394.278 131.994 395.503 133.089 397.108 133.502C399.63 134.15 402.147 132.867 402.72 130.644Z" fill="black"/>
</g>
<path d="M909.067 311.716C911.106 313.574 913.914 314.257 916.578 313.543C919.243 312.83 921.333 310.834 922.169 308.205L924.186 301.872C924.52 300.821 924.508 299.714 924.15 298.67C923.793 297.627 923.123 296.745 922.214 296.121C921.304 295.496 920.241 295.188 919.138 295.229C918.036 295.27 916.998 295.657 916.137 296.347L916.08 296.394C913.908 298.109 911.1 298.851 908.362 298.43C907.656 298.322 906.949 298.361 906.274 298.542C905.907 298.64 905.549 298.781 905.205 298.962C904.23 299.478 903.463 300.276 902.987 301.272C902.512 302.267 902.372 303.366 902.584 304.449C902.796 305.531 903.338 306.496 904.154 307.239L909.067 311.716Z" fill="black"/>
<path d="M924.703 307.534C923.778 308.206 923.218 309.247 923.125 310.464C923.036 311.622 923.387 312.809 924.113 313.806C924.838 314.803 925.86 315.501 926.99 315.773C928.176 316.058 929.339 315.845 930.262 315.173C932.119 313.822 932.383 311.009 930.851 308.901C929.628 307.224 927.63 306.493 925.929 306.949C925.495 307.066 925.08 307.259 924.703 307.534Z" fill="black"/>
<path d="M919.115 313.57C916.526 314.264 915.063 317.227 915.854 320.176C916.644 323.125 919.393 324.961 921.981 324.267C924.569 323.574 926.031 320.61 925.241 317.661C924.451 314.712 921.703 312.877 919.115 313.57Z" fill="black"/>
<path d="M910.656 314.429L910.656 314.429C910.222 314.403 909.799 314.449 909.395 314.557C907.507 315.063 906.036 316.93 905.9 319.229C905.821 320.553 906.192 321.831 906.944 322.828C907.731 323.871 908.836 324.485 910.056 324.557C911.276 324.63 912.446 324.15 913.35 323.206C914.214 322.305 914.733 321.08 914.811 319.757C914.977 316.964 913.112 314.574 910.656 314.429Z" fill="black"/>
<path d="M900.938 317.701L900.939 317.702C903.077 318.542 905.594 317.255 906.549 314.833C907.502 312.41 906.539 309.753 904.404 308.911C903.625 308.604 902.795 308.579 902.009 308.79C900.639 309.157 899.401 310.238 898.793 311.779C897.84 314.202 898.802 316.859 900.938 317.701Z" fill="black"/>
<g opacity="0.5">
<path d="M504.682 127.438C505.133 124.37 504.007 121.324 501.668 119.288C499.329 117.253 496.156 116.558 493.18 117.429L486.01 119.527C484.82 119.875 483.796 120.582 483.048 121.571C482.3 122.56 481.899 123.737 481.887 124.978C481.877 126.217 482.257 127.402 482.988 128.404C483.718 129.406 484.731 130.131 485.915 130.5L485.994 130.524C488.957 131.471 491.413 133.623 492.74 136.439C493.082 137.165 493.562 137.8 494.155 138.316C494.477 138.596 494.833 138.842 495.218 139.048C496.311 139.633 497.538 139.847 498.765 139.665C499.991 139.483 501.103 138.923 501.979 138.046C502.855 137.168 503.414 136.056 503.595 134.83L504.682 127.438Z" fill="black"/>
<path d="M490.963 115.489C492.171 115.929 493.493 115.798 494.686 115.12C495.821 114.475 496.707 113.403 497.181 112.1C497.654 110.798 497.663 109.407 497.207 108.183C496.728 106.897 495.799 105.948 494.593 105.51C492.167 104.627 489.379 106.147 488.376 108.9C487.581 111.093 488.155 113.414 489.648 114.713C490.029 115.045 490.47 115.31 490.963 115.489Z" fill="black"/>
<path d="M500.1 116.907C502.372 118.884 506.053 118.387 508.306 115.798C510.559 113.209 510.544 109.494 508.272 107.517C506 105.54 502.319 106.038 500.065 108.627C497.813 111.216 497.829 114.93 500.1 116.907Z" fill="black"/>
<path d="M506.213 124.253L506.213 124.253C506.461 124.673 506.77 125.039 507.125 125.348C508.782 126.79 511.446 126.989 513.675 125.672C514.958 124.914 515.917 123.765 516.373 122.439C516.852 121.05 516.73 119.634 516.031 118.451C515.332 117.269 514.15 116.48 512.703 116.229C511.32 115.989 509.852 116.275 508.569 117.033C505.863 118.633 504.806 121.872 506.213 124.253Z" fill="black"/>
<path d="M515.367 131.256L515.367 131.255C514.807 128.734 512.027 127.197 509.169 127.828C506.311 128.461 504.439 131.027 504.996 133.547C505.199 134.466 505.697 135.255 506.387 135.855C507.59 136.901 509.375 137.376 511.194 136.976C514.051 136.342 515.923 133.777 515.367 131.256Z" fill="black"/>
</g>
<g opacity="0.3">
<path d="M163.612 121.47C166.289 119.906 167.964 117.123 168.092 114.025C168.22 110.927 166.78 108.015 164.241 106.236L158.123 101.948C157.108 101.236 155.916 100.878 154.677 100.912C153.437 100.946 152.267 101.368 151.292 102.134C150.317 102.901 149.63 103.938 149.304 105.135C148.978 106.331 149.044 107.574 149.496 108.729L149.527 108.806C150.638 111.712 150.492 114.973 149.123 117.768C148.769 118.49 148.574 119.261 148.542 120.046C148.524 120.473 148.555 120.905 148.634 121.334C148.86 122.553 149.459 123.644 150.368 124.488C151.276 125.332 152.408 125.851 153.64 125.987C154.873 126.123 156.09 125.864 157.161 125.239L163.612 121.47Z" fill="black"/>
<path d="M164.371 103.293C164.782 104.51 165.71 105.461 166.985 105.969C168.198 106.453 169.589 106.475 170.902 106.031C172.214 105.586 173.306 104.724 173.977 103.604C174.681 102.427 174.842 101.108 174.43 99.8925C173.604 97.4471 170.675 96.2195 167.9 97.1563C165.69 97.905 164.237 99.8039 164.155 101.781C164.134 102.286 164.203 102.796 164.371 103.293Z" fill="black"/>
<path d="M168.972 111.313C168.848 114.322 171.536 116.886 174.964 117.028C178.394 117.169 181.285 114.836 181.409 111.827C181.533 108.818 178.845 106.255 175.415 106.113C171.987 105.971 169.096 108.304 168.972 111.313Z" fill="black"/>
<path d="M167.055 120.675L167.055 120.676C166.882 121.132 166.789 121.601 166.77 122.072C166.679 124.266 168.188 126.471 170.609 127.388C172.003 127.917 173.498 127.948 174.82 127.475C176.203 126.981 177.233 126.002 177.719 124.717C178.206 123.433 178.084 122.017 177.375 120.73C176.699 119.5 175.558 118.533 174.165 118.005C171.225 116.891 168.035 118.089 167.055 120.675Z" fill="black"/>
<path d="M167.306 132.198L167.307 132.198C168.925 130.186 168.389 127.055 166.111 125.217C163.831 123.382 160.658 123.523 159.038 125.532C158.447 126.264 158.143 127.146 158.105 128.06C158.039 129.653 158.784 131.343 160.233 132.513C162.513 134.348 165.686 134.207 167.306 132.198Z" fill="black"/>
</g>
<g opacity="0.6">
<path d="M578.701 44.1831C580.75 42.3543 581.715 39.6435 581.281 36.9316C580.848 34.2197 579.086 31.9449 576.568 30.8466L570.502 28.1996C569.496 27.7604 568.398 27.659 567.328 27.9062C566.258 28.1535 565.316 28.7263 564.604 29.5627C563.893 30.3995 563.478 31.4212 563.406 32.5173C563.333 33.6134 563.61 34.6808 564.205 35.6042L564.245 35.666C565.721 37.9928 566.168 40.85 565.471 43.5178C565.291 44.206 565.257 44.9101 565.367 45.5975C565.426 45.9712 565.529 46.3404 565.673 46.6993C566.084 47.7181 566.796 48.5596 567.733 49.1331C568.67 49.7061 569.744 49.9569 570.838 49.8583C571.932 49.7596 572.943 49.321 573.763 48.5898L578.701 44.1831Z" fill="black"/>
<path d="M576.163 28.2686C576.734 29.2534 577.707 29.9153 578.903 30.1322C580.041 30.3389 581.253 30.1133 582.315 29.4968C583.376 28.8802 584.172 27.94 584.557 26.8491C584.962 25.7033 584.87 24.5302 584.299 23.5473C583.151 21.5694 580.393 21.0188 578.147 22.3203C576.361 23.3588 575.433 25.263 575.71 26.994C575.78 27.436 575.93 27.8666 576.163 28.2686Z" fill="black"/>
<path d="M581.568 34.4226C581.989 37.0571 584.774 38.81 587.775 38.33C590.778 37.8499 592.877 35.3159 592.456 32.6815C592.035 30.0472 589.25 28.2947 586.247 28.7748C583.246 29.2547 581.147 31.7884 581.568 34.4226Z" fill="black"/>
<path d="M581.55 42.8879L581.55 42.8881C581.481 43.3149 581.482 43.7386 581.548 44.1503C581.856 46.0716 583.553 47.7203 585.817 48.0911C587.12 48.3048 588.423 48.0685 589.487 47.426C590.602 46.7536 591.323 45.7222 591.52 44.5215C591.717 43.3206 591.361 42.1128 590.52 41.1201C589.716 40.1718 588.556 39.5322 587.253 39.3191C584.505 38.8691 581.946 40.4701 581.55 42.8879Z" fill="black"/>
<path d="M583.795 52.848L583.795 52.8471C584.847 50.8157 583.831 48.1916 581.529 46.9972C579.227 45.8045 576.497 46.485 575.444 48.5139C575.06 49.2539 574.951 50.073 575.079 50.8731C575.302 52.2675 576.245 53.6045 577.709 54.365C580.011 55.5575 582.741 54.8772 583.795 52.848Z" fill="black"/>
</g>
<g opacity="0.8">
<path d="M816.918 147.433C818.928 149.336 821.732 150.076 824.419 149.411C827.105 148.746 829.24 146.784 830.13 144.163L832.275 137.847C832.631 136.799 832.64 135.688 832.301 134.635C831.962 133.581 831.307 132.684 830.407 132.039C829.506 131.396 828.445 131.066 827.338 131.086C826.231 131.106 825.183 131.474 824.306 132.15L824.247 132.196C822.036 133.875 819.204 134.565 816.466 134.091C815.76 133.968 815.05 133.994 814.369 134.163C813.999 134.254 813.637 134.388 813.288 134.564C812.3 135.062 811.515 135.849 811.019 136.839C810.523 137.828 810.362 138.927 810.553 140.018C810.745 141.108 811.271 142.087 812.075 142.848L816.918 147.433Z" fill="black"/>
<path d="M832.685 143.538C831.744 144.194 831.162 145.228 831.045 146.447C830.934 147.607 831.263 148.805 831.972 149.819C832.681 150.833 833.693 151.553 834.821 151.847C836.006 152.156 837.176 151.965 838.115 151.308C840.004 149.988 840.323 147.171 838.826 145.027C837.632 143.321 835.641 142.55 833.926 142.975C833.489 143.083 833.069 143.269 832.685 143.538Z" fill="black"/>
<path d="M826.963 149.487C824.353 150.133 822.828 153.077 823.564 156.051C824.301 159.025 827.023 160.919 829.633 160.273C832.243 159.627 833.767 156.682 833.03 153.708C832.294 150.734 829.572 148.841 826.963 149.487Z" fill="black"/>
<path d="M818.46 150.185L818.46 150.185C818.025 150.151 817.6 150.189 817.192 150.29C815.289 150.761 813.777 152.606 813.596 154.91C813.492 156.237 813.839 157.526 814.575 158.54C815.344 159.602 816.441 160.239 817.664 160.335C818.886 160.431 820.069 159.972 820.995 159.043C821.879 158.156 822.423 156.936 822.527 155.61C822.746 152.812 820.922 150.378 818.46 150.185Z" fill="black"/>
<path d="M808.648 153.282L808.649 153.283C810.778 154.167 813.327 152.924 814.332 150.512C815.334 148.099 814.42 145.415 812.293 144.53C811.518 144.206 810.686 144.166 809.893 144.362C808.512 144.704 807.249 145.765 806.609 147.3C805.607 149.712 806.521 152.396 808.648 153.282Z" fill="black"/>
</g>
<g opacity="0.5">
<path d="M605.879 139.847C606.866 137.066 606.376 134.013 604.567 131.681C602.758 129.348 599.923 128.114 596.983 128.379L589.899 129.016C588.724 129.121 587.637 129.592 586.756 130.378C585.875 131.163 585.284 132.189 585.044 133.345C584.806 134.501 584.943 135.678 585.44 136.749C585.937 137.819 586.749 138.683 587.787 139.246L587.857 139.283C590.449 140.714 592.346 143.176 593.065 146.051C593.251 146.792 593.583 147.474 594.041 148.065C594.29 148.386 594.578 148.681 594.899 148.945C595.812 149.693 596.918 150.118 598.097 150.175C599.276 150.232 600.418 149.914 601.398 149.256C602.378 148.598 603.105 147.662 603.5 146.55L605.879 139.847Z" fill="black"/>
<path d="M595.271 126.158C596.317 126.791 597.576 126.913 598.815 126.5C599.995 126.107 601.02 125.269 601.703 124.14C602.385 123.011 602.65 121.713 602.45 120.486C602.239 119.198 601.547 118.139 600.501 117.508C598.399 116.236 595.514 117.141 594.07 119.527C592.922 121.428 593.031 123.702 594.185 125.191C594.48 125.571 594.843 125.9 595.271 126.158Z" fill="black"/>
<path d="M603.542 129.168C605.299 131.433 608.829 131.648 611.41 129.646C613.992 127.643 614.663 124.171 612.905 121.905C611.148 119.64 607.619 119.426 605.037 121.429C602.456 123.431 601.785 126.902 603.542 129.168Z" fill="black"/>
<path d="M607.896 137.155L607.896 137.156C608.05 137.594 608.271 137.992 608.546 138.346C609.827 139.999 612.278 140.676 614.603 139.857C615.941 139.386 617.048 138.49 617.719 137.335C618.422 136.126 618.57 134.781 618.136 133.548C617.701 132.315 616.742 131.36 615.437 130.858C614.19 130.38 612.766 130.376 611.428 130.848C608.606 131.842 607.021 134.672 607.896 137.155Z" fill="black"/>
<path d="M615.153 145.384L615.153 145.383C615.095 142.926 612.783 140.977 609.997 141.039C607.212 141.104 604.99 143.155 605.045 145.61C605.065 146.506 605.385 147.335 605.919 148.023C606.849 149.222 608.428 149.995 610.201 149.956C612.986 149.891 615.208 147.841 615.153 145.384Z" fill="black"/>
</g>
<g opacity="0.7">
<path d="M786.568 81.2647C789.022 80.1927 790.739 77.9742 791.161 75.33C791.582 72.6858 790.641 70.0433 788.642 68.2613L783.826 63.9668C783.027 63.2543 782.041 62.827 780.974 62.7311C779.908 62.6352 778.862 62.8799 777.948 63.4385C777.034 63.9978 776.34 64.8185 775.94 65.8119C775.54 66.8053 775.472 67.8783 775.743 68.9145L775.762 68.984C776.423 71.588 775.969 74.3707 774.513 76.6306C774.137 77.2135 773.892 77.8555 773.785 78.5257C773.727 78.8901 773.709 79.2633 773.734 79.6397C773.805 80.7083 774.21 81.7042 774.904 82.5201C775.598 83.3354 776.516 83.8938 777.56 84.1347C778.604 84.3756 779.674 84.2764 780.655 83.8479L786.568 81.2647Z" fill="black"/>
<path d="M789.05 65.7498C789.28 66.8355 789.98 67.7442 791.022 68.3084C792.014 68.8455 793.205 69.0044 794.376 68.7558C795.546 68.5068 796.57 67.8775 797.258 66.9839C797.981 66.0451 798.252 64.9304 798.021 63.8463C797.559 61.6655 795.17 60.3175 792.695 60.8415C790.724 61.2611 789.286 62.7435 789.017 64.4312C788.948 64.8622 788.956 65.3065 789.05 65.7498Z" fill="black"/>
<path d="M792.189 73.0926C791.779 75.6613 793.827 78.131 796.753 78.5978C799.68 79.0647 802.395 77.3547 802.805 74.786C803.215 72.2175 801.166 69.7481 798.239 69.2812C795.313 68.8143 792.598 70.5242 792.189 73.0926Z" fill="black"/>
<path d="M789.601 80.93L789.601 80.9302C789.407 81.3045 789.28 81.6976 789.216 82.099C788.917 83.9723 789.99 86.0154 791.974 87.0462C793.116 87.6398 794.396 87.8169 795.577 87.5448C796.813 87.2601 797.795 86.5237 798.342 85.4711C798.889 84.4182 798.926 83.1913 798.448 82.0161C797.992 80.8935 797.111 79.9486 795.969 79.3555C793.559 78.104 790.703 78.8103 789.601 80.93Z" fill="black"/>
<path d="M788.656 90.8392L788.657 90.8386C790.248 89.2759 790.103 86.5362 788.334 84.7307C786.563 82.9266 783.828 82.7282 782.236 84.2881C781.655 84.8569 781.305 85.5827 781.181 86.3628C780.964 87.7224 781.432 89.2476 782.558 90.3967C784.328 92.2006 787.064 92.3993 788.656 90.8392Z" fill="black"/>
</g>
<g opacity="0.9">
<path d="M890.254 195.462C892.364 196.961 895.057 197.278 897.457 196.311C899.857 195.343 901.577 193.247 902.057 190.704L903.216 184.577C903.408 183.56 903.271 182.53 902.819 181.599C902.367 180.668 901.644 179.923 900.726 179.445C899.808 178.967 898.782 178.801 897.76 178.964C896.738 179.127 895.816 179.605 895.092 180.346L895.044 180.396C893.217 182.24 890.686 183.25 888.089 183.169C887.419 183.149 886.765 183.265 886.157 183.511C885.826 183.644 885.508 183.816 885.209 184.024C884.359 184.614 883.736 185.445 883.406 186.427C883.076 187.407 883.071 188.446 883.391 189.431C883.711 190.415 884.326 191.252 885.17 191.851L890.254 195.462Z" fill="black"/>
<path d="M904.34 189.791C903.556 190.522 903.152 191.555 903.204 192.699C903.253 193.788 903.714 194.854 904.503 195.7C905.292 196.545 906.323 197.079 907.406 197.204C908.544 197.335 909.602 197.005 910.385 196.274C911.961 194.805 911.888 192.155 910.221 190.366C908.892 188.943 906.948 188.49 905.416 189.107C905.025 189.265 904.661 189.492 904.34 189.791Z" fill="black"/>
<path d="M899.822 196.048C897.49 196.988 896.465 199.914 897.535 202.57C898.607 205.227 901.375 206.624 903.706 205.684C906.038 204.744 907.063 201.818 905.992 199.161C904.921 196.505 902.153 195.108 899.822 196.048Z" fill="black"/>
<path d="M892.042 197.808L892.042 197.808C891.635 197.834 891.246 197.924 890.882 198.071C889.182 198.757 888.024 200.662 888.158 202.819C888.235 204.061 888.726 205.209 889.539 206.051C890.391 206.934 891.49 207.38 892.634 207.309C893.778 207.237 894.813 206.658 895.549 205.676C896.251 204.739 896.595 203.539 896.517 202.298C896.354 199.679 894.346 197.665 892.042 197.808Z" fill="black"/>
<path d="M883.364 201.96L883.365 201.96C885.452 202.5 887.649 201.016 888.263 198.651C888.875 196.286 887.677 193.921 885.593 193.38C884.832 193.182 884.057 193.254 883.349 193.539C882.115 194.037 881.085 195.184 880.693 196.689C880.081 199.053 881.279 201.418 883.364 201.96Z" fill="black"/>
</g>
<path d="M827.254 282.462C829.364 283.961 832.057 284.278 834.457 283.311C836.857 282.343 838.577 280.247 839.057 277.704L840.216 271.577C840.408 270.56 840.271 269.53 839.819 268.599C839.367 267.668 838.644 266.923 837.726 266.445C836.808 265.967 835.782 265.801 834.76 265.964C833.738 266.127 832.816 266.605 832.092 267.346L832.044 267.396C830.217 269.24 827.686 270.25 825.089 270.169C824.419 270.149 823.765 270.265 823.157 270.511C822.826 270.644 822.508 270.816 822.209 271.024C821.359 271.614 820.736 272.445 820.406 273.427C820.076 274.407 820.071 275.446 820.391 276.431C820.711 277.415 821.326 278.252 822.17 278.851L827.254 282.462Z" fill="black"/>
<path d="M841.34 276.791C840.556 277.522 840.152 278.555 840.204 279.699C840.253 280.788 840.714 281.854 841.503 282.7C842.292 283.545 843.323 284.079 844.406 284.204C845.544 284.335 846.602 284.005 847.385 283.274C848.961 281.805 848.888 279.155 847.221 277.366C845.892 275.943 843.948 275.49 842.416 276.107C842.025 276.265 841.661 276.492 841.34 276.791Z" fill="black"/>
<path d="M836.822 283.048C834.49 283.988 833.465 286.914 834.535 289.57C835.607 292.227 838.375 293.624 840.706 292.684C843.038 291.744 844.063 288.818 842.992 286.161C841.921 283.504 839.153 282.108 836.822 283.048Z" fill="black"/>
<path d="M829.042 284.808L829.042 284.808C828.635 284.834 828.246 284.924 827.882 285.071C826.182 285.757 825.024 287.662 825.158 289.819C825.235 291.061 825.726 292.209 826.539 293.051C827.391 293.934 828.49 294.38 829.634 294.309C830.778 294.237 831.813 293.658 832.549 292.676C833.251 291.739 833.595 290.539 833.517 289.298C833.354 286.679 831.346 284.665 829.042 284.808Z" fill="black"/>
<path d="M820.364 288.96L820.365 288.96C822.452 289.5 824.649 288.016 825.263 285.651C825.875 283.286 824.677 280.921 822.593 280.38C821.832 280.182 821.057 280.254 820.349 280.539C819.115 281.037 818.085 282.184 817.693 283.689C817.081 286.053 818.279 288.418 820.364 288.96Z" fill="black"/>
</g>
</svg>
