<svg width="68" height="77" viewBox="0 0 68 77" fill="none" xmlns="http://www.w3.org/2000/svg">
<path d="M51.5219 41.8386V35.5008H33.7761V41.8386C32.4314 41.8386 31.1418 42.3727 30.191 43.3236C29.2401 44.2744 28.7059 45.5641 28.7059 46.9088V69.7247C28.7059 71.0694 29.2401 72.359 30.191 73.3099C31.1418 74.2607 32.4314 74.7949 33.7761 74.7949H51.5219C52.8666 74.7949 54.1562 74.2607 55.107 73.3099C56.0579 72.359 56.5921 71.0694 56.5921 69.7247V46.9088C56.5921 45.5641 56.0579 44.2744 55.107 43.3236C54.1562 42.3727 52.8666 41.8386 51.5219 41.8386Z" fill="#6B9777"/>
<path d="M56.5921 25.3604V32.9657C56.5921 33.638 56.325 34.2829 55.8496 34.7583C55.3741 35.2337 54.7293 35.5008 54.057 35.5008H31.241C30.908 35.5013 30.5781 35.4361 30.2703 35.3089C29.9624 35.1817 29.6828 34.995 29.4472 34.7595C29.2117 34.524 29.025 34.2443 28.8978 33.9365C28.7706 33.6287 28.7054 33.2988 28.7059 32.9657V25.3604C28.7059 24.688 28.973 24.0432 29.4485 23.5678C29.9239 23.0924 30.5687 22.8253 31.241 22.8253H54.057C54.7293 22.8253 55.3741 23.0924 55.8496 23.5678C56.325 24.0432 56.5921 24.688 56.5921 25.3604Z" fill="#CBCBCB"/>
<path d="M28.7059 49.4438H56.5921V67.1896H28.7059V49.4438Z" fill="#E4E4E2"/>
<path d="M44.5503 59.5843H40.7476C39.6976 59.5843 38.8463 60.4356 38.8463 61.4856C38.8463 62.5357 39.6976 63.387 40.7476 63.387H44.5503C45.6004 63.387 46.4516 62.5357 46.4516 61.4856C46.4516 60.4356 45.6004 59.5843 44.5503 59.5843Z" fill="#6B9777"/>
<path d="M42.6489 57.0492C42.3127 57.0492 41.9903 56.9157 41.7526 56.678C41.5149 56.4402 41.3813 56.1178 41.3813 55.7817V54.5141C41.3813 54.1779 41.5149 53.8555 41.7526 53.6178C41.9903 53.3801 42.3127 53.2466 42.6489 53.2466C42.9851 53.2466 43.3075 53.3801 43.5452 53.6178C43.7829 53.8555 43.9165 54.1779 43.9165 54.5141V55.7817C43.9165 56.1178 43.7829 56.4402 43.5452 56.678C43.3075 56.9157 42.9851 57.0492 42.6489 57.0492Z" fill="#6B9777"/>
<path d="M38.8463 58.3168C38.5101 58.3168 38.1877 58.1832 37.95 57.9455C37.7123 57.7078 37.5787 57.3854 37.5787 57.0492V55.7817C37.5787 55.4455 37.7123 55.1231 37.95 54.8854C38.1877 54.6476 38.5101 54.5141 38.8463 54.5141C39.1825 54.5141 39.5049 54.6476 39.7426 54.8854C39.9803 55.1231 40.1138 55.4455 40.1138 55.7817V57.0492C40.1138 57.3854 39.9803 57.7078 39.7426 57.9455C39.5049 58.1832 39.1825 58.3168 38.8463 58.3168Z" fill="#6B9777"/>
<path d="M46.4516 58.3168C46.1155 58.3168 45.7931 58.1832 45.5553 57.9455C45.3176 57.7078 45.1841 57.3854 45.1841 57.0492V55.7817C45.1841 55.4455 45.3176 55.1231 45.5553 54.8854C45.7931 54.6476 46.1155 54.5141 46.4516 54.5141C46.7878 54.5141 47.1102 54.6476 47.3479 54.8854C47.5856 55.1231 47.7192 55.4455 47.7192 55.7817V57.0492C47.7192 57.3854 47.5856 57.7078 47.3479 57.9455C47.1102 58.1832 46.7878 58.3168 46.4516 58.3168Z" fill="#6B9777"/>
<path d="M1.26673 76.0641C1.05115 76.064 0.83917 76.0089 0.65083 75.904C0.46249 75.7991 0.304012 75.6479 0.190382 75.4647C0.0767508 75.2815 0.0117217 75.0724 0.00144208 74.857C-0.00883752 74.6417 0.0359722 74.4273 0.131635 74.2341L8.00139 58.3287C8.07418 58.1778 8.17615 58.0429 8.30142 57.9317C8.42668 57.8204 8.57275 57.7351 8.73118 57.6807C8.88961 57.6263 9.05726 57.6038 9.22443 57.6146C9.39161 57.6253 9.55499 57.6691 9.70513 57.7434C9.85528 57.8177 9.98921 57.921 10.0992 58.0474C10.2092 58.1737 10.293 58.3206 10.3458 58.4796C10.3987 58.6386 10.4195 58.8064 10.4071 58.9735C10.3947 59.1405 10.3493 59.3035 10.2735 59.4529L2.4042 75.3584C2.29934 75.5705 2.13723 75.749 1.93622 75.8737C1.7352 75.9984 1.50329 76.0644 1.26673 76.0641Z" fill="#C3C3C3"/>
<path d="M56.5921 26.6279V29.163H47.7192C47.383 29.163 47.0606 29.0295 46.8229 28.7918C46.5852 28.5541 46.4517 28.2317 46.4517 27.8955C46.4517 27.5593 46.5852 27.2369 46.8229 26.9992C47.0606 26.7615 47.383 26.6279 47.7192 26.6279H56.5921Z" fill="#E4E4E2"/>
<path d="M42.649 29.163H40.1139C39.7777 29.163 39.4553 29.0295 39.2176 28.7918C38.9799 28.5541 38.8463 28.2317 38.8463 27.8955C38.8463 27.5593 38.9799 27.2369 39.2176 26.9992C39.4553 26.7615 39.7777 26.6279 40.1139 26.6279H42.649C42.9851 26.6279 43.3076 26.7615 43.5453 26.9992C43.783 27.2369 43.9165 27.5593 43.9165 27.8955C43.9165 28.2317 43.783 28.5541 43.5453 28.7918C43.3076 29.0295 42.9851 29.163 42.649 29.163Z" fill="#E4E4E2"/>
<path d="M64.1974 54.5141V49.4438H54.057V54.5141C53.3846 54.5141 52.7398 54.7811 52.2644 55.2566C51.7889 55.732 51.5219 56.3768 51.5219 57.0492V72.2598C51.5219 72.9321 51.7889 73.5769 52.2644 74.0524C52.7398 74.5278 53.3846 74.7949 54.057 74.7949H64.1974C64.8697 74.7949 65.5145 74.5278 65.99 74.0524C66.4654 73.5769 66.7325 72.9321 66.7325 72.2598V57.0492C66.7325 56.3768 66.4654 55.732 65.99 55.2566C65.5145 54.7811 64.8697 54.5141 64.1974 54.5141Z" fill="#A45E14"/>
<path d="M65.7818 41.8386H52.4725C51.9475 41.8386 51.5219 42.2642 51.5219 42.7892V48.4932C51.5219 49.0182 51.9475 49.4439 52.4725 49.4439H65.7818C66.3068 49.4439 66.7325 49.0182 66.7325 48.4932V42.7892C66.7325 42.2642 66.3068 41.8386 65.7818 41.8386Z" fill="#A8A8A8"/>
<path d="M51.5219 59.5843H66.7325V69.7247H51.5219V59.5843Z" fill="#F3AF3E"/>
<path d="M66.7324 63.3869V65.922H62.9298C62.5936 65.922 62.2712 65.7885 62.0335 65.5508C61.7958 65.3131 61.6622 64.9907 61.6622 64.6545C61.6622 64.3183 61.7958 63.9959 62.0335 63.7582C62.2712 63.5205 62.5936 63.3869 62.9298 63.3869H66.7324Z" fill="#EA9D2D"/>
<path d="M57.8596 65.922H56.592C56.2558 65.922 55.9334 65.7885 55.6957 65.5508C55.458 65.3131 55.3245 64.9907 55.3245 64.6545C55.3245 64.3183 55.458 63.9959 55.6957 63.7582C55.9334 63.5205 56.2558 63.3869 56.592 63.3869H57.8596C58.1957 63.3869 58.5181 63.5205 58.7559 63.7582C58.9936 63.9959 59.1271 64.3183 59.1271 64.6545C59.1271 64.9907 58.9936 65.3131 58.7559 65.5508C58.5181 65.7885 58.1957 65.922 57.8596 65.922Z" fill="#EA9D2D"/>
<path d="M33.7761 35.5008H51.5218V38.0359H33.7761V35.5008Z" fill="#5E8569"/>
<path d="M54.0569 49.4438H64.1973V51.979H54.0569V49.4438Z" fill="#834B10"/>
<path d="M35.0136 22.8253L29.224 34.5042C28.8871 34.0622 28.705 33.5215 28.7059 32.9657V25.3604C28.7059 24.688 28.973 24.0432 29.4485 23.5678C29.9239 23.0924 30.5687 22.8253 31.241 22.8253H35.0136Z" fill="#B9B9B9"/>
<path d="M26.0006 13.4595L35.0838 17.968L17.9057 52.6299C17.6815 53.0815 17.2871 53.4256 16.8092 53.5865C16.3312 53.7473 15.809 53.7117 15.3573 53.4875L9.68044 50.6698C9.22877 50.4455 8.88467 50.0511 8.72383 49.5732C8.56299 49.0953 8.59858 48.573 8.82279 48.1213L26.0006 13.4595Z" fill="#EBEBEB"/>
<path d="M21.549 22.4279L30.632 26.9364L17.9057 52.6299C17.6815 53.0815 17.2871 53.4256 16.8092 53.5865C16.3312 53.7473 15.809 53.7117 15.3573 53.4875L9.68044 50.6698C9.22877 50.4455 8.88467 50.0511 8.72383 49.5732C8.56299 49.0953 8.59858 48.573 8.82279 48.1213L21.549 22.4279Z" fill="#F388A2"/>
<path d="M20.9926 35.0542L22.1207 32.7827L26.6636 35.039L25.5355 37.3104L20.9926 35.0542Z" fill="#CF748A"/>
<path d="M18.7386 39.5979L19.8668 37.3264L24.4097 39.5827L23.2815 41.8541L18.7386 39.5979Z" fill="#CF748A"/>
<path d="M16.4847 44.142L17.6129 41.8705L22.1558 44.1268L21.0276 46.3982L16.4847 44.142Z" fill="#CF748A"/>
<path d="M14.231 48.6858L15.3591 46.4144L19.902 48.6706L18.7739 50.9421L14.231 48.6858Z" fill="#CF748A"/>
<path d="M9.15445 58.87C8.55202 58.5708 8.09313 58.0445 7.87871 57.407C7.66429 56.7694 7.71192 56.0728 8.01112 55.4704L10.2674 50.9275L14.8103 53.1837L12.554 57.7267C12.2548 58.3291 11.7286 58.788 11.091 59.0024C10.4535 59.2168 9.75688 59.1692 9.15445 58.87Z" fill="#4799CF"/>
<path d="M24.9396 28.2945C24.7239 28.2944 24.5118 28.2393 24.3233 28.1343C24.1349 28.0293 23.9763 27.878 23.8627 27.6947C23.7491 27.5113 23.6841 27.302 23.674 27.0865C23.6639 26.8711 23.7089 26.6566 23.8048 26.4634L33.3545 7.21085C33.5039 6.90968 33.7668 6.68019 34.0854 6.57286C34.404 6.46554 34.7522 6.48917 35.0534 6.63855C35.3545 6.78794 35.584 7.05085 35.6913 7.36945C35.7987 7.68804 35.775 8.03622 35.6257 8.33739L26.0758 27.5899C25.9709 27.8016 25.8089 27.9797 25.6081 28.1042C25.4074 28.2287 25.1758 28.2946 24.9396 28.2945Z" fill="#F3AF3E"/>
<path d="M29.4144 15.154L23.8055 26.4634C23.6561 26.7646 23.6325 27.1128 23.7398 27.4313C23.8471 27.7499 24.0766 28.0128 24.3778 28.1622C24.679 28.3116 25.0271 28.3353 25.3457 28.2279C25.6643 28.1206 25.9272 27.8911 26.0766 27.5899L31.6846 16.2816L29.4144 15.154Z" fill="#EA9D2D"/>
<path d="M21.5489 22.4279L30.6319 26.9364L28.3318 31.6254L19.2487 27.1167L21.5489 22.4279Z" fill="#DA922A"/>
<path d="M31.0739 6.06476L37.8882 9.44912C39.1427 10.0722 40.6647 9.56028 41.2878 8.30579C41.9108 7.0513 41.3989 5.52926 40.1445 4.90621L33.3301 1.52185C32.0756 0.898806 30.5536 1.41069 29.9305 2.66518C29.3075 3.91967 29.8194 5.44171 31.0739 6.06476Z" fill="#4799CF"/>
<path d="M65.7819 50.7114C66.37 50.7108 66.9338 50.4769 67.3497 50.061C67.7656 49.6452 67.9995 49.0813 68.0001 48.4932V42.7892C67.9995 42.2011 67.7656 41.6372 67.3497 41.2214C66.9338 40.8055 66.37 40.5716 65.7819 40.571H52.7895V36.7683H54.057C55.0652 36.7672 56.0317 36.3662 56.7446 35.6533C57.4575 34.9404 57.8585 33.9739 57.8597 32.9657V25.3604C57.8585 24.3522 57.4575 23.3857 56.7446 22.6728C56.0317 21.9599 55.0652 21.5589 54.057 21.5577H34.7194L36.2196 18.5314C36.3688 18.2304 36.3923 17.8823 36.285 17.5639C36.1778 17.2455 35.9484 16.9826 35.6474 16.8332L32.2437 15.1438L35.0615 9.47336L37.3325 10.6007C37.7798 10.8227 38.2664 10.9545 38.7647 10.9884C39.2629 11.0224 39.7629 10.9579 40.2362 10.7986C40.7095 10.6393 41.1468 10.3884 41.5231 10.0601C41.8994 9.73178 42.2073 9.33259 42.4294 8.88529C42.6514 8.43799 42.7832 7.95134 42.8171 7.45311C42.8511 6.95489 42.7866 6.45486 42.6273 5.98157C42.468 5.50828 42.217 5.071 41.8888 4.69469C41.5605 4.31838 41.1613 4.01042 40.714 3.78839L33.9019 0.406403C33.4542 0.180947 32.9664 0.0462169 32.4665 0.00996126C31.9665 -0.0262944 31.4644 0.0366398 30.9889 0.195144C30.5134 0.353649 30.0739 0.604596 29.6957 0.933553C29.3175 1.26251 29.0081 1.66299 28.7853 2.11195C28.5624 2.56091 28.4305 3.0495 28.3972 3.54962C28.3638 4.04974 28.4297 4.55152 28.5909 5.0261C28.7522 5.50068 29.0057 5.9387 29.3368 6.31496C29.668 6.69122 30.0702 6.9983 30.5205 7.21854L32.7907 8.34555L29.9736 14.0158L26.5643 12.3241C26.4152 12.2501 26.2529 12.2062 26.0868 12.1949C25.9206 12.1836 25.7539 12.2051 25.5961 12.2583C25.4383 12.3115 25.2926 12.3952 25.1672 12.5047C25.0417 12.6142 24.9391 12.7474 24.8652 12.8965L7.68746 47.5584C7.36369 48.2128 7.27544 48.9589 7.43758 49.6708C7.59973 50.3827 8.00235 51.017 8.5776 51.4667L6.85848 54.9301C6.50807 55.6343 6.38523 56.43 6.50695 57.207C6.62867 57.9841 6.98894 58.7041 7.53789 59.2674L0.131743 74.2342C0.0578781 74.3833 0.0141206 74.5456 0.0029694 74.7117C-0.00818183 74.8778 0.0134916 75.0445 0.0667522 75.2022C0.120013 75.3599 0.203818 75.5056 0.313382 75.631C0.422946 75.7563 0.556123 75.8588 0.705311 75.9327C0.854498 76.0065 1.01677 76.0503 1.18287 76.0614C1.34897 76.0726 1.51564 76.0509 1.67336 75.9977C1.83108 75.9444 1.97677 75.8606 2.1021 75.751C2.22744 75.6415 2.32996 75.5083 2.40383 75.3591L9.80681 60.3965C9.95757 60.415 10.1093 60.4245 10.2612 60.4247C10.9698 60.4239 11.6642 60.2258 12.2665 59.8524C12.8687 59.479 13.355 58.9452 13.6708 58.3109L15.3901 54.8468C15.6541 54.918 15.9264 54.9543 16.1999 54.9547C16.7904 54.954 17.369 54.7887 17.8708 54.4775C18.3727 54.1663 18.7779 53.7213 19.0409 53.1926L28.0453 35.0236C28.3895 35.5585 28.8625 35.9985 29.4208 36.3033C29.9791 36.6081 30.605 36.768 31.2411 36.7683H32.5087V40.6978C31.0781 40.9919 29.7927 41.7703 28.8691 42.9017C27.9455 44.0331 27.4403 45.4483 27.4384 46.9088V69.7247C27.4403 71.405 28.1087 73.0159 29.2968 74.2041C30.485 75.3922 32.0959 76.0606 33.7762 76.0624H51.5219C52.0043 76.0626 52.4851 76.0078 52.9551 75.8991C53.3123 76.0075 53.6837 76.0625 54.057 76.0624H64.1974C65.2056 76.0613 66.1722 75.6603 66.8851 74.9474C67.598 74.2345 67.999 73.268 68.0001 72.2598V57.0492C67.9991 56.2631 67.7549 55.4966 67.301 54.8548C66.8471 54.213 66.2058 53.7274 65.465 53.4645V50.7114H65.7819ZM31.6475 4.94788C31.3464 4.79839 31.117 4.5354 31.0098 4.21678C30.9026 3.89816 30.9264 3.55 31.0758 3.24889C31.2253 2.94778 31.4883 2.71839 31.8069 2.61118C32.1256 2.50397 32.4737 2.52773 32.7748 2.67722L39.5868 6.05873C39.7384 6.1312 39.8741 6.2331 39.986 6.35849C40.0979 6.48387 40.1837 6.63026 40.2385 6.78911C40.2932 6.94797 40.3159 7.11614 40.3051 7.28383C40.2943 7.45152 40.2502 7.61539 40.1755 7.76591C40.1008 7.91643 39.9969 8.05059 39.8699 8.16059C39.7429 8.27058 39.5952 8.35422 39.4356 8.40664C39.2759 8.45906 39.1074 8.47921 38.9399 8.46592C38.7724 8.45263 38.6092 8.40617 38.4598 8.32923L31.6475 4.94788ZM31.1156 17.4135L33.3855 18.5402L31.5409 22.2625L30.0653 25.24L27.7881 24.1096L31.1156 17.4135ZM26.5733 15.1588L28.8448 16.2863L25.5175 22.9824L23.253 21.8588L26.5733 15.1588ZM11.4 57.1837C11.249 57.4823 10.9861 57.7091 10.6687 57.8147C10.3512 57.9202 10.0048 57.896 9.70511 57.7472C9.40542 57.5985 9.17671 57.3372 9.06884 57.0205C8.96097 56.7038 8.98271 56.3573 9.1293 56.0565L10.8201 52.65L13.0907 53.7771L11.4 57.1837ZM25.4947 34.4628L22.0997 32.7771L20.9725 35.048L24.3689 36.7338L23.244 39.0053L19.846 37.3186L18.719 39.5894L22.1182 41.2767L20.9925 43.5482L17.5912 41.8601L16.464 44.1309L19.8661 45.8196L18.7411 48.0912L15.3368 46.4017L14.2098 48.6726L17.6149 50.3628L16.7706 52.0664C16.6957 52.2168 16.5642 52.3314 16.4049 52.3849C16.2456 52.4383 16.0716 52.4264 15.9212 52.3516L10.2441 49.5339C10.0937 49.4588 9.9792 49.3271 9.92573 49.1677C9.87226 49.0083 9.8842 48.8342 9.95891 48.6836L19.8084 28.8091L26.6207 32.1904L25.4947 34.4628ZM28.8042 27.7846L27.7461 29.9198L20.9422 26.5424L21.9951 24.3961L22.1269 24.1299L28.9381 27.5108L28.8042 27.7846ZM31.2411 34.2332C30.905 34.2329 30.5829 34.0992 30.3452 33.8616C30.1076 33.6239 29.9739 33.3017 29.9736 32.9657V31.1569L31.0827 28.8953L33.4631 24.0928H54.057C54.3931 24.0932 54.7153 24.2269 54.9529 24.4645C55.1905 24.7021 55.3242 25.0243 55.3246 25.3604V26.6279H47.7193C47.3831 26.6279 47.0607 26.7615 46.823 26.9992C46.5853 27.2369 46.4517 27.5593 46.4517 27.8955C46.4517 28.2317 46.5853 28.5541 46.823 28.7918C47.0607 29.0295 47.3831 29.163 47.7193 29.163H55.3246V32.9657C55.3242 33.3017 55.1905 33.6239 54.9529 33.8616C54.7153 34.0992 54.3931 34.2329 54.057 34.2332H31.2411ZM29.9736 46.9088C29.9747 45.9006 30.3757 44.934 31.0886 44.2211C31.8015 43.5082 32.768 43.1072 33.7762 43.1061C34.1124 43.1061 34.4348 42.9726 34.6725 42.7348C34.9102 42.4971 35.0438 42.1747 35.0438 41.8385V36.7683H50.2544V48.1763H29.9736V46.9088ZM33.7762 73.5273C32.768 73.5262 31.8015 73.1252 31.0886 72.4123C30.3757 71.6994 29.9747 70.7329 29.9736 69.7247V68.4571H50.2544V72.2598C50.2542 72.6917 50.3279 73.1204 50.4724 73.5273H33.7762ZM50.2544 57.0492V65.922H29.9736V50.7114H52.7895V53.4645C52.0487 53.7274 51.4073 54.213 50.9535 54.8548C50.4996 55.4966 50.2554 56.2631 50.2544 57.0492ZM65.465 72.2598C65.4646 72.5958 65.3309 72.918 65.0933 73.1557C64.8557 73.3933 64.5335 73.527 64.1974 73.5273H54.057C53.721 73.527 53.3988 73.3933 53.1611 73.1557C52.9235 72.918 52.7899 72.5958 52.7895 72.2598V70.9922H65.465V72.2598ZM65.465 63.3869H62.9299C62.5937 63.3869 62.2713 63.5205 62.0336 63.7582C61.7959 63.9959 61.6623 64.3183 61.6623 64.6545C61.6623 64.9907 61.7959 65.3131 62.0336 65.5508C62.2713 65.7885 62.5937 65.922 62.9299 65.922H65.465V68.4571H52.7895V60.8518H65.465V63.3869ZM65.465 58.3167H52.7895V57.0492C52.7899 56.7131 52.9235 56.3909 53.1611 56.1533C53.3988 55.9157 53.721 55.782 54.057 55.7816H64.1974C64.5335 55.782 64.8557 55.9157 65.0933 56.1533C65.3309 56.3909 65.4646 56.7131 65.465 57.0492V58.3167ZM55.3246 53.2465V50.7114H62.9299V53.2465H55.3246ZM52.7895 48.1763V43.1061H65.465V48.1763H52.7895Z" fill="black"/>
<path d="M44.5503 59.5843H40.7476C40.2434 59.5843 39.7598 59.7846 39.4032 60.1412C39.0466 60.4977 38.8463 60.9814 38.8463 61.4856C38.8463 61.9899 39.0466 62.4735 39.4032 62.8301C39.7598 63.1866 40.2434 63.3869 40.7476 63.3869H44.5503C45.0546 63.3869 45.5382 63.1866 45.8947 62.8301C46.2513 62.4735 46.4516 61.9899 46.4516 61.4856C46.4516 60.9814 46.2513 60.4977 45.8947 60.1412C45.5382 59.7846 45.0546 59.5843 44.5503 59.5843Z" fill="black"/>
<path d="M42.6489 57.0492C42.9851 57.0492 43.3075 56.9156 43.5452 56.6779C43.7829 56.4402 43.9165 56.1178 43.9165 55.7816V54.5141C43.9165 54.1779 43.7829 53.8555 43.5452 53.6178C43.3075 53.3801 42.9851 53.2465 42.6489 53.2465C42.3127 53.2465 41.9903 53.3801 41.7526 53.6178C41.5149 53.8555 41.3813 54.1779 41.3813 54.5141V55.7816C41.3813 56.1178 41.5149 56.4402 41.7526 56.6779C41.9903 56.9156 42.3127 57.0492 42.6489 57.0492Z" fill="black"/>
<path d="M40.1138 57.0492V55.7816C40.1138 55.4454 39.9803 55.123 39.7426 54.8853C39.5049 54.6476 39.1825 54.5141 38.8463 54.5141C38.5101 54.5141 38.1877 54.6476 37.95 54.8853C37.7123 55.123 37.5787 55.4454 37.5787 55.7816V57.0492C37.5787 57.3853 37.7123 57.7078 37.95 57.9455C38.1877 58.1832 38.5101 58.3167 38.8463 58.3167C39.1825 58.3167 39.5049 58.1832 39.7426 57.9455C39.9803 57.7078 40.1138 57.3853 40.1138 57.0492Z" fill="black"/>
<path d="M46.4516 54.5141C46.1155 54.5141 45.7931 54.6476 45.5553 54.8853C45.3176 55.123 45.1841 55.4454 45.1841 55.7816V57.0492C45.1841 57.3853 45.3176 57.7078 45.5553 57.9455C45.7931 58.1832 46.1155 58.3167 46.4516 58.3167C46.7878 58.3167 47.1102 58.1832 47.3479 57.9455C47.5856 57.7078 47.7192 57.3853 47.7192 57.0492V55.7816C47.7192 55.4454 47.5856 55.123 47.3479 54.8853C47.1102 54.6476 46.7878 54.5141 46.4516 54.5141Z" fill="black"/>
<path d="M56.592 65.922H57.8596C58.1957 65.922 58.5181 65.7885 58.7559 65.5508C58.9936 65.3131 59.1271 64.9907 59.1271 64.6545C59.1271 64.3183 58.9936 63.9959 58.7559 63.7582C58.5181 63.5205 58.1957 63.3869 57.8596 63.3869H56.592C56.2558 63.3869 55.9334 63.5205 55.6957 63.7582C55.458 63.9959 55.3245 64.3183 55.3245 64.6545C55.3245 64.9907 55.458 65.3131 55.6957 65.5508C55.9334 65.7885 56.2558 65.922 56.592 65.922Z" fill="black"/>
<path d="M40.1139 29.163H42.649C42.9851 29.163 43.3076 29.0295 43.5453 28.7918C43.783 28.5541 43.9165 28.2317 43.9165 27.8955C43.9165 27.5593 43.783 27.2369 43.5453 26.9992C43.3076 26.7615 42.9851 26.6279 42.649 26.6279H40.1139C39.7777 26.6279 39.4553 26.7615 39.2176 26.9992C38.9799 27.2369 38.8463 27.5593 38.8463 27.8955C38.8463 28.2317 38.9799 28.5541 39.2176 28.7918C39.4553 29.0295 39.7777 29.163 40.1139 29.163Z" fill="black"/>
</svg>
