<svg width="123" height="82" viewBox="0 0 123 82" fill="none" xmlns="http://www.w3.org/2000/svg">
<path d="M16.8405 42.0906C16.6023 41.8685 16.364 41.6463 16.1469 41.4364C16.1046 41.412 16.0623 41.3876 16.0201 41.3632C15.9143 41.3021 15.7997 41.2078 15.6639 41.1012C15.5281 40.9946 15.4346 40.9124 15.3321 40.7969C15.2386 40.7147 15.2208 40.648 15.2574 40.5846C15.3151 40.5333 15.3062 40.5 15.2428 40.4634C15.1794 40.4267 15.1037 40.4113 14.9858 40.3714C14.8679 40.3315 14.7166 40.3005 14.5686 40.2151C14.4084 40.1508 14.2726 40.0442 14.1612 39.8953C14.1011 39.8042 13.953 39.7187 13.7839 39.6211C13.5814 39.5324 13.3277 39.3859 13.0894 39.1638C12.9959 39.0816 12.9236 39.0116 12.839 38.9628C12.7756 38.9262 12.7243 38.8684 12.6699 38.8651C12.6064 38.8285 12.5007 38.7675 12.4072 38.6853C12.2925 38.5909 12.16 38.4298 11.9551 38.1988C11.9039 38.141 11.8104 38.0588 11.6746 37.9522C11.5388 37.8456 11.412 37.7724 11.2762 37.6658C11.1282 37.5804 10.9891 37.5283 10.9135 37.5128C10.8167 37.4851 10.7711 37.5152 10.7979 37.6152C10.8125 37.7364 10.7548 37.7876 10.6035 37.7567C10.4611 37.7591 10.2887 37.7159 10.0651 37.615C9.8626 37.5263 9.66337 37.3831 9.44301 37.2276C9.24378 37.0844 9.10232 36.89 8.982 36.7078C8.91618 36.5288 8.84708 36.4043 8.78692 36.3132C8.76012 36.2132 8.70889 36.1554 8.68775 36.1432C8.65767 36.0976 8.65767 36.0976 8.64546 36.1188C8.64546 36.1188 8.63326 36.1399 8.64219 36.1733C8.62999 36.1944 8.62672 36.2489 8.61451 36.2701C8.62344 36.3034 8.61124 36.3245 8.56568 36.3546C8.55347 36.3758 8.53233 36.3636 8.47784 36.3603C8.1875 36.2772 7.837 36.1031 7.44748 35.85C7.07911 35.6091 6.84414 35.3325 6.78486 35.0446C6.73691 34.9323 6.63447 34.8168 6.48973 34.6768C6.345 34.5369 6.18806 34.4181 6.02785 34.3538C5.8465 34.2773 5.75866 34.2829 5.67648 34.3764C5.5943 34.47 5.39747 34.4691 5.08599 34.3738C4.77451 34.2786 4.45409 34.1499 4.09138 33.9969C3.66525 33.8073 3.34483 33.6787 3.11792 33.6322C2.45833 33.5051 1.97443 33.3667 1.67516 33.2503C1.37588 33.1339 1.16772 32.9573 1.03847 32.7417C0.942563 32.5172 0.832058 32.1715 0.740302 31.6957C0.731366 31.6623 0.776923 31.6323 0.898117 31.6177C1.02825 31.6364 1.17058 31.634 1.31292 31.6316C1.4764 31.6414 1.61874 31.639 1.76108 31.6366C1.87006 31.6432 1.91562 31.6131 1.91889 31.5586C1.90995 31.5253 1.83759 31.4553 1.71073 31.382C1.58387 31.3088 1.43587 31.2234 1.25452 31.1468C1.06423 31.037 0.895081 30.9393 0.747079 30.8539C0.577933 30.7562 0.505568 30.6862 0.475488 30.6407C0.213068 29.728 0.212427 29.192 0.464627 28.9993C0.716828 28.8067 1.07714 28.8173 1.57891 29.0225C2.04733 29.2365 2.55804 29.475 3.06548 29.768C3.19233 29.8412 3.34034 29.9267 3.44605 29.9877C4.70571 30.6868 5.97757 31.3647 7.26164 32.0215C7.28278 32.0337 7.32507 32.0581 7.34621 32.0703C7.45193 32.1314 7.56985 32.1712 7.69671 32.2445C7.83578 32.2966 7.96264 32.3698 8.1017 32.4219C8.24077 32.474 8.32534 32.5229 8.37984 32.5261C8.38311 32.4716 8.3563 32.3716 8.24819 32.1682C8.16122 31.977 8.03197 31.7615 7.87263 31.5003C7.09384 30.2613 6.63547 29.151 6.44302 28.1659C6.23836 27.2021 6.37702 25.9853 6.83458 24.558C7.18707 23.6057 7.56636 22.7535 8.02369 22.059C8.49322 21.3434 9.00831 20.5977 9.61125 19.8464C9.69342 19.7529 9.74225 19.6683 9.81222 19.5959C8.71979 17.3865 8.17141 15.4067 8.13374 13.6653C8.07493 11.9117 8.69533 9.95819 9.94372 7.74709C9.95592 7.72595 9.96813 7.70481 9.98034 7.68366C10.2277 7.20631 10.5386 6.76557 10.9129 6.36145C10.9584 6.33137 11.0162 6.28015 11.0862 6.20779C11.1439 6.15656 11.1805 6.09313 11.2172 6.0297C11.7713 5.36293 12.3855 4.78728 13.0933 4.2938C13.2999 4.1312 13.5188 3.94745 13.7254 3.78485C14.2754 3.3694 14.8432 3.02066 15.4623 2.72968C15.9813 2.4655 16.4913 2.16798 17.0047 1.81596C17.0502 1.78588 17.1291 1.74687 17.1991 1.6745C17.2902 1.61434 17.3814 1.55419 17.4936 1.50623C17.5725 1.46722 17.6392 1.44935 17.6937 1.45262C17.7482 1.45589 17.9239 1.44456 18.224 1.36413C18.5242 1.28371 18.8699 1.1732 19.2823 1.04482C19.349 1.02695 19.4491 1.00014 19.5158 0.982271C19.7614 0.898575 20.0282 0.827086 20.2828 0.77674C20.5708 0.717457 20.8221 0.721605 21.0612 0.746895C21.1035 0.771309 21.1368 0.762373 21.1702 0.753437C21.2369 0.735564 21.2702 0.726628 21.3158 0.696549C21.3947 0.657533 21.507 0.609582 21.6526 0.552694C21.786 0.516949 22.0162 0.508889 22.2886 0.525244C22.5822 0.553805 22.8791 0.527873 23.1882 0.480798C23.4306 0.451595 23.7275 0.425663 24.0666 0.424145C29.6169 0.527592 34.2288 2.59823 37.9323 6.68163C38.2184 7.016 38.4534 7.29262 38.6583 7.52368C38.851 7.77588 38.9746 7.90361 38.9957 7.91582C39.0291 7.90688 39.1405 8.05576 39.3421 8.34131C39.5226 8.61466 39.742 8.96691 40.0038 9.34357C40.3347 9.8447 40.6379 10.4426 40.9589 11.1072C41.2467 11.7808 41.4831 12.3966 41.6684 12.9546C41.8415 13.5337 41.9064 13.9095 41.8722 14.1153C41.8234 14.1999 41.8225 14.3967 41.8362 14.7147C41.8499 15.0327 41.8726 15.3841 41.9042 15.7688C41.948 16.1324 41.9584 16.5049 41.9722 16.823C41.9737 17.1621 41.9606 17.3801 41.9207 17.498C41.8808 17.6159 41.8621 17.7461 41.8311 17.8974C41.8335 18.0397 41.8148 18.1698 41.8416 18.2699C41.8553 18.5879 41.8169 19.045 41.7476 19.6533C41.6571 20.2495 41.5244 20.8212 41.3282 21.3564C41.1531 21.9037 40.9123 22.2721 40.63 22.4192C40.46 22.5184 40.3778 22.6119 40.359 22.742C40.3403 22.8721 40.376 23.0055 40.3996 23.1601C40.4654 23.339 40.4645 23.5359 40.4213 23.7083C40.3871 23.9141 40.1894 24.11 39.8282 24.2961C39.5459 24.4433 39.3727 24.5969 39.3173 24.7905C39.2741 24.9629 39.2521 25.1475 39.2634 25.3232C39.278 25.4444 39.2715 25.5534 39.2649 25.6624C39.2373 25.7592 39.1884 25.8437 39.1063 25.9373L39.0485 25.9885C38.9785 26.0608 38.8963 26.1544 38.8142 26.2479C38.732 26.3414 38.671 26.4471 38.6433 26.5439C38.6278 26.6195 38.5578 26.6919 38.4756 26.7854C38.3935 26.8789 38.269 26.948 38.1901 26.987C38.0778 27.035 37.9623 27.1374 37.8224 27.2821C37.7036 27.4391 37.5848 27.596 37.5205 27.7562C37.4228 27.9254 37.3251 28.0945 37.2186 28.2303C37.112 28.3661 37.042 28.4385 36.9631 28.4775C36.9053 28.5287 36.8598 28.5588 36.8231 28.6222C36.7987 28.6645 36.7955 28.719 36.8255 28.7645C36.8223 28.819 36.8101 28.8402 36.7645 28.8703C36.7189 28.9003 36.6644 28.8971 36.5555 28.8905C36.4131 28.8929 36.2919 28.9075 36.2097 29.001C36.1064 29.0823 36.0242 29.1758 35.9299 29.2905C35.8355 29.4052 35.7533 29.4987 35.6467 29.6345C35.2757 29.9841 34.768 30.4239 34.1025 30.9418C33.4371 31.4597 32.8603 31.7751 32.3845 31.8669C32.2755 31.8603 32.2088 31.8782 32.151 31.9294C32.0932 31.9806 32.0989 32.0685 32.1591 32.1596C32.2192 32.2507 32.3672 32.3362 32.5909 32.4371C32.7722 32.5136 32.9747 32.6023 33.1683 32.6577C33.779 32.8694 34.1173 33.0647 34.2165 33.2347C34.2644 33.347 34.2067 33.3982 34.0521 33.4217C33.8976 33.4453 33.6707 33.3988 33.4226 33.3402C33.1534 33.2693 32.8664 33.1318 32.5793 32.9942C32.1743 32.8168 31.7628 32.7483 31.3536 32.8222C30.9656 32.9083 30.5622 33.07 30.1676 33.2651C30.0643 33.3464 30.0188 33.3765 30.0488 33.4221C30.0911 33.4465 30.1545 33.4831 30.2635 33.4896C30.3603 33.5173 30.4449 33.5661 30.5083 33.6028C30.5929 33.6516 30.623 33.6972 30.5953 33.7939C30.5831 33.8151 30.5375 33.8452 30.4619 33.8297C30.374 33.8353 30.2773 33.8077 30.1683 33.8011C29.9747 33.7457 29.7356 33.7205 29.442 33.6919C29.1695 33.6755 28.8816 33.7348 28.557 33.8575C28.1747 34.0315 27.8501 34.1542 27.6045 34.2379C27.3799 34.3338 27.0464 34.4231 26.6462 34.5304C26.5006 34.5873 26.3884 34.6352 26.2972 34.6954C26.2183 34.7344 26.1606 34.7856 26.1362 34.8279C26.0784 34.8791 26.0328 34.9092 25.9661 34.9271C25.9328 34.936 25.8238 34.9295 25.6937 34.9107C25.3911 34.8488 25.1821 34.8691 25.0031 34.9349C24.8453 35.0129 24.7086 35.1032 24.6053 35.1845C24.5354 35.2568 24.4898 35.2869 24.4109 35.3259C24.3653 35.356 24.3108 35.3527 24.2352 35.3373C24.0961 35.2852 23.8448 35.281 23.4812 35.3248C23.1388 35.3808 22.7419 35.4336 22.3116 35.4953C21.6934 35.5894 21.1964 35.669 20.8239 35.6794C20.7905 35.6883 20.7361 35.6851 20.6816 35.6818C20.5726 35.6753 20.4302 35.6777 20.2879 35.68C20.1789 35.6735 20.0366 35.6759 19.9154 35.6905C19.7942 35.7051 19.7153 35.7441 19.6697 35.7742C19.3696 35.8546 19.0304 35.8561 18.5977 35.7755C18.2407 35.7103 17.847 35.7085 17.4623 35.7401C17.2866 35.7515 17.1109 35.7628 16.9474 35.753C16.784 35.7432 16.675 35.7366 16.5538 35.7512C16.4537 35.778 16.3748 35.8171 16.3382 35.8805C16.3382 35.8805 16.3171 35.8683 16.2959 35.8561C16.2748 35.8439 16.2536 35.8317 16.1991 35.8284C16.1357 35.7918 16.0723 35.7552 15.9966 35.7397C15.9332 35.7031 15.8576 35.6876 15.7819 35.6721C15.4249 35.6069 15.089 35.5539 14.7865 35.492C14.1025 35.4072 13.4217 35.2679 12.6898 35.0709C12.227 34.9446 11.9757 34.9405 11.9269 35.0251C11.9114 35.1007 12.0228 35.2496 12.261 35.4717C12.5115 35.6727 12.7831 35.8859 13.1181 36.1357C13.4442 36.3521 13.728 36.5442 13.9695 36.7118C14.1598 36.8217 14.2533 36.9038 14.3167 36.9405C15.1103 37.5678 16.1633 38.4295 17.5058 39.571C18.8271 40.7004 20.0785 41.9021 21.2298 43.1306C22.3811 44.3592 23.1274 45.4103 23.4143 46.2806C23.5036 46.6141 23.5409 47.0867 23.5472 47.7105C23.5446 48.301 23.5297 48.9127 23.4604 49.521C23.3911 50.1294 23.2649 50.5922 23.1485 50.8914C23.094 50.8882 23.046 50.7759 22.9713 50.5636C22.8631 50.3602 22.7794 50.1146 22.6657 49.8233C22.582 49.5777 22.4861 49.3532 22.4113 49.1409C22.3154 48.9163 22.2374 48.7585 22.1772 48.6674C21.9098 48.2029 21.5878 47.7351 21.257 47.234C20.944 46.7996 20.6521 46.3773 20.3936 45.9462C19.557 44.7584 18.605 43.6731 17.504 42.6992C17.2747 42.5104 17.0576 42.3005 16.8405 42.0906ZM22.4663 47.6785C22.4484 47.6118 22.4094 47.5329 22.3549 47.5296C22.2915 47.493 22.237 47.4897 22.1703 47.5076C22.1158 47.5043 22.0914 47.5466 22.0881 47.6011C22.097 47.6344 22.1483 47.6922 22.254 47.7532C22.3597 47.8143 22.4264 47.7964 22.4663 47.6785ZM21.6125 46.96C21.7938 47.0365 21.8605 47.0187 21.8459 46.8975C21.8313 46.7763 21.7533 46.6185 21.6118 46.424C21.4826 46.2084 21.32 46.0018 21.1362 45.7829C20.9736 45.5763 20.82 45.403 20.6842 45.2964C20.5272 45.1776 20.4516 45.1621 20.415 45.2256C20.4117 45.2801 20.4597 45.3923 20.5588 45.5623C20.658 45.7324 20.8117 45.9057 20.9531 46.1001C21.1035 46.3279 21.2572 46.5012 21.3897 46.6623C21.5011 46.8111 21.5824 46.9145 21.6125 46.96ZM17.0733 41.492C17.375 41.7508 17.5953 41.9062 17.7011 41.9672C17.8068 42.0283 17.819 42.0071 17.7678 41.9494C17.7287 41.8704 17.6263 41.7549 17.4816 41.615C17.349 41.4539 17.1832 41.3017 16.9962 41.1374C16.8091 40.973 16.6433 40.8209 16.4863 40.7021C16.3294 40.5833 16.2025 40.51 16.1147 40.5157C16.1236 40.5491 16.1748 40.6068 16.2561 40.7101C16.3374 40.8135 16.4732 40.9201 16.5968 41.0478C16.7115 41.1422 16.8351 41.2699 16.9286 41.3521C17.0009 41.4221 17.0522 41.4798 17.0733 41.492ZM9.39026 36.8307C9.54393 37.004 9.64965 37.065 9.71635 37.0472C9.79199 37.0626 9.82861 36.9992 9.8018 36.8992C9.79613 36.8113 9.76932 36.7113 9.69696 36.6413C9.62459 36.5713 9.50667 36.5314 9.38548 36.546C9.33098 36.5428 9.31878 36.5639 9.30657 36.585C9.3033 36.6395 9.31223 36.6729 9.32117 36.7062C9.33011 36.7396 9.36019 36.7851 9.38133 36.7973C9.36912 36.8185 9.39026 36.8307 9.39026 36.8307ZM7.86644 35.6126C7.81194 35.6094 7.77859 35.6183 7.79974 35.6305C7.80867 35.6638 7.82982 35.6761 7.89324 35.7127C7.93553 35.7371 7.99896 35.7737 8.05345 35.777C8.11688 35.8136 8.17138 35.8169 8.22587 35.8201C8.24701 35.8324 8.28036 35.8234 8.27143 35.7901C8.27143 35.7901 8.24135 35.7445 8.13563 35.6835C8.05106 35.6346 7.96649 35.5858 7.86644 35.6126ZM19.156 34.8574C19.1893 34.8484 19.2227 34.8395 19.265 34.8639C19.3406 34.8794 19.3951 34.8827 19.4919 34.9104C19.6732 34.9869 19.9123 35.0122 20.1303 35.0252C20.6118 35.0213 21.4268 34.9281 22.5631 34.7666C23.6994 34.6051 24.7845 34.3858 25.8607 34.1332C26.9279 33.8473 27.6136 33.5384 27.8968 33.1944C27.5007 33.0504 27.0737 33.0575 26.619 33.1615C26.1643 33.2655 25.6852 33.4117 25.2028 33.6125C24.4748 33.8969 23.8078 34.0756 23.1595 34.1242C23.0172 34.1266 22.8082 34.1469 22.5324 34.185C22.2567 34.2232 21.9809 34.2613 21.6385 34.3173C21.1082 34.4058 20.6779 34.4675 20.3143 34.5113C19.3692 34.5858 18.5452 34.6457 17.8457 34.6365C17.1552 34.6607 16.3256 34.6328 15.3781 34.565C15.2146 34.5552 15.0934 34.5698 14.96 34.6055C14.8388 34.6201 14.7387 34.6469 14.7143 34.6892C14.6899 34.7315 14.72 34.7771 14.8379 34.817C14.9347 34.8446 15.1616 34.8911 15.4764 34.9318C15.5309 34.9351 15.5853 34.9384 15.661 34.9539C16.2271 34.9988 16.8265 35.0348 17.4593 35.0618C18.092 35.0888 18.6435 35.0126 19.156 34.8574ZM22.5227 31.614C22.5894 31.5961 22.7106 31.5815 22.8529 31.5791C22.983 31.5979 23.1042 31.5833 23.2254 31.5687C23.3466 31.5541 23.4044 31.5029 23.4076 31.4484C23.402 31.3605 23.2873 31.2661 23.067 31.1107C23.0247 31.0863 22.9824 31.0619 22.9523 31.0163C22.8466 30.9553 22.762 30.9065 22.7197 30.8821C22.6685 30.8243 22.6262 30.7999 22.6051 30.7877C22.575 30.7421 22.5327 30.7177 22.5026 30.6721C22.4425 30.581 22.2888 30.4077 21.9993 30.1279C21.8758 30.0001 21.74 29.8935 21.5798 29.8292C21.4195 29.7649 21.2471 29.7217 21.0959 29.6908C20.9023 29.6354 20.7421 29.5711 20.6152 29.4979C20.5095 29.4368 20.4616 29.3246 20.4714 29.1611C20.5211 28.8797 20.4675 28.6796 20.3227 28.5397C20.1568 28.3875 19.9666 28.2776 19.7218 28.1645C19.6161 28.1035 19.4981 28.0636 19.3924 28.0025C19.329 27.9659 19.2143 27.8715 19.0241 27.7617C18.8338 27.6518 18.6345 27.5086 18.4231 27.3865C18.2662 27.2677 18.097 27.1701 17.9824 27.0757C17.8555 27.0024 17.7921 26.9658 17.7709 26.9536C17.662 26.9471 17.6042 26.9983 17.5854 27.1284C17.5789 27.2374 17.5935 27.3586 17.617 27.5132C17.6227 27.601 17.6284 27.6888 17.6251 27.7433C17.6308 27.8312 17.5974 27.8401 17.5429 27.8368C17.5006 27.8124 17.386 27.718 17.2412 27.5781C17.1087 27.417 16.925 27.1982 16.6599 26.876C16.651 26.8426 16.651 26.8426 16.6298 26.8304C16.4795 26.6026 16.2624 26.3927 16.0363 26.1495C15.7981 25.9273 15.5533 25.8142 15.2597 25.7857C15.3109 25.8434 15.3711 25.9345 15.4646 26.0167C15.567 26.1322 15.6695 26.2478 15.7931 26.3755C15.8955 26.491 15.9979 26.6066 16.0703 26.6765C16.1516 26.7799 16.224 26.8498 16.2329 26.8832C16.263 26.9287 16.2296 26.9377 16.1451 26.8888C16.0483 26.8612 15.9003 26.7757 15.6588 26.6081C15.1546 26.2606 14.7448 25.7985 14.5173 25.2161C14.4002 24.9793 14.2799 24.7971 14.1807 24.6271C14.0694 24.4782 13.9547 24.3838 13.9002 24.3806C13.8246 24.3651 13.7611 24.3285 13.7099 24.2707C13.6465 24.2341 13.6075 24.1552 13.5896 24.0885C13.5116 23.9307 13.388 23.8029 13.2311 23.6841C13.0619 23.5865 12.9228 23.5344 12.8139 23.5278C12.6715 23.5302 12.626 23.5603 12.6528 23.6603C12.6462 23.7693 12.8121 23.9215 13.0715 24.1558C13.2073 24.2624 13.3219 24.3568 13.4244 24.4723C13.5179 24.5545 13.578 24.6456 13.5748 24.7001C13.5837 24.7335 13.5292 24.7302 13.4235 24.6691C13.33 24.587 13.1608 24.4893 12.995 24.3372C12.8502 24.1972 12.7177 24.0361 12.5974 23.8539C12.4771 23.6717 12.3446 23.5106 12.221 23.3829C12.0974 23.2551 11.9494 23.1697 11.7981 23.1387C11.7225 23.1232 11.6436 23.1623 11.5736 23.2346C11.537 23.298 11.4759 23.4038 11.4238 23.5428C11.3595 23.703 11.2952 23.8632 11.1854 24.0535C11.0544 24.2316 10.9022 24.3975 10.7078 24.539C10.4035 24.8707 10.1992 25.1756 10.095 25.4538C10.0307 25.614 9.96968 25.7197 9.89971 25.7921C9.83867 25.8978 9.73862 25.9246 9.62963 25.9181C9.4873 25.9204 9.35629 26.0985 9.22768 26.4189C9.09907 26.7394 8.97939 27.0931 8.91421 27.4502C8.83682 27.8284 8.82046 28.1008 8.87735 28.2464C8.90416 28.3465 8.93097 28.4465 8.93336 28.5889C8.91701 28.8613 9.02751 29.207 9.19818 29.6439C9.40219 30.0718 9.90875 30.5616 10.6845 31.1222L11.3188 31.4884C13.3503 32.2666 15.2656 32.6113 17.0648 32.5224C18.8428 32.4213 20.6884 32.1055 22.5227 31.614ZM19.8841 29.104C19.6572 29.0575 19.4336 28.9566 19.2677 28.8045C19.0807 28.6401 18.9815 28.4701 18.9035 28.3123C18.8466 28.1667 18.8954 28.0821 19.0166 28.0675C19.1712 28.044 19.416 28.1571 19.8055 28.4102C19.9323 28.4834 20.047 28.5778 20.1405 28.66C20.2551 28.7544 20.282 28.8544 20.2665 28.93C20.2599 29.039 20.1265 29.0748 19.8841 29.104ZM18.1245 27.8061C18.1611 27.7427 18.2278 27.7248 18.2912 27.7614C18.3547 27.7981 18.3937 27.877 18.4538 27.9681C18.4928 28.047 18.4985 28.1348 18.4741 28.1771C18.4497 28.2194 18.3618 28.2251 18.235 28.1518C18.1927 28.1274 18.1415 28.0697 18.1236 28.003C18.1057 27.9363 18.109 27.8818 18.1245 27.8061ZM14.0146 25.2078C13.8943 25.0255 13.8464 24.9133 13.8586 24.8921C13.8496 24.8588 13.9253 24.8743 14.0521 24.9475C14.1278 24.963 14.2001 25.033 14.2725 25.1029C14.3327 25.1941 14.3839 25.2518 14.4018 25.3185C14.422 25.5276 14.4065 25.6032 14.3309 25.5877C14.2553 25.5722 14.1317 25.4445 14.0146 25.2078ZM10.9349 23.8526C11.0537 23.6956 11.0814 23.5988 11.0212 23.5077C10.9611 23.4166 10.8643 23.3889 10.7342 23.3702C10.604 23.3514 10.4706 23.3872 10.3885 23.4807C10.2851 23.562 10.2542 23.7133 10.3078 23.9134C10.3346 24.0134 10.3858 24.0712 10.4737 24.0655C10.5493 24.081 10.6282 24.042 10.7071 24.003C10.7982 23.9428 10.8771 23.9038 10.9349 23.8526ZM22.4233 29.4423C21.8703 29.1794 21.5588 29.0842 21.4889 29.1565C21.4189 29.2289 21.5181 29.3989 21.7653 29.6544C22.0124 29.9099 22.3474 30.1597 22.7581 30.425C23.1598 30.6569 23.586 30.8465 23.9853 30.9361C24.1911 30.9704 24.3 30.9769 24.2944 30.8891C24.2765 30.8224 24.2163 30.7313 24.0716 30.5913C23.948 30.4636 23.7699 30.3326 23.6041 30.1804C23.4048 30.0372 23.2479 29.9184 23.0999 29.833C22.9641 29.7264 22.8795 29.6775 22.8795 29.6775L22.4233 29.4423ZM28.4842 32.5187C28.3175 32.5634 28.2564 32.6691 28.3255 32.7936C28.3613 32.927 28.467 32.988 28.6061 33.0401C28.7573 33.0711 28.9241 33.0264 29.0884 32.8394C29.1495 32.7337 29.1528 32.6792 29.0682 32.6304C28.9958 32.5604 28.899 32.5327 28.7689 32.514C28.6599 32.5074 28.5509 32.5009 28.4842 32.5187ZM17.0285 26.384C16.9049 26.2563 16.8204 26.2075 16.796 26.2498C16.7626 26.2587 16.7471 26.3343 16.7739 26.4344C16.8007 26.5344 16.8398 26.6133 16.9333 26.6955C17.0268 26.7777 17.1236 26.8054 17.2659 26.803C17.2602 26.7151 17.2424 26.6484 17.1911 26.5907C17.1611 26.5451 17.122 26.4662 17.0708 26.4084C17.0497 26.3962 17.0497 26.3962 17.0285 26.384ZM36.8875 8.05179C36.2118 7.46433 35.2579 6.77268 34.0227 6.03132C32.7663 5.27775 31.7237 4.7886 30.8828 4.58499C30.6982 4.56297 30.5347 4.55316 30.4257 4.54662C30.3167 4.54007 30.2077 4.53353 30.0776 4.51478C29.9475 4.49603 29.7962 4.46508 29.5815 4.3975C27.7192 3.71694 25.8062 3.51462 23.885 3.81494C23.5426 3.87096 23.2213 3.93917 22.9089 4.04074C22.8755 4.04968 22.8088 4.06755 22.7755 4.07649C22.442 4.16585 22.0784 4.20965 21.6514 4.21684C21.3545 4.24277 21.0788 4.28091 20.8152 4.2979C20.5395 4.33604 20.3272 4.4108 20.1905 4.50104C19.7594 4.75955 19.2859 4.99364 18.7702 5.20332C18.2089 5.44308 17.6443 5.73733 17.0554 6.07387C16.7942 6.2332 16.5665 6.3836 16.3175 6.52179C15.6952 6.86726 15.0785 7.30058 14.4586 7.78839C14.3886 7.86076 14.2975 7.92092 14.1731 7.99001C14.0486 8.05911 13.9485 8.08592 13.8485 8.11272C13.7484 8.13953 13.7062 8.11512 13.7094 8.06063C13.6916 7.99393 13.7648 7.86707 13.8958 7.68898C14.0057 7.4987 14.0789 7.37184 14.1066 7.27506C14.1432 7.21163 14.1676 7.16934 14.192 7.12705C14.2043 7.10591 14.271 7.08804 14.3254 7.09131C14.3921 7.07344 14.4889 7.10112 14.6191 7.11987C14.6947 7.13535 14.728 7.12641 14.7614 7.11748C14.7947 7.10854 14.8281 7.0996 14.8403 7.07846C14.8525 7.05732 14.8647 7.03617 14.8769 7.01503C14.868 6.98168 14.8924 6.93939 14.9046 6.91825C14.929 6.87597 14.9624 6.86703 15.0291 6.84916C15.0624 6.84022 15.1503 6.83456 15.2593 6.8411C15.3137 6.84437 15.3959 6.75086 15.5025 6.61506C15.6368 6.38249 15.8345 6.18653 16.1111 5.95156C16.5089 5.70199 16.9035 5.50692 17.2858 5.33298C17.6681 5.15905 18.0415 4.95176 18.4483 4.73554C19.5985 4.15924 20.669 3.81879 21.6141 3.74427C22.2201 3.67126 22.8838 3.54703 23.5541 3.31381C23.8998 3.20331 24.0609 3.07079 24.0675 2.9618C24.0529 2.8406 23.9715 2.73728 23.7691 2.64856C23.5999 2.55091 23.3852 2.48333 23.1672 2.47025C23.0705 2.44256 22.9615 2.43602 22.8736 2.44168C22.798 2.42621 22.7101 2.43187 22.6012 2.42533C22.4344 2.47001 22.3433 2.53017 22.349 2.61801C22.3335 2.69365 22.3603 2.7937 22.4294 2.91817C22.1212 2.76841 21.8853 2.68863 21.7218 2.67881C21.5462 2.69014 21.4339 2.7381 21.3639 2.81046C21.2728 2.87062 21.224 2.95519 21.1963 3.05197C21.1475 3.13655 21.1108 3.19998 21.0653 3.23006C21.0197 3.26013 20.9563 3.22351 20.8417 3.12913C20.6847 3.01033 20.5912 2.92815 20.54 2.87039C20.4977 2.84597 20.4766 2.83376 20.4766 2.83376C20.4766 2.83376 20.4766 2.83376 20.4977 2.84597C20.5066 2.87932 20.5367 2.92488 20.5668 2.97044C20.5847 3.03714 20.6025 3.10384 20.5871 3.17947C20.6049 3.24617 20.5683 3.3096 20.4983 3.38197C20.4072 3.44213 20.295 3.49008 20.1071 3.52255C19.8313 3.56069 19.6345 3.55982 19.4499 3.5378C19.2986 3.50684 19.1595 3.45474 19.0839 3.43926C19.0416 3.41485 18.9993 3.39044 18.9871 3.41158C18.966 3.39937 18.9538 3.42052 18.9505 3.47501C18.9594 3.50836 18.9651 3.5962 19.0131 3.70846L19.022 3.74181C19.0366 3.863 19.0423 3.95085 18.9967 3.98093C18.9511 4.01101 18.8844 4.02888 18.8088 4.0134C18.7332 3.99792 18.6364 3.97024 18.5396 3.94255C18.464 3.92708 18.3672 3.89939 18.2916 3.88391C18.2371 3.88064 18.1826 3.87737 18.1582 3.91966C18.045 4.16444 17.9384 4.30024 17.8262 4.34819C17.7351 4.40835 17.6139 4.42295 17.526 4.42861C17.4504 4.41313 17.3837 4.43101 17.3381 4.46109C17.2714 4.47896 17.2226 4.56353 17.2038 4.69366C17.1916 4.7148 17.1461 4.74488 17.1127 4.75382C17.0672 4.7839 16.9793 4.78957 16.9126 4.80744C16.6613 4.80329 16.3701 4.91707 16.0089 5.10321C15.8934 5.20565 15.8112 5.29916 15.7079 5.38046C15.6013 5.51626 15.4858 5.6187 15.3491 5.70894C15.2458 5.79024 15.0668 5.85607 14.9001 5.90075C14.8667 5.90968 14.8334 5.91862 14.8089 5.96091C14.7967 5.98205 14.7723 6.02434 14.7479 6.06662C14.7324 6.14226 14.6836 6.22683 14.6014 6.32034C14.5282 6.4472 14.3704 6.52523 14.167 6.63334C13.9636 6.74145 13.6781 6.94307 13.3071 7.29269C12.9361 7.64232 12.574 8.02529 12.2087 8.46275C11.8433 8.90022 11.5569 9.29867 11.3616 9.63696C11.1541 9.99639 11.1166 10.2567 11.2402 10.3844C11.3036 10.421 11.4492 10.3641 11.6103 10.2316C11.7624 10.0657 11.9479 9.89091 12.1034 9.67054C12.2799 9.46238 12.4109 9.2843 12.5053 9.16965C12.5297 9.12736 12.5419 9.10622 12.5541 9.08508C12.6485 8.97042 12.7218 8.84357 12.7739 8.7045C12.8382 8.54429 12.9326 8.42964 13.0025 8.35727C13.0936 8.29711 13.2238 8.31586 13.4019 8.44687C13.5165 8.54125 13.5311 8.66245 13.4367 8.7771C13.3301 8.9129 13.1902 9.05763 13.0291 9.19015C12.8892 9.33488 12.7736 9.43733 12.667 9.57312C12.4539 9.84471 12.2651 10.074 12.1129 10.2399C11.8542 10.5416 11.641 10.8132 11.4823 11.088C11.3025 11.3507 11.0917 11.7646 10.8499 12.3298C10.5162 13.152 10.2816 14.1442 10.1707 15.2641C10.0597 16.3841 10.1977 17.3659 10.5634 18.1972C10.7406 18.5251 10.9764 18.6048 11.2254 18.4666C11.4865 18.3073 11.7509 18.0935 12.0097 17.7918C12.1618 17.6259 12.3229 17.4934 12.4628 17.3487C13.025 16.9121 13.8572 16.3495 14.9718 15.6398C16.1074 14.9423 17.2422 14.4417 18.355 14.1256C19.4889 13.8218 20.3632 14.0165 20.9323 14.7397L20.9624 14.7853C21.0973 15.0887 21.1444 15.3978 21.1125 15.7459C21.0595 16.0818 21.1001 16.4999 21.2463 16.979C21.369 17.3036 21.356 17.5215 21.2193 17.6118C21.0826 17.702 20.8703 17.7768 20.5612 17.8238C20.4189 17.8262 20.2733 17.8831 20.1187 17.9067C19.2305 18.1268 18.5179 18.3356 17.9989 18.5998C17.4799 18.8639 16.8665 19.2428 16.1132 19.7663C15.8521 19.9257 15.6487 20.0338 15.5063 20.0362C15.4396 20.054 15.3607 20.093 15.294 20.1109C15.2363 20.1621 15.1997 20.2256 15.1508 20.3101C15.1476 20.3646 15.102 20.3947 15.0898 20.4159C15.0686 20.4037 15.0353 20.4126 15.0019 20.4215C14.9597 20.3971 14.9263 20.406 14.893 20.415C14.8263 20.4329 14.8018 20.4751 14.7563 20.5052C14.6985 20.5564 14.6708 20.6532 14.5976 20.7801C14.5577 20.898 14.4877 20.9704 14.3421 21.0273C14.2177 21.0964 14.0843 21.1321 13.9387 21.189C13.6629 21.2271 13.4717 21.3141 13.3107 21.4466C13.1707 21.5914 13.1755 21.876 13.3706 22.2706C13.8161 22.8661 14.6154 23.5813 15.7807 24.395C16.9459 25.2087 18.1356 25.9802 19.3709 26.7215C20.6395 27.4539 21.6365 27.9732 22.3797 28.3459C22.6034 28.4468 22.9116 28.5966 23.2832 28.783C23.8452 29.0792 24.4282 29.3877 25.0357 29.6538C25.6432 29.92 26.106 30.0462 26.4118 30.0536C28.4876 29.7298 30.8557 28.3625 33.495 25.9395C36.1131 23.5044 37.9912 20.642 39.0748 17.3491C40.1707 14.035 39.4486 10.94 36.8875 8.05179ZM21.7999 2.83663C21.9121 2.78868 21.9788 2.7708 22.0089 2.81636C22.039 2.86192 22.0357 2.91641 22.0202 2.99205C22.0048 3.06769 21.947 3.11891 21.9014 3.14899C21.8559 3.17907 21.7925 3.14245 21.7201 3.07247C21.69 3.02692 21.6933 2.97242 21.7177 2.93014C21.7421 2.88785 21.7755 2.87892 21.7999 2.83663ZM35.3292 28.1825C34.7149 28.7582 34.1861 29.1858 33.7516 29.4988C33.3294 29.7907 32.8616 30.1126 32.3849 30.4012C32.066 30.6118 31.6682 30.8613 31.2126 31.1621C30.836 31.4239 30.6627 31.5776 30.7562 31.6598C30.8286 31.7297 31.0376 31.7095 31.3711 31.6201C31.7046 31.5307 32.0414 31.3869 32.3936 31.1674C33.1315 30.7195 33.7481 30.2862 34.2314 29.8886C34.7358 29.5032 35.2712 28.9666 35.8553 28.3454C35.8887 28.3364 35.9009 28.3153 35.9587 28.2641C36.062 28.1828 36.1775 28.0803 36.3052 27.9567C36.433 27.8331 36.5062 27.7063 36.5673 27.6006C36.6283 27.4948 36.5893 27.4159 36.4591 27.3972C36.3502 27.3906 36.2379 27.4386 36.089 27.55C35.9401 27.6614 35.7913 27.7727 35.6424 27.8841C35.5147 28.0077 35.3991 28.1102 35.3292 28.1825ZM9.78834 15.4381C9.87291 15.4869 9.92741 15.4902 9.95182 15.4479C9.97624 15.4056 9.99171 15.33 9.97384 15.2633C9.94703 15.1632 9.92916 15.0965 9.88687 15.0721C9.83565 15.0143 9.79009 15.0444 9.75347 15.1079C9.71685 15.1713 9.69244 15.2136 9.71031 15.2803C9.74039 15.3258 9.75826 15.3925 9.78834 15.4381ZM10.7504 10.891C10.6039 11.1447 10.4631 11.4862 10.319 11.8823C10.1749 12.2783 10.0641 12.6655 9.96561 13.0314C9.87601 13.4308 9.8141 13.7333 9.77988 13.9391C9.74565 14.1448 9.77573 14.1904 9.84897 14.0635C9.86118 14.0424 9.92548 13.8822 10.063 13.5951C10.2006 13.3081 10.3292 12.9876 10.4733 12.5916C10.6385 12.2077 10.7582 11.854 10.8779 11.5002C11.0065 11.1798 11.0529 10.9529 11.0505 10.8105C11.0481 10.6682 10.9481 10.695 10.7504 10.891ZM38.9629 24.1348C39.0394 23.9535 39.1004 23.8478 39.0915 23.8144C39.0825 23.7811 39.0492 23.79 38.9792 23.8624C38.9003 23.9014 38.8181 23.9949 38.7238 24.1095C38.6416 24.203 38.5594 24.2966 38.4772 24.3901C38.395 24.4836 38.3584 24.547 38.3462 24.5681C38.3129 24.5771 38.2274 24.7251 38.072 24.9455C37.9044 25.187 37.6912 25.4586 37.4747 25.7846C37.2583 26.1107 37.0874 26.4067 36.9075 26.6694C36.7488 26.9442 36.6723 27.1256 36.678 27.2134C36.6837 27.3013 36.8203 27.211 37.0969 26.9761C37.398 26.6988 37.6844 26.3004 37.9863 25.8263C38.2671 25.34 38.5112 24.9171 38.7431 24.5154C38.7342 24.4821 38.7464 24.4609 38.7586 24.4398C38.783 24.3975 38.8075 24.3552 38.8441 24.2918C38.8896 24.2617 38.9263 24.1983 38.9629 24.1348ZM9.75249 10.5685C9.7623 10.4051 9.73549 10.305 9.68427 10.2472C9.64198 10.2228 9.55414 10.2285 9.48417 10.3009C9.40526 10.3399 9.35643 10.4245 9.32875 10.5212C9.31 10.6514 9.33681 10.7514 9.42705 10.8881C9.47827 10.9459 9.52055 10.9703 9.57832 10.919C9.62388 10.889 9.6605 10.8255 9.67598 10.7499C9.7126 10.6865 9.72807 10.6108 9.75249 10.5685ZM10.944 8.21184C10.9994 8.01828 11.027 7.9215 11.0059 7.90929C11.0059 7.90929 10.9148 7.96945 10.787 8.09304C10.4372 8.45487 10.3818 8.64843 10.6242 8.61922C10.6787 8.62249 10.7365 8.57127 10.8064 8.4989C10.8553 8.41433 10.9041 8.32976 10.944 8.21184ZM11.8554 6.87742C11.8155 6.99534 11.8122 7.04984 11.8211 7.08319C11.8301 7.11654 11.8634 7.1076 11.8878 7.06531C11.9212 7.05638 11.9578 6.99295 11.9822 6.95066C12.0188 6.88723 12.0343 6.8116 12.0376 6.7571C12.0409 6.70261 12.0319 6.66926 11.9896 6.64484C11.9563 6.65378 11.9563 6.65378 11.9441 6.67492C11.9319 6.69607 11.9075 6.73835 11.8953 6.7595C11.8831 6.78064 11.8708 6.80178 11.8586 6.82293C11.8464 6.84407 11.8554 6.87742 11.8554 6.87742ZM13.7884 5.28713C14.0829 5.11886 14.1895 4.98306 14.1505 4.90415C14.1448 4.81631 14.0147 4.79756 13.8268 4.83004C13.6177 4.8503 13.4144 4.95841 13.2199 5.09987C13.0133 5.26248 12.8579 5.48285 12.796 5.78539C12.7715 5.82768 12.7471 5.86996 12.7016 5.90004C12.6349 5.91792 12.5771 5.96914 12.5104 5.98701C12.4193 6.04717 12.3404 6.08619 12.2826 6.13741C12.246 6.20084 12.2639 6.26754 12.3362 6.33751C12.4086 6.40748 12.5086 6.38067 12.612 6.29937C12.7275 6.19693 12.8552 6.07334 12.9952 5.92861C13.1929 5.73265 13.3784 5.55784 13.5273 5.44646L13.7884 5.28713ZM15.932 4.01573C16.0532 4.00113 16.1776 3.93204 16.272 3.81738C16.3998 3.6938 16.5698 3.59462 16.8065 3.47758C17.6045 3.12077 18.0056 2.81671 18.0309 2.57759C18.0562 2.33847 17.7715 2.34326 17.2102 2.58302C16.8612 2.74802 16.5667 2.91629 16.2267 3.11464C16.0689 3.19267 15.9322 3.2829 15.7744 3.36094C15.7622 3.38208 15.7288 3.39102 15.7288 3.39102C15.5377 3.47798 15.3799 3.55601 15.231 3.66739C15.0943 3.75763 14.9666 3.88122 14.8689 4.05037C14.8567 4.07151 14.8234 4.08045 14.79 4.08938C14.7567 4.09832 14.7233 4.10725 14.69 4.11619C14.6233 4.13406 14.5688 4.13079 14.5021 4.14866C14.4354 4.16654 14.3776 4.21776 14.3621 4.2934C14.3133 4.37797 14.3068 4.48696 14.3303 4.6415C14.3416 4.81719 14.4262 4.86602 14.5718 4.80913C14.7085 4.71889 14.8785 4.61971 15.0851 4.45711C15.234 4.34573 15.3829 4.23435 15.5196 4.14411C15.6896 4.04494 15.8019 3.99698 15.932 4.01573ZM22.4161 1.13448C22.3616 1.13121 22.2526 1.12467 22.0647 1.15715C21.8679 1.15627 21.6467 1.19768 21.4043 1.22688C21.1619 1.25608 20.9407 1.29749 20.7528 1.32997C20.5437 1.35024 20.4103 1.38598 20.3558 1.38271C19.8556 1.51675 19.4098 1.65406 19.0063 1.81579C18.5817 1.96531 18.3117 2.0913 18.1416 2.19047C17.9716 2.28964 18.035 2.32627 18.3108 2.28813C18.5743 2.27113 19.1291 2.14036 19.9962 1.90802C20.0295 1.89908 20.1963 1.8544 20.4509 1.80405C20.7054 1.75371 20.9845 1.66108 21.3058 1.59286C21.6181 1.49129 21.8849 1.4198 22.1306 1.3361C22.3429 1.26134 22.4462 1.18004 22.4161 1.13448ZM24.3441 2.72683C24.5278 2.94568 24.7059 3.07669 24.845 3.12878C24.9962 3.15974 25.1174 3.14514 25.1663 3.06057C25.2362 2.9882 25.2428 2.87921 25.1525 2.74254C25.0834 2.61808 24.8931 2.50821 24.6061 2.37067C24.4125 2.3153 24.3035 2.30875 24.2669 2.37218C24.2392 2.46896 24.266 2.56901 24.3441 2.72683ZM26.6001 3.40914C26.6757 3.42462 26.7213 3.39454 26.7156 3.30669C26.7099 3.21885 26.662 3.10659 26.5929 2.98213C26.5149 2.82431 26.4336 2.72099 26.3311 2.60546C26.2498 2.50214 26.1775 2.43217 26.1018 2.41669C26.0595 2.39228 26.0229 2.45571 26.0464 2.61025C26.07 2.7648 26.1269 2.9104 26.2383 3.05928C26.3618 3.18702 26.4643 3.30255 26.6001 3.40914ZM27.6381 2.88079C27.6235 2.7596 27.5422 2.65628 27.4275 2.56189C27.3007 2.48865 27.1827 2.44876 27.0648 2.40887C26.9347 2.39012 26.868 2.40799 26.8314 2.47142C26.807 2.51371 26.8761 2.63817 27.0631 2.80253C27.1354 2.8725 27.2412 2.93353 27.3379 2.96122C27.4437 3.02225 27.5437 2.99545 27.6381 2.88079ZM28.8864 3.40418C28.6538 3.2699 28.4936 3.2056 28.418 3.19012C28.3424 3.17464 28.3179 3.21693 28.357 3.29583C28.396 3.37474 28.4683 3.44471 28.5496 3.54803C28.6643 3.64242 28.7578 3.7246 28.8513 3.80678C28.9237 3.87675 28.9993 3.89222 29.0327 3.88329C29.1116 3.84427 29.1604 3.7597 29.1124 3.64744C29.0856 3.54739 28.9921 3.46521 28.8864 3.40418ZM30.216 4.03088C30.1493 4.04876 30.116 4.05769 30.1371 4.0699C30.1461 4.10325 30.1672 4.11546 30.2306 4.15208C30.2729 4.17649 30.3364 4.21311 30.3908 4.21638C30.4543 4.25301 30.5088 4.25628 30.5633 4.25955C30.5966 4.25061 30.6178 4.26282 30.6088 4.22947C30.621 4.20832 30.5576 4.1717 30.4852 4.10173C30.4007 4.0529 30.3039 4.02522 30.216 4.03088ZM11.0686 38.0252C11.1598 37.9651 11.2476 37.9594 11.3867 38.0115C11.5168 38.0303 11.6225 38.0913 11.7282 38.1523C11.8006 38.2223 11.8518 38.2801 11.8274 38.3224C11.8119 38.398 11.7029 38.3914 11.4638 38.3662C11.376 38.3718 11.258 38.3319 11.1735 38.2831C11.0678 38.2221 11.041 38.122 11.0686 38.0252ZM35.9189 40.5887C36.2572 40.7841 36.6866 40.9192 37.2405 40.9853C38.7883 40.8922 40.1947 40.6048 41.4718 40.1017C42.2666 39.7994 42.7668 39.6653 42.9092 39.663C42.7829 40.1257 42.6534 40.643 42.5418 41.2269L42.5141 41.3237C42.3942 42.4103 42.6567 43.3229 43.3437 44.0861C44.1334 44.2319 45.1908 44.1095 46.4736 43.6942C46.9494 43.6025 47.4131 43.5319 47.8189 43.5125C48.3793 43.4696 49.1098 43.3275 50.0224 43.065C50.4015 42.9456 50.6716 42.8196 50.866 42.6782C50.4577 42.5552 50.0397 42.5957 49.6118 42.7998C49.2962 42.9558 48.9415 43.033 48.5601 43.0101C48.1575 42.975 47.7516 42.9944 47.3335 43.0349C46.9032 43.0966 46.5641 43.0981 46.3461 43.085C46.486 42.9403 47.2442 42.7014 48.5871 42.3773C50.3481 42.0127 51.3787 41.7901 51.6577 41.6975C51.9457 41.6382 52.4947 41.4196 53.3594 41.0449C54.0997 40.7393 54.5064 40.5231 54.5797 40.3963C54.6041 40.354 54.6163 40.3328 54.574 40.3084C54.4894 40.2596 54.3382 40.2286 54.1291 40.2489C53.9412 40.2814 53.7111 40.2894 53.463 40.2308C53.703 40.0593 54.1065 39.8975 54.6856 39.7245C55.3437 39.5124 55.9505 39.2426 56.4728 38.9239L56.4517 38.9117C56.2191 38.7774 55.701 38.8448 54.9184 39.1259C54.0668 39.2826 53.203 39.4605 52.3269 39.6595C50.3593 40.1867 48.3315 40.6228 46.2768 40.9589C45.9132 41.0027 45.653 40.9652 45.4838 40.8675C45.2635 40.7121 45.2798 40.4396 45.5207 40.0713L45.6517 39.8932C45.8518 39.8396 45.9885 39.7493 46.0706 39.6558C46.0951 39.6135 46.1317 39.5501 46.1472 39.4745C46.1838 39.411 46.2326 39.3265 46.2814 39.2419C46.4613 38.9792 46.7257 38.7654 47.0925 38.6671L47.2959 38.559C47.3415 38.5289 47.3447 38.4744 47.3358 38.4411C47.3155 38.2321 47.3253 38.0686 47.4197 37.9539C47.5662 37.7002 47.9185 37.4807 48.422 37.2922C48.6799 37.1873 48.9044 37.0914 49.0532 36.9801C49.2965 36.754 49.6032 36.5646 49.8855 36.4175C50.1889 36.2826 50.3833 36.1411 50.4688 35.9931C50.5754 35.8573 50.5429 35.6694 50.4015 35.475C50.3657 35.3416 50.3967 35.1903 50.4821 35.0423C50.5887 34.9065 50.7075 34.7496 50.8507 34.5503L50.7239 34.4771C50.6393 34.4283 50.5824 34.2827 50.5743 34.0525C50.607 33.5075 50.4331 33.1252 50.0525 32.9055C49.8622 32.7956 49.6443 32.7825 49.3685 32.8207C49.1139 32.871 47.997 33.4384 46.0422 34.4805C45.5566 34.7357 44.9587 35.0389 44.2485 35.39L43.8629 35.6185C42.1692 36.5012 40.6798 37.079 39.4279 37.343C38.3518 37.5956 37.6279 37.6287 37.2685 37.4212C37.0481 37.2658 37.0856 37.0055 37.3387 36.616C37.7138 36.015 38.6047 35.2044 40.0113 34.1841C40.9624 33.4646 41.8735 32.863 42.6992 32.4094C43.616 31.8957 44.1171 31.5648 44.1904 31.438C44.227 31.3745 44.2091 31.3078 44.1156 31.2256C44.031 31.1768 43.8708 31.1125 43.6895 31.036C43.7538 30.8758 43.8303 30.6944 43.9369 30.5586C43.9312 30.4708 43.8988 30.2829 43.8061 30.0039C43.5664 29.4426 43.3046 29.0659 43.0509 28.9195C42.8394 28.7974 42.5336 28.79 42.1456 28.8761C40.9742 29.4401 39.5343 30.4694 37.8379 31.9426C36.8381 32.7467 36.0074 33.6485 35.3913 34.6178C34.4645 36.0278 34.4232 37.8082 35.3099 39.9834C35.427 40.2201 35.6441 40.4301 35.9189 40.5887ZM37.8777 40.0282C37.7931 39.9793 37.763 39.9338 37.7996 39.8703C37.8574 39.8191 37.9029 39.789 37.9908 39.7834C38.2388 39.842 38.6569 39.8015 39.2328 39.6829C39.851 39.5888 40.1812 39.5539 40.2446 39.5905C40.208 39.654 39.7745 39.7701 38.9529 39.9724C38.3347 40.0665 37.9834 40.0892 37.8777 40.0282ZM40.666 39.4955L40.6448 39.4833L40.6725 39.3865C40.6969 39.3442 40.797 39.3174 40.9515 39.2939L40.9637 39.2727L40.9849 39.2849C41.2428 39.1801 41.3973 39.1566 41.4396 39.181C41.4274 39.2021 41.3818 39.2322 41.3363 39.2623C41.2574 39.3013 41.1907 39.3192 41.1117 39.3582C41.0117 39.385 40.8661 39.4419 40.666 39.4955ZM51.5941 49.8643C51.6575 49.901 51.8478 50.0108 52.1772 50.1728C52.5065 50.3347 53.2149 50.3773 54.3113 50.3337C54.8051 50.3086 55.5534 50.2332 56.5351 50.0953C57.1199 50.0101 57.5746 49.9061 57.9204 49.7956C58.2449 49.6729 58.4784 49.6103 58.6329 49.5868C58.7753 49.5844 58.9631 49.5519 59.1844 49.5105C59.3145 49.5293 59.7147 49.422 60.4395 49.1921C60.6852 49.1084 60.8308 49.0515 60.8674 48.9881C60.8373 48.9425 60.695 48.9449 60.4737 48.9863C58.0254 49.3206 55.6447 49.4403 53.2982 49.3541C53.2771 49.3419 53.2437 49.3508 53.1892 49.3476C53.1347 49.3443 53.0591 49.3288 52.9835 49.3133C52.929 49.3101 52.8533 49.2946 52.8233 49.249C52.781 49.2246 52.772 49.1913 52.8087 49.1278C52.9486 48.9831 53.2276 48.8905 53.7213 48.8654C54.7332 48.773 55.4204 48.8033 55.8043 48.9686C56.0312 49.015 56.2947 48.998 56.6071 48.8964C56.7738 48.8517 56.9072 48.816 57.0374 48.8348C59.7727 48.638 62.5277 48.1143 65.3568 47.2668C66.4606 46.9175 67.0553 46.6688 67.1407 46.5208C67.0984 46.4963 66.5348 46.5938 65.483 46.8041L64.6859 46.9641C64.8559 46.8649 65.963 46.461 67.995 45.7736C68.7531 45.5347 69.1688 45.3518 69.2176 45.2672C69.2298 45.2461 69.2298 45.2461 69.2087 45.2339C69.1241 45.1851 68.427 45.3182 67.093 45.6757C64.534 46.3971 61.8913 46.8729 59.1526 47.1241C57.7138 47.2237 56.336 47.2176 55.0135 47.0179C54.2872 46.9087 53.6765 46.697 53.2235 46.4073C52.8763 46.1786 52.6413 45.902 52.4763 45.553L52.4072 45.4286C52.2991 45.2252 52.2967 45.0829 52.3456 44.9983C52.37 44.956 52.4277 44.9048 52.4977 44.8324C52.5888 44.7723 52.671 44.6788 52.7442 44.5519C52.8175 44.425 52.8818 44.2648 52.9217 44.1469C52.9949 44.02 53.0348 43.9021 53.0959 43.7964C53.2057 43.6061 53.3513 43.5492 53.4871 43.6558L53.5806 43.738C53.6018 43.7502 53.6351 43.7413 53.6473 43.7201C53.6473 43.7201 53.6717 43.6778 53.675 43.6234C53.6783 43.5689 53.7027 43.5266 53.706 43.4721C53.7092 43.4176 53.7337 43.3753 53.7581 43.333C54.0632 42.8044 54.3577 42.6362 54.6415 42.8282L54.9554 43.0658C55.4596 43.4133 56.3005 43.6169 57.4327 43.7067C57.6506 43.7198 58.0354 43.6882 58.5746 43.6331C59.7077 43.5261 60.3649 43.5108 60.5129 43.5963L60.5007 43.6174C60.3664 43.85 59.7449 43.9986 58.6241 44.0845C57.788 44.1655 57.0974 44.1897 56.4858 44.1749C56.3256 44.1106 56.0987 44.0642 55.8384 44.0267C55.8384 44.0267 55.7839 44.0234 55.7294 44.0201C55.6871 43.9957 55.6115 43.9802 55.5025 43.9737C55.4057 43.946 55.339 43.9639 55.3146 44.0062C55.3024 44.0273 55.3203 44.094 55.3926 44.164C55.5252 44.3251 55.6032 44.4829 55.5633 44.6008C55.5568 44.7098 55.5836 44.8098 55.7104 44.8831C55.7739 44.9197 55.8796 44.9807 56.0186 45.0328C57.0165 45.3552 58.4521 45.3101 60.2497 44.8821C61.2258 44.6563 61.8758 44.214 62.2543 43.5586C62.3153 43.4529 62.3186 43.3984 62.2551 43.3618C62.2128 43.3373 62.0583 43.3609 61.7704 43.4202C61.4246 43.5307 61.2156 43.5509 61.1644 43.4932L61.092 43.4232C61.1986 43.2874 61.3931 43.1459 61.6631 43.02C62.0121 42.855 62.2187 42.6924 62.3042 42.5444C62.3774 42.4175 62.384 42.3085 62.3059 42.1507C62.2035 42.0352 62.2133 41.8717 62.3354 41.6603C62.403 41.4456 62.525 41.2341 62.6593 41.0015C62.7147 40.808 62.6977 40.5445 62.5538 40.2077C62.323 39.6797 61.9433 39.2632 61.4814 38.9401C60.5877 38.3396 59.6232 38.0083 58.5756 37.9673C56.7976 38.0684 55.0813 38.5997 53.4266 39.5614C52.3154 40.2166 51.3456 41.0662 50.4928 42.1526C50.3163 42.3608 50.1942 42.5722 50.0721 42.7836C49.9379 43.0162 49.8247 43.261 49.7083 43.5603C49.5797 43.8807 49.5535 44.3166 49.5843 44.8982C49.6126 45.3374 49.6141 45.6766 49.5733 45.9913C49.5448 46.2849 49.5707 46.5818 49.5966 46.8787C49.6437 47.1878 49.8087 47.5368 50.0672 47.9679C50.6021 48.8969 51.1111 49.5291 51.5941 49.8643ZM56.2515 41.6998C56.1157 41.5932 56.0556 41.5021 56.1166 41.3964C56.1532 41.3329 56.2565 41.2516 56.4021 41.1947C56.7967 40.9997 57.2969 40.8656 57.9029 40.7926C58.7513 40.6904 59.4019 40.7842 59.8215 41.0828C60.0541 41.2171 60.1199 41.396 60.0222 41.5652C59.8391 41.8823 59.3568 42.0831 58.5328 42.143C57.5243 42.1809 56.7557 42.0473 56.2515 41.6998ZM54.0231 43.6552C54.2858 43.835 54.5094 43.9359 54.694 43.958C54.8787 43.98 54.9787 43.9532 55.0031 43.9109C55.052 43.8263 54.9796 43.7563 54.8438 43.6498C54.7381 43.5887 54.5901 43.5033 54.3876 43.4145C54.2908 43.3869 54.1907 43.4137 54.0818 43.4071C53.9606 43.4217 53.9028 43.473 53.8784 43.5152C53.8662 43.5364 53.8963 43.5819 54.0231 43.6552ZM60.9317 56.2985C61.8897 56.7388 62.9787 57.0011 64.2109 57.0641C64.9315 57.0855 65.3585 57.0783 65.5042 57.0214C65.5953 56.9612 65.7165 56.9466 65.8466 56.9654C65.9979 56.9963 66.2614 56.9793 66.6494 56.8933C66.6494 56.8933 66.6616 56.8721 66.6827 56.8843C67.1374 56.7804 67.4042 56.7089 67.5043 56.6821C67.85 56.5716 68.221 56.2219 68.6262 55.6665L68.9436 55.1168C69.4905 54.023 69.486 53.0055 68.9422 52.0432C68.4552 51.2264 67.9284 50.5276 67.3739 49.9255C67.3527 49.9133 67.3316 49.9011 67.3227 49.8677C67.3227 49.8677 67.169 49.6945 66.8917 49.3934C66.3884 48.8491 66.1901 48.5091 66.2967 48.3733C66.3211 48.331 66.3878 48.3131 66.4756 48.3075C66.5513 48.3229 66.6302 48.2839 66.6912 48.1782C68.4882 47.2142 70.1483 47.0732 71.7138 47.7797C72.2001 48.0604 72.5953 48.4013 72.8782 48.7902C73.0587 49.0636 73.2335 49.2491 73.4148 49.3256C73.6173 49.4143 73.8085 49.3273 74.0217 49.0557C74.6434 48.1743 74.9503 47.252 74.9669 46.2467C74.9793 45.4928 74.646 44.8493 73.9671 44.3163L73.9036 44.2797C72.6797 43.714 71.2784 43.5534 69.6784 43.7855C68.0907 43.9964 66.6233 44.3896 65.2762 44.965C64.9418 45.2512 64.7197 45.4895 64.5643 45.7098C64.1591 46.2652 63.8197 46.9996 63.5672 47.9251C63.4809 48.2699 63.4223 48.518 63.4214 48.7148C63.4083 48.9328 63.5644 49.2484 63.8863 49.7162C64.5236 50.7607 65.0749 51.4173 65.4945 51.7159C65.6124 51.7558 65.7449 51.9169 65.8709 52.187C65.9424 52.4538 66.0627 52.636 66.2196 52.7548C66.3676 52.8402 66.4546 53.0314 66.4627 53.2616C66.4561 53.3706 66.4407 53.4462 66.404 53.5096C66.3096 53.6243 66.0518 53.7291 65.6004 53.7786C64.6731 53.9198 63.6678 53.9032 62.5845 53.7288C61.9639 53.6806 61.3076 53.4991 60.6155 53.1841C59.9235 52.8691 59.3836 52.3882 59.047 51.7992L58.7927 51.1168C58.7504 51.0923 58.7203 51.0468 58.7114 51.0134C58.6577 50.8133 58.5764 50.71 58.5341 50.6856C58.4919 50.6612 58.4007 50.7213 58.3153 50.8694C57.8848 51.6639 57.8301 52.3934 58.1511 53.058C58.6404 54.0171 59.3852 54.729 60.4067 55.206C61.4403 55.6618 62.6838 55.9005 64.1796 55.9465C65.1816 56.0176 65.7265 56.0503 65.8111 56.0992C65.8534 56.1236 65.8623 56.1569 65.8501 56.1781C65.7679 56.2716 65.5678 56.3252 65.2376 56.3601C64.5438 56.4387 64.0956 56.4337 63.9265 56.336C63.6874 56.3108 63.545 56.3132 63.445 56.34C63.1814 56.357 62.5975 56.2453 61.6809 56.0263C61.2393 55.9122 60.949 55.8292 60.8221 55.7559L60.3716 55.6086C59.8454 55.4457 59.564 55.396 59.5518 55.4172C59.5151 55.4806 59.7444 55.6694 60.2641 55.9412C60.4755 56.0633 60.7081 56.1976 60.9317 56.2985ZM73.1618 46.9806C72.7276 46.5608 72.426 46.302 72.2023 46.2011C71.9998 46.1124 71.5582 45.9984 70.8986 45.8713L70.4147 45.7329C70.5969 45.6125 71.0451 45.6176 71.7291 45.7024C71.9894 45.7399 72.2041 45.8074 72.4277 45.9084C72.6936 46.0337 72.9351 46.2013 73.1522 46.4113C73.3693 46.6212 73.4352 46.8001 73.3863 46.8847C73.3286 46.9359 73.2619 46.9538 73.1618 46.9806ZM70.2344 67.8714C70.4247 67.9812 70.6304 68.0155 70.885 67.9651C70.5496 66.4465 70.5549 65.2655 70.8585 64.3978C70.9677 63.6715 71.155 63.103 71.3658 62.6891C71.5766 62.2751 71.7353 62.0003 71.8207 61.8523C72.2235 61.1546 72.8363 60.2397 73.6378 59.0956L73.7111 58.9687C73.7533 58.9932 73.8078 58.9964 73.8745 58.9786C73.9412 58.9607 73.999 58.9095 74.0478 58.8249C74.0755 58.7281 74.0731 58.5858 74.0284 58.419C73.9894 58.3401 73.9715 58.2734 73.996 58.2311C74.0082 58.21 74.0415 58.2011 74.0537 58.1799C74.1383 58.2287 74.2351 58.2564 74.3441 58.263C74.5954 58.2671 74.942 57.9598 75.3838 57.341C75.4538 57.2686 75.5148 57.1629 75.6003 57.0149C75.6158 56.9392 75.6068 56.9059 75.5857 56.8937C75.2677 56.9074 75.1253 56.9098 75.1042 56.8976C75.083 56.8854 75.1074 56.8431 75.1441 56.7797C75.2051 56.674 75.3418 56.5837 75.5541 56.509C75.6663 56.461 75.7664 56.4342 75.842 56.4497C76.0266 56.4717 76.1145 56.466 76.1478 56.4571C76.16 56.4359 76.3 56.2912 76.5799 56.0018C76.8077 55.8514 76.9687 55.7188 77.0965 55.5952C77.2242 55.4717 77.3275 55.3904 77.3853 55.3391C77.4431 55.2879 77.5041 55.1822 77.5651 55.0765C77.5562 55.0431 77.5261 54.9976 77.4871 54.9187C77.4359 54.8609 77.4546 54.7308 77.5645 54.5405C77.6622 54.3713 77.7533 54.3112 77.8378 54.36C77.9013 54.3966 77.9525 54.4544 77.9915 54.5333C78.0305 54.6122 78.0606 54.6578 78.0817 54.67C78.0907 54.7033 78.0907 54.7033 78.1118 54.7155C78.1997 54.7099 78.2908 54.6497 78.364 54.5228C78.3884 54.4806 78.3917 54.4261 78.3828 54.3927C78.4682 54.2447 78.5382 54.1723 78.5805 54.1968L78.9789 54.4832L79.0456 54.4653C79.0188 54.3653 78.9197 54.1952 78.766 54.0219C78.6123 53.8487 78.5432 53.7242 78.5709 53.6274C78.6319 53.5217 78.7141 53.4282 78.7963 53.3347C78.8785 53.2412 78.9484 53.1688 79.0274 53.1298C79.0851 53.0786 79.1396 53.0818 79.1608 53.094C79.203 53.1185 79.1876 53.1941 79.1355 53.3332C79.0467 53.5356 79.0491 53.678 79.1126 53.7146C79.4273 53.7554 79.6885 53.596 79.8838 53.2578C80.018 53.0252 80.0311 52.8072 79.9141 52.5705L79.9263 52.5493L79.9474 52.5615C80.3492 52.7935 80.7217 52.783 81.0772 52.509C81.3172 52.3375 81.5393 52.0993 81.7614 51.861C82.0625 51.5838 82.3269 51.3699 82.5424 51.2407C82.6002 51.1895 82.658 51.1382 82.719 51.0325C82.7556 50.9691 82.7711 50.8935 82.7866 50.8178C82.7809 50.73 83.1487 50.4348 83.9353 49.9024L83.9475 49.8812C83.9842 49.8178 84.0509 49.7999 84.1721 49.7853C84.4657 49.8139 84.6536 49.7814 84.7024 49.6968L84.6845 49.6301C84.6967 49.609 84.7423 49.5789 84.8423 49.5521C85.088 49.4684 85.2458 49.3904 85.2946 49.3058L85.2988 49.0545L85.3598 48.9487C86.3544 49.3256 86.9196 49.5674 87.0676 49.6528C87.5572 49.8791 87.8809 49.9532 88.072 49.8663C88.2421 49.7671 88.3633 49.7525 88.4267 49.7891L88.4413 49.9103C88.4315 50.0738 88.4672 50.2072 88.603 50.3138C88.7933 50.4236 88.9747 50.5002 89.1804 50.5344C90.136 50.8324 91.3599 51.398 92.8611 52.2647C93.2506 52.5178 93.6946 52.7742 94.1386 53.0305C94.9778 53.6278 95.5421 54.0664 95.8316 54.3462C96.0877 54.6351 96.395 54.9817 96.7113 55.3616C96.9674 55.6504 97.1211 55.8237 97.2268 55.8847C97.3114 55.9336 97.3903 55.8946 97.4757 55.7465C97.5523 55.5652 97.5165 55.4318 97.4141 55.3163L97.2669 55.034C97.2914 54.9917 97.3369 54.9616 97.4125 54.9771C97.4882 54.9926 97.5337 54.9625 97.5704 54.8991C97.5349 54.0328 97.3195 53.4293 96.9121 53.1095C96.6405 52.8963 96.5292 52.7474 96.5568 52.6506C96.569 52.6295 96.6024 52.6206 96.6569 52.6238C96.7114 52.6271 96.7748 52.6637 96.8927 52.7036C96.9895 52.7313 97.0741 52.7801 97.1375 52.8168C97.2009 52.8534 97.2432 52.8778 97.2977 52.8811C97.0166 52.0985 95.7855 51.1058 93.5955 49.8697C91.4055 48.6335 89.6319 47.7504 88.2535 47.2083C88.4935 47.0368 88.8913 46.7872 89.4591 46.4384C90.1636 45.9995 90.7648 45.6418 91.2716 45.3987C91.7995 45.1679 92.1306 44.9362 92.2893 44.6614C92.3625 44.5345 92.3301 44.3466 92.2008 44.131C92.0025 43.791 91.9765 43.4941 92.0807 43.216L92.3216 42.8476C92.3794 42.7964 92.4282 42.7118 92.4892 42.6061C92.6268 42.319 92.5586 41.9977 92.3301 41.6121C92.0871 41.1053 91.8131 40.7498 91.496 40.5667C91.0308 40.2981 90.5094 40.42 89.9106 40.92C89.5673 41.1728 89.2362 41.4045 88.8962 41.6029L85.7885 43.8118C84.9586 44.5167 84.3509 44.9833 83.9775 45.1906C83.6383 45.1921 82.1875 44.58 79.6072 43.2876C77.749 42.3557 76.6641 41.8422 76.3648 41.7258C75.6728 41.4108 75.2377 41.1878 75.0474 41.0779L74.8059 40.9103L74.5188 40.7727C74.4855 40.7817 74.4432 40.7573 74.4009 40.7328C74.0415 40.5253 73.8146 40.4789 73.7413 40.6057L73.7291 40.6269C73.5785 41.1319 74.0062 41.6607 74.9999 42.2345C75.613 42.5885 76.0538 42.8993 76.292 43.1214C76.3644 43.1914 76.4156 43.2492 76.479 43.2858C76.9856 43.7756 77.2328 44.0311 77.2084 44.0734C76.8847 43.9992 76.7 43.9772 76.6634 44.0406C76.6658 44.183 76.756 44.3197 76.8918 44.4262L77.9913 45.061L78.0214 45.1066C78.0002 45.0944 77.9457 45.0911 77.8156 45.0723C77.6855 45.0536 77.5976 45.0593 77.5732 45.1015C77.561 45.1227 77.5577 45.1772 77.5878 45.2227C77.6894 45.5351 78.0846 45.876 78.7611 46.2666L81.4392 47.3899C81.2903 47.5013 81.1625 47.6249 81.0559 47.7607L77.953 50.2542C75.6156 52.2031 73.5775 54.2684 71.8298 56.4167C71.3391 57.1201 70.9062 57.7722 70.5522 58.3854C69.8808 59.5483 69.4339 60.6152 69.2116 61.5863C68.4691 63.7512 68.5759 65.6171 69.5229 67.1505C69.7969 67.506 70.0441 67.7615 70.2344 67.8714ZM72.6212 58.9033C72.6 58.8911 72.6277 58.7943 72.692 58.6341C72.7287 58.5707 72.7742 58.5406 72.7954 58.5528C72.8254 58.5984 72.7977 58.6952 72.7367 58.8009C72.6879 58.8855 72.6635 58.9277 72.6212 58.9033ZM73.2852 58.0463L73.3828 57.8771C73.5903 57.5177 73.7547 57.3307 73.906 57.3616C73.9271 57.3738 73.9149 57.395 73.8905 57.4373L73.5585 57.8658C73.3974 57.9983 73.3063 58.0585 73.2852 58.0463ZM74.7522 56.3843C74.7522 56.3843 74.7432 56.3509 74.7676 56.3086C75.0207 55.9191 75.2461 55.6264 75.4772 55.4215C75.7082 55.2166 75.8449 55.1264 75.9083 55.163L75.9173 55.1963C75.8684 55.2809 75.7163 55.4468 75.4819 55.7062C75.4486 55.7151 75.4152 55.724 75.3786 55.7875C75.342 55.8509 75.2842 55.9021 75.2021 55.9956C75.0987 56.0769 75.0288 56.1493 74.9588 56.2216C74.8766 56.3152 74.8189 56.3664 74.7855 56.3753L74.7522 56.3843ZM79.4117 51.8294C79.3905 51.8172 79.4027 51.796 79.4149 51.7749C79.4638 51.6903 79.5671 51.609 79.7338 51.5643C79.8005 51.5464 79.855 51.5497 79.8762 51.5619C79.8851 51.5953 79.8729 51.6164 79.8607 51.6376C79.8241 51.701 79.7663 51.7522 79.6541 51.8002C79.5418 51.8481 79.4751 51.866 79.4117 51.8294ZM80.5852 52.1404C80.5007 52.0916 80.4494 52.0338 80.4861 51.9704C80.5682 51.8769 80.6349 51.859 80.6984 51.8957C80.7829 51.9445 80.813 51.99 80.7642 52.0746C80.7398 52.1169 80.6942 52.147 80.5852 52.1404ZM89.8873 50.2377C89.7816 50.1767 89.667 50.0823 89.5344 49.9212C89.5955 49.8155 89.9492 49.9352 90.5624 50.2892C90.8161 50.4357 90.9185 50.5512 90.8819 50.6146C90.8331 50.6992 90.5127 50.5706 89.8873 50.2377ZM91.8813 51.2762L91.7756 51.2152C91.7122 51.1786 91.661 51.1208 91.6309 51.0752C91.6553 51.0329 91.7098 51.0362 91.7944 51.085C91.8789 51.1339 91.9302 51.1916 91.9903 51.2828L91.8813 51.2762ZM95.9334 53.9258C95.8911 53.9014 95.87 53.8892 95.8944 53.8469C95.9188 53.8046 95.9521 53.7956 96.0188 53.7778C96.0733 53.781 96.1156 53.8055 96.1156 53.8055C96.2002 53.8543 96.2514 53.9121 96.2148 53.9755C96.1782 54.0389 96.0814 54.0112 95.9334 53.9258ZM95.1008 53.2195C94.6145 52.9388 93.8265 52.3993 92.7458 51.6344C93.2809 51.8305 93.7371 52.0658 94.1811 52.3221C95.196 52.908 95.6668 53.2644 95.6147 53.4035C95.5903 53.4458 95.4301 53.3815 95.1008 53.2195ZM88.5868 55.3224C89.0731 55.6031 89.8002 55.5155 90.7471 55.0474C91.0505 54.9124 91.3418 54.7987 91.5874 54.715C91.9421 54.6378 92.1698 54.4874 92.2797 54.2971C92.3196 54.1792 92.3595 54.0613 92.3815 53.8767C92.4035 53.692 92.4434 53.5741 92.48 53.5107C92.5077 53.4139 92.5533 53.3838 92.5744 53.396C92.5744 53.396 92.6078 53.3871 92.6289 53.3993C92.6501 53.4115 92.6834 53.4026 92.6834 53.4026C92.7046 53.4148 92.6956 53.3814 92.7078 53.3603C92.7763 52.9487 92.5723 52.5209 92.1291 52.0677C91.7494 51.6511 91.3843 51.3558 91.0249 51.1482C90.5288 51.031 89.9863 51.1406 89.3973 51.4771C88.8083 51.8137 88.4284 52.1299 88.2119 52.456C88.0288 52.7732 87.8978 52.9512 87.8823 53.0269C87.6471 53.4831 87.6088 53.9402 87.7794 54.377C88.0257 54.8293 88.2908 55.1515 88.5868 55.3224ZM77.39 61.0928C77.2753 60.9984 77.264 60.8227 77.3738 60.6324C77.5049 60.4543 77.6293 60.3852 77.7562 60.4585C77.883 60.5317 77.8976 60.6529 77.8 60.8221C77.6746 61.088 77.538 61.1782 77.39 61.0928ZM77.3033 64.9049C77.6839 65.1246 78.1312 65.3265 78.7119 65.4926L78.99 65.5968C79.2926 65.6587 79.465 65.7019 79.5195 65.7051C79.574 65.7084 79.6407 65.6905 79.6862 65.6605C79.7651 65.6215 79.8652 65.5946 80.0319 65.55C80.5899 65.3647 81.4172 65.2503 82.4924 65.1945C83.1285 65.1671 83.6043 65.0753 83.9199 64.9192C84.3356 64.7364 84.5634 64.586 84.6367 64.4591C84.6489 64.438 84.6399 64.4046 84.6188 64.3924C84.5342 64.3436 84.2373 64.3695 83.7403 64.4491C82.5463 64.6618 81.4165 64.7143 80.3722 64.6188C78.8708 64.4849 78.0144 64.3569 77.7818 64.2227C77.7607 64.2105 77.7607 64.2105 77.7729 64.1893C77.8095 64.1259 78.3154 64.0797 79.2451 64.0808C81.8283 64.0499 84.1033 63.8693 86.0522 63.4722C88.3933 62.7376 90.3838 61.8289 91.9995 60.7884C92.3729 60.5811 92.5673 60.4396 92.6405 60.3128C92.6772 60.2493 92.6715 60.1615 92.6203 60.1037C92.5813 60.0248 92.5634 59.9581 92.5455 59.8914L92.91 59.6508C93.4322 59.3321 93.7178 59.1305 93.7544 59.0671C93.7666 59.0459 93.7666 59.0459 93.7455 59.0337C93.7243 59.0215 93.6031 59.0361 93.4152 59.0686C90.1053 60.4559 87.6487 61.2929 86.0333 61.6006C84.4089 61.875 82.8644 61.9136 81.3784 61.7041L81.2727 61.643C81.1036 61.5454 81.0678 61.412 81.1443 61.2306C81.3641 60.85 82.2029 60.1785 83.703 59.2404C84.3863 58.7892 84.9452 58.4071 85.3585 58.0819C85.7018 57.829 86.0419 57.6307 86.3876 57.5202C86.9456 57.3349 87.2889 57.0821 87.4265 56.795C87.5852 56.5201 87.5357 56.0687 87.3025 55.3984C87.0172 54.8672 86.6887 54.5084 86.3292 54.3009C85.6527 53.9103 84.8466 54.0369 83.911 54.6808C83.7744 54.771 83.6165 54.849 83.4376 54.9149C83.2464 55.0018 83.1097 55.0921 82.9853 55.1612C80.9718 56.4513 79.1722 58.0059 77.5775 59.7915C77.0844 60.3525 76.7125 60.899 76.4529 61.3975C75.6586 62.9686 75.9502 64.1237 77.3033 64.9049ZM78.1939 60.091C78.1304 60.0544 78.1337 59.9999 78.1281 59.912C78.1435 59.8364 78.159 59.7607 78.1956 59.6973L78.2445 59.6127C78.3755 59.4347 78.5032 59.3111 78.6854 59.1908C78.8343 59.0794 78.9832 58.968 79.0987 58.8656C79.1931 58.7509 79.3542 58.6184 79.5942 58.4468C79.8252 58.2419 80.0652 58.0704 80.3386 57.8899C80.5786 57.7184 80.773 57.5769 80.9186 57.52C81.0764 57.442 81.222 57.3851 81.3343 57.3372C81.4677 57.3014 81.5743 57.1656 81.6964 56.9542L81.7729 56.7728C81.8616 56.5703 81.9348 56.4435 81.9926 56.3923C82.0292 56.3288 82.257 56.1784 82.6727 55.9956C83.0217 55.8306 83.2495 55.6802 83.3438 55.5655C83.557 55.2939 83.7303 55.1403 83.8759 55.0834C83.9882 55.0354 84.0882 55.0086 84.1761 55.003C84.2973 54.9883 84.4217 54.9193 84.5918 54.8201C84.8317 54.6485 85.1286 54.6226 85.4946 54.7211L85.5914 54.7488C85.7182 54.8221 85.7451 54.9221 85.684 55.0278C85.6563 55.1246 85.5107 55.1815 85.2683 55.2107C85.0048 55.2277 84.8291 55.239 84.6868 55.2414C84.5444 55.2438 84.4322 55.2918 84.3834 55.3763C84.3467 55.4398 84.1645 55.5601 83.8822 55.7072L83.4511 55.9657L83.1086 56.0217C82.8752 56.0843 82.7141 56.2168 82.6286 56.3648C82.592 56.4282 82.5432 56.5128 82.4521 56.573C82.3699 56.6665 82.2877 56.76 82.1811 56.8958C82.0745 57.0316 81.959 57.134 81.8435 57.2365C81.7312 57.2844 81.6401 57.3446 81.5913 57.4292C81.5636 57.5259 81.4814 57.6194 81.3659 57.7219L80.8916 58.1528C80.7427 58.2642 80.5727 58.3634 80.3904 58.4837C80.017 58.691 79.8015 58.8202 79.7437 58.8715C79.6737 58.9438 79.4948 59.0096 79.1946 59.0901C79.0734 59.1047 78.9701 59.186 78.9058 59.3462L78.4306 59.9739C78.3151 60.0764 78.2362 60.1154 78.1939 60.091ZM89.0585 52.7475C89.0284 52.7019 89.0195 52.6686 89.0561 52.6051C89.1172 52.4994 89.3816 52.2856 89.8705 51.9759C90.2772 51.7596 90.5229 51.6759 90.5863 51.7126C90.6286 51.737 90.6376 51.7703 90.6009 51.8338C90.5399 51.9395 90.321 52.1232 89.9899 52.3549C89.4254 52.6492 89.122 52.7841 89.0585 52.7475ZM92.5372 70.5992C92.6006 70.6358 92.6673 70.6179 92.7162 70.5334C92.765 70.4488 92.7471 70.3821 92.6837 70.3455C92.5991 70.2966 92.5324 70.3145 92.4714 70.4202C92.4225 70.5048 92.4526 70.5504 92.5372 70.5992ZM86.8941 70.9496C87.0966 71.0383 87.4292 71.1457 87.9164 71.2297C88.3824 71.3014 88.8395 71.3398 89.2665 71.3326C89.7057 71.3043 89.9847 71.2116 90.0946 71.0213C90.1678 70.8945 90.3256 70.8165 90.6014 70.7783C90.856 70.728 90.9983 70.7256 91.0617 70.7622C91.0829 70.7744 91.0829 70.7744 91.0707 70.7955C91.0463 70.8378 90.9673 70.8768 90.8095 70.9549C90.5639 71.0386 90.4394 71.1077 90.4272 71.1288C90.415 71.15 90.415 71.15 90.4361 71.1622C90.4996 71.1988 90.742 71.1696 91.1666 71.0201C91.4911 70.8973 91.6612 70.7982 91.6978 70.7347C91.71 70.7136 91.71 70.7136 91.6888 70.7014L91.5075 70.6249C91.4441 70.5883 91.4351 70.5549 91.4595 70.5126C91.5206 70.4069 91.7996 70.3143 92.321 70.1924C92.9091 70.0527 93.4248 69.8431 93.8438 69.6057C94.2538 69.335 94.5116 69.2301 94.5873 69.2456C94.6507 69.2822 94.7296 69.2432 94.8029 69.1164C94.8761 68.9895 94.955 68.9505 95.0518 68.9782C95.1364 69.027 95.2942 68.949 95.5252 68.7441C95.6774 68.5782 95.7807 68.4969 95.8441 68.5335C95.8864 68.5579 95.9132 68.658 95.8823 68.8093C95.9514 68.9337 96.0872 69.0403 96.3197 69.1746C96.7215 69.4065 97.3623 69.6638 98.2333 69.9129C98.7384 70.0635 99.1165 70.1409 99.3557 70.1662C100.176 70.1608 100.97 70.0553 101.771 69.8408L101.946 69.8295L100.566 69.681C99.6665 69.7255 98.7922 69.5308 97.9611 69.1637C97.6261 68.9139 97.4813 68.774 97.5057 68.7317C97.5424 68.6683 97.727 68.6903 98.093 68.7888C98.4256 68.8963 98.6102 68.9183 98.6314 68.9305C99.2665 69.0999 99.9294 69.1725 100.641 69.1605C102.043 69.1244 102.776 69.1246 102.822 69.0945C102.855 69.0856 102.943 69.0799 103.085 69.0775C103.821 69.0233 104.218 68.9705 104.243 68.9282C104.179 68.8916 103.864 68.8509 103.341 68.8304C102.478 68.8114 101.945 68.7575 101.797 68.6721C102.457 68.6023 103.039 68.5716 103.508 68.5888C103.999 68.6183 104.383 68.5867 104.662 68.4941C104.908 68.4104 105.12 68.3356 105.254 68.2999C105.609 68.2227 105.945 68.0788 106.31 67.8382C105.648 67.5688 105.178 67.5515 104.917 67.7109C103.585 67.6747 102.568 67.6792 101.868 67.67C101.169 67.6609 100.43 67.5728 99.5981 67.4025C99.4981 67.4293 99.2834 67.3618 98.9662 67.1787C98.7336 67.0444 98.6556 66.8866 98.7777 66.6751C98.9575 66.4125 99.0918 66.1799 99.2228 66.0018C99.3538 65.8237 99.4759 65.6123 99.5979 65.4009C99.8209 64.9658 99.9406 64.612 99.9936 64.2761C99.9668 64.1761 100.019 64.037 100.117 63.8679C100.355 63.3572 100.372 62.8879 100.144 62.5023C100.032 62.3534 99.9064 62.0833 99.7537 61.7132C99.4895 61.1942 99.2578 60.8631 99.0252 60.7288C98.9406 60.68 98.7894 60.649 98.5925 60.6482C98.4168 60.6595 98.2656 60.6285 98.1599 60.5675C98.0118 60.482 97.8671 60.3421 97.6834 60.1233C97.3972 59.7889 97.1044 59.5635 96.8296 59.4048C96.0261 58.9409 94.9818 58.8454 93.73 59.1094C92.6717 59.4287 91.4027 60.1619 89.8561 61.3269C87.9662 62.7448 86.6401 64.0653 85.8686 65.255C85.0874 66.6081 84.9934 67.9916 85.5655 69.3932C85.9256 70.1367 86.3443 70.6322 86.8518 70.9251L86.8941 70.9496ZM87.6222 67.9306L87.601 67.9184C87.453 67.833 87.4539 67.6361 87.637 67.319C87.698 67.2133 87.7802 67.1198 87.8502 67.0474C87.9202 66.975 88.0357 66.8726 88.209 66.7189C88.8021 66.1311 89.5897 65.4017 90.5594 64.5521C91.1371 64.0399 91.4804 63.787 91.6105 63.8058C91.7317 63.7912 91.835 63.7099 91.9205 63.5619C92.0059 63.4139 92.1882 63.2936 92.4672 63.2009C92.725 63.0961 93.0407 62.94 93.3718 62.7083C93.7029 62.4766 93.9486 62.3929 94.1421 62.4483C94.3235 62.5248 94.5659 62.4956 94.866 62.4152C95.1662 62.3348 95.3752 62.3145 95.4809 62.3755C95.5655 62.4244 95.5467 62.5545 95.4247 62.7659L95.3547 62.8383C95.2049 63.1465 95.1064 63.5125 95.0046 63.9329C94.9028 64.3534 94.871 64.7015 94.9091 64.9773C94.9383 65.2196 94.9163 65.4043 94.843 65.5311C94.712 65.7092 94.2898 66.0011 93.5919 66.3311C92.8817 66.6822 92.1081 66.9967 91.2467 67.3169C90.3852 67.6371 89.6849 67.8247 89.0878 67.9311C88.3485 68.0399 87.8547 68.0649 87.6222 67.9306ZM87.8678 70.5814C87.6986 70.4838 87.6385 70.3926 87.6751 70.3292C87.7605 70.1812 88.0696 70.1341 88.6268 70.1457C89.3051 70.1427 90.1901 69.977 91.3028 69.661C92.3945 69.3328 93.4593 68.9045 94.4729 68.4184C95.0708 68.1152 95.3953 67.9925 95.4588 68.0291C95.5222 68.0657 95.5279 68.1536 95.4668 68.2593C95.3936 68.3862 95.3025 68.4463 95.1723 68.4276C95.139 68.4365 94.7322 68.6527 94.0188 69.0584C93.2842 69.4518 92.4317 69.8053 91.4735 70.0978C90.124 70.5309 89.0511 70.729 88.2793 70.6499C88.0825 70.649 87.9312 70.618 87.8678 70.5814ZM97.6937 65.9647C97.7303 65.9013 97.8036 65.7745 97.9102 65.6387C98.029 65.4817 98.1567 65.3581 98.2844 65.2345C98.4122 65.111 98.5244 65.063 98.5911 65.0451C98.6212 65.0907 98.5968 65.133 98.548 65.2175C98.4503 65.3867 98.1948 65.6339 97.7515 65.9135L97.6937 65.9647ZM98.5728 66.4441C98.5216 66.3863 98.537 66.3107 98.5859 66.2261L98.6925 66.0903C98.7958 66.009 98.8625 65.9911 98.9048 66.0156C98.9348 66.0611 98.9194 66.1367 98.8339 66.2848C98.7607 66.4116 98.6696 66.4718 98.5728 66.4441ZM99.1823 65.5838C99.1099 65.5138 99.0798 65.4682 99.1164 65.4048C99.1653 65.3202 99.223 65.269 99.2865 65.3056C99.3287 65.33 99.3588 65.3756 99.3466 65.3967C99.3433 65.4512 99.3311 65.4724 99.3189 65.4935C99.2701 65.5781 99.2245 65.6082 99.1823 65.5838ZM104.584 69.0691L104.881 69.0431C105.766 68.8775 106.47 68.6353 106.995 68.2622C106.814 68.1857 106.605 68.2059 106.347 68.3108C106.11 68.4278 105.877 68.4904 105.656 68.5318C105.434 68.5732 105.189 68.6569 104.873 68.813C104.703 68.9121 104.579 68.9812 104.554 69.0235C104.542 69.0447 104.563 69.0569 104.584 69.0691ZM103.512 69.8032L103.763 69.8073C103.776 69.7862 103.797 69.7984 103.797 69.7984C103.809 69.7772 103.809 69.7772 103.809 69.7772C103.83 69.7895 103.842 69.7683 103.854 69.7472C103.652 69.6584 103.543 69.6519 103.482 69.7576C103.47 69.7788 103.491 69.791 103.512 69.8032ZM106.546 67.918C106.651 67.979 106.751 67.9522 106.812 67.8465C106.816 67.792 106.786 67.7464 106.734 67.6887C106.613 67.7033 106.546 67.7212 106.522 67.7634C106.485 67.8269 106.482 67.8814 106.503 67.8936L106.546 67.918ZM102.286 69.6312C102.434 69.7166 102.522 69.711 102.547 69.6687C102.559 69.6475 102.517 69.6231 102.453 69.5865C102.281 69.5433 102.205 69.5278 102.193 69.549C102.181 69.5701 102.19 69.6035 102.211 69.6157L102.286 69.6312ZM106.032 80.6736C106.18 80.759 106.558 80.8364 107.187 80.918L107.435 80.9766C108.543 81.1087 109.652 81.044 110.737 80.8248C110.903 80.7801 111.034 80.7988 111.118 80.8477C111.224 80.9087 111.378 80.8852 111.582 80.777C111.806 80.6811 112.04 80.6186 112.27 80.6105C113.097 80.4961 113.906 80.315 114.71 80.046C115.835 79.7089 116.405 79.5024 116.466 79.3967C116.34 79.3235 115.8 79.3786 114.794 79.5589C112.503 80.012 110.848 80.2408 109.852 80.2576L108.928 80.3443C108.907 80.3321 108.886 80.3199 108.852 80.3288C108.146 80.4286 107.614 80.3748 107.284 80.2128C107.2 80.164 107.148 80.1062 107.143 80.0184C107.255 79.9704 107.564 79.9234 108.07 79.8772C108.246 79.8658 108.421 79.8545 108.618 79.8554C110.233 79.7445 111.257 79.6309 111.699 79.5481C112.305 79.4751 112.936 79.3598 113.557 79.2112L113.866 79.1641C115.264 78.8433 116.443 78.5094 117.417 78.1412C117.675 78.0364 117.963 77.9771 118.263 77.8967C118.948 77.7847 119.397 77.5928 119.673 77.3579C119.795 77.1464 119.814 77.0163 119.784 76.9708C119.754 76.9252 119.724 76.8796 119.736 76.8585C119.748 76.8374 119.861 76.7894 120.039 76.7236C120.855 76.4335 121.69 76.0132 122.498 75.493C121.814 75.4081 121.199 75.4478 120.656 75.5574C119.793 75.7353 118.938 75.9465 118.049 76.1666C114.481 77.1228 111.587 77.5944 109.355 77.6026C109.246 77.5961 109.17 77.5806 109.128 77.5562C109.001 77.483 109.023 77.2983 109.182 77.0235C109.39 76.664 110.019 76.0128 111.117 75.0395L111.904 74.3102C112.239 74.024 112.561 73.759 112.883 73.4939C113.606 72.9248 114.044 72.5573 114.142 72.3882C114.215 72.2613 114.249 72.0555 114.265 71.7831L114.349 71.2959C114.476 70.8331 114.474 70.494 114.399 70.2817L114.36 70.2028C114.288 70.1328 114.261 70.0327 114.259 69.8904C114.248 69.5179 113.978 69.1079 113.486 68.7393C112.763 68.3787 111.042 68.6254 108.356 69.4704C107.664 69.6915 107.264 69.7987 107.1 69.7889C106.992 69.7823 106.916 69.7669 106.84 69.7514C106.689 69.7204 106.547 69.7228 106.456 69.783C106.355 69.8098 106.289 69.8277 106.268 69.8154C106.268 69.8154 106.268 69.8154 106.28 69.7943C106.316 69.7309 106.581 69.517 107.097 69.1105L107.225 68.987C107.66 68.6739 107.903 68.4479 107.964 68.3422C108.074 68.1519 108.015 67.864 107.783 67.5329C107.671 67.384 107.581 67.2473 107.545 67.1139C107.268 66.2769 107.033 65.8034 106.831 65.7147C106.598 65.5804 106.149 65.7722 105.484 66.2901C104.983 66.621 104.259 67.1901 103.317 67.943C102.412 68.6324 101.032 69.7528 99.1235 71.3008C97.9593 72.2919 97.284 72.9732 97.0764 73.3327C96.9666 73.523 96.9446 73.7076 97.0283 73.9533C97.0908 74.1867 97.0777 74.4047 96.989 74.6072C96.8726 74.9064 96.8717 75.1033 96.9896 75.1432C97.0531 75.1798 97.1832 75.1985 97.3922 75.1783C97.6013 75.158 97.7103 75.1646 97.7737 75.2012C97.7948 75.2134 97.8127 75.2801 97.7972 75.3557C97.6508 75.6094 97.8434 75.8616 98.3297 76.1424C99.5319 76.1599 100.654 75.8772 101.74 75.2643L102.438 74.9343C101.022 75.3852 100.297 75.6152 100.234 75.5785C100.213 75.5663 100.225 75.5452 100.237 75.524C100.31 75.3972 101.645 74.8429 104.263 73.8734C104.588 73.7507 105.3 73.5419 106.401 73.247L108.796 72.5158C109.175 72.3963 109.418 72.3671 109.514 72.3948C109.578 72.4314 109.575 72.4859 109.526 72.5705C109.477 72.6551 109.349 72.7787 109.164 72.9535L108.899 73.1673C107.586 74.2698 106.451 75.5033 105.482 76.8889L105.266 77.215C105.058 77.5744 105.005 77.9103 105.077 78.1771C105.106 78.4195 105.081 78.6586 105.025 78.8522C104.968 79.4394 105.25 80.0251 105.905 80.6004L106.032 80.6736ZM99.4671 75.0512C99.4582 75.0179 99.4493 74.9845 99.4737 74.9423C99.5713 74.7731 99.878 74.5837 100.403 74.4074L101.064 74.1408C102.875 73.4948 104.594 72.9089 106.156 72.4011C108.901 71.5048 110.456 71.1059 110.813 71.1711C110.834 71.1833 110.81 71.2256 110.773 71.2891C110.56 71.5606 110.032 71.7915 109.189 71.9815C108.589 72.1424 106.785 72.6794 103.795 73.6594C103.458 73.8032 102.129 74.2485 99.8551 74.9652L99.6762 75.031C99.5761 75.0578 99.5094 75.0757 99.4671 75.0512ZM116.597 77.9498L116.534 77.9132C116.491 77.8888 116.495 77.8343 116.556 77.7286C116.568 77.7074 116.58 77.6863 116.58 77.6863C116.592 77.6651 116.613 77.6774 116.656 77.7018C116.719 77.7384 116.737 77.8051 116.688 77.8897C116.651 77.9531 116.618 77.962 116.597 77.9498ZM116.818 77.9084L116.764 77.9051C116.721 77.8807 116.737 77.8051 116.798 77.6994C116.835 77.6359 116.88 77.6059 116.922 77.6303C116.986 77.6669 116.983 77.7214 116.946 77.7848C116.864 77.8783 116.839 77.9206 116.818 77.9084ZM117.188 77.7556C117.188 77.7556 117.167 77.7434 117.146 77.7312C117.146 77.7312 117.137 77.6979 117.153 77.6222C117.214 77.5165 117.271 77.4653 117.335 77.5019C117.386 77.5597 117.404 77.6264 117.355 77.7109C117.343 77.7321 117.31 77.741 117.264 77.7711C117.231 77.78 117.21 77.7678 117.188 77.7556ZM117.971 77.4745C117.929 77.45 117.929 77.45 117.941 77.4289C117.953 77.4078 118.011 77.3565 118.09 77.3175L118.423 77.2282C118.623 77.1745 118.744 77.1599 118.853 77.1665C118.875 77.1787 118.896 77.1909 118.884 77.212L118.859 77.2543C118.622 77.3714 118.431 77.4583 118.256 77.4697C118.101 77.4932 117.992 77.4867 117.971 77.4745Z" fill="#725A1A"/>
</svg>
