<svg width="78" height="77" viewBox="0 0 78 77" fill="none" xmlns="http://www.w3.org/2000/svg">
<path d="M76.2174 1.28333V45.6369L74.9341 47.6572L76.2174 50.3805V60.3391L74.9341 62.1708L76.2174 63.6501V75.7167H45.4174L42.7492 74.7542L40.2841 75.7167H1.78406V1.28333H76.2174Z" fill="#3775A4"/>
<path d="M76.2167 45.6369L75.4146 47.8427L76.2167 50.3805V60.3391L75.2542 61.9689L76.2167 63.6508V70.5833L71.3496 73.4708C68.6488 74.9447 65.6212 75.7169 62.5444 75.7167H45.4167L42.6736 74.9146L40.2834 75.7167H37.7167L34.8918 71.4784C33.3868 69.2216 32.5836 66.5697 32.5834 63.8571V60.6375C32.5831 58.7386 32.1409 56.8658 31.292 55.1673L30.0167 52.6167L27.45 43.6333L23.6 38.5L17.1834 41.0667H12.6917C12.1811 41.0667 11.6915 40.8638 11.3305 40.5028C10.9695 40.1418 10.7667 39.6522 10.7667 39.1417C10.7667 38.6311 10.9695 38.1415 11.3305 37.7805C11.6915 37.4195 12.1811 37.2167 12.6917 37.2167H14.6167L22.3167 33.3667V30.8H6.91669V25.2736C6.91678 24.6661 7.13236 24.0783 7.52508 23.6148C7.9178 23.1513 8.46221 22.8421 9.06146 22.7423L14.6167 21.8167L17.1834 19.25L24.8834 16.6833L24.5657 15.7288C23.9416 13.8591 24.0013 11.8286 24.7342 9.99876L26.1667 6.41666L36.4334 23.1L40.3812 28.036C44.4678 33.1435 50.1937 36.682 56.5897 38.0524L60.5328 38.8978C63.2555 39.4809 66.0731 39.4585 68.7862 38.8321L76.2167 37.1172V45.6369Z" fill="#2A597C"/>
<path d="M39 44.9166L33.7507 39.6673L36.3408 37.1241L41.6226 42.406L39.11 44.9717L39 44.9166Z" fill="#DBDBDB"/>
<path d="M39 44.9167L45.4167 50.05L47.9833 46.2L41.5667 42.35L39 44.9167Z" fill="#EBEBEB"/>
<path d="M76.2167 45.637V50.3805C68.5744 51.7665 59.7307 51.9574 52.143 50.9468L45.4167 50.05L47.9834 46.2L48.9154 46.3428C57.5763 47.6759 67.559 47.432 76.2167 45.637Z" fill="#EBEBEB"/>
<path d="M45.7899 41.1483C43.0098 45.3187 41.1988 50.0587 40.4899 55.0205L40.2833 56.4667H44.1333L44.4702 55.6243C45.9486 51.9283 47.9636 48.4704 50.4502 45.362L50.7914 44.9356C51.1111 44.536 51.3256 44.0627 51.4155 43.5589C51.5053 43.0551 51.4677 42.5368 51.3059 42.0513L51.2484 41.8793C51.045 41.269 50.6547 40.7381 50.1328 40.362C49.6109 39.9858 48.9839 39.7833 48.3406 39.7833C47.8359 39.7833 47.3391 39.9079 46.8941 40.146C46.4492 40.3841 46.0699 40.7284 45.7899 41.1483Z" fill="#DBDBDB"/>
<path d="M76.2167 60.3391V63.6501C75.031 65.338 73.489 66.7448 71.6997 67.771C69.9103 68.7972 67.9174 69.4178 65.8618 69.5887C64.8223 69.6754 63.7849 69.7187 62.7497 69.7187C56.4684 69.7201 50.2901 68.1237 44.7959 65.0794C44.5048 64.9112 44.2914 64.6356 44.2015 64.3117C44.1115 63.9878 44.1522 63.6416 44.3149 63.3474C44.4775 63.0532 44.7491 62.8346 45.0712 62.7385C45.3933 62.6424 45.7403 62.6766 46.0375 62.8336C47.8795 63.8521 49.8103 64.701 51.8061 65.3698C52.5628 63.5779 52.8574 61.6247 52.6627 59.6894L52.2889 55.9549C51.9724 52.7536 52.7726 49.5412 54.554 46.8625L57.1816 42.9211C57.2752 42.7808 57.3954 42.6603 57.5355 42.5664C57.6756 42.4726 57.8328 42.4073 57.9982 42.3742C58.1635 42.3412 58.3338 42.341 58.4992 42.3737C58.6646 42.4064 58.8219 42.4714 58.9622 42.5649C59.1025 42.6585 59.2231 42.7787 59.3169 42.9188C59.4107 43.0589 59.476 43.2162 59.5091 43.3815C59.5422 43.5468 59.5423 43.7171 59.5096 43.8825C59.4769 44.0479 59.4119 44.2053 59.3184 44.3456L56.6891 48.287C55.237 50.471 54.5847 53.0899 54.8427 55.6999L55.2165 59.4344C55.4441 61.6981 55.1228 63.9833 54.2797 66.0965C55.6745 66.4493 57.09 66.7145 58.5179 66.8905C59.5331 64.7 59.8442 62.2486 59.4082 59.8739L58.7264 56.1843C58.1442 53.0202 58.6747 49.7521 60.2279 46.9347L62.5203 42.7879C62.6885 42.4969 62.9642 42.2835 63.288 42.1935C63.6119 42.1036 63.9582 42.1443 64.2523 42.3069C64.5465 42.4696 64.7651 42.7411 64.8612 43.0633C64.9573 43.3854 64.9231 43.7323 64.7661 44.0295L62.4754 48.1763C61.2087 50.4733 60.7757 53.1377 61.2498 55.7175L61.9332 59.4071C62.4073 61.9945 62.1569 64.6627 61.2097 67.1167C62.6896 67.1824 64.1722 67.1534 65.6484 67.0301C65.8682 67.0124 66.0863 66.9868 66.3045 66.9563C67.1121 64.6089 67.1509 62.0652 66.4152 59.6942L65.2971 56.1105C64.3414 53.0387 64.4786 49.7308 65.6853 46.7486L67.4659 42.358C67.594 42.0425 67.8421 41.7908 68.1558 41.6583C68.4694 41.5258 68.8228 41.5233 69.1383 41.6514C69.4538 41.7794 69.7054 42.0276 69.838 42.3412C69.9705 42.6548 69.973 43.0082 69.8449 43.3237L68.0643 47.7127C67.0809 50.1446 66.9687 52.8417 67.7467 55.3469L68.8648 58.929C69.5921 61.2695 69.7038 63.758 69.1888 66.1542C69.9655 65.8264 70.7036 65.4137 71.3897 64.9238C71.8867 64.5682 72.354 64.1728 72.787 63.7415C73.3731 61.6643 73.3414 59.4613 72.6955 57.4019L71.6111 53.9337C70.6811 50.9472 70.8201 47.73 72.0041 44.8348L73.2201 41.8639C73.2839 41.7079 73.3778 41.566 73.4965 41.4463C73.6152 41.3266 73.7563 41.2315 73.9117 41.1663C74.0671 41.1011 74.2339 41.0672 74.4024 41.0665C74.571 41.0658 74.738 41.0983 74.894 41.1621C75.05 41.2259 75.1919 41.3199 75.3116 41.4385C75.4313 41.5572 75.5265 41.6983 75.5916 41.8537C75.6568 42.0092 75.6907 42.1759 75.6914 42.3445C75.6922 42.513 75.6597 42.68 75.5959 42.836L74.3799 45.807C73.421 48.1485 73.3082 50.7511 74.0607 53.1669L75.1451 56.6367C75.52 57.8356 75.7283 59.0803 75.7643 60.3359C75.914 60.3097 76.0673 60.3108 76.2167 60.3391Z" fill="#DBDBDB"/>
<path d="M35.15 1.28333H37.7167V7.69999H35.15V1.28333Z" fill="#2F638B"/>
<path d="M17.1833 1.28333H19.75V8.98332H17.1833V1.28333Z" fill="#2F638B"/>
<path d="M42.85 1.28333H45.4166V5.13332H42.85V1.28333Z" fill="#2F638B"/>
<path d="M50.55 1.28333H53.1167V7.69999H50.55V1.28333Z" fill="#2F638B"/>
<path d="M58.25 1.28333H60.8167V5.13332H58.25V1.28333Z" fill="#2F638B"/>
<path d="M67.2333 1.28333H69.8V7.69999H67.2333V1.28333Z" fill="#2F638B"/>
<path d="M28.7333 71.8667H31.3V75.5954H28.7333V71.8667Z" fill="#2F638B"/>
<path d="M21.0333 69.3H23.6V75.5954H21.0333V69.3Z" fill="#2F638B"/>
<path d="M13.3333 71.8667H15.9V75.5954H13.3333V71.8667Z" fill="#2F638B"/>
<path d="M1.90466 64.1667H5.63339V66.7333H1.90466V64.1667Z" fill="#2F638B"/>
<path d="M1.90466 56.4667H8.20005V59.0333H1.90466V56.4667Z" fill="#2F638B"/>
<path d="M1.90466 48.7667H5.63339V51.3333H1.90466V48.7667Z" fill="#2F638B"/>
<path d="M1.90466 8.98334H5.63339V11.55H1.90466V8.98334Z" fill="#2F638B"/>
<path d="M9.48334 1.28333H12.05V5.13332H9.48334V1.28333Z" fill="#2F638B"/>
<path d="M51.8333 15.4H54.4V17.9667H51.8333V15.4Z" fill="#2F638B"/>
<path d="M56.9667 15.4H67.2333V17.9667H56.9667V15.4Z" fill="#2F638B"/>
<path d="M51.8333 20.5333H62.1V23.1H51.8333V20.5333Z" fill="#2F638B"/>
<path d="M64.6667 20.5333H67.2334V23.1H64.6667V20.5333Z" fill="#2F638B"/>
<path d="M40.2833 56.4667L37.7167 59.0333L40.2833 62.8833V75.7167H45.4167V62.8833L46.7 59.0333L44.1333 56.4667H40.2833Z" fill="#EBEBEB"/>
<path d="M36.4334 37.2168L33.8667 39.7834L28.7334 35.9334L26.1667 30.8001L30.1338 27.7682L31.823 30.3012L36.4334 37.2168Z" fill="#EBEBEB"/>
<path d="M31.823 30.3012C31.4567 30.8495 30.9609 31.2989 30.3795 31.6098C29.798 31.9207 29.1489 32.0834 28.4895 32.0834H26.8084L26.1667 30.8001L30.1338 27.7682L31.823 30.3012Z" fill="#DADADA"/>
<path d="M28.4096 21.8167H23.1597C22.4855 21.8167 21.818 21.9495 21.1952 22.2074C20.5723 22.4654 20.0064 22.8436 19.5298 23.3203L17.1833 25.6667L11.5056 26.4777C10.5881 26.6088 9.74873 27.0664 9.14151 27.7665C8.5343 28.4667 8.2 29.3623 8.20001 30.2891V30.8H28.1688C29.0632 30.8 29.9319 30.501 30.6368 29.9506C31.3418 29.4002 31.8425 28.63 32.0594 27.7624L32.3001 26.7999C32.4851 26.06 32.4553 25.2827 32.2141 24.5592C31.948 23.7606 31.4373 23.066 30.7545 22.5738C30.0717 22.0816 29.2513 21.8167 28.4096 21.8167Z" fill="#EBEBEB"/>
<path d="M12.6917 37.2167H14.6167L22.3167 33.3667V32.725C22.3167 31.8741 22.6547 31.058 23.2564 30.4564C23.858 29.8547 24.6741 29.5167 25.525 29.5167C25.9463 29.5167 26.3635 29.5996 26.7528 29.7609C27.142 29.9221 27.4957 30.1584 27.7936 30.4564C28.0916 30.7543 28.3279 31.108 28.4891 31.4972C28.6503 31.8865 28.7333 32.3037 28.7333 32.725V36.4146L17.1833 41.0667H12.6917C12.1811 41.0667 11.6915 40.8639 11.3305 40.5028C10.9695 40.1418 10.7667 39.6522 10.7667 39.1417C10.7667 38.6311 10.9695 38.1415 11.3305 37.7805C11.6915 37.4195 12.1811 37.2167 12.6917 37.2167Z" fill="#DBDBDB"/>
<path d="M76.2167 0H1.78333C1.44297 0 1.11655 0.135208 0.87588 0.37588C0.635208 0.616551 0.5 0.942972 0.5 1.28333V75.7167C0.5 76.057 0.635208 76.3834 0.87588 76.6241C1.11655 76.8648 1.44297 77 1.78333 77H76.2167C76.557 77 76.8834 76.8648 77.1241 76.6241C77.3648 76.3834 77.5 76.057 77.5 75.7167V1.28333C77.5 0.942972 77.3648 0.616551 77.1241 0.37588C76.8834 0.135208 76.557 0 76.2167 0ZM39.0735 55.8616L36.8092 58.1259C36.5994 58.3356 36.4687 58.6116 36.4395 58.9069C36.4102 59.2021 36.4842 59.4984 36.6488 59.7453L39 63.2719V74.4333H38.4034L35.9588 70.7664C34.5925 68.7211 33.8643 66.3161 33.8667 63.8564V60.6375C33.8642 58.5398 33.3758 56.4713 32.4399 54.594L31.2179 52.1497L28.6833 43.2811C28.6403 43.1305 28.57 42.9892 28.476 42.864L25.432 38.8054L28.5654 37.4129L33.023 40.7561L38.0922 45.8253L38.0946 45.8274C38.1039 45.8367 38.1143 45.845 38.124 45.854C38.1472 45.8758 38.1705 45.8975 38.195 45.9172L38.1979 45.9199L40.8963 48.0769C40.1129 50.2691 39.5512 52.5343 39.2196 54.8386L39.0735 55.8616ZM29.9701 32.0833H30.6832L34.7137 37.1214L33.7464 38.0889L30.0167 35.2917V32.725C30.0165 32.5103 30.0009 32.2958 29.9701 32.0833ZM31.0544 26.4878L30.8138 27.4503C30.686 27.9648 30.4107 28.4308 30.0218 28.7911C29.6329 29.1513 29.1472 29.3901 28.6244 29.4782C27.7834 28.6725 26.6617 28.226 25.4971 28.2331C24.3325 28.2402 23.2164 28.7005 22.3853 29.5163H9.60397C9.75121 29.0563 10.0245 28.6467 10.3929 28.3342C10.7612 28.0217 11.2099 27.8187 11.6878 27.7484L17.3649 26.9368C17.6398 26.8975 17.8945 26.7702 18.0908 26.5738L20.4377 24.2269C21.1611 23.5078 22.1388 23.1029 23.1589 23.1H28.4093C28.8238 23.0996 29.2329 23.1938 29.6055 23.3754C29.978 23.5569 30.3043 23.8211 30.5594 24.1478C30.8144 24.4745 30.9916 24.8551 31.0774 25.2606C31.1632 25.6661 31.1553 26.0858 31.0544 26.4878ZM22.8906 34.5144C23.1038 34.4079 23.283 34.244 23.4083 34.0413C23.5336 33.8386 23.6 33.605 23.6 33.3667V32.725C23.6 32.2145 23.8028 31.7248 24.1638 31.3638C24.5248 31.0028 25.0145 30.8 25.525 30.8C26.0355 30.8 26.5252 31.0028 26.8862 31.3638C27.2472 31.7248 27.45 32.2145 27.45 32.725V35.0992L16.9106 39.7833H12.6917C12.5215 39.7833 12.3583 39.7157 12.2379 39.5954C12.1176 39.4751 12.05 39.3118 12.05 39.1417C12.05 38.9715 12.1176 38.8083 12.2379 38.6879C12.3583 38.5676 12.5215 38.5 12.6917 38.5H14.6167C14.8159 38.5 15.0124 38.4536 15.1906 38.3644L22.8906 34.5144ZM35.6816 39.7833L36.4333 39.0316L39.7517 42.35L39 43.1017L35.6816 39.7833ZM44.1997 62.4775C44.1559 62.6083 44.1335 62.7454 44.1333 62.8833V74.4333H41.5667V62.8833C41.5667 62.6299 41.4916 62.3822 41.3511 62.1714L39.368 59.197L40.8148 57.75H43.6019L45.2317 59.38L44.1997 62.4775ZM43.2793 55.1476L43.2648 55.1833H41.7635C42.4535 50.4197 44.1937 45.8689 46.8582 41.8602C47.0432 41.5827 47.3024 41.3626 47.6064 41.2251C47.9103 41.0876 48.2467 41.0382 48.5774 41.0824C48.908 41.1267 49.2196 41.2628 49.4767 41.4755C49.7338 41.6881 49.926 41.9686 50.0315 42.285L50.0888 42.4572C50.1835 42.7393 50.2058 43.0407 50.1536 43.3337C50.1013 43.6267 49.9763 43.9018 49.7899 44.1338L49.4486 44.5602C46.8827 47.7668 44.8037 51.3343 43.2788 55.1476H43.2793ZM40.9212 44.8103L41.7654 43.966L42.457 44.3812C42.2613 44.7795 42.072 45.1806 41.891 45.5861L40.9212 44.8103ZM50.1964 47.8229C51.3805 47.9808 52.5737 48.1094 53.766 48.21C53.5058 48.7162 53.2769 49.2378 53.0806 49.772C52.8269 49.7411 52.5709 49.7086 52.3127 49.6746L49.2142 49.2611C49.531 48.7748 49.8586 48.2954 50.1971 47.8229H50.1964ZM45.6616 56.1004C46.2714 54.5769 46.9761 53.0931 47.7716 51.6577L51.9745 52.2192C52.1219 52.2387 52.2685 52.2577 52.4145 52.2759C52.2092 53.4914 52.1668 54.7289 52.2884 55.9556L52.6619 59.6904C52.8565 61.6251 52.5621 63.5778 51.8057 65.3691C50.0484 64.7801 48.341 64.0513 46.7 63.1896V63.0919L47.9174 59.4395C47.9928 59.2134 48.0037 58.9708 47.949 58.7388C47.8942 58.5069 47.776 58.2947 47.6075 58.1262L45.6392 56.1579L45.6616 56.1004ZM74.9333 74.4333H72.2433L74.9333 72.837V74.4333ZM74.9333 69.8525L70.7144 72.355C68.2064 73.7166 65.3984 74.4309 62.5447 74.4333H46.7V66.061C51.7075 68.4698 57.1931 69.7199 62.7498 69.7185C63.7844 69.7185 64.8218 69.6754 65.8619 69.5891C69.3216 69.3032 72.553 67.7469 74.9333 65.2201V69.8525ZM55.2165 59.4344L54.8431 55.6997C54.7393 54.6497 54.7829 53.5903 54.9725 52.5523C56.1577 52.6611 57.3452 52.7437 58.5258 52.7957C58.4536 53.9288 58.5209 55.0664 58.7261 56.183L59.4085 59.8739C59.8444 62.2484 59.5332 64.6997 58.5177 66.8899C57.09 66.714 55.6748 66.4488 54.2803 66.0957C55.1225 63.9826 55.4436 61.6978 55.2165 59.4344ZM55.7329 50.0444C55.9831 49.4699 56.2807 48.9172 56.6226 48.3921C57.5767 48.4354 58.5368 48.4603 59.5027 48.4667C59.2701 49.045 59.0767 49.6383 58.9238 50.2425C57.8639 50.1998 56.7982 50.1349 55.7329 50.0449V50.0444ZM61.7428 52.8677C62.7258 52.8677 63.7125 52.8469 64.6967 52.8077C64.7623 53.9288 64.9639 55.0378 65.2971 56.1102L66.4147 59.6933C67.1511 62.0641 67.1124 64.6079 66.3042 66.9552C66.0867 66.986 65.8683 67.012 65.6489 67.0303C64.1723 67.1534 62.6894 67.1822 61.2092 67.1164C62.1575 64.6629 62.4078 61.9947 61.9324 59.4076L61.2498 55.717C61.0766 54.7766 61.0234 53.8179 61.0913 52.864C61.3085 52.866 61.5254 52.868 61.7428 52.868V52.8677ZM61.5732 50.2998C61.7728 49.6554 62.0296 49.0303 62.3406 48.4317C63.2779 48.4022 64.2201 48.3541 65.1672 48.2873C64.9913 48.926 64.8613 49.5765 64.7782 50.2337C63.7104 50.2796 62.6396 50.3027 61.5732 50.3001V50.2998ZM71.2054 52.2621C71.3046 52.8274 71.4402 53.3856 71.6113 53.9334L72.6957 57.4017C73.3408 59.4612 73.3727 61.6638 72.7876 63.7411C71.7544 64.7696 70.5324 65.5891 69.1887 66.1545C69.7043 63.7584 69.5928 61.2697 68.8649 58.9292L67.7475 55.3462C67.4766 54.4746 67.3124 53.5734 67.2584 52.6624C68.5741 52.5648 69.8942 52.4311 71.2054 52.2625V52.2621ZM67.3946 50.0782C67.5126 49.3836 67.6952 48.7016 67.94 48.0409C69.029 47.9233 70.1168 47.7815 71.2035 47.6157C71.0845 48.3034 71.0191 48.9993 71.0076 49.6971C69.8067 49.8541 68.5996 49.9834 67.3946 50.0786V50.0782ZM74.9341 55.9577L74.0616 53.1674C73.9314 52.7486 73.8268 52.3224 73.7483 51.8909C74.1417 51.8268 74.5369 51.7586 74.9341 51.6866V55.9577ZM74.9341 49.0785C74.4837 49.1629 74.0352 49.2422 73.5887 49.3166C73.6294 48.5841 73.7439 47.8576 73.9304 47.1481C74.2665 47.0839 74.6011 47.0176 74.9341 46.9493V49.0785ZM74.9341 41.1804C74.9208 41.1746 74.9085 41.1676 74.8948 41.1621C74.5799 41.0332 74.2266 41.0346 73.9127 41.1662C73.5988 41.2977 73.35 41.5485 73.221 41.8635L72.0048 44.8339C71.9972 44.8522 71.991 44.8708 71.9836 44.8891C71.0055 45.0559 70.0216 45.2024 69.0319 45.3285L69.8454 43.3232C69.9095 43.1669 69.9421 42.9995 69.9414 42.8305C69.9406 42.6616 69.9065 42.4945 69.841 42.3387C69.7755 42.183 69.6798 42.0417 69.5596 41.923C69.4394 41.8043 69.2969 41.7105 69.1403 41.6471C68.9838 41.5836 68.8162 41.5516 68.6473 41.553C68.4783 41.5544 68.3113 41.5892 68.1558 41.6553C68.0004 41.7214 67.8595 41.8176 67.7412 41.9383C67.623 42.059 67.5298 42.2018 67.4669 42.3587L66.1359 45.6385C65.3527 45.7061 64.5696 45.7609 63.7866 45.8028L64.7664 44.03C64.9228 43.7329 64.9565 43.3863 64.8603 43.0646C64.764 42.7428 64.5455 42.4717 64.2516 42.3092C63.9578 42.1468 63.6119 42.106 63.2883 42.1956C62.9647 42.2852 62.6891 42.4981 62.5206 42.7886L60.8022 45.8979C59.965 45.9073 59.1287 45.9023 58.2935 45.8829L59.3184 44.3456C59.505 44.0624 59.572 43.7168 59.5046 43.3844C59.4372 43.052 59.241 42.7598 58.9588 42.5716C58.6766 42.3834 58.3314 42.3146 57.9986 42.3803C57.6658 42.4459 57.3726 42.6405 57.1829 42.9217L55.2983 45.7478C54.1998 45.6756 53.1005 45.5779 52.0003 45.4545C52.3751 44.9029 52.6173 44.2721 52.7081 43.6114C52.7989 42.9507 52.7358 42.2779 52.5238 41.6456L52.4665 41.4735C52.209 40.7012 51.74 40.0166 51.1127 39.4978C50.4854 38.9789 49.725 38.6465 48.9181 38.5385C48.1112 38.4304 47.2902 38.551 46.5485 38.8866C45.8067 39.2222 45.1741 39.7592 44.7225 40.4365C44.3563 40.9858 44.0061 41.5459 43.672 42.1168L42.3628 41.3307L37.391 36.3589L32.3427 30.0486C32.7978 29.4646 33.1252 28.7915 33.3038 28.0729L33.5444 27.1125C33.74 26.332 33.755 25.5171 33.5884 24.7299C33.4218 23.9427 33.0778 23.2038 32.5827 22.5695C32.0876 21.9352 31.4544 21.4221 30.7312 21.0693C30.0081 20.7164 29.214 20.5331 28.4093 20.5333H23.1589C22.3161 20.531 21.4812 20.6959 20.7026 21.0185C19.924 21.341 19.2171 21.8147 18.6228 22.4123L16.5784 24.4568L11.3246 25.2079C10.1135 25.3832 9.00512 25.9862 8.2 26.9078V25.2743C8.19923 24.9703 8.30673 24.676 8.50323 24.444C8.69973 24.2121 8.9724 24.0576 9.27238 24.0084L14.8276 23.0827C15.0915 23.0386 15.335 22.9133 15.5241 22.7241L17.8765 20.3716L25.2892 17.9012C25.6121 17.7936 25.8789 17.5621 26.0311 17.2577C26.1833 16.9532 26.2084 16.6008 26.1007 16.278L25.7826 15.3235C25.2562 13.7416 25.3067 12.0245 25.9251 10.4763L26.4107 9.26214L35.3404 23.7728C35.368 23.8177 35.3983 23.8609 35.4312 23.9021L39.3799 28.8378C43.6551 34.1713 49.6375 37.8688 56.3199 39.3075L60.2631 40.1526C63.1703 40.7712 66.1775 40.7476 69.0746 40.0833L74.9333 38.7312L74.9341 41.1804ZM74.9341 36.0968L68.4987 37.5818C65.9681 38.1619 63.3414 38.1825 60.8021 37.6423L56.859 36.7973C50.755 35.4831 45.2902 32.1057 41.3849 27.2338L37.4857 22.3598L27.2596 5.7442C27.135 5.54167 26.9565 5.37775 26.7442 5.27071C26.5319 5.16368 26.294 5.11775 26.057 5.13805C25.8201 5.15835 25.5935 5.24407 25.4024 5.38566C25.2114 5.52725 25.0634 5.71914 24.9751 5.93991L23.5421 9.52265C22.7337 11.5462 22.6356 13.784 23.2639 15.8705L16.7775 18.0324C16.5885 18.0956 16.4168 18.2017 16.2759 18.3425L14 20.6184L8.85065 21.4766C7.95059 21.6241 7.13247 22.0873 6.54291 22.7832C5.95335 23.4791 5.6309 24.3622 5.63333 25.2743V30.8C5.63333 31.1404 5.76854 31.4668 6.00921 31.7075C6.24988 31.9481 6.57631 32.0833 6.91667 32.0833H21.0333V32.5736L14.3136 35.9333H12.6917C11.8408 35.9333 11.0247 36.2714 10.423 36.873C9.82135 37.4747 9.48333 38.2908 9.48333 39.1417C9.48333 39.9926 9.82135 40.8086 10.423 41.4103C11.0247 42.012 11.8408 42.35 12.6917 42.35H17.1833C17.2262 42.3499 17.269 42.3477 17.3117 42.3433C17.3253 42.3418 17.3389 42.3392 17.3526 42.3373C17.3813 42.3335 17.41 42.3296 17.4386 42.3237C17.4546 42.3205 17.4706 42.316 17.4867 42.3121C17.5123 42.3059 17.5379 42.2996 17.563 42.2918C17.5791 42.2865 17.5964 42.2804 17.6131 42.2744C17.6298 42.2685 17.6452 42.2643 17.6599 42.2584L23.1635 40.057L26.281 44.2139L28.7835 52.9694C28.8054 53.0457 28.8342 53.1198 28.8697 53.1908L30.1452 55.7414C30.903 57.2624 31.2983 58.9382 31.3 60.6375V63.8567C31.2972 66.8232 32.1754 69.7237 33.8232 72.1904L35.3188 74.4333H31.3V71.8667H28.7333V74.4333H23.6V69.3H21.0333V74.4333H15.9V71.8667H13.3333V74.4333H3.06667V66.7333H5.63333V64.1667H3.06667V59.0333H8.2V56.4667H3.06667V51.3333H5.63333V48.7667H3.06667V11.55H5.63333V8.98333H3.06667V2.56667H9.48333V5.13333H12.05V2.56667H17.1833V8.98333H19.75V2.56667H35.15V7.7H37.7167V2.56667H42.85V5.13333H45.4167V2.56667H50.55V7.7H53.1167V2.56667H58.25V5.13333H60.8167V2.56667H67.2333V7.7H69.8V2.56667H74.9333L74.9341 36.0968Z" fill="black"/>
<path d="M51.8333 15.4H54.4V17.9667H51.8333V15.4Z" fill="black"/>
<path d="M56.9667 15.4H67.2333V17.9667H56.9667V15.4Z" fill="black"/>
<path d="M51.8333 20.5333H62.1V23.1H51.8333V20.5333Z" fill="black"/>
<path d="M64.6667 20.5333H67.2334V23.1H64.6667V20.5333Z" fill="black"/>
</svg>
